G04 #@! TF.GenerationSoftware,KiCad,Pcbnew,5.1.4+dfsg1-1~bpo10+1*
G04 #@! TF.CreationDate,2021-01-14T11:53:16-08:00*
G04 #@! TF.ProjectId,KarisGiftPCB,4b617269-7347-4696-9674-5043422e6b69,rev?*
G04 #@! TF.SameCoordinates,Original*
G04 #@! TF.FileFunction,Legend,Bot*
G04 #@! TF.FilePolarity,Positive*
%FSLAX46Y46*%
G04 Gerber Fmt 4.6, Leading zero omitted, Abs format (unit mm)*
G04 Created by KiCad (PCBNEW 5.1.4+dfsg1-1~bpo10+1) date 2021-01-14 11:53:16*
%MOMM*%
%LPD*%
G04 APERTURE LIST*
%ADD10C,0.150000*%
G04 APERTURE END LIST*
D10*
X116274761Y-82177380D02*
X116274761Y-81177380D01*
X116274761Y-81653571D02*
X115703333Y-81653571D01*
X115703333Y-82177380D02*
X115703333Y-81177380D01*
X114846190Y-82129761D02*
X114941428Y-82177380D01*
X115131904Y-82177380D01*
X115227142Y-82129761D01*
X115274761Y-82034523D01*
X115274761Y-81653571D01*
X115227142Y-81558333D01*
X115131904Y-81510714D01*
X114941428Y-81510714D01*
X114846190Y-81558333D01*
X114798571Y-81653571D01*
X114798571Y-81748809D01*
X115274761Y-81844047D01*
X114227142Y-82177380D02*
X114322380Y-82129761D01*
X114370000Y-82034523D01*
X114370000Y-81177380D01*
X113846190Y-81510714D02*
X113846190Y-82510714D01*
X113846190Y-81558333D02*
X113750952Y-81510714D01*
X113560476Y-81510714D01*
X113465238Y-81558333D01*
X113417619Y-81605952D01*
X113370000Y-81701190D01*
X113370000Y-81986904D01*
X113417619Y-82082142D01*
X113465238Y-82129761D01*
X113560476Y-82177380D01*
X113750952Y-82177380D01*
X113846190Y-82129761D01*
X112560476Y-82129761D02*
X112655714Y-82177380D01*
X112846190Y-82177380D01*
X112941428Y-82129761D01*
X112989047Y-82034523D01*
X112989047Y-81653571D01*
X112941428Y-81558333D01*
X112846190Y-81510714D01*
X112655714Y-81510714D01*
X112560476Y-81558333D01*
X112512857Y-81653571D01*
X112512857Y-81748809D01*
X112989047Y-81844047D01*
X112084285Y-82177380D02*
X112084285Y-81510714D01*
X112084285Y-81701190D02*
X112036666Y-81605952D01*
X111989047Y-81558333D01*
X111893809Y-81510714D01*
X111798571Y-81510714D01*
X111512857Y-82129761D02*
X111417619Y-82177380D01*
X111227142Y-82177380D01*
X111131904Y-82129761D01*
X111084285Y-82034523D01*
X111084285Y-81986904D01*
X111131904Y-81891666D01*
X111227142Y-81844047D01*
X111370000Y-81844047D01*
X111465238Y-81796428D01*
X111512857Y-81701190D01*
X111512857Y-81653571D01*
X111465238Y-81558333D01*
X111370000Y-81510714D01*
X111227142Y-81510714D01*
X111131904Y-81558333D01*
X110655714Y-82082142D02*
X110608095Y-82129761D01*
X110655714Y-82177380D01*
X110703333Y-82129761D01*
X110655714Y-82082142D01*
X110655714Y-82177380D01*
X110655714Y-81558333D02*
X110608095Y-81605952D01*
X110655714Y-81653571D01*
X110703333Y-81605952D01*
X110655714Y-81558333D01*
X110655714Y-81653571D01*
X109417619Y-82177380D02*
X109417619Y-81177380D01*
X109084285Y-81891666D01*
X108750952Y-81177380D01*
X108750952Y-82177380D01*
X108274761Y-82177380D02*
X108274761Y-81510714D01*
X108274761Y-81177380D02*
X108322380Y-81225000D01*
X108274761Y-81272619D01*
X108227142Y-81225000D01*
X108274761Y-81177380D01*
X108274761Y-81272619D01*
X107798571Y-82177380D02*
X107798571Y-81177380D01*
X107703333Y-81796428D02*
X107417619Y-82177380D01*
X107417619Y-81510714D02*
X107798571Y-81891666D01*
X106560476Y-82177380D02*
X106560476Y-81653571D01*
X106608095Y-81558333D01*
X106703333Y-81510714D01*
X106893809Y-81510714D01*
X106989047Y-81558333D01*
X106560476Y-82129761D02*
X106655714Y-82177380D01*
X106893809Y-82177380D01*
X106989047Y-82129761D01*
X107036666Y-82034523D01*
X107036666Y-81939285D01*
X106989047Y-81844047D01*
X106893809Y-81796428D01*
X106655714Y-81796428D01*
X106560476Y-81748809D01*
X106179523Y-81510714D02*
X105941428Y-82177380D01*
X105703333Y-81510714D02*
X105941428Y-82177380D01*
X106036666Y-82415476D01*
X106084285Y-82463095D01*
X106179523Y-82510714D01*
X105179523Y-82177380D02*
X105274761Y-82129761D01*
X105322380Y-82034523D01*
X105322380Y-81177380D01*
X104370000Y-82177380D02*
X104370000Y-81653571D01*
X104417619Y-81558333D01*
X104512857Y-81510714D01*
X104703333Y-81510714D01*
X104798571Y-81558333D01*
X104370000Y-82129761D02*
X104465238Y-82177380D01*
X104703333Y-82177380D01*
X104798571Y-82129761D01*
X104846190Y-82034523D01*
X104846190Y-81939285D01*
X104798571Y-81844047D01*
X104703333Y-81796428D01*
X104465238Y-81796428D01*
X104370000Y-81748809D01*
X103846190Y-82129761D02*
X103846190Y-82177380D01*
X103893809Y-82272619D01*
X103941428Y-82320238D01*
X102179523Y-82177380D02*
X102655714Y-82177380D01*
X102655714Y-81177380D01*
X101846190Y-82177380D02*
X101846190Y-81510714D01*
X101846190Y-81177380D02*
X101893809Y-81225000D01*
X101846190Y-81272619D01*
X101798571Y-81225000D01*
X101846190Y-81177380D01*
X101846190Y-81272619D01*
X101227142Y-82177380D02*
X101322380Y-82129761D01*
X101370000Y-82034523D01*
X101370000Y-81177380D01*
X100941428Y-81510714D02*
X100703333Y-82177380D01*
X100465238Y-81510714D02*
X100703333Y-82177380D01*
X100798571Y-82415476D01*
X100846190Y-82463095D01*
X100941428Y-82510714D01*
X100036666Y-82129761D02*
X100036666Y-82177380D01*
X100084285Y-82272619D01*
X100131904Y-82320238D01*
X98846190Y-82177380D02*
X98846190Y-81177380D01*
X98512857Y-81891666D01*
X98179523Y-81177380D01*
X98179523Y-82177380D01*
X97274761Y-82177380D02*
X97274761Y-81653571D01*
X97322380Y-81558333D01*
X97417619Y-81510714D01*
X97608095Y-81510714D01*
X97703333Y-81558333D01*
X97274761Y-82129761D02*
X97370000Y-82177380D01*
X97608095Y-82177380D01*
X97703333Y-82129761D01*
X97750952Y-82034523D01*
X97750952Y-81939285D01*
X97703333Y-81844047D01*
X97608095Y-81796428D01*
X97370000Y-81796428D01*
X97274761Y-81748809D01*
X96655714Y-82177380D02*
X96750952Y-82129761D01*
X96798571Y-82034523D01*
X96798571Y-81177380D01*
X95846190Y-82177380D02*
X95846190Y-81653571D01*
X95893809Y-81558333D01*
X95989047Y-81510714D01*
X96179523Y-81510714D01*
X96274761Y-81558333D01*
X95846190Y-82129761D02*
X95941428Y-82177380D01*
X96179523Y-82177380D01*
X96274761Y-82129761D01*
X96322380Y-82034523D01*
X96322380Y-81939285D01*
X96274761Y-81844047D01*
X96179523Y-81796428D01*
X95941428Y-81796428D01*
X95846190Y-81748809D01*
X94941428Y-82129761D02*
X95036666Y-82177380D01*
X95227142Y-82177380D01*
X95322380Y-82129761D01*
X95370000Y-82082142D01*
X95417619Y-81986904D01*
X95417619Y-81701190D01*
X95370000Y-81605952D01*
X95322380Y-81558333D01*
X95227142Y-81510714D01*
X95036666Y-81510714D01*
X94941428Y-81558333D01*
X94512857Y-82177380D02*
X94512857Y-81177380D01*
X94084285Y-82177380D02*
X94084285Y-81653571D01*
X94131904Y-81558333D01*
X94227142Y-81510714D01*
X94370000Y-81510714D01*
X94465238Y-81558333D01*
X94512857Y-81605952D01*
X93608095Y-82177380D02*
X93608095Y-81510714D01*
X93608095Y-81177380D02*
X93655714Y-81225000D01*
X93608095Y-81272619D01*
X93560476Y-81225000D01*
X93608095Y-81177380D01*
X93608095Y-81272619D01*
X93084285Y-82129761D02*
X93084285Y-82177380D01*
X93131904Y-82272619D01*
X93179523Y-82320238D01*
X91417619Y-82177380D02*
X91893809Y-82177380D01*
X91893809Y-81177380D01*
X90703333Y-82129761D02*
X90798571Y-82177380D01*
X90989047Y-82177380D01*
X91084285Y-82129761D01*
X91131904Y-82034523D01*
X91131904Y-81653571D01*
X91084285Y-81558333D01*
X90989047Y-81510714D01*
X90798571Y-81510714D01*
X90703333Y-81558333D01*
X90655714Y-81653571D01*
X90655714Y-81748809D01*
X91131904Y-81844047D01*
X90322380Y-81510714D02*
X90084285Y-82177380D01*
X89846190Y-81510714D01*
X89465238Y-82177380D02*
X89465238Y-81510714D01*
X89465238Y-81177380D02*
X89512857Y-81225000D01*
X89465238Y-81272619D01*
X89417619Y-81225000D01*
X89465238Y-81177380D01*
X89465238Y-81272619D01*
X112822380Y-83827380D02*
X113298571Y-83827380D01*
X113298571Y-82827380D01*
X112108095Y-83779761D02*
X112203333Y-83827380D01*
X112393809Y-83827380D01*
X112489047Y-83779761D01*
X112536666Y-83684523D01*
X112536666Y-83303571D01*
X112489047Y-83208333D01*
X112393809Y-83160714D01*
X112203333Y-83160714D01*
X112108095Y-83208333D01*
X112060476Y-83303571D01*
X112060476Y-83398809D01*
X112536666Y-83494047D01*
X111631904Y-83827380D02*
X111631904Y-83160714D01*
X111631904Y-82827380D02*
X111679523Y-82875000D01*
X111631904Y-82922619D01*
X111584285Y-82875000D01*
X111631904Y-82827380D01*
X111631904Y-82922619D01*
X110727142Y-83160714D02*
X110727142Y-83970238D01*
X110774761Y-84065476D01*
X110822380Y-84113095D01*
X110917619Y-84160714D01*
X111060476Y-84160714D01*
X111155714Y-84113095D01*
X110727142Y-83779761D02*
X110822380Y-83827380D01*
X111012857Y-83827380D01*
X111108095Y-83779761D01*
X111155714Y-83732142D01*
X111203333Y-83636904D01*
X111203333Y-83351190D01*
X111155714Y-83255952D01*
X111108095Y-83208333D01*
X111012857Y-83160714D01*
X110822380Y-83160714D01*
X110727142Y-83208333D01*
X110250952Y-83827380D02*
X110250952Y-82827380D01*
X109822380Y-83827380D02*
X109822380Y-83303571D01*
X109870000Y-83208333D01*
X109965238Y-83160714D01*
X110108095Y-83160714D01*
X110203333Y-83208333D01*
X110250952Y-83255952D01*
X109489047Y-83160714D02*
X109108095Y-83160714D01*
X109346190Y-82827380D02*
X109346190Y-83684523D01*
X109298571Y-83779761D01*
X109203333Y-83827380D01*
X109108095Y-83827380D01*
X108631904Y-83827380D02*
X108727142Y-83779761D01*
X108774761Y-83732142D01*
X108822380Y-83636904D01*
X108822380Y-83351190D01*
X108774761Y-83255952D01*
X108727142Y-83208333D01*
X108631904Y-83160714D01*
X108489047Y-83160714D01*
X108393809Y-83208333D01*
X108346190Y-83255952D01*
X108298571Y-83351190D01*
X108298571Y-83636904D01*
X108346190Y-83732142D01*
X108393809Y-83779761D01*
X108489047Y-83827380D01*
X108631904Y-83827380D01*
X107870000Y-83160714D02*
X107870000Y-83827380D01*
X107870000Y-83255952D02*
X107822380Y-83208333D01*
X107727142Y-83160714D01*
X107584285Y-83160714D01*
X107489047Y-83208333D01*
X107441428Y-83303571D01*
X107441428Y-83827380D01*
X106917619Y-83779761D02*
X106917619Y-83827380D01*
X106965238Y-83922619D01*
X107012857Y-83970238D01*
X105727142Y-83827380D02*
X105727142Y-82827380D01*
X105298571Y-83779761D02*
X105203333Y-83827380D01*
X105012857Y-83827380D01*
X104917619Y-83779761D01*
X104870000Y-83684523D01*
X104870000Y-83636904D01*
X104917619Y-83541666D01*
X105012857Y-83494047D01*
X105155714Y-83494047D01*
X105250952Y-83446428D01*
X105298571Y-83351190D01*
X105298571Y-83303571D01*
X105250952Y-83208333D01*
X105155714Y-83160714D01*
X105012857Y-83160714D01*
X104917619Y-83208333D01*
X104012857Y-83827380D02*
X104012857Y-83303571D01*
X104060476Y-83208333D01*
X104155714Y-83160714D01*
X104346190Y-83160714D01*
X104441428Y-83208333D01*
X104012857Y-83779761D02*
X104108095Y-83827380D01*
X104346190Y-83827380D01*
X104441428Y-83779761D01*
X104489047Y-83684523D01*
X104489047Y-83589285D01*
X104441428Y-83494047D01*
X104346190Y-83446428D01*
X104108095Y-83446428D01*
X104012857Y-83398809D01*
X103108095Y-83827380D02*
X103108095Y-83303571D01*
X103155714Y-83208333D01*
X103250952Y-83160714D01*
X103441428Y-83160714D01*
X103536666Y-83208333D01*
X103108095Y-83779761D02*
X103203333Y-83827380D01*
X103441428Y-83827380D01*
X103536666Y-83779761D01*
X103584285Y-83684523D01*
X103584285Y-83589285D01*
X103536666Y-83494047D01*
X103441428Y-83446428D01*
X103203333Y-83446428D01*
X103108095Y-83398809D01*
X102203333Y-83779761D02*
X102298571Y-83827380D01*
X102489047Y-83827380D01*
X102584285Y-83779761D01*
X102631904Y-83732142D01*
X102679523Y-83636904D01*
X102679523Y-83351190D01*
X102631904Y-83255952D01*
X102584285Y-83208333D01*
X102489047Y-83160714D01*
X102298571Y-83160714D01*
X102203333Y-83208333D01*
X101727142Y-83779761D02*
X101727142Y-83827380D01*
X101774761Y-83922619D01*
X101822380Y-83970238D01*
X100584285Y-83541666D02*
X100108095Y-83541666D01*
X100679523Y-83827380D02*
X100346190Y-82827380D01*
X100012857Y-83827380D01*
X99536666Y-83827380D02*
X99631904Y-83779761D01*
X99679523Y-83684523D01*
X99679523Y-82827380D01*
X98774761Y-83779761D02*
X98870000Y-83827380D01*
X99060476Y-83827380D01*
X99155714Y-83779761D01*
X99203333Y-83684523D01*
X99203333Y-83303571D01*
X99155714Y-83208333D01*
X99060476Y-83160714D01*
X98870000Y-83160714D01*
X98774761Y-83208333D01*
X98727142Y-83303571D01*
X98727142Y-83398809D01*
X99203333Y-83494047D01*
X98393809Y-83827380D02*
X97870000Y-83160714D01*
X98393809Y-83160714D02*
X97870000Y-83827380D01*
X97441428Y-83779761D02*
X97441428Y-83827380D01*
X97489047Y-83922619D01*
X97536666Y-83970238D01*
X95965238Y-82827380D02*
X95965238Y-83541666D01*
X96012857Y-83684523D01*
X96108095Y-83779761D01*
X96250952Y-83827380D01*
X96346190Y-83827380D01*
X95060476Y-83827380D02*
X95060476Y-83303571D01*
X95108095Y-83208333D01*
X95203333Y-83160714D01*
X95393809Y-83160714D01*
X95489047Y-83208333D01*
X95060476Y-83779761D02*
X95155714Y-83827380D01*
X95393809Y-83827380D01*
X95489047Y-83779761D01*
X95536666Y-83684523D01*
X95536666Y-83589285D01*
X95489047Y-83494047D01*
X95393809Y-83446428D01*
X95155714Y-83446428D01*
X95060476Y-83398809D01*
X94584285Y-83827380D02*
X94584285Y-82827380D01*
X94489047Y-83446428D02*
X94203333Y-83827380D01*
X94203333Y-83160714D02*
X94584285Y-83541666D01*
X93631904Y-83827380D02*
X93727142Y-83779761D01*
X93774761Y-83732142D01*
X93822380Y-83636904D01*
X93822380Y-83351190D01*
X93774761Y-83255952D01*
X93727142Y-83208333D01*
X93631904Y-83160714D01*
X93489047Y-83160714D01*
X93393809Y-83208333D01*
X93346190Y-83255952D01*
X93298571Y-83351190D01*
X93298571Y-83636904D01*
X93346190Y-83732142D01*
X93393809Y-83779761D01*
X93489047Y-83827380D01*
X93631904Y-83827380D01*
X92870000Y-83827380D02*
X92870000Y-82827380D01*
X92870000Y-83208333D02*
X92774761Y-83160714D01*
X92584285Y-83160714D01*
X92489047Y-83208333D01*
X92441428Y-83255952D01*
X92393809Y-83351190D01*
X92393809Y-83636904D01*
X92441428Y-83732142D01*
X92489047Y-83779761D01*
X92584285Y-83827380D01*
X92774761Y-83827380D01*
X92870000Y-83779761D01*
M02*
