M48
; DRILL file {KiCad 5.1.4+dfsg1-1~bpo10+1} date Thu 14 Jan 2021 11:53:26 AM PST
; FORMAT={-:-/ absolute / inch / decimal}
; #@! TF.CreationDate,2021-01-14T11:53:26-08:00
; #@! TF.GenerationSoftware,Kicad,Pcbnew,5.1.4+dfsg1-1~bpo10+1
FMAT,2
INCH
T1C0.0157
T2C0.0295
T3C0.0315
T4C0.0394
T5C0.0433
%
G90
G05
T1
X4.85Y-3.75
X4.85Y-4.25
T2
X4.45Y-4.0
X4.45Y-4.05
X4.45Y-4.1
X4.4Y-4.3
X4.45Y-4.3
X4.5Y-4.3
X3.45Y-3.6
X3.45Y-3.65
X3.45Y-3.7
X3.1Y-4.1
X3.1Y-4.15
X3.1Y-4.2
X4.45Y-3.6
X4.45Y-3.65
X4.45Y-3.7
T3
X4.65Y-3.75
X5.05Y-3.75
X3.85Y-3.05
X3.85Y-3.45
X4.55Y-3.05
X4.55Y-3.45
X4.65Y-3.05
X4.65Y-3.45
X4.75Y-3.05
X4.75Y-3.45
X3.65Y-3.05
X3.65Y-3.45
X4.25Y-3.05
X4.25Y-3.45
X3.55Y-3.05
X3.55Y-3.45
X3.95Y-3.05
X3.95Y-3.45
X4.65Y-3.95
X5.05Y-3.95
X4.65Y-3.6
X5.05Y-3.6
X4.95Y-3.05
X4.95Y-3.45
X3.65Y-3.75
X4.05Y-3.75
X4.35Y-3.05
X4.35Y-3.45
X3.75Y-3.05
X3.75Y-3.45
X3.3Y-4.0
X3.7Y-4.0
X3.65Y-3.6
X4.05Y-3.6
X4.85Y-3.05
X4.85Y-3.45
X4.45Y-3.05
X4.45Y-3.45
X4.05Y-3.05
X4.05Y-3.45
X3.3Y-4.15
X3.7Y-4.15
X4.65Y-4.4
X5.05Y-4.4
X2.45Y-3.25
X2.45Y-3.35
X2.45Y-3.45
X2.45Y-3.55
X2.75Y-3.25
X2.75Y-3.35
X2.75Y-3.45
X2.75Y-3.55
X3.25Y-3.05
X3.25Y-3.45
X4.65Y-4.1
X5.05Y-4.1
X5.05Y-3.05
X5.05Y-3.45
X3.35Y-3.05
X3.35Y-3.45
X4.65Y-4.25
X5.05Y-4.25
X3.15Y-3.05
X3.15Y-3.45
X3.45Y-3.05
X3.45Y-3.45
X4.05Y-4.0
X4.05Y-4.4
X4.15Y-3.05
X4.15Y-3.45
T4
X3.05Y-4.4
X3.15Y-4.4
X4.2Y-4.1
X4.2Y-4.2
X4.2Y-4.3
X2.55Y-2.8
X2.65Y-2.8
X2.5Y-3.95
X2.5Y-4.05
X2.6Y-3.95
X2.6Y-4.05
X2.7Y-3.95
X2.7Y-4.05
X3.15Y-2.8
X3.15Y-2.9
X3.25Y-2.8
X3.25Y-2.9
X3.35Y-2.8
X3.35Y-2.9
X3.45Y-2.8
X3.45Y-2.9
X3.55Y-2.8
X3.55Y-2.9
X3.65Y-2.8
X3.65Y-2.9
X3.75Y-2.8
X3.75Y-2.9
X3.85Y-2.8
X3.85Y-2.9
X3.95Y-2.8
X3.95Y-2.9
X4.05Y-2.8
X4.05Y-2.9
X4.15Y-2.8
X4.15Y-2.9
X4.25Y-2.8
X4.25Y-2.9
X4.35Y-2.8
X4.35Y-2.9
X4.45Y-2.8
X4.45Y-2.9
X4.55Y-2.8
X4.55Y-2.9
X4.65Y-2.8
X4.65Y-2.9
X4.75Y-2.8
X4.75Y-2.9
X4.85Y-2.8
X4.85Y-2.9
X4.95Y-2.8
X4.95Y-2.9
X5.05Y-2.8
X5.05Y-2.9
T5
X3.3Y-4.4
X3.7Y-4.4
T0
M30
