G04 #@! TF.GenerationSoftware,KiCad,Pcbnew,5.1.4+dfsg1-1~bpo10+1*
G04 #@! TF.CreationDate,2021-01-14T11:53:16-08:00*
G04 #@! TF.ProjectId,KarisGiftPCB,4b617269-7347-4696-9674-5043422e6b69,rev?*
G04 #@! TF.SameCoordinates,Original*
G04 #@! TF.FileFunction,Legend,Top*
G04 #@! TF.FilePolarity,Positive*
%FSLAX46Y46*%
G04 Gerber Fmt 4.6, Leading zero omitted, Abs format (unit mm)*
G04 Created by KiCad (PCBNEW 5.1.4+dfsg1-1~bpo10+1) date 2021-01-14 11:53:16*
%MOMM*%
%LPD*%
G04 APERTURE LIST*
%ADD10C,0.150000*%
%ADD11C,0.240000*%
%ADD12C,0.120000*%
G04 APERTURE END LIST*
D10*
X63222857Y-108847380D02*
X63222857Y-107847380D01*
X63794285Y-108847380D02*
X63365714Y-108275952D01*
X63794285Y-107847380D02*
X63222857Y-108418809D01*
X64651428Y-108847380D02*
X64651428Y-108323571D01*
X64603809Y-108228333D01*
X64508571Y-108180714D01*
X64318095Y-108180714D01*
X64222857Y-108228333D01*
X64651428Y-108799761D02*
X64556190Y-108847380D01*
X64318095Y-108847380D01*
X64222857Y-108799761D01*
X64175238Y-108704523D01*
X64175238Y-108609285D01*
X64222857Y-108514047D01*
X64318095Y-108466428D01*
X64556190Y-108466428D01*
X64651428Y-108418809D01*
X65127619Y-108847380D02*
X65127619Y-108180714D01*
X65127619Y-108371190D02*
X65175238Y-108275952D01*
X65222857Y-108228333D01*
X65318095Y-108180714D01*
X65413333Y-108180714D01*
X65746666Y-108847380D02*
X65746666Y-108180714D01*
X65746666Y-107847380D02*
X65699047Y-107895000D01*
X65746666Y-107942619D01*
X65794285Y-107895000D01*
X65746666Y-107847380D01*
X65746666Y-107942619D01*
X66175238Y-108799761D02*
X66270476Y-108847380D01*
X66460952Y-108847380D01*
X66556190Y-108799761D01*
X66603809Y-108704523D01*
X66603809Y-108656904D01*
X66556190Y-108561666D01*
X66460952Y-108514047D01*
X66318095Y-108514047D01*
X66222857Y-108466428D01*
X66175238Y-108371190D01*
X66175238Y-108323571D01*
X66222857Y-108228333D01*
X66318095Y-108180714D01*
X66460952Y-108180714D01*
X66556190Y-108228333D01*
X68318095Y-107895000D02*
X68222857Y-107847380D01*
X68080000Y-107847380D01*
X67937142Y-107895000D01*
X67841904Y-107990238D01*
X67794285Y-108085476D01*
X67746666Y-108275952D01*
X67746666Y-108418809D01*
X67794285Y-108609285D01*
X67841904Y-108704523D01*
X67937142Y-108799761D01*
X68080000Y-108847380D01*
X68175238Y-108847380D01*
X68318095Y-108799761D01*
X68365714Y-108752142D01*
X68365714Y-108418809D01*
X68175238Y-108418809D01*
X68794285Y-108847380D02*
X68794285Y-108180714D01*
X68794285Y-107847380D02*
X68746666Y-107895000D01*
X68794285Y-107942619D01*
X68841904Y-107895000D01*
X68794285Y-107847380D01*
X68794285Y-107942619D01*
X69127619Y-108180714D02*
X69508571Y-108180714D01*
X69270476Y-108847380D02*
X69270476Y-107990238D01*
X69318095Y-107895000D01*
X69413333Y-107847380D01*
X69508571Y-107847380D01*
X69699047Y-108180714D02*
X70080000Y-108180714D01*
X69841904Y-107847380D02*
X69841904Y-108704523D01*
X69889523Y-108799761D01*
X69984761Y-108847380D01*
X70080000Y-108847380D01*
X71032380Y-107847380D02*
X71365714Y-108847380D01*
X71699047Y-107847380D01*
X72556190Y-108847380D02*
X71984761Y-108847380D01*
X72270476Y-108847380D02*
X72270476Y-107847380D01*
X72175238Y-107990238D01*
X72080000Y-108085476D01*
X71984761Y-108133095D01*
X72984761Y-108752142D02*
X73032380Y-108799761D01*
X72984761Y-108847380D01*
X72937142Y-108799761D01*
X72984761Y-108752142D01*
X72984761Y-108847380D01*
X73651428Y-107847380D02*
X73746666Y-107847380D01*
X73841904Y-107895000D01*
X73889523Y-107942619D01*
X73937142Y-108037857D01*
X73984761Y-108228333D01*
X73984761Y-108466428D01*
X73937142Y-108656904D01*
X73889523Y-108752142D01*
X73841904Y-108799761D01*
X73746666Y-108847380D01*
X73651428Y-108847380D01*
X73556190Y-108799761D01*
X73508571Y-108752142D01*
X73460952Y-108656904D01*
X73413333Y-108466428D01*
X73413333Y-108228333D01*
X73460952Y-108037857D01*
X73508571Y-107942619D01*
X73556190Y-107895000D01*
X73651428Y-107847380D01*
X63818095Y-109497380D02*
X64484761Y-109497380D01*
X63818095Y-110497380D01*
X64484761Y-110497380D01*
X65294285Y-110497380D02*
X65294285Y-109973571D01*
X65246666Y-109878333D01*
X65151428Y-109830714D01*
X64960952Y-109830714D01*
X64865714Y-109878333D01*
X65294285Y-110449761D02*
X65199047Y-110497380D01*
X64960952Y-110497380D01*
X64865714Y-110449761D01*
X64818095Y-110354523D01*
X64818095Y-110259285D01*
X64865714Y-110164047D01*
X64960952Y-110116428D01*
X65199047Y-110116428D01*
X65294285Y-110068809D01*
X66199047Y-110449761D02*
X66103809Y-110497380D01*
X65913333Y-110497380D01*
X65818095Y-110449761D01*
X65770476Y-110402142D01*
X65722857Y-110306904D01*
X65722857Y-110021190D01*
X65770476Y-109925952D01*
X65818095Y-109878333D01*
X65913333Y-109830714D01*
X66103809Y-109830714D01*
X66199047Y-109878333D01*
X66627619Y-110497380D02*
X66627619Y-109497380D01*
X67056190Y-110497380D02*
X67056190Y-109973571D01*
X67008571Y-109878333D01*
X66913333Y-109830714D01*
X66770476Y-109830714D01*
X66675238Y-109878333D01*
X66627619Y-109925952D01*
X68294285Y-109973571D02*
X68627619Y-109973571D01*
X68770476Y-110497380D02*
X68294285Y-110497380D01*
X68294285Y-109497380D01*
X68770476Y-109497380D01*
X69199047Y-109830714D02*
X69199047Y-110497380D01*
X69199047Y-109925952D02*
X69246666Y-109878333D01*
X69341904Y-109830714D01*
X69484761Y-109830714D01*
X69580000Y-109878333D01*
X69627619Y-109973571D01*
X69627619Y-110497380D01*
X70532380Y-109830714D02*
X70532380Y-110640238D01*
X70484761Y-110735476D01*
X70437142Y-110783095D01*
X70341904Y-110830714D01*
X70199047Y-110830714D01*
X70103809Y-110783095D01*
X70532380Y-110449761D02*
X70437142Y-110497380D01*
X70246666Y-110497380D01*
X70151428Y-110449761D01*
X70103809Y-110402142D01*
X70056190Y-110306904D01*
X70056190Y-110021190D01*
X70103809Y-109925952D01*
X70151428Y-109878333D01*
X70246666Y-109830714D01*
X70437142Y-109830714D01*
X70532380Y-109878333D01*
X71151428Y-110497380D02*
X71056190Y-110449761D01*
X71008571Y-110354523D01*
X71008571Y-109497380D01*
X71532380Y-110497380D02*
X71532380Y-109830714D01*
X71532380Y-109497380D02*
X71484761Y-109545000D01*
X71532380Y-109592619D01*
X71580000Y-109545000D01*
X71532380Y-109497380D01*
X71532380Y-109592619D01*
X71960952Y-110449761D02*
X72056190Y-110497380D01*
X72246666Y-110497380D01*
X72341904Y-110449761D01*
X72389523Y-110354523D01*
X72389523Y-110306904D01*
X72341904Y-110211666D01*
X72246666Y-110164047D01*
X72103809Y-110164047D01*
X72008571Y-110116428D01*
X71960952Y-110021190D01*
X71960952Y-109973571D01*
X72008571Y-109878333D01*
X72103809Y-109830714D01*
X72246666Y-109830714D01*
X72341904Y-109878333D01*
X72818095Y-110497380D02*
X72818095Y-109497380D01*
X73246666Y-110497380D02*
X73246666Y-109973571D01*
X73199047Y-109878333D01*
X73103809Y-109830714D01*
X72960952Y-109830714D01*
X72865714Y-109878333D01*
X72818095Y-109925952D01*
D11*
X104140000Y-90170000D02*
X104140000Y-68580000D01*
D10*
X64278095Y-73731428D02*
X65040000Y-73731428D01*
X67040000Y-73731428D02*
X67801904Y-73731428D01*
X67420952Y-74112380D02*
X67420952Y-73350476D01*
X71071071Y-71731666D02*
X71547261Y-71731666D01*
X70975833Y-72017380D02*
X71309166Y-71017380D01*
X71642500Y-72017380D01*
X71975833Y-71350714D02*
X71975833Y-72017380D01*
X71975833Y-71445952D02*
X72023452Y-71398333D01*
X72118690Y-71350714D01*
X72261547Y-71350714D01*
X72356785Y-71398333D01*
X72404404Y-71493571D01*
X72404404Y-72017380D01*
X73023452Y-72017380D02*
X72928214Y-71969761D01*
X72880595Y-71922142D01*
X72832976Y-71826904D01*
X72832976Y-71541190D01*
X72880595Y-71445952D01*
X72928214Y-71398333D01*
X73023452Y-71350714D01*
X73166309Y-71350714D01*
X73261547Y-71398333D01*
X73309166Y-71445952D01*
X73356785Y-71541190D01*
X73356785Y-71826904D01*
X73309166Y-71922142D01*
X73261547Y-71969761D01*
X73166309Y-72017380D01*
X73023452Y-72017380D01*
X74213928Y-72017380D02*
X74213928Y-71017380D01*
X74213928Y-71969761D02*
X74118690Y-72017380D01*
X73928214Y-72017380D01*
X73832976Y-71969761D01*
X73785357Y-71922142D01*
X73737738Y-71826904D01*
X73737738Y-71541190D01*
X73785357Y-71445952D01*
X73832976Y-71398333D01*
X73928214Y-71350714D01*
X74118690Y-71350714D01*
X74213928Y-71398333D01*
X75071071Y-71969761D02*
X74975833Y-72017380D01*
X74785357Y-72017380D01*
X74690119Y-71969761D01*
X74642500Y-71874523D01*
X74642500Y-71493571D01*
X74690119Y-71398333D01*
X74785357Y-71350714D01*
X74975833Y-71350714D01*
X75071071Y-71398333D01*
X75118690Y-71493571D01*
X75118690Y-71588809D01*
X74642500Y-71684047D01*
X76594880Y-72398333D02*
X76547261Y-72350714D01*
X76452023Y-72207857D01*
X76404404Y-72112619D01*
X76356785Y-71969761D01*
X76309166Y-71731666D01*
X76309166Y-71541190D01*
X76356785Y-71303095D01*
X76404404Y-71160238D01*
X76452023Y-71065000D01*
X76547261Y-70922142D01*
X76594880Y-70874523D01*
X76975833Y-71636428D02*
X77737738Y-71636428D01*
X77356785Y-72017380D02*
X77356785Y-71255476D01*
X78118690Y-72398333D02*
X78166309Y-72350714D01*
X78261547Y-72207857D01*
X78309166Y-72112619D01*
X78356785Y-71969761D01*
X78404404Y-71731666D01*
X78404404Y-71541190D01*
X78356785Y-71303095D01*
X78309166Y-71160238D01*
X78261547Y-71065000D01*
X78166309Y-70922142D01*
X78118690Y-70874523D01*
X70071071Y-73572142D02*
X70023452Y-73619761D01*
X69880595Y-73667380D01*
X69785357Y-73667380D01*
X69642500Y-73619761D01*
X69547261Y-73524523D01*
X69499642Y-73429285D01*
X69452023Y-73238809D01*
X69452023Y-73095952D01*
X69499642Y-72905476D01*
X69547261Y-72810238D01*
X69642500Y-72715000D01*
X69785357Y-72667380D01*
X69880595Y-72667380D01*
X70023452Y-72715000D01*
X70071071Y-72762619D01*
X70928214Y-73667380D02*
X70928214Y-73143571D01*
X70880595Y-73048333D01*
X70785357Y-73000714D01*
X70594880Y-73000714D01*
X70499642Y-73048333D01*
X70928214Y-73619761D02*
X70832976Y-73667380D01*
X70594880Y-73667380D01*
X70499642Y-73619761D01*
X70452023Y-73524523D01*
X70452023Y-73429285D01*
X70499642Y-73334047D01*
X70594880Y-73286428D01*
X70832976Y-73286428D01*
X70928214Y-73238809D01*
X71261547Y-73000714D02*
X71642500Y-73000714D01*
X71404404Y-72667380D02*
X71404404Y-73524523D01*
X71452023Y-73619761D01*
X71547261Y-73667380D01*
X71642500Y-73667380D01*
X71975833Y-73667380D02*
X71975833Y-72667380D01*
X72404404Y-73667380D02*
X72404404Y-73143571D01*
X72356785Y-73048333D01*
X72261547Y-73000714D01*
X72118690Y-73000714D01*
X72023452Y-73048333D01*
X71975833Y-73095952D01*
X73023452Y-73667380D02*
X72928214Y-73619761D01*
X72880595Y-73572142D01*
X72832976Y-73476904D01*
X72832976Y-73191190D01*
X72880595Y-73095952D01*
X72928214Y-73048333D01*
X73023452Y-73000714D01*
X73166309Y-73000714D01*
X73261547Y-73048333D01*
X73309166Y-73095952D01*
X73356785Y-73191190D01*
X73356785Y-73476904D01*
X73309166Y-73572142D01*
X73261547Y-73619761D01*
X73166309Y-73667380D01*
X73023452Y-73667380D01*
X74213928Y-73667380D02*
X74213928Y-72667380D01*
X74213928Y-73619761D02*
X74118690Y-73667380D01*
X73928214Y-73667380D01*
X73832976Y-73619761D01*
X73785357Y-73572142D01*
X73737738Y-73476904D01*
X73737738Y-73191190D01*
X73785357Y-73095952D01*
X73832976Y-73048333D01*
X73928214Y-73000714D01*
X74118690Y-73000714D01*
X74213928Y-73048333D01*
X75071071Y-73619761D02*
X74975833Y-73667380D01*
X74785357Y-73667380D01*
X74690119Y-73619761D01*
X74642500Y-73524523D01*
X74642500Y-73143571D01*
X74690119Y-73048333D01*
X74785357Y-73000714D01*
X74975833Y-73000714D01*
X75071071Y-73048333D01*
X75118690Y-73143571D01*
X75118690Y-73238809D01*
X74642500Y-73334047D01*
X76594880Y-74048333D02*
X76547261Y-74000714D01*
X76452023Y-73857857D01*
X76404404Y-73762619D01*
X76356785Y-73619761D01*
X76309166Y-73381666D01*
X76309166Y-73191190D01*
X76356785Y-72953095D01*
X76404404Y-72810238D01*
X76452023Y-72715000D01*
X76547261Y-72572142D01*
X76594880Y-72524523D01*
X76975833Y-73286428D02*
X77737738Y-73286428D01*
X78118690Y-74048333D02*
X78166309Y-74000714D01*
X78261547Y-73857857D01*
X78309166Y-73762619D01*
X78356785Y-73619761D01*
X78404404Y-73381666D01*
X78404404Y-73191190D01*
X78356785Y-72953095D01*
X78309166Y-72810238D01*
X78261547Y-72715000D01*
X78166309Y-72572142D01*
X78118690Y-72524523D01*
X108466000Y-108870476D02*
X108418380Y-108965714D01*
X108418380Y-109108571D01*
X108466000Y-109251428D01*
X108561238Y-109346666D01*
X108656476Y-109394285D01*
X108846952Y-109441904D01*
X108989809Y-109441904D01*
X109180285Y-109394285D01*
X109275523Y-109346666D01*
X109370761Y-109251428D01*
X109418380Y-109108571D01*
X109418380Y-109013333D01*
X109370761Y-108870476D01*
X109323142Y-108822857D01*
X108989809Y-108822857D01*
X108989809Y-109013333D01*
X109418380Y-106870476D02*
X108418380Y-106870476D01*
X108418380Y-106632380D01*
X108466000Y-106489523D01*
X108561238Y-106394285D01*
X108656476Y-106346666D01*
X108846952Y-106299047D01*
X108989809Y-106299047D01*
X109180285Y-106346666D01*
X109275523Y-106394285D01*
X109370761Y-106489523D01*
X109418380Y-106632380D01*
X109418380Y-106870476D01*
X108418380Y-104489523D02*
X109418380Y-104156190D01*
X108418380Y-103822857D01*
X68032380Y-97597261D02*
X69032380Y-97263928D01*
X68032380Y-96930595D01*
X69032380Y-96597261D02*
X68365714Y-96597261D01*
X68032380Y-96597261D02*
X68080000Y-96644880D01*
X68127619Y-96597261D01*
X68080000Y-96549642D01*
X68032380Y-96597261D01*
X68127619Y-96597261D01*
X69032380Y-96121071D02*
X68032380Y-96121071D01*
X68413333Y-96121071D02*
X68365714Y-96025833D01*
X68365714Y-95835357D01*
X68413333Y-95740119D01*
X68460952Y-95692500D01*
X68556190Y-95644880D01*
X68841904Y-95644880D01*
X68937142Y-95692500D01*
X68984761Y-95740119D01*
X69032380Y-95835357D01*
X69032380Y-96025833D01*
X68984761Y-96121071D01*
X69032380Y-95216309D02*
X68365714Y-95216309D01*
X68556190Y-95216309D02*
X68460952Y-95168690D01*
X68413333Y-95121071D01*
X68365714Y-95025833D01*
X68365714Y-94930595D01*
X69032380Y-94168690D02*
X68508571Y-94168690D01*
X68413333Y-94216309D01*
X68365714Y-94311547D01*
X68365714Y-94502023D01*
X68413333Y-94597261D01*
X68984761Y-94168690D02*
X69032380Y-94263928D01*
X69032380Y-94502023D01*
X68984761Y-94597261D01*
X68889523Y-94644880D01*
X68794285Y-94644880D01*
X68699047Y-94597261D01*
X68651428Y-94502023D01*
X68651428Y-94263928D01*
X68603809Y-94168690D01*
X68365714Y-93835357D02*
X68365714Y-93454404D01*
X68032380Y-93692500D02*
X68889523Y-93692500D01*
X68984761Y-93644880D01*
X69032380Y-93549642D01*
X69032380Y-93454404D01*
X68984761Y-92740119D02*
X69032380Y-92835357D01*
X69032380Y-93025833D01*
X68984761Y-93121071D01*
X68889523Y-93168690D01*
X68508571Y-93168690D01*
X68413333Y-93121071D01*
X68365714Y-93025833D01*
X68365714Y-92835357D01*
X68413333Y-92740119D01*
X68508571Y-92692500D01*
X68603809Y-92692500D01*
X68699047Y-93168690D01*
X66492380Y-96882976D02*
X66016190Y-97216309D01*
X66492380Y-97454404D02*
X65492380Y-97454404D01*
X65492380Y-97073452D01*
X65540000Y-96978214D01*
X65587619Y-96930595D01*
X65682857Y-96882976D01*
X65825714Y-96882976D01*
X65920952Y-96930595D01*
X65968571Y-96978214D01*
X66016190Y-97073452D01*
X66016190Y-97454404D01*
X65540000Y-95930595D02*
X65492380Y-96025833D01*
X65492380Y-96168690D01*
X65540000Y-96311547D01*
X65635238Y-96406785D01*
X65730476Y-96454404D01*
X65920952Y-96502023D01*
X66063809Y-96502023D01*
X66254285Y-96454404D01*
X66349523Y-96406785D01*
X66444761Y-96311547D01*
X66492380Y-96168690D01*
X66492380Y-96073452D01*
X66444761Y-95930595D01*
X66397142Y-95882976D01*
X66063809Y-95882976D01*
X66063809Y-96073452D01*
X65968571Y-95121071D02*
X66016190Y-94978214D01*
X66063809Y-94930595D01*
X66159047Y-94882976D01*
X66301904Y-94882976D01*
X66397142Y-94930595D01*
X66444761Y-94978214D01*
X66492380Y-95073452D01*
X66492380Y-95454404D01*
X65492380Y-95454404D01*
X65492380Y-95121071D01*
X65540000Y-95025833D01*
X65587619Y-94978214D01*
X65682857Y-94930595D01*
X65778095Y-94930595D01*
X65873333Y-94978214D01*
X65920952Y-95025833D01*
X65968571Y-95121071D01*
X65968571Y-95454404D01*
X63952380Y-96882976D02*
X63476190Y-97216309D01*
X63952380Y-97454404D02*
X62952380Y-97454404D01*
X62952380Y-97073452D01*
X63000000Y-96978214D01*
X63047619Y-96930595D01*
X63142857Y-96882976D01*
X63285714Y-96882976D01*
X63380952Y-96930595D01*
X63428571Y-96978214D01*
X63476190Y-97073452D01*
X63476190Y-97454404D01*
X63904761Y-96073452D02*
X63952380Y-96168690D01*
X63952380Y-96359166D01*
X63904761Y-96454404D01*
X63809523Y-96502023D01*
X63428571Y-96502023D01*
X63333333Y-96454404D01*
X63285714Y-96359166D01*
X63285714Y-96168690D01*
X63333333Y-96073452D01*
X63428571Y-96025833D01*
X63523809Y-96025833D01*
X63619047Y-96502023D01*
X63904761Y-95644880D02*
X63952380Y-95549642D01*
X63952380Y-95359166D01*
X63904761Y-95263928D01*
X63809523Y-95216309D01*
X63761904Y-95216309D01*
X63666666Y-95263928D01*
X63619047Y-95359166D01*
X63619047Y-95502023D01*
X63571428Y-95597261D01*
X63476190Y-95644880D01*
X63428571Y-95644880D01*
X63333333Y-95597261D01*
X63285714Y-95502023D01*
X63285714Y-95359166D01*
X63333333Y-95263928D01*
X63904761Y-94406785D02*
X63952380Y-94502023D01*
X63952380Y-94692500D01*
X63904761Y-94787738D01*
X63809523Y-94835357D01*
X63428571Y-94835357D01*
X63333333Y-94787738D01*
X63285714Y-94692500D01*
X63285714Y-94502023D01*
X63333333Y-94406785D01*
X63428571Y-94359166D01*
X63523809Y-94359166D01*
X63619047Y-94835357D01*
X63285714Y-94073452D02*
X63285714Y-93692500D01*
X62952380Y-93930595D02*
X63809523Y-93930595D01*
X63904761Y-93882976D01*
X63952380Y-93787738D01*
X63952380Y-93692500D01*
D12*
X129600000Y-73660000D02*
X129600000Y-74990000D01*
X129600000Y-74990000D02*
X128270000Y-74990000D01*
X129600000Y-72390000D02*
X127000000Y-72390000D01*
X127000000Y-72390000D02*
X127000000Y-74990000D01*
X127000000Y-74990000D02*
X78680000Y-74990000D01*
X78680000Y-69790000D02*
X78680000Y-74990000D01*
X129600000Y-69790000D02*
X78680000Y-69790000D01*
X129600000Y-69790000D02*
X129600000Y-72390000D01*
X62170000Y-100330000D02*
X62170000Y-99000000D01*
X62170000Y-99000000D02*
X63500000Y-99000000D01*
X62170000Y-101600000D02*
X64770000Y-101600000D01*
X64770000Y-101600000D02*
X64770000Y-99000000D01*
X64770000Y-99000000D02*
X69910000Y-99000000D01*
X69910000Y-104200000D02*
X69910000Y-99000000D01*
X62170000Y-104200000D02*
X69910000Y-104200000D01*
X62170000Y-104200000D02*
X62170000Y-101600000D01*
X68690000Y-81220000D02*
X67040000Y-81220000D01*
X68690000Y-91500000D02*
X68690000Y-81220000D01*
X63390000Y-91500000D02*
X68690000Y-91500000D01*
X63390000Y-81220000D02*
X63390000Y-91500000D01*
X65040000Y-81220000D02*
X63390000Y-81220000D01*
X67040000Y-81220000D02*
G75*
G02X65040000Y-81220000I-1000000J0D01*
G01*
X92940000Y-105410000D02*
X92170000Y-105410000D01*
X84860000Y-105410000D02*
X85630000Y-105410000D01*
X92170000Y-104040000D02*
X85630000Y-104040000D01*
X92170000Y-106780000D02*
X92170000Y-104040000D01*
X85630000Y-106780000D02*
X92170000Y-106780000D01*
X85630000Y-104040000D02*
X85630000Y-106780000D01*
X92940000Y-101600000D02*
X92170000Y-101600000D01*
X84860000Y-101600000D02*
X85630000Y-101600000D01*
X92170000Y-100230000D02*
X85630000Y-100230000D01*
X92170000Y-102970000D02*
X92170000Y-100230000D01*
X85630000Y-102970000D02*
X92170000Y-102970000D01*
X85630000Y-100230000D02*
X85630000Y-102970000D01*
X80010000Y-86590000D02*
X80010000Y-85820000D01*
X80010000Y-78510000D02*
X80010000Y-79280000D01*
X81380000Y-85820000D02*
X81380000Y-79280000D01*
X78640000Y-85820000D02*
X81380000Y-85820000D01*
X78640000Y-79280000D02*
X78640000Y-85820000D01*
X81380000Y-79280000D02*
X78640000Y-79280000D01*
X82550000Y-86590000D02*
X82550000Y-85820000D01*
X82550000Y-78510000D02*
X82550000Y-79280000D01*
X83920000Y-85820000D02*
X83920000Y-79280000D01*
X81180000Y-85820000D02*
X83920000Y-85820000D01*
X81180000Y-79280000D02*
X81180000Y-85820000D01*
X83920000Y-79280000D02*
X81180000Y-79280000D01*
X85090000Y-86590000D02*
X85090000Y-85820000D01*
X85090000Y-78510000D02*
X85090000Y-79280000D01*
X86460000Y-85820000D02*
X86460000Y-79280000D01*
X83720000Y-85820000D02*
X86460000Y-85820000D01*
X83720000Y-79280000D02*
X83720000Y-85820000D01*
X86460000Y-79280000D02*
X83720000Y-79280000D01*
X87630000Y-86590000D02*
X87630000Y-85820000D01*
X87630000Y-78510000D02*
X87630000Y-79280000D01*
X89000000Y-85820000D02*
X89000000Y-79280000D01*
X86260000Y-85820000D02*
X89000000Y-85820000D01*
X86260000Y-79280000D02*
X86260000Y-85820000D01*
X89000000Y-79280000D02*
X86260000Y-79280000D01*
X90170000Y-86590000D02*
X90170000Y-85820000D01*
X90170000Y-78510000D02*
X90170000Y-79280000D01*
X91540000Y-85820000D02*
X91540000Y-79280000D01*
X88800000Y-85820000D02*
X91540000Y-85820000D01*
X88800000Y-79280000D02*
X88800000Y-85820000D01*
X91540000Y-79280000D02*
X88800000Y-79280000D01*
X101830000Y-95250000D02*
X101060000Y-95250000D01*
X93750000Y-95250000D02*
X94520000Y-95250000D01*
X101060000Y-93880000D02*
X94520000Y-93880000D01*
X101060000Y-96620000D02*
X101060000Y-93880000D01*
X94520000Y-96620000D02*
X101060000Y-96620000D01*
X94520000Y-93880000D02*
X94520000Y-96620000D01*
X92710000Y-86590000D02*
X92710000Y-85820000D01*
X92710000Y-78510000D02*
X92710000Y-79280000D01*
X94080000Y-85820000D02*
X94080000Y-79280000D01*
X91340000Y-85820000D02*
X94080000Y-85820000D01*
X91340000Y-79280000D02*
X91340000Y-85820000D01*
X94080000Y-79280000D02*
X91340000Y-79280000D01*
X101830000Y-91440000D02*
X101060000Y-91440000D01*
X93750000Y-91440000D02*
X94520000Y-91440000D01*
X101060000Y-90070000D02*
X94520000Y-90070000D01*
X101060000Y-92810000D02*
X101060000Y-90070000D01*
X94520000Y-92810000D02*
X101060000Y-92810000D01*
X94520000Y-90070000D02*
X94520000Y-92810000D01*
X95250000Y-86590000D02*
X95250000Y-85820000D01*
X95250000Y-78510000D02*
X95250000Y-79280000D01*
X96620000Y-85820000D02*
X96620000Y-79280000D01*
X93880000Y-85820000D02*
X96620000Y-85820000D01*
X93880000Y-79280000D02*
X93880000Y-85820000D01*
X96620000Y-79280000D02*
X93880000Y-79280000D01*
X97790000Y-86590000D02*
X97790000Y-85820000D01*
X97790000Y-78510000D02*
X97790000Y-79280000D01*
X99160000Y-85820000D02*
X99160000Y-79280000D01*
X96420000Y-85820000D02*
X99160000Y-85820000D01*
X96420000Y-79280000D02*
X96420000Y-85820000D01*
X99160000Y-79280000D02*
X96420000Y-79280000D01*
X100330000Y-86590000D02*
X100330000Y-85820000D01*
X100330000Y-78510000D02*
X100330000Y-79280000D01*
X101700000Y-85820000D02*
X101700000Y-79280000D01*
X98960000Y-85820000D02*
X101700000Y-85820000D01*
X98960000Y-79280000D02*
X98960000Y-85820000D01*
X101700000Y-79280000D02*
X98960000Y-79280000D01*
X102870000Y-86590000D02*
X102870000Y-85820000D01*
X102870000Y-78510000D02*
X102870000Y-79280000D01*
X104240000Y-85820000D02*
X104240000Y-79280000D01*
X101500000Y-85820000D02*
X104240000Y-85820000D01*
X101500000Y-79280000D02*
X101500000Y-85820000D01*
X104240000Y-79280000D02*
X101500000Y-79280000D01*
X105410000Y-86590000D02*
X105410000Y-85820000D01*
X105410000Y-78510000D02*
X105410000Y-79280000D01*
X106780000Y-85820000D02*
X106780000Y-79280000D01*
X104040000Y-85820000D02*
X106780000Y-85820000D01*
X104040000Y-79280000D02*
X104040000Y-85820000D01*
X106780000Y-79280000D02*
X104040000Y-79280000D01*
X107950000Y-86590000D02*
X107950000Y-85820000D01*
X107950000Y-78510000D02*
X107950000Y-79280000D01*
X109320000Y-85820000D02*
X109320000Y-79280000D01*
X106580000Y-85820000D02*
X109320000Y-85820000D01*
X106580000Y-79280000D02*
X106580000Y-85820000D01*
X109320000Y-79280000D02*
X106580000Y-79280000D01*
X110490000Y-86590000D02*
X110490000Y-85820000D01*
X110490000Y-78510000D02*
X110490000Y-79280000D01*
X111860000Y-85820000D02*
X111860000Y-79280000D01*
X109120000Y-85820000D02*
X111860000Y-85820000D01*
X109120000Y-79280000D02*
X109120000Y-85820000D01*
X111860000Y-79280000D02*
X109120000Y-79280000D01*
X113030000Y-86590000D02*
X113030000Y-85820000D01*
X113030000Y-78510000D02*
X113030000Y-79280000D01*
X114400000Y-85820000D02*
X114400000Y-79280000D01*
X111660000Y-85820000D02*
X114400000Y-85820000D01*
X111660000Y-79280000D02*
X111660000Y-85820000D01*
X114400000Y-79280000D02*
X111660000Y-79280000D01*
X115570000Y-86590000D02*
X115570000Y-85820000D01*
X115570000Y-78510000D02*
X115570000Y-79280000D01*
X116940000Y-85820000D02*
X116940000Y-79280000D01*
X114200000Y-85820000D02*
X116940000Y-85820000D01*
X114200000Y-79280000D02*
X114200000Y-85820000D01*
X116940000Y-79280000D02*
X114200000Y-79280000D01*
X118110000Y-86590000D02*
X118110000Y-85820000D01*
X118110000Y-78510000D02*
X118110000Y-79280000D01*
X119480000Y-85820000D02*
X119480000Y-79280000D01*
X116740000Y-85820000D02*
X119480000Y-85820000D01*
X116740000Y-79280000D02*
X116740000Y-85820000D01*
X119480000Y-79280000D02*
X116740000Y-79280000D01*
X127230000Y-95250000D02*
X126460000Y-95250000D01*
X119150000Y-95250000D02*
X119920000Y-95250000D01*
X126460000Y-93880000D02*
X119920000Y-93880000D01*
X126460000Y-96620000D02*
X126460000Y-93880000D01*
X119920000Y-96620000D02*
X126460000Y-96620000D01*
X119920000Y-93880000D02*
X119920000Y-96620000D01*
X120650000Y-86590000D02*
X120650000Y-85820000D01*
X120650000Y-78510000D02*
X120650000Y-79280000D01*
X122020000Y-85820000D02*
X122020000Y-79280000D01*
X119280000Y-85820000D02*
X122020000Y-85820000D01*
X119280000Y-79280000D02*
X119280000Y-85820000D01*
X122020000Y-79280000D02*
X119280000Y-79280000D01*
X123190000Y-86590000D02*
X123190000Y-85820000D01*
X123190000Y-78510000D02*
X123190000Y-79280000D01*
X124560000Y-85820000D02*
X124560000Y-79280000D01*
X121820000Y-85820000D02*
X124560000Y-85820000D01*
X121820000Y-79280000D02*
X121820000Y-85820000D01*
X124560000Y-79280000D02*
X121820000Y-79280000D01*
X127230000Y-91440000D02*
X126460000Y-91440000D01*
X119150000Y-91440000D02*
X119920000Y-91440000D01*
X126460000Y-90070000D02*
X119920000Y-90070000D01*
X126460000Y-92810000D02*
X126460000Y-90070000D01*
X119920000Y-92810000D02*
X126460000Y-92810000D01*
X119920000Y-90070000D02*
X119920000Y-92810000D01*
X125730000Y-86590000D02*
X125730000Y-85820000D01*
X125730000Y-78510000D02*
X125730000Y-79280000D01*
X127100000Y-85820000D02*
X127100000Y-79280000D01*
X124360000Y-85820000D02*
X127100000Y-85820000D01*
X124360000Y-79280000D02*
X124360000Y-85820000D01*
X127100000Y-79280000D02*
X124360000Y-79280000D01*
X128270000Y-86590000D02*
X128270000Y-85820000D01*
X128270000Y-78510000D02*
X128270000Y-79280000D01*
X129640000Y-85820000D02*
X129640000Y-79280000D01*
X126900000Y-85820000D02*
X129640000Y-85820000D01*
X126900000Y-79280000D02*
X126900000Y-85820000D01*
X129640000Y-79280000D02*
X126900000Y-79280000D01*
X127230000Y-100330000D02*
X126460000Y-100330000D01*
X119150000Y-100330000D02*
X119920000Y-100330000D01*
X126460000Y-98960000D02*
X119920000Y-98960000D01*
X126460000Y-101700000D02*
X126460000Y-98960000D01*
X119920000Y-101700000D02*
X126460000Y-101700000D01*
X119920000Y-98960000D02*
X119920000Y-101700000D01*
X119150000Y-104140000D02*
X119920000Y-104140000D01*
X127230000Y-104140000D02*
X126460000Y-104140000D01*
X119920000Y-105510000D02*
X126460000Y-105510000D01*
X119920000Y-102770000D02*
X119920000Y-105510000D01*
X126460000Y-102770000D02*
X119920000Y-102770000D01*
X126460000Y-105510000D02*
X126460000Y-102770000D01*
X102870000Y-110720000D02*
X102870000Y-109950000D01*
X102870000Y-102640000D02*
X102870000Y-103410000D01*
X104240000Y-109950000D02*
X104240000Y-103410000D01*
X101500000Y-109950000D02*
X104240000Y-109950000D01*
X101500000Y-103410000D02*
X101500000Y-109950000D01*
X104240000Y-103410000D02*
X101500000Y-103410000D01*
X127230000Y-107950000D02*
X126460000Y-107950000D01*
X119150000Y-107950000D02*
X119920000Y-107950000D01*
X126460000Y-106580000D02*
X119920000Y-106580000D01*
X126460000Y-109320000D02*
X126460000Y-106580000D01*
X119920000Y-109320000D02*
X126460000Y-109320000D01*
X119920000Y-106580000D02*
X119920000Y-109320000D01*
X127230000Y-111760000D02*
X126460000Y-111760000D01*
X119150000Y-111760000D02*
X119920000Y-111760000D01*
X126460000Y-110390000D02*
X119920000Y-110390000D01*
X126460000Y-113130000D02*
X126460000Y-110390000D01*
X119920000Y-113130000D02*
X126460000Y-113130000D01*
X119920000Y-110390000D02*
X119920000Y-113130000D01*
X76901522Y-107248478D02*
G75*
G03X81340000Y-105410000I1838478J1838478D01*
G01*
X76901522Y-103571522D02*
G75*
G02X81340000Y-105410000I1838478J-1838478D01*
G01*
X76890000Y-103610000D02*
X76890000Y-107210000D01*
X89468478Y-90871522D02*
G75*
G03X85030000Y-92710000I-1838478J-1838478D01*
G01*
X89468478Y-94548478D02*
G75*
G02X85030000Y-92710000I-1838478J1838478D01*
G01*
X89480000Y-94510000D02*
X89480000Y-90910000D01*
X114868478Y-90871522D02*
G75*
G03X110430000Y-92710000I-1838478J-1838478D01*
G01*
X114868478Y-94548478D02*
G75*
G02X110430000Y-92710000I-1838478J1838478D01*
G01*
X114880000Y-94510000D02*
X114880000Y-90910000D01*
X111191522Y-104708478D02*
G75*
G03X115630000Y-102870000I1838478J1838478D01*
G01*
X111191522Y-101031522D02*
G75*
G02X115630000Y-102870000I1838478J-1838478D01*
G01*
X111180000Y-101070000D02*
X111180000Y-104670000D01*
X114868478Y-111058478D02*
G75*
G03X113030000Y-106620000I-1838478J1838478D01*
G01*
X111191522Y-111058478D02*
G75*
G02X113030000Y-106620000I1838478J1838478D01*
G01*
X111230000Y-111070000D02*
X114830000Y-111070000D01*
X81340000Y-111760000D02*
X81340000Y-113090000D01*
X81340000Y-113090000D02*
X80010000Y-113090000D01*
X78740000Y-113090000D02*
X76140000Y-113090000D01*
X76140000Y-110430000D02*
X76140000Y-113090000D01*
X78740000Y-110430000D02*
X76140000Y-110430000D01*
X78740000Y-110430000D02*
X78740000Y-113090000D01*
X68640000Y-71120000D02*
X68640000Y-72450000D01*
X68640000Y-72450000D02*
X67310000Y-72450000D01*
X66040000Y-72450000D02*
X63440000Y-72450000D01*
X63440000Y-69790000D02*
X63440000Y-72450000D01*
X66040000Y-69790000D02*
X63440000Y-69790000D01*
X66040000Y-69790000D02*
X66040000Y-72450000D01*
X106680000Y-102810000D02*
X108010000Y-102810000D01*
X108010000Y-102810000D02*
X108010000Y-104140000D01*
X108010000Y-105410000D02*
X108010000Y-110550000D01*
X105350000Y-110550000D02*
X108010000Y-110550000D01*
X105350000Y-105410000D02*
X105350000Y-110550000D01*
X105350000Y-105410000D02*
X108010000Y-105410000D01*
X86960000Y-110290000D02*
X86960000Y-113230000D01*
X87200000Y-110290000D02*
X87200000Y-113230000D01*
X87080000Y-110290000D02*
X87080000Y-113230000D01*
X92640000Y-111760000D02*
X91620000Y-111760000D01*
X85160000Y-111760000D02*
X86180000Y-111760000D01*
X91620000Y-110290000D02*
X86180000Y-110290000D01*
X91620000Y-113230000D02*
X91620000Y-110290000D01*
X86180000Y-113230000D02*
X91620000Y-113230000D01*
X86180000Y-110290000D02*
X86180000Y-113230000D01*
D10*
X126666666Y-68032380D02*
X126666666Y-68746666D01*
X126619047Y-68889523D01*
X126523809Y-68984761D01*
X126380952Y-69032380D01*
X126285714Y-69032380D01*
X127571428Y-68365714D02*
X127571428Y-69032380D01*
X127333333Y-67984761D02*
X127095238Y-68699047D01*
X127714285Y-68699047D01*
X91965238Y-69032380D02*
X91489047Y-69032380D01*
X91489047Y-68032380D01*
X92298571Y-68508571D02*
X92631904Y-68508571D01*
X92774761Y-69032380D02*
X92298571Y-69032380D01*
X92298571Y-68032380D01*
X92774761Y-68032380D01*
X93203333Y-69032380D02*
X93203333Y-68032380D01*
X93441428Y-68032380D01*
X93584285Y-68080000D01*
X93679523Y-68175238D01*
X93727142Y-68270476D01*
X93774761Y-68460952D01*
X93774761Y-68603809D01*
X93727142Y-68794285D01*
X93679523Y-68889523D01*
X93584285Y-68984761D01*
X93441428Y-69032380D01*
X93203333Y-69032380D01*
X94155714Y-68984761D02*
X94250952Y-69032380D01*
X94441428Y-69032380D01*
X94536666Y-68984761D01*
X94584285Y-68889523D01*
X94584285Y-68841904D01*
X94536666Y-68746666D01*
X94441428Y-68699047D01*
X94298571Y-68699047D01*
X94203333Y-68651428D01*
X94155714Y-68556190D01*
X94155714Y-68508571D01*
X94203333Y-68413333D01*
X94298571Y-68365714D01*
X94441428Y-68365714D01*
X94536666Y-68413333D01*
X95917619Y-69032380D02*
X95822380Y-68984761D01*
X95774761Y-68937142D01*
X95727142Y-68841904D01*
X95727142Y-68556190D01*
X95774761Y-68460952D01*
X95822380Y-68413333D01*
X95917619Y-68365714D01*
X96060476Y-68365714D01*
X96155714Y-68413333D01*
X96203333Y-68460952D01*
X96250952Y-68556190D01*
X96250952Y-68841904D01*
X96203333Y-68937142D01*
X96155714Y-68984761D01*
X96060476Y-69032380D01*
X95917619Y-69032380D01*
X96679523Y-68365714D02*
X96679523Y-69032380D01*
X96679523Y-68460952D02*
X96727142Y-68413333D01*
X96822380Y-68365714D01*
X96965238Y-68365714D01*
X97060476Y-68413333D01*
X97108095Y-68508571D01*
X97108095Y-69032380D01*
X98679523Y-68508571D02*
X98822380Y-68556190D01*
X98870000Y-68603809D01*
X98917619Y-68699047D01*
X98917619Y-68841904D01*
X98870000Y-68937142D01*
X98822380Y-68984761D01*
X98727142Y-69032380D01*
X98346190Y-69032380D01*
X98346190Y-68032380D01*
X98679523Y-68032380D01*
X98774761Y-68080000D01*
X98822380Y-68127619D01*
X98870000Y-68222857D01*
X98870000Y-68318095D01*
X98822380Y-68413333D01*
X98774761Y-68460952D01*
X98679523Y-68508571D01*
X98346190Y-68508571D01*
X99774761Y-68365714D02*
X99774761Y-69032380D01*
X99346190Y-68365714D02*
X99346190Y-68889523D01*
X99393809Y-68984761D01*
X99489047Y-69032380D01*
X99631904Y-69032380D01*
X99727142Y-68984761D01*
X99774761Y-68937142D01*
X100108095Y-68365714D02*
X100489047Y-68365714D01*
X100250952Y-68032380D02*
X100250952Y-68889523D01*
X100298571Y-68984761D01*
X100393809Y-69032380D01*
X100489047Y-69032380D01*
X100679523Y-68365714D02*
X101060476Y-68365714D01*
X100822380Y-68032380D02*
X100822380Y-68889523D01*
X100869999Y-68984761D01*
X100965238Y-69032380D01*
X101060476Y-69032380D01*
X101536666Y-69032380D02*
X101441428Y-68984761D01*
X101393809Y-68937142D01*
X101346190Y-68841904D01*
X101346190Y-68556190D01*
X101393809Y-68460952D01*
X101441428Y-68413333D01*
X101536666Y-68365714D01*
X101679523Y-68365714D01*
X101774761Y-68413333D01*
X101822380Y-68460952D01*
X101869999Y-68556190D01*
X101869999Y-68841904D01*
X101822380Y-68937142D01*
X101774761Y-68984761D01*
X101679523Y-69032380D01*
X101536666Y-69032380D01*
X102298571Y-68365714D02*
X102298571Y-69032380D01*
X102298571Y-68460952D02*
X102346190Y-68413333D01*
X102441428Y-68365714D01*
X102584285Y-68365714D01*
X102679523Y-68413333D01*
X102727142Y-68508571D01*
X102727142Y-69032380D01*
X103155714Y-68984761D02*
X103250952Y-69032380D01*
X103441428Y-69032380D01*
X103536666Y-68984761D01*
X103584285Y-68889523D01*
X103584285Y-68841904D01*
X103536666Y-68746666D01*
X103441428Y-68699047D01*
X103298571Y-68699047D01*
X103203333Y-68651428D01*
X103155714Y-68556190D01*
X103155714Y-68508571D01*
X103203333Y-68413333D01*
X103298571Y-68365714D01*
X103441428Y-68365714D01*
X103536666Y-68413333D01*
X105203333Y-69032380D02*
X105203333Y-68508571D01*
X105155714Y-68413333D01*
X105060476Y-68365714D01*
X104869999Y-68365714D01*
X104774761Y-68413333D01*
X105203333Y-68984761D02*
X105108095Y-69032380D01*
X104869999Y-69032380D01*
X104774761Y-68984761D01*
X104727142Y-68889523D01*
X104727142Y-68794285D01*
X104774761Y-68699047D01*
X104869999Y-68651428D01*
X105108095Y-68651428D01*
X105203333Y-68603809D01*
X105679523Y-68365714D02*
X105679523Y-69032380D01*
X105679523Y-68460952D02*
X105727142Y-68413333D01*
X105822380Y-68365714D01*
X105965238Y-68365714D01*
X106060476Y-68413333D01*
X106108095Y-68508571D01*
X106108095Y-69032380D01*
X107012857Y-69032380D02*
X107012857Y-68032380D01*
X107012857Y-68984761D02*
X106917619Y-69032380D01*
X106727142Y-69032380D01*
X106631904Y-68984761D01*
X106584285Y-68937142D01*
X106536666Y-68841904D01*
X106536666Y-68556190D01*
X106584285Y-68460952D01*
X106631904Y-68413333D01*
X106727142Y-68365714D01*
X106917619Y-68365714D01*
X107012857Y-68413333D01*
X108203333Y-68984761D02*
X108346190Y-69032380D01*
X108584285Y-69032380D01*
X108679523Y-68984761D01*
X108727142Y-68937142D01*
X108774761Y-68841904D01*
X108774761Y-68746666D01*
X108727142Y-68651428D01*
X108679523Y-68603809D01*
X108584285Y-68556190D01*
X108393809Y-68508571D01*
X108298571Y-68460952D01*
X108250952Y-68413333D01*
X108203333Y-68318095D01*
X108203333Y-68222857D01*
X108250952Y-68127619D01*
X108298571Y-68080000D01*
X108393809Y-68032380D01*
X108631904Y-68032380D01*
X108774761Y-68080000D01*
X109108095Y-68365714D02*
X109298571Y-69032380D01*
X109489047Y-68556190D01*
X109679523Y-69032380D01*
X109869999Y-68365714D01*
X110250952Y-69032380D02*
X110250952Y-68365714D01*
X110250952Y-68032380D02*
X110203333Y-68080000D01*
X110250952Y-68127619D01*
X110298571Y-68080000D01*
X110250952Y-68032380D01*
X110250952Y-68127619D01*
X110584285Y-68365714D02*
X110965238Y-68365714D01*
X110727142Y-68032380D02*
X110727142Y-68889523D01*
X110774761Y-68984761D01*
X110870000Y-69032380D01*
X110965238Y-69032380D01*
X111727142Y-68984761D02*
X111631904Y-69032380D01*
X111441428Y-69032380D01*
X111346190Y-68984761D01*
X111298571Y-68937142D01*
X111250952Y-68841904D01*
X111250952Y-68556190D01*
X111298571Y-68460952D01*
X111346190Y-68413333D01*
X111441428Y-68365714D01*
X111631904Y-68365714D01*
X111727142Y-68413333D01*
X112155714Y-69032380D02*
X112155714Y-68032380D01*
X112584285Y-69032380D02*
X112584285Y-68508571D01*
X112536666Y-68413333D01*
X112441428Y-68365714D01*
X112298571Y-68365714D01*
X112203333Y-68413333D01*
X112155714Y-68460952D01*
X113441428Y-68984761D02*
X113346190Y-69032380D01*
X113155714Y-69032380D01*
X113060476Y-68984761D01*
X113012857Y-68889523D01*
X113012857Y-68508571D01*
X113060476Y-68413333D01*
X113155714Y-68365714D01*
X113346190Y-68365714D01*
X113441428Y-68413333D01*
X113489047Y-68508571D01*
X113489047Y-68603809D01*
X113012857Y-68699047D01*
X113870000Y-68984761D02*
X113965238Y-69032380D01*
X114155714Y-69032380D01*
X114250952Y-68984761D01*
X114298571Y-68889523D01*
X114298571Y-68841904D01*
X114250952Y-68746666D01*
X114155714Y-68699047D01*
X114012857Y-68699047D01*
X113917619Y-68651428D01*
X113870000Y-68556190D01*
X113870000Y-68508571D01*
X113917619Y-68413333D01*
X114012857Y-68365714D01*
X114155714Y-68365714D01*
X114250952Y-68413333D01*
X62992380Y-105814761D02*
X63135238Y-105862380D01*
X63373333Y-105862380D01*
X63468571Y-105814761D01*
X63516190Y-105767142D01*
X63563809Y-105671904D01*
X63563809Y-105576666D01*
X63516190Y-105481428D01*
X63468571Y-105433809D01*
X63373333Y-105386190D01*
X63182857Y-105338571D01*
X63087619Y-105290952D01*
X63040000Y-105243333D01*
X62992380Y-105148095D01*
X62992380Y-105052857D01*
X63040000Y-104957619D01*
X63087619Y-104910000D01*
X63182857Y-104862380D01*
X63420952Y-104862380D01*
X63563809Y-104910000D01*
X63897142Y-105195714D02*
X64087619Y-105862380D01*
X64278095Y-105386190D01*
X64468571Y-105862380D01*
X64659047Y-105195714D01*
X65040000Y-105862380D02*
X65040000Y-105195714D01*
X65040000Y-104862380D02*
X64992380Y-104910000D01*
X65040000Y-104957619D01*
X65087619Y-104910000D01*
X65040000Y-104862380D01*
X65040000Y-104957619D01*
X65373333Y-105195714D02*
X65754285Y-105195714D01*
X65516190Y-104862380D02*
X65516190Y-105719523D01*
X65563809Y-105814761D01*
X65659047Y-105862380D01*
X65754285Y-105862380D01*
X66516190Y-105814761D02*
X66420952Y-105862380D01*
X66230476Y-105862380D01*
X66135238Y-105814761D01*
X66087619Y-105767142D01*
X66040000Y-105671904D01*
X66040000Y-105386190D01*
X66087619Y-105290952D01*
X66135238Y-105243333D01*
X66230476Y-105195714D01*
X66420952Y-105195714D01*
X66516190Y-105243333D01*
X66944761Y-105862380D02*
X66944761Y-104862380D01*
X67373333Y-105862380D02*
X67373333Y-105338571D01*
X67325714Y-105243333D01*
X67230476Y-105195714D01*
X67087619Y-105195714D01*
X66992380Y-105243333D01*
X66944761Y-105290952D01*
X68230476Y-105814761D02*
X68135238Y-105862380D01*
X67944761Y-105862380D01*
X67849523Y-105814761D01*
X67801904Y-105719523D01*
X67801904Y-105338571D01*
X67849523Y-105243333D01*
X67944761Y-105195714D01*
X68135238Y-105195714D01*
X68230476Y-105243333D01*
X68278095Y-105338571D01*
X68278095Y-105433809D01*
X67801904Y-105529047D01*
X68659047Y-105814761D02*
X68754285Y-105862380D01*
X68944761Y-105862380D01*
X69040000Y-105814761D01*
X69087619Y-105719523D01*
X69087619Y-105671904D01*
X69040000Y-105576666D01*
X68944761Y-105529047D01*
X68801904Y-105529047D01*
X68706666Y-105481428D01*
X68659047Y-105386190D01*
X68659047Y-105338571D01*
X68706666Y-105243333D01*
X68801904Y-105195714D01*
X68944761Y-105195714D01*
X69040000Y-105243333D01*
X63016190Y-80386666D02*
X63492380Y-80386666D01*
X62920952Y-80672380D02*
X63254285Y-79672380D01*
X63587619Y-80672380D01*
X63778095Y-79672380D02*
X64349523Y-79672380D01*
X64063809Y-80672380D02*
X64063809Y-79672380D01*
X64540000Y-79672380D02*
X65111428Y-79672380D01*
X64825714Y-80672380D02*
X64825714Y-79672380D01*
X65444761Y-80672380D02*
X65444761Y-80005714D01*
X65444761Y-79672380D02*
X65397142Y-79720000D01*
X65444761Y-79767619D01*
X65492380Y-79720000D01*
X65444761Y-79672380D01*
X65444761Y-79767619D01*
X65920952Y-80005714D02*
X65920952Y-80672380D01*
X65920952Y-80100952D02*
X65968571Y-80053333D01*
X66063809Y-80005714D01*
X66206666Y-80005714D01*
X66301904Y-80053333D01*
X66349523Y-80148571D01*
X66349523Y-80672380D01*
X66730476Y-80005714D02*
X66968571Y-80672380D01*
X67206666Y-80005714D02*
X66968571Y-80672380D01*
X66873333Y-80910476D01*
X66825714Y-80958095D01*
X66730476Y-81005714D01*
X67730476Y-80100952D02*
X67635238Y-80053333D01*
X67587619Y-80005714D01*
X67540000Y-79910476D01*
X67540000Y-79862857D01*
X67587619Y-79767619D01*
X67635238Y-79720000D01*
X67730476Y-79672380D01*
X67920952Y-79672380D01*
X68016190Y-79720000D01*
X68063809Y-79767619D01*
X68111428Y-79862857D01*
X68111428Y-79910476D01*
X68063809Y-80005714D01*
X68016190Y-80053333D01*
X67920952Y-80100952D01*
X67730476Y-80100952D01*
X67635238Y-80148571D01*
X67587619Y-80196190D01*
X67540000Y-80291428D01*
X67540000Y-80481904D01*
X67587619Y-80577142D01*
X67635238Y-80624761D01*
X67730476Y-80672380D01*
X67920952Y-80672380D01*
X68016190Y-80624761D01*
X68063809Y-80577142D01*
X68111428Y-80481904D01*
X68111428Y-80291428D01*
X68063809Y-80196190D01*
X68016190Y-80148571D01*
X67920952Y-80100952D01*
X69016190Y-79672380D02*
X68540000Y-79672380D01*
X68492380Y-80148571D01*
X68540000Y-80100952D01*
X68635238Y-80053333D01*
X68873333Y-80053333D01*
X68968571Y-80100952D01*
X69016190Y-80148571D01*
X69063809Y-80243809D01*
X69063809Y-80481904D01*
X69016190Y-80577142D01*
X68968571Y-80624761D01*
X68873333Y-80672380D01*
X68635238Y-80672380D01*
X68540000Y-80624761D01*
X68492380Y-80577142D01*
X96131142Y-105862380D02*
X95797809Y-105386190D01*
X95559714Y-105862380D02*
X95559714Y-104862380D01*
X95940666Y-104862380D01*
X96035904Y-104910000D01*
X96083523Y-104957619D01*
X96131142Y-105052857D01*
X96131142Y-105195714D01*
X96083523Y-105290952D01*
X96035904Y-105338571D01*
X95940666Y-105386190D01*
X95559714Y-105386190D01*
X96464476Y-104862380D02*
X97083523Y-104862380D01*
X96750190Y-105243333D01*
X96893047Y-105243333D01*
X96988285Y-105290952D01*
X97035904Y-105338571D01*
X97083523Y-105433809D01*
X97083523Y-105671904D01*
X97035904Y-105767142D01*
X96988285Y-105814761D01*
X96893047Y-105862380D01*
X96607333Y-105862380D01*
X96512095Y-105814761D01*
X96464476Y-105767142D01*
X98035904Y-105862380D02*
X97464476Y-105862380D01*
X97750190Y-105862380D02*
X97750190Y-104862380D01*
X97654952Y-105005238D01*
X97559714Y-105100476D01*
X97464476Y-105148095D01*
X88304761Y-105862380D02*
X87733333Y-105862380D01*
X88019047Y-105862380D02*
X88019047Y-104862380D01*
X87923809Y-105005238D01*
X87828571Y-105100476D01*
X87733333Y-105148095D01*
X88923809Y-104862380D02*
X89019047Y-104862380D01*
X89114285Y-104910000D01*
X89161904Y-104957619D01*
X89209523Y-105052857D01*
X89257142Y-105243333D01*
X89257142Y-105481428D01*
X89209523Y-105671904D01*
X89161904Y-105767142D01*
X89114285Y-105814761D01*
X89019047Y-105862380D01*
X88923809Y-105862380D01*
X88828571Y-105814761D01*
X88780952Y-105767142D01*
X88733333Y-105671904D01*
X88685714Y-105481428D01*
X88685714Y-105243333D01*
X88733333Y-105052857D01*
X88780952Y-104957619D01*
X88828571Y-104910000D01*
X88923809Y-104862380D01*
X89685714Y-105862380D02*
X89685714Y-104862380D01*
X89780952Y-105481428D02*
X90066666Y-105862380D01*
X90066666Y-105195714D02*
X89685714Y-105576666D01*
X96131142Y-102052380D02*
X95797809Y-101576190D01*
X95559714Y-102052380D02*
X95559714Y-101052380D01*
X95940666Y-101052380D01*
X96035904Y-101100000D01*
X96083523Y-101147619D01*
X96131142Y-101242857D01*
X96131142Y-101385714D01*
X96083523Y-101480952D01*
X96035904Y-101528571D01*
X95940666Y-101576190D01*
X95559714Y-101576190D01*
X96464476Y-101052380D02*
X97083523Y-101052380D01*
X96750190Y-101433333D01*
X96893047Y-101433333D01*
X96988285Y-101480952D01*
X97035904Y-101528571D01*
X97083523Y-101623809D01*
X97083523Y-101861904D01*
X97035904Y-101957142D01*
X96988285Y-102004761D01*
X96893047Y-102052380D01*
X96607333Y-102052380D01*
X96512095Y-102004761D01*
X96464476Y-101957142D01*
X97702571Y-101052380D02*
X97797809Y-101052380D01*
X97893047Y-101100000D01*
X97940666Y-101147619D01*
X97988285Y-101242857D01*
X98035904Y-101433333D01*
X98035904Y-101671428D01*
X97988285Y-101861904D01*
X97940666Y-101957142D01*
X97893047Y-102004761D01*
X97797809Y-102052380D01*
X97702571Y-102052380D01*
X97607333Y-102004761D01*
X97559714Y-101957142D01*
X97512095Y-101861904D01*
X97464476Y-101671428D01*
X97464476Y-101433333D01*
X97512095Y-101242857D01*
X97559714Y-101147619D01*
X97607333Y-101100000D01*
X97702571Y-101052380D01*
X88185714Y-101052380D02*
X87709523Y-101052380D01*
X87661904Y-101528571D01*
X87709523Y-101480952D01*
X87804761Y-101433333D01*
X88042857Y-101433333D01*
X88138095Y-101480952D01*
X88185714Y-101528571D01*
X88233333Y-101623809D01*
X88233333Y-101861904D01*
X88185714Y-101957142D01*
X88138095Y-102004761D01*
X88042857Y-102052380D01*
X87804761Y-102052380D01*
X87709523Y-102004761D01*
X87661904Y-101957142D01*
X88852380Y-101052380D02*
X88947619Y-101052380D01*
X89042857Y-101100000D01*
X89090476Y-101147619D01*
X89138095Y-101242857D01*
X89185714Y-101433333D01*
X89185714Y-101671428D01*
X89138095Y-101861904D01*
X89090476Y-101957142D01*
X89042857Y-102004761D01*
X88947619Y-102052380D01*
X88852380Y-102052380D01*
X88757142Y-102004761D01*
X88709523Y-101957142D01*
X88661904Y-101861904D01*
X88614285Y-101671428D01*
X88614285Y-101433333D01*
X88661904Y-101242857D01*
X88709523Y-101147619D01*
X88757142Y-101100000D01*
X88852380Y-101052380D01*
X89804761Y-101052380D02*
X89900000Y-101052380D01*
X89995238Y-101100000D01*
X90042857Y-101147619D01*
X90090476Y-101242857D01*
X90138095Y-101433333D01*
X90138095Y-101671428D01*
X90090476Y-101861904D01*
X90042857Y-101957142D01*
X89995238Y-102004761D01*
X89900000Y-102052380D01*
X89804761Y-102052380D01*
X89709523Y-102004761D01*
X89661904Y-101957142D01*
X89614285Y-101861904D01*
X89566666Y-101671428D01*
X89566666Y-101433333D01*
X89614285Y-101242857D01*
X89661904Y-101147619D01*
X89709523Y-101100000D01*
X89804761Y-101052380D01*
X80462380Y-83192857D02*
X79986190Y-83526190D01*
X80462380Y-83764285D02*
X79462380Y-83764285D01*
X79462380Y-83383333D01*
X79510000Y-83288095D01*
X79557619Y-83240476D01*
X79652857Y-83192857D01*
X79795714Y-83192857D01*
X79890952Y-83240476D01*
X79938571Y-83288095D01*
X79986190Y-83383333D01*
X79986190Y-83764285D01*
X79557619Y-82811904D02*
X79510000Y-82764285D01*
X79462380Y-82669047D01*
X79462380Y-82430952D01*
X79510000Y-82335714D01*
X79557619Y-82288095D01*
X79652857Y-82240476D01*
X79748095Y-82240476D01*
X79890952Y-82288095D01*
X80462380Y-82859523D01*
X80462380Y-82240476D01*
X80462380Y-81764285D02*
X80462380Y-81573809D01*
X80414761Y-81478571D01*
X80367142Y-81430952D01*
X80224285Y-81335714D01*
X80033809Y-81288095D01*
X79652857Y-81288095D01*
X79557619Y-81335714D01*
X79510000Y-81383333D01*
X79462380Y-81478571D01*
X79462380Y-81669047D01*
X79510000Y-81764285D01*
X79557619Y-81811904D01*
X79652857Y-81859523D01*
X79890952Y-81859523D01*
X79986190Y-81811904D01*
X80033809Y-81764285D01*
X80081428Y-81669047D01*
X80081428Y-81478571D01*
X80033809Y-81383333D01*
X79986190Y-81335714D01*
X79890952Y-81288095D01*
X83002380Y-83192857D02*
X82526190Y-83526190D01*
X83002380Y-83764285D02*
X82002380Y-83764285D01*
X82002380Y-83383333D01*
X82050000Y-83288095D01*
X82097619Y-83240476D01*
X82192857Y-83192857D01*
X82335714Y-83192857D01*
X82430952Y-83240476D01*
X82478571Y-83288095D01*
X82526190Y-83383333D01*
X82526190Y-83764285D01*
X82097619Y-82811904D02*
X82050000Y-82764285D01*
X82002380Y-82669047D01*
X82002380Y-82430952D01*
X82050000Y-82335714D01*
X82097619Y-82288095D01*
X82192857Y-82240476D01*
X82288095Y-82240476D01*
X82430952Y-82288095D01*
X83002380Y-82859523D01*
X83002380Y-82240476D01*
X82430952Y-81669047D02*
X82383333Y-81764285D01*
X82335714Y-81811904D01*
X82240476Y-81859523D01*
X82192857Y-81859523D01*
X82097619Y-81811904D01*
X82050000Y-81764285D01*
X82002380Y-81669047D01*
X82002380Y-81478571D01*
X82050000Y-81383333D01*
X82097619Y-81335714D01*
X82192857Y-81288095D01*
X82240476Y-81288095D01*
X82335714Y-81335714D01*
X82383333Y-81383333D01*
X82430952Y-81478571D01*
X82430952Y-81669047D01*
X82478571Y-81764285D01*
X82526190Y-81811904D01*
X82621428Y-81859523D01*
X82811904Y-81859523D01*
X82907142Y-81811904D01*
X82954761Y-81764285D01*
X83002380Y-81669047D01*
X83002380Y-81478571D01*
X82954761Y-81383333D01*
X82907142Y-81335714D01*
X82811904Y-81288095D01*
X82621428Y-81288095D01*
X82526190Y-81335714D01*
X82478571Y-81383333D01*
X82430952Y-81478571D01*
X85542380Y-83192857D02*
X85066190Y-83526190D01*
X85542380Y-83764285D02*
X84542380Y-83764285D01*
X84542380Y-83383333D01*
X84590000Y-83288095D01*
X84637619Y-83240476D01*
X84732857Y-83192857D01*
X84875714Y-83192857D01*
X84970952Y-83240476D01*
X85018571Y-83288095D01*
X85066190Y-83383333D01*
X85066190Y-83764285D01*
X84637619Y-82811904D02*
X84590000Y-82764285D01*
X84542380Y-82669047D01*
X84542380Y-82430952D01*
X84590000Y-82335714D01*
X84637619Y-82288095D01*
X84732857Y-82240476D01*
X84828095Y-82240476D01*
X84970952Y-82288095D01*
X85542380Y-82859523D01*
X85542380Y-82240476D01*
X84542380Y-81907142D02*
X84542380Y-81240476D01*
X85542380Y-81669047D01*
X88082380Y-83192857D02*
X87606190Y-83526190D01*
X88082380Y-83764285D02*
X87082380Y-83764285D01*
X87082380Y-83383333D01*
X87130000Y-83288095D01*
X87177619Y-83240476D01*
X87272857Y-83192857D01*
X87415714Y-83192857D01*
X87510952Y-83240476D01*
X87558571Y-83288095D01*
X87606190Y-83383333D01*
X87606190Y-83764285D01*
X87177619Y-82811904D02*
X87130000Y-82764285D01*
X87082380Y-82669047D01*
X87082380Y-82430952D01*
X87130000Y-82335714D01*
X87177619Y-82288095D01*
X87272857Y-82240476D01*
X87368095Y-82240476D01*
X87510952Y-82288095D01*
X88082380Y-82859523D01*
X88082380Y-82240476D01*
X87082380Y-81383333D02*
X87082380Y-81573809D01*
X87130000Y-81669047D01*
X87177619Y-81716666D01*
X87320476Y-81811904D01*
X87510952Y-81859523D01*
X87891904Y-81859523D01*
X87987142Y-81811904D01*
X88034761Y-81764285D01*
X88082380Y-81669047D01*
X88082380Y-81478571D01*
X88034761Y-81383333D01*
X87987142Y-81335714D01*
X87891904Y-81288095D01*
X87653809Y-81288095D01*
X87558571Y-81335714D01*
X87510952Y-81383333D01*
X87463333Y-81478571D01*
X87463333Y-81669047D01*
X87510952Y-81764285D01*
X87558571Y-81811904D01*
X87653809Y-81859523D01*
X90622380Y-83192857D02*
X90146190Y-83526190D01*
X90622380Y-83764285D02*
X89622380Y-83764285D01*
X89622380Y-83383333D01*
X89670000Y-83288095D01*
X89717619Y-83240476D01*
X89812857Y-83192857D01*
X89955714Y-83192857D01*
X90050952Y-83240476D01*
X90098571Y-83288095D01*
X90146190Y-83383333D01*
X90146190Y-83764285D01*
X89717619Y-82811904D02*
X89670000Y-82764285D01*
X89622380Y-82669047D01*
X89622380Y-82430952D01*
X89670000Y-82335714D01*
X89717619Y-82288095D01*
X89812857Y-82240476D01*
X89908095Y-82240476D01*
X90050952Y-82288095D01*
X90622380Y-82859523D01*
X90622380Y-82240476D01*
X89622380Y-81335714D02*
X89622380Y-81811904D01*
X90098571Y-81859523D01*
X90050952Y-81811904D01*
X90003333Y-81716666D01*
X90003333Y-81478571D01*
X90050952Y-81383333D01*
X90098571Y-81335714D01*
X90193809Y-81288095D01*
X90431904Y-81288095D01*
X90527142Y-81335714D01*
X90574761Y-81383333D01*
X90622380Y-81478571D01*
X90622380Y-81716666D01*
X90574761Y-81811904D01*
X90527142Y-81859523D01*
X104767142Y-95702380D02*
X104433809Y-95226190D01*
X104195714Y-95702380D02*
X104195714Y-94702380D01*
X104576666Y-94702380D01*
X104671904Y-94750000D01*
X104719523Y-94797619D01*
X104767142Y-94892857D01*
X104767142Y-95035714D01*
X104719523Y-95130952D01*
X104671904Y-95178571D01*
X104576666Y-95226190D01*
X104195714Y-95226190D01*
X105148095Y-94797619D02*
X105195714Y-94750000D01*
X105290952Y-94702380D01*
X105529047Y-94702380D01*
X105624285Y-94750000D01*
X105671904Y-94797619D01*
X105719523Y-94892857D01*
X105719523Y-94988095D01*
X105671904Y-95130952D01*
X105100476Y-95702380D01*
X105719523Y-95702380D01*
X106576666Y-95035714D02*
X106576666Y-95702380D01*
X106338571Y-94654761D02*
X106100476Y-95369047D01*
X106719523Y-95369047D01*
X97194761Y-95702380D02*
X96623333Y-95702380D01*
X96909047Y-95702380D02*
X96909047Y-94702380D01*
X96813809Y-94845238D01*
X96718571Y-94940476D01*
X96623333Y-94988095D01*
X97813809Y-94702380D02*
X97909047Y-94702380D01*
X98004285Y-94750000D01*
X98051904Y-94797619D01*
X98099523Y-94892857D01*
X98147142Y-95083333D01*
X98147142Y-95321428D01*
X98099523Y-95511904D01*
X98051904Y-95607142D01*
X98004285Y-95654761D01*
X97909047Y-95702380D01*
X97813809Y-95702380D01*
X97718571Y-95654761D01*
X97670952Y-95607142D01*
X97623333Y-95511904D01*
X97575714Y-95321428D01*
X97575714Y-95083333D01*
X97623333Y-94892857D01*
X97670952Y-94797619D01*
X97718571Y-94750000D01*
X97813809Y-94702380D01*
X98575714Y-95702380D02*
X98575714Y-94702380D01*
X98670952Y-95321428D02*
X98956666Y-95702380D01*
X98956666Y-95035714D02*
X98575714Y-95416666D01*
X93162380Y-83192857D02*
X92686190Y-83526190D01*
X93162380Y-83764285D02*
X92162380Y-83764285D01*
X92162380Y-83383333D01*
X92210000Y-83288095D01*
X92257619Y-83240476D01*
X92352857Y-83192857D01*
X92495714Y-83192857D01*
X92590952Y-83240476D01*
X92638571Y-83288095D01*
X92686190Y-83383333D01*
X92686190Y-83764285D01*
X92257619Y-82811904D02*
X92210000Y-82764285D01*
X92162380Y-82669047D01*
X92162380Y-82430952D01*
X92210000Y-82335714D01*
X92257619Y-82288095D01*
X92352857Y-82240476D01*
X92448095Y-82240476D01*
X92590952Y-82288095D01*
X93162380Y-82859523D01*
X93162380Y-82240476D01*
X92162380Y-81907142D02*
X92162380Y-81288095D01*
X92543333Y-81621428D01*
X92543333Y-81478571D01*
X92590952Y-81383333D01*
X92638571Y-81335714D01*
X92733809Y-81288095D01*
X92971904Y-81288095D01*
X93067142Y-81335714D01*
X93114761Y-81383333D01*
X93162380Y-81478571D01*
X93162380Y-81764285D01*
X93114761Y-81859523D01*
X93067142Y-81907142D01*
X104767142Y-91892380D02*
X104433809Y-91416190D01*
X104195714Y-91892380D02*
X104195714Y-90892380D01*
X104576666Y-90892380D01*
X104671904Y-90940000D01*
X104719523Y-90987619D01*
X104767142Y-91082857D01*
X104767142Y-91225714D01*
X104719523Y-91320952D01*
X104671904Y-91368571D01*
X104576666Y-91416190D01*
X104195714Y-91416190D01*
X105148095Y-90987619D02*
X105195714Y-90940000D01*
X105290952Y-90892380D01*
X105529047Y-90892380D01*
X105624285Y-90940000D01*
X105671904Y-90987619D01*
X105719523Y-91082857D01*
X105719523Y-91178095D01*
X105671904Y-91320952D01*
X105100476Y-91892380D01*
X105719523Y-91892380D01*
X106100476Y-90987619D02*
X106148095Y-90940000D01*
X106243333Y-90892380D01*
X106481428Y-90892380D01*
X106576666Y-90940000D01*
X106624285Y-90987619D01*
X106671904Y-91082857D01*
X106671904Y-91178095D01*
X106624285Y-91320952D01*
X106052857Y-91892380D01*
X106671904Y-91892380D01*
X97075714Y-90892380D02*
X96599523Y-90892380D01*
X96551904Y-91368571D01*
X96599523Y-91320952D01*
X96694761Y-91273333D01*
X96932857Y-91273333D01*
X97028095Y-91320952D01*
X97075714Y-91368571D01*
X97123333Y-91463809D01*
X97123333Y-91701904D01*
X97075714Y-91797142D01*
X97028095Y-91844761D01*
X96932857Y-91892380D01*
X96694761Y-91892380D01*
X96599523Y-91844761D01*
X96551904Y-91797142D01*
X97742380Y-90892380D02*
X97837619Y-90892380D01*
X97932857Y-90940000D01*
X97980476Y-90987619D01*
X98028095Y-91082857D01*
X98075714Y-91273333D01*
X98075714Y-91511428D01*
X98028095Y-91701904D01*
X97980476Y-91797142D01*
X97932857Y-91844761D01*
X97837619Y-91892380D01*
X97742380Y-91892380D01*
X97647142Y-91844761D01*
X97599523Y-91797142D01*
X97551904Y-91701904D01*
X97504285Y-91511428D01*
X97504285Y-91273333D01*
X97551904Y-91082857D01*
X97599523Y-90987619D01*
X97647142Y-90940000D01*
X97742380Y-90892380D01*
X98694761Y-90892380D02*
X98790000Y-90892380D01*
X98885238Y-90940000D01*
X98932857Y-90987619D01*
X98980476Y-91082857D01*
X99028095Y-91273333D01*
X99028095Y-91511428D01*
X98980476Y-91701904D01*
X98932857Y-91797142D01*
X98885238Y-91844761D01*
X98790000Y-91892380D01*
X98694761Y-91892380D01*
X98599523Y-91844761D01*
X98551904Y-91797142D01*
X98504285Y-91701904D01*
X98456666Y-91511428D01*
X98456666Y-91273333D01*
X98504285Y-91082857D01*
X98551904Y-90987619D01*
X98599523Y-90940000D01*
X98694761Y-90892380D01*
X95702380Y-83192857D02*
X95226190Y-83526190D01*
X95702380Y-83764285D02*
X94702380Y-83764285D01*
X94702380Y-83383333D01*
X94750000Y-83288095D01*
X94797619Y-83240476D01*
X94892857Y-83192857D01*
X95035714Y-83192857D01*
X95130952Y-83240476D01*
X95178571Y-83288095D01*
X95226190Y-83383333D01*
X95226190Y-83764285D01*
X94797619Y-82811904D02*
X94750000Y-82764285D01*
X94702380Y-82669047D01*
X94702380Y-82430952D01*
X94750000Y-82335714D01*
X94797619Y-82288095D01*
X94892857Y-82240476D01*
X94988095Y-82240476D01*
X95130952Y-82288095D01*
X95702380Y-82859523D01*
X95702380Y-82240476D01*
X95702380Y-81288095D02*
X95702380Y-81859523D01*
X95702380Y-81573809D02*
X94702380Y-81573809D01*
X94845238Y-81669047D01*
X94940476Y-81764285D01*
X94988095Y-81859523D01*
X98242380Y-83192857D02*
X97766190Y-83526190D01*
X98242380Y-83764285D02*
X97242380Y-83764285D01*
X97242380Y-83383333D01*
X97290000Y-83288095D01*
X97337619Y-83240476D01*
X97432857Y-83192857D01*
X97575714Y-83192857D01*
X97670952Y-83240476D01*
X97718571Y-83288095D01*
X97766190Y-83383333D01*
X97766190Y-83764285D01*
X97337619Y-82811904D02*
X97290000Y-82764285D01*
X97242380Y-82669047D01*
X97242380Y-82430952D01*
X97290000Y-82335714D01*
X97337619Y-82288095D01*
X97432857Y-82240476D01*
X97528095Y-82240476D01*
X97670952Y-82288095D01*
X98242380Y-82859523D01*
X98242380Y-82240476D01*
X97242380Y-81621428D02*
X97242380Y-81526190D01*
X97290000Y-81430952D01*
X97337619Y-81383333D01*
X97432857Y-81335714D01*
X97623333Y-81288095D01*
X97861428Y-81288095D01*
X98051904Y-81335714D01*
X98147142Y-81383333D01*
X98194761Y-81430952D01*
X98242380Y-81526190D01*
X98242380Y-81621428D01*
X98194761Y-81716666D01*
X98147142Y-81764285D01*
X98051904Y-81811904D01*
X97861428Y-81859523D01*
X97623333Y-81859523D01*
X97432857Y-81811904D01*
X97337619Y-81764285D01*
X97290000Y-81716666D01*
X97242380Y-81621428D01*
X100782380Y-83192857D02*
X100306190Y-83526190D01*
X100782380Y-83764285D02*
X99782380Y-83764285D01*
X99782380Y-83383333D01*
X99830000Y-83288095D01*
X99877619Y-83240476D01*
X99972857Y-83192857D01*
X100115714Y-83192857D01*
X100210952Y-83240476D01*
X100258571Y-83288095D01*
X100306190Y-83383333D01*
X100306190Y-83764285D01*
X100782380Y-82240476D02*
X100782380Y-82811904D01*
X100782380Y-82526190D02*
X99782380Y-82526190D01*
X99925238Y-82621428D01*
X100020476Y-82716666D01*
X100068095Y-82811904D01*
X100782380Y-81764285D02*
X100782380Y-81573809D01*
X100734761Y-81478571D01*
X100687142Y-81430952D01*
X100544285Y-81335714D01*
X100353809Y-81288095D01*
X99972857Y-81288095D01*
X99877619Y-81335714D01*
X99830000Y-81383333D01*
X99782380Y-81478571D01*
X99782380Y-81669047D01*
X99830000Y-81764285D01*
X99877619Y-81811904D01*
X99972857Y-81859523D01*
X100210952Y-81859523D01*
X100306190Y-81811904D01*
X100353809Y-81764285D01*
X100401428Y-81669047D01*
X100401428Y-81478571D01*
X100353809Y-81383333D01*
X100306190Y-81335714D01*
X100210952Y-81288095D01*
X103322380Y-83192857D02*
X102846190Y-83526190D01*
X103322380Y-83764285D02*
X102322380Y-83764285D01*
X102322380Y-83383333D01*
X102370000Y-83288095D01*
X102417619Y-83240476D01*
X102512857Y-83192857D01*
X102655714Y-83192857D01*
X102750952Y-83240476D01*
X102798571Y-83288095D01*
X102846190Y-83383333D01*
X102846190Y-83764285D01*
X103322380Y-82240476D02*
X103322380Y-82811904D01*
X103322380Y-82526190D02*
X102322380Y-82526190D01*
X102465238Y-82621428D01*
X102560476Y-82716666D01*
X102608095Y-82811904D01*
X102750952Y-81669047D02*
X102703333Y-81764285D01*
X102655714Y-81811904D01*
X102560476Y-81859523D01*
X102512857Y-81859523D01*
X102417619Y-81811904D01*
X102370000Y-81764285D01*
X102322380Y-81669047D01*
X102322380Y-81478571D01*
X102370000Y-81383333D01*
X102417619Y-81335714D01*
X102512857Y-81288095D01*
X102560476Y-81288095D01*
X102655714Y-81335714D01*
X102703333Y-81383333D01*
X102750952Y-81478571D01*
X102750952Y-81669047D01*
X102798571Y-81764285D01*
X102846190Y-81811904D01*
X102941428Y-81859523D01*
X103131904Y-81859523D01*
X103227142Y-81811904D01*
X103274761Y-81764285D01*
X103322380Y-81669047D01*
X103322380Y-81478571D01*
X103274761Y-81383333D01*
X103227142Y-81335714D01*
X103131904Y-81288095D01*
X102941428Y-81288095D01*
X102846190Y-81335714D01*
X102798571Y-81383333D01*
X102750952Y-81478571D01*
X105862380Y-83192857D02*
X105386190Y-83526190D01*
X105862380Y-83764285D02*
X104862380Y-83764285D01*
X104862380Y-83383333D01*
X104910000Y-83288095D01*
X104957619Y-83240476D01*
X105052857Y-83192857D01*
X105195714Y-83192857D01*
X105290952Y-83240476D01*
X105338571Y-83288095D01*
X105386190Y-83383333D01*
X105386190Y-83764285D01*
X105862380Y-82240476D02*
X105862380Y-82811904D01*
X105862380Y-82526190D02*
X104862380Y-82526190D01*
X105005238Y-82621428D01*
X105100476Y-82716666D01*
X105148095Y-82811904D01*
X104862380Y-81907142D02*
X104862380Y-81240476D01*
X105862380Y-81669047D01*
X108402380Y-83192857D02*
X107926190Y-83526190D01*
X108402380Y-83764285D02*
X107402380Y-83764285D01*
X107402380Y-83383333D01*
X107450000Y-83288095D01*
X107497619Y-83240476D01*
X107592857Y-83192857D01*
X107735714Y-83192857D01*
X107830952Y-83240476D01*
X107878571Y-83288095D01*
X107926190Y-83383333D01*
X107926190Y-83764285D01*
X108402380Y-82240476D02*
X108402380Y-82811904D01*
X108402380Y-82526190D02*
X107402380Y-82526190D01*
X107545238Y-82621428D01*
X107640476Y-82716666D01*
X107688095Y-82811904D01*
X107402380Y-81383333D02*
X107402380Y-81573809D01*
X107450000Y-81669047D01*
X107497619Y-81716666D01*
X107640476Y-81811904D01*
X107830952Y-81859523D01*
X108211904Y-81859523D01*
X108307142Y-81811904D01*
X108354761Y-81764285D01*
X108402380Y-81669047D01*
X108402380Y-81478571D01*
X108354761Y-81383333D01*
X108307142Y-81335714D01*
X108211904Y-81288095D01*
X107973809Y-81288095D01*
X107878571Y-81335714D01*
X107830952Y-81383333D01*
X107783333Y-81478571D01*
X107783333Y-81669047D01*
X107830952Y-81764285D01*
X107878571Y-81811904D01*
X107973809Y-81859523D01*
X110942380Y-83192857D02*
X110466190Y-83526190D01*
X110942380Y-83764285D02*
X109942380Y-83764285D01*
X109942380Y-83383333D01*
X109990000Y-83288095D01*
X110037619Y-83240476D01*
X110132857Y-83192857D01*
X110275714Y-83192857D01*
X110370952Y-83240476D01*
X110418571Y-83288095D01*
X110466190Y-83383333D01*
X110466190Y-83764285D01*
X110942380Y-82240476D02*
X110942380Y-82811904D01*
X110942380Y-82526190D02*
X109942380Y-82526190D01*
X110085238Y-82621428D01*
X110180476Y-82716666D01*
X110228095Y-82811904D01*
X109942380Y-81335714D02*
X109942380Y-81811904D01*
X110418571Y-81859523D01*
X110370952Y-81811904D01*
X110323333Y-81716666D01*
X110323333Y-81478571D01*
X110370952Y-81383333D01*
X110418571Y-81335714D01*
X110513809Y-81288095D01*
X110751904Y-81288095D01*
X110847142Y-81335714D01*
X110894761Y-81383333D01*
X110942380Y-81478571D01*
X110942380Y-81716666D01*
X110894761Y-81811904D01*
X110847142Y-81859523D01*
X113482380Y-83192857D02*
X113006190Y-83526190D01*
X113482380Y-83764285D02*
X112482380Y-83764285D01*
X112482380Y-83383333D01*
X112530000Y-83288095D01*
X112577619Y-83240476D01*
X112672857Y-83192857D01*
X112815714Y-83192857D01*
X112910952Y-83240476D01*
X112958571Y-83288095D01*
X113006190Y-83383333D01*
X113006190Y-83764285D01*
X113482380Y-82240476D02*
X113482380Y-82811904D01*
X113482380Y-82526190D02*
X112482380Y-82526190D01*
X112625238Y-82621428D01*
X112720476Y-82716666D01*
X112768095Y-82811904D01*
X112815714Y-81383333D02*
X113482380Y-81383333D01*
X112434761Y-81621428D02*
X113149047Y-81859523D01*
X113149047Y-81240476D01*
X116022380Y-83192857D02*
X115546190Y-83526190D01*
X116022380Y-83764285D02*
X115022380Y-83764285D01*
X115022380Y-83383333D01*
X115070000Y-83288095D01*
X115117619Y-83240476D01*
X115212857Y-83192857D01*
X115355714Y-83192857D01*
X115450952Y-83240476D01*
X115498571Y-83288095D01*
X115546190Y-83383333D01*
X115546190Y-83764285D01*
X116022380Y-82240476D02*
X116022380Y-82811904D01*
X116022380Y-82526190D02*
X115022380Y-82526190D01*
X115165238Y-82621428D01*
X115260476Y-82716666D01*
X115308095Y-82811904D01*
X115022380Y-81907142D02*
X115022380Y-81288095D01*
X115403333Y-81621428D01*
X115403333Y-81478571D01*
X115450952Y-81383333D01*
X115498571Y-81335714D01*
X115593809Y-81288095D01*
X115831904Y-81288095D01*
X115927142Y-81335714D01*
X115974761Y-81383333D01*
X116022380Y-81478571D01*
X116022380Y-81764285D01*
X115974761Y-81859523D01*
X115927142Y-81907142D01*
X118562380Y-83192857D02*
X118086190Y-83526190D01*
X118562380Y-83764285D02*
X117562380Y-83764285D01*
X117562380Y-83383333D01*
X117610000Y-83288095D01*
X117657619Y-83240476D01*
X117752857Y-83192857D01*
X117895714Y-83192857D01*
X117990952Y-83240476D01*
X118038571Y-83288095D01*
X118086190Y-83383333D01*
X118086190Y-83764285D01*
X118562380Y-82240476D02*
X118562380Y-82811904D01*
X118562380Y-82526190D02*
X117562380Y-82526190D01*
X117705238Y-82621428D01*
X117800476Y-82716666D01*
X117848095Y-82811904D01*
X117657619Y-81859523D02*
X117610000Y-81811904D01*
X117562380Y-81716666D01*
X117562380Y-81478571D01*
X117610000Y-81383333D01*
X117657619Y-81335714D01*
X117752857Y-81288095D01*
X117848095Y-81288095D01*
X117990952Y-81335714D01*
X118562380Y-81907142D01*
X118562380Y-81288095D01*
X120769142Y-95702380D02*
X120435809Y-95226190D01*
X120197714Y-95702380D02*
X120197714Y-94702380D01*
X120578666Y-94702380D01*
X120673904Y-94750000D01*
X120721523Y-94797619D01*
X120769142Y-94892857D01*
X120769142Y-95035714D01*
X120721523Y-95130952D01*
X120673904Y-95178571D01*
X120578666Y-95226190D01*
X120197714Y-95226190D01*
X121721523Y-95702380D02*
X121150095Y-95702380D01*
X121435809Y-95702380D02*
X121435809Y-94702380D01*
X121340571Y-94845238D01*
X121245333Y-94940476D01*
X121150095Y-94988095D01*
X122673904Y-95702380D02*
X122102476Y-95702380D01*
X122388190Y-95702380D02*
X122388190Y-94702380D01*
X122292952Y-94845238D01*
X122197714Y-94940476D01*
X122102476Y-94988095D01*
X124372761Y-95702380D02*
X123801333Y-95702380D01*
X124087047Y-95702380D02*
X124087047Y-94702380D01*
X123991809Y-94845238D01*
X123896571Y-94940476D01*
X123801333Y-94988095D01*
X124991809Y-94702380D02*
X125087047Y-94702380D01*
X125182285Y-94750000D01*
X125229904Y-94797619D01*
X125277523Y-94892857D01*
X125325142Y-95083333D01*
X125325142Y-95321428D01*
X125277523Y-95511904D01*
X125229904Y-95607142D01*
X125182285Y-95654761D01*
X125087047Y-95702380D01*
X124991809Y-95702380D01*
X124896571Y-95654761D01*
X124848952Y-95607142D01*
X124801333Y-95511904D01*
X124753714Y-95321428D01*
X124753714Y-95083333D01*
X124801333Y-94892857D01*
X124848952Y-94797619D01*
X124896571Y-94750000D01*
X124991809Y-94702380D01*
X125753714Y-95702380D02*
X125753714Y-94702380D01*
X125848952Y-95321428D02*
X126134666Y-95702380D01*
X126134666Y-95035714D02*
X125753714Y-95416666D01*
X121102380Y-83192857D02*
X120626190Y-83526190D01*
X121102380Y-83764285D02*
X120102380Y-83764285D01*
X120102380Y-83383333D01*
X120150000Y-83288095D01*
X120197619Y-83240476D01*
X120292857Y-83192857D01*
X120435714Y-83192857D01*
X120530952Y-83240476D01*
X120578571Y-83288095D01*
X120626190Y-83383333D01*
X120626190Y-83764285D01*
X121102380Y-82240476D02*
X121102380Y-82811904D01*
X121102380Y-82526190D02*
X120102380Y-82526190D01*
X120245238Y-82621428D01*
X120340476Y-82716666D01*
X120388095Y-82811904D01*
X120102380Y-81621428D02*
X120102380Y-81526190D01*
X120150000Y-81430952D01*
X120197619Y-81383333D01*
X120292857Y-81335714D01*
X120483333Y-81288095D01*
X120721428Y-81288095D01*
X120911904Y-81335714D01*
X121007142Y-81383333D01*
X121054761Y-81430952D01*
X121102380Y-81526190D01*
X121102380Y-81621428D01*
X121054761Y-81716666D01*
X121007142Y-81764285D01*
X120911904Y-81811904D01*
X120721428Y-81859523D01*
X120483333Y-81859523D01*
X120292857Y-81811904D01*
X120197619Y-81764285D01*
X120150000Y-81716666D01*
X120102380Y-81621428D01*
X123642380Y-82716666D02*
X123166190Y-83050000D01*
X123642380Y-83288095D02*
X122642380Y-83288095D01*
X122642380Y-82907142D01*
X122690000Y-82811904D01*
X122737619Y-82764285D01*
X122832857Y-82716666D01*
X122975714Y-82716666D01*
X123070952Y-82764285D01*
X123118571Y-82811904D01*
X123166190Y-82907142D01*
X123166190Y-83288095D01*
X123642380Y-82240476D02*
X123642380Y-82050000D01*
X123594761Y-81954761D01*
X123547142Y-81907142D01*
X123404285Y-81811904D01*
X123213809Y-81764285D01*
X122832857Y-81764285D01*
X122737619Y-81811904D01*
X122690000Y-81859523D01*
X122642380Y-81954761D01*
X122642380Y-82145238D01*
X122690000Y-82240476D01*
X122737619Y-82288095D01*
X122832857Y-82335714D01*
X123070952Y-82335714D01*
X123166190Y-82288095D01*
X123213809Y-82240476D01*
X123261428Y-82145238D01*
X123261428Y-81954761D01*
X123213809Y-81859523D01*
X123166190Y-81811904D01*
X123070952Y-81764285D01*
X120737333Y-91892380D02*
X120404000Y-91416190D01*
X120165904Y-91892380D02*
X120165904Y-90892380D01*
X120546857Y-90892380D01*
X120642095Y-90940000D01*
X120689714Y-90987619D01*
X120737333Y-91082857D01*
X120737333Y-91225714D01*
X120689714Y-91320952D01*
X120642095Y-91368571D01*
X120546857Y-91416190D01*
X120165904Y-91416190D01*
X121308761Y-91320952D02*
X121213523Y-91273333D01*
X121165904Y-91225714D01*
X121118285Y-91130476D01*
X121118285Y-91082857D01*
X121165904Y-90987619D01*
X121213523Y-90940000D01*
X121308761Y-90892380D01*
X121499238Y-90892380D01*
X121594476Y-90940000D01*
X121642095Y-90987619D01*
X121689714Y-91082857D01*
X121689714Y-91130476D01*
X121642095Y-91225714D01*
X121594476Y-91273333D01*
X121499238Y-91320952D01*
X121308761Y-91320952D01*
X121213523Y-91368571D01*
X121165904Y-91416190D01*
X121118285Y-91511428D01*
X121118285Y-91701904D01*
X121165904Y-91797142D01*
X121213523Y-91844761D01*
X121308761Y-91892380D01*
X121499238Y-91892380D01*
X121594476Y-91844761D01*
X121642095Y-91797142D01*
X121689714Y-91701904D01*
X121689714Y-91511428D01*
X121642095Y-91416190D01*
X121594476Y-91368571D01*
X121499238Y-91320952D01*
X124253714Y-90892380D02*
X123777523Y-90892380D01*
X123729904Y-91368571D01*
X123777523Y-91320952D01*
X123872761Y-91273333D01*
X124110857Y-91273333D01*
X124206095Y-91320952D01*
X124253714Y-91368571D01*
X124301333Y-91463809D01*
X124301333Y-91701904D01*
X124253714Y-91797142D01*
X124206095Y-91844761D01*
X124110857Y-91892380D01*
X123872761Y-91892380D01*
X123777523Y-91844761D01*
X123729904Y-91797142D01*
X124920380Y-90892380D02*
X125015619Y-90892380D01*
X125110857Y-90940000D01*
X125158476Y-90987619D01*
X125206095Y-91082857D01*
X125253714Y-91273333D01*
X125253714Y-91511428D01*
X125206095Y-91701904D01*
X125158476Y-91797142D01*
X125110857Y-91844761D01*
X125015619Y-91892380D01*
X124920380Y-91892380D01*
X124825142Y-91844761D01*
X124777523Y-91797142D01*
X124729904Y-91701904D01*
X124682285Y-91511428D01*
X124682285Y-91273333D01*
X124729904Y-91082857D01*
X124777523Y-90987619D01*
X124825142Y-90940000D01*
X124920380Y-90892380D01*
X125872761Y-90892380D02*
X125968000Y-90892380D01*
X126063238Y-90940000D01*
X126110857Y-90987619D01*
X126158476Y-91082857D01*
X126206095Y-91273333D01*
X126206095Y-91511428D01*
X126158476Y-91701904D01*
X126110857Y-91797142D01*
X126063238Y-91844761D01*
X125968000Y-91892380D01*
X125872761Y-91892380D01*
X125777523Y-91844761D01*
X125729904Y-91797142D01*
X125682285Y-91701904D01*
X125634666Y-91511428D01*
X125634666Y-91273333D01*
X125682285Y-91082857D01*
X125729904Y-90987619D01*
X125777523Y-90940000D01*
X125872761Y-90892380D01*
X126182380Y-82716666D02*
X125706190Y-83050000D01*
X126182380Y-83288095D02*
X125182380Y-83288095D01*
X125182380Y-82907142D01*
X125230000Y-82811904D01*
X125277619Y-82764285D01*
X125372857Y-82716666D01*
X125515714Y-82716666D01*
X125610952Y-82764285D01*
X125658571Y-82811904D01*
X125706190Y-82907142D01*
X125706190Y-83288095D01*
X125182380Y-82383333D02*
X125182380Y-81716666D01*
X126182380Y-82145238D01*
X128722380Y-82716666D02*
X128246190Y-83050000D01*
X128722380Y-83288095D02*
X127722380Y-83288095D01*
X127722380Y-82907142D01*
X127770000Y-82811904D01*
X127817619Y-82764285D01*
X127912857Y-82716666D01*
X128055714Y-82716666D01*
X128150952Y-82764285D01*
X128198571Y-82811904D01*
X128246190Y-82907142D01*
X128246190Y-83288095D01*
X127722380Y-81859523D02*
X127722380Y-82050000D01*
X127770000Y-82145238D01*
X127817619Y-82192857D01*
X127960476Y-82288095D01*
X128150952Y-82335714D01*
X128531904Y-82335714D01*
X128627142Y-82288095D01*
X128674761Y-82240476D01*
X128722380Y-82145238D01*
X128722380Y-81954761D01*
X128674761Y-81859523D01*
X128627142Y-81811904D01*
X128531904Y-81764285D01*
X128293809Y-81764285D01*
X128198571Y-81811904D01*
X128150952Y-81859523D01*
X128103333Y-81954761D01*
X128103333Y-82145238D01*
X128150952Y-82240476D01*
X128198571Y-82288095D01*
X128293809Y-82335714D01*
X120737333Y-100782380D02*
X120404000Y-100306190D01*
X120165904Y-100782380D02*
X120165904Y-99782380D01*
X120546857Y-99782380D01*
X120642095Y-99830000D01*
X120689714Y-99877619D01*
X120737333Y-99972857D01*
X120737333Y-100115714D01*
X120689714Y-100210952D01*
X120642095Y-100258571D01*
X120546857Y-100306190D01*
X120165904Y-100306190D01*
X121642095Y-99782380D02*
X121165904Y-99782380D01*
X121118285Y-100258571D01*
X121165904Y-100210952D01*
X121261142Y-100163333D01*
X121499238Y-100163333D01*
X121594476Y-100210952D01*
X121642095Y-100258571D01*
X121689714Y-100353809D01*
X121689714Y-100591904D01*
X121642095Y-100687142D01*
X121594476Y-100734761D01*
X121499238Y-100782380D01*
X121261142Y-100782380D01*
X121165904Y-100734761D01*
X121118285Y-100687142D01*
X124372761Y-100782380D02*
X123801333Y-100782380D01*
X124087047Y-100782380D02*
X124087047Y-99782380D01*
X123991809Y-99925238D01*
X123896571Y-100020476D01*
X123801333Y-100068095D01*
X124991809Y-99782380D02*
X125087047Y-99782380D01*
X125182285Y-99830000D01*
X125229904Y-99877619D01*
X125277523Y-99972857D01*
X125325142Y-100163333D01*
X125325142Y-100401428D01*
X125277523Y-100591904D01*
X125229904Y-100687142D01*
X125182285Y-100734761D01*
X125087047Y-100782380D01*
X124991809Y-100782380D01*
X124896571Y-100734761D01*
X124848952Y-100687142D01*
X124801333Y-100591904D01*
X124753714Y-100401428D01*
X124753714Y-100163333D01*
X124801333Y-99972857D01*
X124848952Y-99877619D01*
X124896571Y-99830000D01*
X124991809Y-99782380D01*
X125753714Y-100782380D02*
X125753714Y-99782380D01*
X125848952Y-100401428D02*
X126134666Y-100782380D01*
X126134666Y-100115714D02*
X125753714Y-100496666D01*
X120737333Y-104592380D02*
X120404000Y-104116190D01*
X120165904Y-104592380D02*
X120165904Y-103592380D01*
X120546857Y-103592380D01*
X120642095Y-103640000D01*
X120689714Y-103687619D01*
X120737333Y-103782857D01*
X120737333Y-103925714D01*
X120689714Y-104020952D01*
X120642095Y-104068571D01*
X120546857Y-104116190D01*
X120165904Y-104116190D01*
X121594476Y-103925714D02*
X121594476Y-104592380D01*
X121356380Y-103544761D02*
X121118285Y-104259047D01*
X121737333Y-104259047D01*
X123999714Y-103592380D02*
X123523523Y-103592380D01*
X123475904Y-104068571D01*
X123523523Y-104020952D01*
X123618761Y-103973333D01*
X123856857Y-103973333D01*
X123952095Y-104020952D01*
X123999714Y-104068571D01*
X124047333Y-104163809D01*
X124047333Y-104401904D01*
X123999714Y-104497142D01*
X123952095Y-104544761D01*
X123856857Y-104592380D01*
X123618761Y-104592380D01*
X123523523Y-104544761D01*
X123475904Y-104497142D01*
X124666380Y-103592380D02*
X124761619Y-103592380D01*
X124856857Y-103640000D01*
X124904476Y-103687619D01*
X124952095Y-103782857D01*
X124999714Y-103973333D01*
X124999714Y-104211428D01*
X124952095Y-104401904D01*
X124904476Y-104497142D01*
X124856857Y-104544761D01*
X124761619Y-104592380D01*
X124666380Y-104592380D01*
X124571142Y-104544761D01*
X124523523Y-104497142D01*
X124475904Y-104401904D01*
X124428285Y-104211428D01*
X124428285Y-103973333D01*
X124475904Y-103782857D01*
X124523523Y-103687619D01*
X124571142Y-103640000D01*
X124666380Y-103592380D01*
X125618761Y-103592380D02*
X125714000Y-103592380D01*
X125809238Y-103640000D01*
X125856857Y-103687619D01*
X125904476Y-103782857D01*
X125952095Y-103973333D01*
X125952095Y-104211428D01*
X125904476Y-104401904D01*
X125856857Y-104497142D01*
X125809238Y-104544761D01*
X125714000Y-104592380D01*
X125618761Y-104592380D01*
X125523523Y-104544761D01*
X125475904Y-104497142D01*
X125428285Y-104401904D01*
X125380666Y-104211428D01*
X125380666Y-103973333D01*
X125428285Y-103782857D01*
X125475904Y-103687619D01*
X125523523Y-103640000D01*
X125618761Y-103592380D01*
X102703333Y-100274380D02*
X102370000Y-99798190D01*
X102131904Y-100274380D02*
X102131904Y-99274380D01*
X102512857Y-99274380D01*
X102608095Y-99322000D01*
X102655714Y-99369619D01*
X102703333Y-99464857D01*
X102703333Y-99607714D01*
X102655714Y-99702952D01*
X102608095Y-99750571D01*
X102512857Y-99798190D01*
X102131904Y-99798190D01*
X103036666Y-99274380D02*
X103655714Y-99274380D01*
X103322380Y-99655333D01*
X103465238Y-99655333D01*
X103560476Y-99702952D01*
X103608095Y-99750571D01*
X103655714Y-99845809D01*
X103655714Y-100083904D01*
X103608095Y-100179142D01*
X103560476Y-100226761D01*
X103465238Y-100274380D01*
X103179523Y-100274380D01*
X103084285Y-100226761D01*
X103036666Y-100179142D01*
X102655714Y-107441904D02*
X103322380Y-107441904D01*
X102274761Y-107680000D02*
X102989047Y-107918095D01*
X102989047Y-107299047D01*
X102322380Y-107013333D02*
X102322380Y-106346666D01*
X103322380Y-106775238D01*
X102322380Y-105775238D02*
X102322380Y-105680000D01*
X102370000Y-105584761D01*
X102417619Y-105537142D01*
X102512857Y-105489523D01*
X102703333Y-105441904D01*
X102941428Y-105441904D01*
X103131904Y-105489523D01*
X103227142Y-105537142D01*
X103274761Y-105584761D01*
X103322380Y-105680000D01*
X103322380Y-105775238D01*
X103274761Y-105870476D01*
X103227142Y-105918095D01*
X103131904Y-105965714D01*
X102941428Y-106013333D01*
X102703333Y-106013333D01*
X102512857Y-105965714D01*
X102417619Y-105918095D01*
X102370000Y-105870476D01*
X102322380Y-105775238D01*
X120737333Y-108402380D02*
X120404000Y-107926190D01*
X120165904Y-108402380D02*
X120165904Y-107402380D01*
X120546857Y-107402380D01*
X120642095Y-107450000D01*
X120689714Y-107497619D01*
X120737333Y-107592857D01*
X120737333Y-107735714D01*
X120689714Y-107830952D01*
X120642095Y-107878571D01*
X120546857Y-107926190D01*
X120165904Y-107926190D01*
X121118285Y-107497619D02*
X121165904Y-107450000D01*
X121261142Y-107402380D01*
X121499238Y-107402380D01*
X121594476Y-107450000D01*
X121642095Y-107497619D01*
X121689714Y-107592857D01*
X121689714Y-107688095D01*
X121642095Y-107830952D01*
X121070666Y-108402380D01*
X121689714Y-108402380D01*
X124372761Y-108402380D02*
X123801333Y-108402380D01*
X124087047Y-108402380D02*
X124087047Y-107402380D01*
X123991809Y-107545238D01*
X123896571Y-107640476D01*
X123801333Y-107688095D01*
X124991809Y-107402380D02*
X125087047Y-107402380D01*
X125182285Y-107450000D01*
X125229904Y-107497619D01*
X125277523Y-107592857D01*
X125325142Y-107783333D01*
X125325142Y-108021428D01*
X125277523Y-108211904D01*
X125229904Y-108307142D01*
X125182285Y-108354761D01*
X125087047Y-108402380D01*
X124991809Y-108402380D01*
X124896571Y-108354761D01*
X124848952Y-108307142D01*
X124801333Y-108211904D01*
X124753714Y-108021428D01*
X124753714Y-107783333D01*
X124801333Y-107592857D01*
X124848952Y-107497619D01*
X124896571Y-107450000D01*
X124991809Y-107402380D01*
X125753714Y-108402380D02*
X125753714Y-107402380D01*
X125848952Y-108021428D02*
X126134666Y-108402380D01*
X126134666Y-107735714D02*
X125753714Y-108116666D01*
X120737333Y-112212380D02*
X120404000Y-111736190D01*
X120165904Y-112212380D02*
X120165904Y-111212380D01*
X120546857Y-111212380D01*
X120642095Y-111260000D01*
X120689714Y-111307619D01*
X120737333Y-111402857D01*
X120737333Y-111545714D01*
X120689714Y-111640952D01*
X120642095Y-111688571D01*
X120546857Y-111736190D01*
X120165904Y-111736190D01*
X121689714Y-112212380D02*
X121118285Y-112212380D01*
X121404000Y-112212380D02*
X121404000Y-111212380D01*
X121308761Y-111355238D01*
X121213523Y-111450476D01*
X121118285Y-111498095D01*
X124253714Y-111212380D02*
X123777523Y-111212380D01*
X123729904Y-111688571D01*
X123777523Y-111640952D01*
X123872761Y-111593333D01*
X124110857Y-111593333D01*
X124206095Y-111640952D01*
X124253714Y-111688571D01*
X124301333Y-111783809D01*
X124301333Y-112021904D01*
X124253714Y-112117142D01*
X124206095Y-112164761D01*
X124110857Y-112212380D01*
X123872761Y-112212380D01*
X123777523Y-112164761D01*
X123729904Y-112117142D01*
X124920380Y-111212380D02*
X125015619Y-111212380D01*
X125110857Y-111260000D01*
X125158476Y-111307619D01*
X125206095Y-111402857D01*
X125253714Y-111593333D01*
X125253714Y-111831428D01*
X125206095Y-112021904D01*
X125158476Y-112117142D01*
X125110857Y-112164761D01*
X125015619Y-112212380D01*
X124920380Y-112212380D01*
X124825142Y-112164761D01*
X124777523Y-112117142D01*
X124729904Y-112021904D01*
X124682285Y-111831428D01*
X124682285Y-111593333D01*
X124729904Y-111402857D01*
X124777523Y-111307619D01*
X124825142Y-111260000D01*
X124920380Y-111212380D01*
X125872761Y-111212380D02*
X125968000Y-111212380D01*
X126063238Y-111260000D01*
X126110857Y-111307619D01*
X126158476Y-111402857D01*
X126206095Y-111593333D01*
X126206095Y-111831428D01*
X126158476Y-112021904D01*
X126110857Y-112117142D01*
X126063238Y-112164761D01*
X125968000Y-112212380D01*
X125872761Y-112212380D01*
X125777523Y-112164761D01*
X125729904Y-112117142D01*
X125682285Y-112021904D01*
X125634666Y-111831428D01*
X125634666Y-111593333D01*
X125682285Y-111402857D01*
X125729904Y-111307619D01*
X125777523Y-111260000D01*
X125872761Y-111212380D01*
X75596761Y-104687619D02*
X75501523Y-104640000D01*
X75406285Y-104544761D01*
X75263428Y-104401904D01*
X75168190Y-104354285D01*
X75072952Y-104354285D01*
X75120571Y-104592380D02*
X75025333Y-104544761D01*
X74930095Y-104449523D01*
X74882476Y-104259047D01*
X74882476Y-103925714D01*
X74930095Y-103735238D01*
X75025333Y-103640000D01*
X75120571Y-103592380D01*
X75311047Y-103592380D01*
X75406285Y-103640000D01*
X75501523Y-103735238D01*
X75549142Y-103925714D01*
X75549142Y-104259047D01*
X75501523Y-104449523D01*
X75406285Y-104544761D01*
X75311047Y-104592380D01*
X75120571Y-104592380D01*
X76453904Y-103592380D02*
X75977714Y-103592380D01*
X75930095Y-104068571D01*
X75977714Y-104020952D01*
X76072952Y-103973333D01*
X76311047Y-103973333D01*
X76406285Y-104020952D01*
X76453904Y-104068571D01*
X76501523Y-104163809D01*
X76501523Y-104401904D01*
X76453904Y-104497142D01*
X76406285Y-104544761D01*
X76311047Y-104592380D01*
X76072952Y-104592380D01*
X75977714Y-104544761D01*
X75930095Y-104497142D01*
X75009714Y-101401619D02*
X75057333Y-101354000D01*
X75152571Y-101306380D01*
X75390666Y-101306380D01*
X75485904Y-101354000D01*
X75533523Y-101401619D01*
X75581142Y-101496857D01*
X75581142Y-101592095D01*
X75533523Y-101734952D01*
X74962095Y-102306380D01*
X75581142Y-102306380D01*
X76009714Y-102306380D02*
X76009714Y-101306380D01*
X76581142Y-102306380D01*
X76581142Y-101306380D01*
X76962095Y-101306380D02*
X77581142Y-101306380D01*
X77247809Y-101687333D01*
X77390666Y-101687333D01*
X77485904Y-101734952D01*
X77533523Y-101782571D01*
X77581142Y-101877809D01*
X77581142Y-102115904D01*
X77533523Y-102211142D01*
X77485904Y-102258761D01*
X77390666Y-102306380D01*
X77104952Y-102306380D01*
X77009714Y-102258761D01*
X76962095Y-102211142D01*
X78057333Y-102306380D02*
X78247809Y-102306380D01*
X78343047Y-102258761D01*
X78390666Y-102211142D01*
X78485904Y-102068285D01*
X78533523Y-101877809D01*
X78533523Y-101496857D01*
X78485904Y-101401619D01*
X78438285Y-101354000D01*
X78343047Y-101306380D01*
X78152571Y-101306380D01*
X78057333Y-101354000D01*
X78009714Y-101401619D01*
X77962095Y-101496857D01*
X77962095Y-101734952D01*
X78009714Y-101830190D01*
X78057333Y-101877809D01*
X78152571Y-101925428D01*
X78343047Y-101925428D01*
X78438285Y-101877809D01*
X78485904Y-101830190D01*
X78533523Y-101734952D01*
X79152571Y-101306380D02*
X79247809Y-101306380D01*
X79343047Y-101354000D01*
X79390666Y-101401619D01*
X79438285Y-101496857D01*
X79485904Y-101687333D01*
X79485904Y-101925428D01*
X79438285Y-102115904D01*
X79390666Y-102211142D01*
X79343047Y-102258761D01*
X79247809Y-102306380D01*
X79152571Y-102306380D01*
X79057333Y-102258761D01*
X79009714Y-102211142D01*
X78962095Y-102115904D01*
X78914476Y-101925428D01*
X78914476Y-101687333D01*
X78962095Y-101496857D01*
X79009714Y-101401619D01*
X79057333Y-101354000D01*
X79152571Y-101306380D01*
X80343047Y-101639714D02*
X80343047Y-102306380D01*
X80104952Y-101258761D02*
X79866857Y-101973047D01*
X80485904Y-101973047D01*
X84232761Y-95543619D02*
X84137523Y-95496000D01*
X84042285Y-95400761D01*
X83899428Y-95257904D01*
X83804190Y-95210285D01*
X83708952Y-95210285D01*
X83756571Y-95448380D02*
X83661333Y-95400761D01*
X83566095Y-95305523D01*
X83518476Y-95115047D01*
X83518476Y-94781714D01*
X83566095Y-94591238D01*
X83661333Y-94496000D01*
X83756571Y-94448380D01*
X83947047Y-94448380D01*
X84042285Y-94496000D01*
X84137523Y-94591238D01*
X84185142Y-94781714D01*
X84185142Y-95115047D01*
X84137523Y-95305523D01*
X84042285Y-95400761D01*
X83947047Y-95448380D01*
X83756571Y-95448380D01*
X85042285Y-94781714D02*
X85042285Y-95448380D01*
X84804190Y-94400761D02*
X84566095Y-95115047D01*
X85185142Y-95115047D01*
X83645714Y-96067619D02*
X83693333Y-96020000D01*
X83788571Y-95972380D01*
X84026666Y-95972380D01*
X84121904Y-96020000D01*
X84169523Y-96067619D01*
X84217142Y-96162857D01*
X84217142Y-96258095D01*
X84169523Y-96400952D01*
X83598095Y-96972380D01*
X84217142Y-96972380D01*
X84645714Y-96972380D02*
X84645714Y-95972380D01*
X85217142Y-96972380D01*
X85217142Y-95972380D01*
X85598095Y-95972380D02*
X86217142Y-95972380D01*
X85883809Y-96353333D01*
X86026666Y-96353333D01*
X86121904Y-96400952D01*
X86169523Y-96448571D01*
X86217142Y-96543809D01*
X86217142Y-96781904D01*
X86169523Y-96877142D01*
X86121904Y-96924761D01*
X86026666Y-96972380D01*
X85740952Y-96972380D01*
X85645714Y-96924761D01*
X85598095Y-96877142D01*
X86693333Y-96972380D02*
X86883809Y-96972380D01*
X86979047Y-96924761D01*
X87026666Y-96877142D01*
X87121904Y-96734285D01*
X87169523Y-96543809D01*
X87169523Y-96162857D01*
X87121904Y-96067619D01*
X87074285Y-96020000D01*
X86979047Y-95972380D01*
X86788571Y-95972380D01*
X86693333Y-96020000D01*
X86645714Y-96067619D01*
X86598095Y-96162857D01*
X86598095Y-96400952D01*
X86645714Y-96496190D01*
X86693333Y-96543809D01*
X86788571Y-96591428D01*
X86979047Y-96591428D01*
X87074285Y-96543809D01*
X87121904Y-96496190D01*
X87169523Y-96400952D01*
X87788571Y-95972380D02*
X87883809Y-95972380D01*
X87979047Y-96020000D01*
X88026666Y-96067619D01*
X88074285Y-96162857D01*
X88121904Y-96353333D01*
X88121904Y-96591428D01*
X88074285Y-96781904D01*
X88026666Y-96877142D01*
X87979047Y-96924761D01*
X87883809Y-96972380D01*
X87788571Y-96972380D01*
X87693333Y-96924761D01*
X87645714Y-96877142D01*
X87598095Y-96781904D01*
X87550476Y-96591428D01*
X87550476Y-96353333D01*
X87598095Y-96162857D01*
X87645714Y-96067619D01*
X87693333Y-96020000D01*
X87788571Y-95972380D01*
X88979047Y-96305714D02*
X88979047Y-96972380D01*
X88740952Y-95924761D02*
X88502857Y-96639047D01*
X89121904Y-96639047D01*
X109886761Y-95543619D02*
X109791523Y-95496000D01*
X109696285Y-95400761D01*
X109553428Y-95257904D01*
X109458190Y-95210285D01*
X109362952Y-95210285D01*
X109410571Y-95448380D02*
X109315333Y-95400761D01*
X109220095Y-95305523D01*
X109172476Y-95115047D01*
X109172476Y-94781714D01*
X109220095Y-94591238D01*
X109315333Y-94496000D01*
X109410571Y-94448380D01*
X109601047Y-94448380D01*
X109696285Y-94496000D01*
X109791523Y-94591238D01*
X109839142Y-94781714D01*
X109839142Y-95115047D01*
X109791523Y-95305523D01*
X109696285Y-95400761D01*
X109601047Y-95448380D01*
X109410571Y-95448380D01*
X110172476Y-94448380D02*
X110791523Y-94448380D01*
X110458190Y-94829333D01*
X110601047Y-94829333D01*
X110696285Y-94876952D01*
X110743904Y-94924571D01*
X110791523Y-95019809D01*
X110791523Y-95257904D01*
X110743904Y-95353142D01*
X110696285Y-95400761D01*
X110601047Y-95448380D01*
X110315333Y-95448380D01*
X110220095Y-95400761D01*
X110172476Y-95353142D01*
X109807714Y-95813619D02*
X109855333Y-95766000D01*
X109950571Y-95718380D01*
X110188666Y-95718380D01*
X110283904Y-95766000D01*
X110331523Y-95813619D01*
X110379142Y-95908857D01*
X110379142Y-96004095D01*
X110331523Y-96146952D01*
X109760095Y-96718380D01*
X110379142Y-96718380D01*
X110807714Y-96718380D02*
X110807714Y-95718380D01*
X111379142Y-96718380D01*
X111379142Y-95718380D01*
X111760095Y-95718380D02*
X112379142Y-95718380D01*
X112045809Y-96099333D01*
X112188666Y-96099333D01*
X112283904Y-96146952D01*
X112331523Y-96194571D01*
X112379142Y-96289809D01*
X112379142Y-96527904D01*
X112331523Y-96623142D01*
X112283904Y-96670761D01*
X112188666Y-96718380D01*
X111902952Y-96718380D01*
X111807714Y-96670761D01*
X111760095Y-96623142D01*
X112855333Y-96718380D02*
X113045809Y-96718380D01*
X113141047Y-96670761D01*
X113188666Y-96623142D01*
X113283904Y-96480285D01*
X113331523Y-96289809D01*
X113331523Y-95908857D01*
X113283904Y-95813619D01*
X113236285Y-95766000D01*
X113141047Y-95718380D01*
X112950571Y-95718380D01*
X112855333Y-95766000D01*
X112807714Y-95813619D01*
X112760095Y-95908857D01*
X112760095Y-96146952D01*
X112807714Y-96242190D01*
X112855333Y-96289809D01*
X112950571Y-96337428D01*
X113141047Y-96337428D01*
X113236285Y-96289809D01*
X113283904Y-96242190D01*
X113331523Y-96146952D01*
X113950571Y-95718380D02*
X114045809Y-95718380D01*
X114141047Y-95766000D01*
X114188666Y-95813619D01*
X114236285Y-95908857D01*
X114283904Y-96099333D01*
X114283904Y-96337428D01*
X114236285Y-96527904D01*
X114188666Y-96623142D01*
X114141047Y-96670761D01*
X114045809Y-96718380D01*
X113950571Y-96718380D01*
X113855333Y-96670761D01*
X113807714Y-96623142D01*
X113760095Y-96527904D01*
X113712476Y-96337428D01*
X113712476Y-96099333D01*
X113760095Y-95908857D01*
X113807714Y-95813619D01*
X113855333Y-95766000D01*
X113950571Y-95718380D01*
X115141047Y-96051714D02*
X115141047Y-96718380D01*
X114902952Y-95670761D02*
X114664857Y-96385047D01*
X115283904Y-96385047D01*
X109886761Y-101385619D02*
X109791523Y-101338000D01*
X109696285Y-101242761D01*
X109553428Y-101099904D01*
X109458190Y-101052285D01*
X109362952Y-101052285D01*
X109410571Y-101290380D02*
X109315333Y-101242761D01*
X109220095Y-101147523D01*
X109172476Y-100957047D01*
X109172476Y-100623714D01*
X109220095Y-100433238D01*
X109315333Y-100338000D01*
X109410571Y-100290380D01*
X109601047Y-100290380D01*
X109696285Y-100338000D01*
X109791523Y-100433238D01*
X109839142Y-100623714D01*
X109839142Y-100957047D01*
X109791523Y-101147523D01*
X109696285Y-101242761D01*
X109601047Y-101290380D01*
X109410571Y-101290380D01*
X110220095Y-100385619D02*
X110267714Y-100338000D01*
X110362952Y-100290380D01*
X110601047Y-100290380D01*
X110696285Y-100338000D01*
X110743904Y-100385619D01*
X110791523Y-100480857D01*
X110791523Y-100576095D01*
X110743904Y-100718952D01*
X110172476Y-101290380D01*
X110791523Y-101290380D01*
X109553714Y-98861619D02*
X109601333Y-98814000D01*
X109696571Y-98766380D01*
X109934666Y-98766380D01*
X110029904Y-98814000D01*
X110077523Y-98861619D01*
X110125142Y-98956857D01*
X110125142Y-99052095D01*
X110077523Y-99194952D01*
X109506095Y-99766380D01*
X110125142Y-99766380D01*
X110553714Y-99766380D02*
X110553714Y-98766380D01*
X111125142Y-99766380D01*
X111125142Y-98766380D01*
X111506095Y-98766380D02*
X112125142Y-98766380D01*
X111791809Y-99147333D01*
X111934666Y-99147333D01*
X112029904Y-99194952D01*
X112077523Y-99242571D01*
X112125142Y-99337809D01*
X112125142Y-99575904D01*
X112077523Y-99671142D01*
X112029904Y-99718761D01*
X111934666Y-99766380D01*
X111648952Y-99766380D01*
X111553714Y-99718761D01*
X111506095Y-99671142D01*
X112601333Y-99766380D02*
X112791809Y-99766380D01*
X112887047Y-99718761D01*
X112934666Y-99671142D01*
X113029904Y-99528285D01*
X113077523Y-99337809D01*
X113077523Y-98956857D01*
X113029904Y-98861619D01*
X112982285Y-98814000D01*
X112887047Y-98766380D01*
X112696571Y-98766380D01*
X112601333Y-98814000D01*
X112553714Y-98861619D01*
X112506095Y-98956857D01*
X112506095Y-99194952D01*
X112553714Y-99290190D01*
X112601333Y-99337809D01*
X112696571Y-99385428D01*
X112887047Y-99385428D01*
X112982285Y-99337809D01*
X113029904Y-99290190D01*
X113077523Y-99194952D01*
X113696571Y-98766380D02*
X113791809Y-98766380D01*
X113887047Y-98814000D01*
X113934666Y-98861619D01*
X113982285Y-98956857D01*
X114029904Y-99147333D01*
X114029904Y-99385428D01*
X113982285Y-99575904D01*
X113934666Y-99671142D01*
X113887047Y-99718761D01*
X113791809Y-99766380D01*
X113696571Y-99766380D01*
X113601333Y-99718761D01*
X113553714Y-99671142D01*
X113506095Y-99575904D01*
X113458476Y-99385428D01*
X113458476Y-99147333D01*
X113506095Y-98956857D01*
X113553714Y-98861619D01*
X113601333Y-98814000D01*
X113696571Y-98766380D01*
X114887047Y-98766380D02*
X114696571Y-98766380D01*
X114601333Y-98814000D01*
X114553714Y-98861619D01*
X114458476Y-99004476D01*
X114410857Y-99194952D01*
X114410857Y-99575904D01*
X114458476Y-99671142D01*
X114506095Y-99718761D01*
X114601333Y-99766380D01*
X114791809Y-99766380D01*
X114887047Y-99718761D01*
X114934666Y-99671142D01*
X114982285Y-99575904D01*
X114982285Y-99337809D01*
X114934666Y-99242571D01*
X114887047Y-99194952D01*
X114791809Y-99147333D01*
X114601333Y-99147333D01*
X114506095Y-99194952D01*
X114458476Y-99242571D01*
X114410857Y-99337809D01*
X112934761Y-113577619D02*
X112839523Y-113530000D01*
X112744285Y-113434761D01*
X112601428Y-113291904D01*
X112506190Y-113244285D01*
X112410952Y-113244285D01*
X112458571Y-113482380D02*
X112363333Y-113434761D01*
X112268095Y-113339523D01*
X112220476Y-113149047D01*
X112220476Y-112815714D01*
X112268095Y-112625238D01*
X112363333Y-112530000D01*
X112458571Y-112482380D01*
X112649047Y-112482380D01*
X112744285Y-112530000D01*
X112839523Y-112625238D01*
X112887142Y-112815714D01*
X112887142Y-113149047D01*
X112839523Y-113339523D01*
X112744285Y-113434761D01*
X112649047Y-113482380D01*
X112458571Y-113482380D01*
X113839523Y-113482380D02*
X113268095Y-113482380D01*
X113553809Y-113482380D02*
X113553809Y-112482380D01*
X113458571Y-112625238D01*
X113363333Y-112720476D01*
X113268095Y-112768095D01*
X110315714Y-111307619D02*
X110363333Y-111260000D01*
X110458571Y-111212380D01*
X110696666Y-111212380D01*
X110791904Y-111260000D01*
X110839523Y-111307619D01*
X110887142Y-111402857D01*
X110887142Y-111498095D01*
X110839523Y-111640952D01*
X110268095Y-112212380D01*
X110887142Y-112212380D01*
X111315714Y-112212380D02*
X111315714Y-111212380D01*
X111887142Y-112212380D01*
X111887142Y-111212380D01*
X112268095Y-111212380D02*
X112887142Y-111212380D01*
X112553809Y-111593333D01*
X112696666Y-111593333D01*
X112791904Y-111640952D01*
X112839523Y-111688571D01*
X112887142Y-111783809D01*
X112887142Y-112021904D01*
X112839523Y-112117142D01*
X112791904Y-112164761D01*
X112696666Y-112212380D01*
X112410952Y-112212380D01*
X112315714Y-112164761D01*
X112268095Y-112117142D01*
X113363333Y-112212380D02*
X113553809Y-112212380D01*
X113649047Y-112164761D01*
X113696666Y-112117142D01*
X113791904Y-111974285D01*
X113839523Y-111783809D01*
X113839523Y-111402857D01*
X113791904Y-111307619D01*
X113744285Y-111260000D01*
X113649047Y-111212380D01*
X113458571Y-111212380D01*
X113363333Y-111260000D01*
X113315714Y-111307619D01*
X113268095Y-111402857D01*
X113268095Y-111640952D01*
X113315714Y-111736190D01*
X113363333Y-111783809D01*
X113458571Y-111831428D01*
X113649047Y-111831428D01*
X113744285Y-111783809D01*
X113791904Y-111736190D01*
X113839523Y-111640952D01*
X114458571Y-111212380D02*
X114553809Y-111212380D01*
X114649047Y-111260000D01*
X114696666Y-111307619D01*
X114744285Y-111402857D01*
X114791904Y-111593333D01*
X114791904Y-111831428D01*
X114744285Y-112021904D01*
X114696666Y-112117142D01*
X114649047Y-112164761D01*
X114553809Y-112212380D01*
X114458571Y-112212380D01*
X114363333Y-112164761D01*
X114315714Y-112117142D01*
X114268095Y-112021904D01*
X114220476Y-111831428D01*
X114220476Y-111593333D01*
X114268095Y-111402857D01*
X114315714Y-111307619D01*
X114363333Y-111260000D01*
X114458571Y-111212380D01*
X115649047Y-111545714D02*
X115649047Y-112212380D01*
X115410952Y-111164761D02*
X115172857Y-111879047D01*
X115791904Y-111879047D01*
X75668571Y-109291428D02*
X76430476Y-109291428D01*
X76906666Y-109672380D02*
X76906666Y-108672380D01*
X77240000Y-109386666D01*
X77573333Y-108672380D01*
X77573333Y-109672380D01*
X78192380Y-109672380D02*
X78097142Y-109624761D01*
X78049523Y-109577142D01*
X78001904Y-109481904D01*
X78001904Y-109196190D01*
X78049523Y-109100952D01*
X78097142Y-109053333D01*
X78192380Y-109005714D01*
X78335238Y-109005714D01*
X78430476Y-109053333D01*
X78478095Y-109100952D01*
X78525714Y-109196190D01*
X78525714Y-109481904D01*
X78478095Y-109577142D01*
X78430476Y-109624761D01*
X78335238Y-109672380D01*
X78192380Y-109672380D01*
X78811428Y-109005714D02*
X79192380Y-109005714D01*
X78954285Y-108672380D02*
X78954285Y-109529523D01*
X79001904Y-109624761D01*
X79097142Y-109672380D01*
X79192380Y-109672380D01*
X79668571Y-109672380D02*
X79573333Y-109624761D01*
X79525714Y-109577142D01*
X79478095Y-109481904D01*
X79478095Y-109196190D01*
X79525714Y-109100952D01*
X79573333Y-109053333D01*
X79668571Y-109005714D01*
X79811428Y-109005714D01*
X79906666Y-109053333D01*
X79954285Y-109100952D01*
X80001904Y-109196190D01*
X80001904Y-109481904D01*
X79954285Y-109577142D01*
X79906666Y-109624761D01*
X79811428Y-109672380D01*
X79668571Y-109672380D01*
X80430476Y-109672380D02*
X80430476Y-109005714D01*
X80430476Y-109196190D02*
X80478095Y-109100952D01*
X80525714Y-109053333D01*
X80620952Y-109005714D01*
X80716190Y-109005714D01*
X81049523Y-109291428D02*
X81811428Y-109291428D01*
X81430476Y-109672380D02*
X81430476Y-108910476D01*
X61388666Y-70572380D02*
X61388666Y-71286666D01*
X61341047Y-71429523D01*
X61245809Y-71524761D01*
X61102952Y-71572380D01*
X61007714Y-71572380D01*
X61769619Y-70572380D02*
X62388666Y-70572380D01*
X62055333Y-70953333D01*
X62198190Y-70953333D01*
X62293428Y-71000952D01*
X62341047Y-71048571D01*
X62388666Y-71143809D01*
X62388666Y-71381904D01*
X62341047Y-71477142D01*
X62293428Y-71524761D01*
X62198190Y-71572380D01*
X61912476Y-71572380D01*
X61817238Y-71524761D01*
X61769619Y-71477142D01*
X60714761Y-74858571D02*
X60857619Y-74906190D01*
X60905238Y-74953809D01*
X60952857Y-75049047D01*
X60952857Y-75191904D01*
X60905238Y-75287142D01*
X60857619Y-75334761D01*
X60762380Y-75382380D01*
X60381428Y-75382380D01*
X60381428Y-74382380D01*
X60714761Y-74382380D01*
X60809999Y-74430000D01*
X60857619Y-74477619D01*
X60905238Y-74572857D01*
X60905238Y-74668095D01*
X60857619Y-74763333D01*
X60809999Y-74810952D01*
X60714761Y-74858571D01*
X60381428Y-74858571D01*
X61809999Y-75382380D02*
X61809999Y-74858571D01*
X61762380Y-74763333D01*
X61667142Y-74715714D01*
X61476666Y-74715714D01*
X61381428Y-74763333D01*
X61809999Y-75334761D02*
X61714761Y-75382380D01*
X61476666Y-75382380D01*
X61381428Y-75334761D01*
X61333809Y-75239523D01*
X61333809Y-75144285D01*
X61381428Y-75049047D01*
X61476666Y-75001428D01*
X61714761Y-75001428D01*
X61809999Y-74953809D01*
X62143333Y-74715714D02*
X62524285Y-74715714D01*
X62286190Y-74382380D02*
X62286190Y-75239523D01*
X62333809Y-75334761D01*
X62429047Y-75382380D01*
X62524285Y-75382380D01*
X62714761Y-74715714D02*
X63095714Y-74715714D01*
X62857619Y-74382380D02*
X62857619Y-75239523D01*
X62905238Y-75334761D01*
X63000476Y-75382380D01*
X63095714Y-75382380D01*
X63809999Y-75334761D02*
X63714761Y-75382380D01*
X63524285Y-75382380D01*
X63429047Y-75334761D01*
X63381428Y-75239523D01*
X63381428Y-74858571D01*
X63429047Y-74763333D01*
X63524285Y-74715714D01*
X63714761Y-74715714D01*
X63809999Y-74763333D01*
X63857619Y-74858571D01*
X63857619Y-74953809D01*
X63381428Y-75049047D01*
X64286190Y-75382380D02*
X64286190Y-74715714D01*
X64286190Y-74906190D02*
X64333809Y-74810952D01*
X64381428Y-74763333D01*
X64476666Y-74715714D01*
X64571904Y-74715714D01*
X64809999Y-74715714D02*
X65048095Y-75382380D01*
X65286190Y-74715714D02*
X65048095Y-75382380D01*
X64952857Y-75620476D01*
X64905238Y-75668095D01*
X64809999Y-75715714D01*
X67000476Y-75287142D02*
X66952857Y-75334761D01*
X66809999Y-75382380D01*
X66714761Y-75382380D01*
X66571904Y-75334761D01*
X66476666Y-75239523D01*
X66429047Y-75144285D01*
X66381428Y-74953809D01*
X66381428Y-74810952D01*
X66429047Y-74620476D01*
X66476666Y-74525238D01*
X66571904Y-74430000D01*
X66714761Y-74382380D01*
X66809999Y-74382380D01*
X66952857Y-74430000D01*
X67000476Y-74477619D01*
X67571904Y-75382380D02*
X67476666Y-75334761D01*
X67429047Y-75287142D01*
X67381428Y-75191904D01*
X67381428Y-74906190D01*
X67429047Y-74810952D01*
X67476666Y-74763333D01*
X67571904Y-74715714D01*
X67714761Y-74715714D01*
X67810000Y-74763333D01*
X67857619Y-74810952D01*
X67905238Y-74906190D01*
X67905238Y-75191904D01*
X67857619Y-75287142D01*
X67810000Y-75334761D01*
X67714761Y-75382380D01*
X67571904Y-75382380D01*
X68333809Y-74715714D02*
X68333809Y-75382380D01*
X68333809Y-74810952D02*
X68381428Y-74763333D01*
X68476666Y-74715714D01*
X68619523Y-74715714D01*
X68714761Y-74763333D01*
X68762380Y-74858571D01*
X68762380Y-75382380D01*
X69238571Y-74715714D02*
X69238571Y-75382380D01*
X69238571Y-74810952D02*
X69286190Y-74763333D01*
X69381428Y-74715714D01*
X69524285Y-74715714D01*
X69619523Y-74763333D01*
X69667142Y-74858571D01*
X69667142Y-75382380D01*
X70524285Y-75334761D02*
X70429047Y-75382380D01*
X70238571Y-75382380D01*
X70143333Y-75334761D01*
X70095714Y-75239523D01*
X70095714Y-74858571D01*
X70143333Y-74763333D01*
X70238571Y-74715714D01*
X70429047Y-74715714D01*
X70524285Y-74763333D01*
X70571904Y-74858571D01*
X70571904Y-74953809D01*
X70095714Y-75049047D01*
X71429047Y-75334761D02*
X71333809Y-75382380D01*
X71143333Y-75382380D01*
X71048095Y-75334761D01*
X71000476Y-75287142D01*
X70952857Y-75191904D01*
X70952857Y-74906190D01*
X71000476Y-74810952D01*
X71048095Y-74763333D01*
X71143333Y-74715714D01*
X71333809Y-74715714D01*
X71429047Y-74763333D01*
X71714761Y-74715714D02*
X72095714Y-74715714D01*
X71857619Y-74382380D02*
X71857619Y-75239523D01*
X71905238Y-75334761D01*
X72000476Y-75382380D01*
X72095714Y-75382380D01*
X72429047Y-75382380D02*
X72429047Y-74715714D01*
X72429047Y-74382380D02*
X72381428Y-74430000D01*
X72429047Y-74477619D01*
X72476666Y-74430000D01*
X72429047Y-74382380D01*
X72429047Y-74477619D01*
X73048095Y-75382380D02*
X72952857Y-75334761D01*
X72905238Y-75287142D01*
X72857619Y-75191904D01*
X72857619Y-74906190D01*
X72905238Y-74810952D01*
X72952857Y-74763333D01*
X73048095Y-74715714D01*
X73190952Y-74715714D01*
X73286190Y-74763333D01*
X73333809Y-74810952D01*
X73381428Y-74906190D01*
X73381428Y-75191904D01*
X73333809Y-75287142D01*
X73286190Y-75334761D01*
X73190952Y-75382380D01*
X73048095Y-75382380D01*
X73810000Y-74715714D02*
X73810000Y-75382380D01*
X73810000Y-74810952D02*
X73857619Y-74763333D01*
X73952857Y-74715714D01*
X74095714Y-74715714D01*
X74190952Y-74763333D01*
X74238571Y-74858571D01*
X74238571Y-75382380D01*
X105989523Y-102052380D02*
X105656190Y-101576190D01*
X105418095Y-102052380D02*
X105418095Y-101052380D01*
X105799047Y-101052380D01*
X105894285Y-101100000D01*
X105941904Y-101147619D01*
X105989523Y-101242857D01*
X105989523Y-101385714D01*
X105941904Y-101480952D01*
X105894285Y-101528571D01*
X105799047Y-101576190D01*
X105418095Y-101576190D01*
X106941904Y-101100000D02*
X106846666Y-101052380D01*
X106703809Y-101052380D01*
X106560952Y-101100000D01*
X106465714Y-101195238D01*
X106418095Y-101290476D01*
X106370476Y-101480952D01*
X106370476Y-101623809D01*
X106418095Y-101814285D01*
X106465714Y-101909523D01*
X106560952Y-102004761D01*
X106703809Y-102052380D01*
X106799047Y-102052380D01*
X106941904Y-102004761D01*
X106989523Y-101957142D01*
X106989523Y-101623809D01*
X106799047Y-101623809D01*
X107751428Y-101528571D02*
X107894285Y-101576190D01*
X107941904Y-101623809D01*
X107989523Y-101719047D01*
X107989523Y-101861904D01*
X107941904Y-101957142D01*
X107894285Y-102004761D01*
X107799047Y-102052380D01*
X107418095Y-102052380D01*
X107418095Y-101052380D01*
X107751428Y-101052380D01*
X107846666Y-101100000D01*
X107894285Y-101147619D01*
X107941904Y-101242857D01*
X107941904Y-101338095D01*
X107894285Y-101433333D01*
X107846666Y-101480952D01*
X107751428Y-101528571D01*
X107418095Y-101528571D01*
X88161904Y-109672380D02*
X88161904Y-108672380D01*
X88400000Y-108672380D01*
X88542857Y-108720000D01*
X88638095Y-108815238D01*
X88685714Y-108910476D01*
X88733333Y-109100952D01*
X88733333Y-109243809D01*
X88685714Y-109434285D01*
X88638095Y-109529523D01*
X88542857Y-109624761D01*
X88400000Y-109672380D01*
X88161904Y-109672380D01*
X89685714Y-109672380D02*
X89114285Y-109672380D01*
X89400000Y-109672380D02*
X89400000Y-108672380D01*
X89304761Y-108815238D01*
X89209523Y-108910476D01*
X89114285Y-108958095D01*
M02*
