G04 #@! TF.GenerationSoftware,KiCad,Pcbnew,5.1.4+dfsg1-1~bpo10+1*
G04 #@! TF.CreationDate,2021-01-21T15:59:20-08:00*
G04 #@! TF.ProjectId,KarisGiftPCB,4b617269-7347-4696-9674-5043422e6b69,rev?*
G04 #@! TF.SameCoordinates,Original*
G04 #@! TF.FileFunction,Legend,Bot*
G04 #@! TF.FilePolarity,Positive*
%FSLAX46Y46*%
G04 Gerber Fmt 4.6, Leading zero omitted, Abs format (unit mm)*
G04 Created by KiCad (PCBNEW 5.1.4+dfsg1-1~bpo10+1) date 2021-01-21 15:59:20*
%MOMM*%
%LPD*%
G04 APERTURE LIST*
%ADD10C,0.150000*%
%ADD11C,0.050000*%
G04 APERTURE END LIST*
D10*
X127893809Y-82177380D02*
X127893809Y-81177380D01*
X127893809Y-81653571D02*
X127322380Y-81653571D01*
X127322380Y-82177380D02*
X127322380Y-81177380D01*
X126465238Y-82129761D02*
X126560476Y-82177380D01*
X126750952Y-82177380D01*
X126846190Y-82129761D01*
X126893809Y-82034523D01*
X126893809Y-81653571D01*
X126846190Y-81558333D01*
X126750952Y-81510714D01*
X126560476Y-81510714D01*
X126465238Y-81558333D01*
X126417619Y-81653571D01*
X126417619Y-81748809D01*
X126893809Y-81844047D01*
X125846190Y-82177380D02*
X125941428Y-82129761D01*
X125989047Y-82034523D01*
X125989047Y-81177380D01*
X125465238Y-81510714D02*
X125465238Y-82510714D01*
X125465238Y-81558333D02*
X125370000Y-81510714D01*
X125179523Y-81510714D01*
X125084285Y-81558333D01*
X125036666Y-81605952D01*
X124989047Y-81701190D01*
X124989047Y-81986904D01*
X125036666Y-82082142D01*
X125084285Y-82129761D01*
X125179523Y-82177380D01*
X125370000Y-82177380D01*
X125465238Y-82129761D01*
X124179523Y-82129761D02*
X124274761Y-82177380D01*
X124465238Y-82177380D01*
X124560476Y-82129761D01*
X124608095Y-82034523D01*
X124608095Y-81653571D01*
X124560476Y-81558333D01*
X124465238Y-81510714D01*
X124274761Y-81510714D01*
X124179523Y-81558333D01*
X124131904Y-81653571D01*
X124131904Y-81748809D01*
X124608095Y-81844047D01*
X123703333Y-82177380D02*
X123703333Y-81510714D01*
X123703333Y-81701190D02*
X123655714Y-81605952D01*
X123608095Y-81558333D01*
X123512857Y-81510714D01*
X123417619Y-81510714D01*
X123131904Y-82129761D02*
X123036666Y-82177380D01*
X122846190Y-82177380D01*
X122750952Y-82129761D01*
X122703333Y-82034523D01*
X122703333Y-81986904D01*
X122750952Y-81891666D01*
X122846190Y-81844047D01*
X122989047Y-81844047D01*
X123084285Y-81796428D01*
X123131904Y-81701190D01*
X123131904Y-81653571D01*
X123084285Y-81558333D01*
X122989047Y-81510714D01*
X122846190Y-81510714D01*
X122750952Y-81558333D01*
X122274761Y-82082142D02*
X122227142Y-82129761D01*
X122274761Y-82177380D01*
X122322380Y-82129761D01*
X122274761Y-82082142D01*
X122274761Y-82177380D01*
X122274761Y-81558333D02*
X122227142Y-81605952D01*
X122274761Y-81653571D01*
X122322380Y-81605952D01*
X122274761Y-81558333D01*
X122274761Y-81653571D01*
X121036666Y-82177380D02*
X121036666Y-81177380D01*
X120465238Y-82177380D02*
X120893809Y-81605952D01*
X120465238Y-81177380D02*
X121036666Y-81748809D01*
X119608095Y-82177380D02*
X119608095Y-81653571D01*
X119655714Y-81558333D01*
X119750952Y-81510714D01*
X119941428Y-81510714D01*
X120036666Y-81558333D01*
X119608095Y-82129761D02*
X119703333Y-82177380D01*
X119941428Y-82177380D01*
X120036666Y-82129761D01*
X120084285Y-82034523D01*
X120084285Y-81939285D01*
X120036666Y-81844047D01*
X119941428Y-81796428D01*
X119703333Y-81796428D01*
X119608095Y-81748809D01*
X119227142Y-81510714D02*
X118989047Y-82177380D01*
X118750952Y-81510714D02*
X118989047Y-82177380D01*
X119084285Y-82415476D01*
X119131904Y-82463095D01*
X119227142Y-82510714D01*
X117941428Y-82177380D02*
X117941428Y-81653571D01*
X117989047Y-81558333D01*
X118084285Y-81510714D01*
X118274761Y-81510714D01*
X118370000Y-81558333D01*
X117941428Y-82129761D02*
X118036666Y-82177380D01*
X118274761Y-82177380D01*
X118370000Y-82129761D01*
X118417619Y-82034523D01*
X118417619Y-81939285D01*
X118370000Y-81844047D01*
X118274761Y-81796428D01*
X118036666Y-81796428D01*
X117941428Y-81748809D01*
X116417619Y-82558333D02*
X116465238Y-82510714D01*
X116560476Y-82367857D01*
X116608095Y-82272619D01*
X116655714Y-82129761D01*
X116703333Y-81891666D01*
X116703333Y-81701190D01*
X116655714Y-81463095D01*
X116608095Y-81320238D01*
X116560476Y-81225000D01*
X116465238Y-81082142D01*
X116417619Y-81034523D01*
X116036666Y-82177380D02*
X116036666Y-81177380D01*
X115703333Y-81891666D01*
X115370000Y-81177380D01*
X115370000Y-82177380D01*
X114893809Y-82177380D02*
X114893809Y-81510714D01*
X114893809Y-81177380D02*
X114941428Y-81225000D01*
X114893809Y-81272619D01*
X114846190Y-81225000D01*
X114893809Y-81177380D01*
X114893809Y-81272619D01*
X114417619Y-82177380D02*
X114417619Y-81177380D01*
X114322380Y-81796428D02*
X114036666Y-82177380D01*
X114036666Y-81510714D02*
X114417619Y-81891666D01*
X113179523Y-82177380D02*
X113179523Y-81653571D01*
X113227142Y-81558333D01*
X113322380Y-81510714D01*
X113512857Y-81510714D01*
X113608095Y-81558333D01*
X113179523Y-82129761D02*
X113274761Y-82177380D01*
X113512857Y-82177380D01*
X113608095Y-82129761D01*
X113655714Y-82034523D01*
X113655714Y-81939285D01*
X113608095Y-81844047D01*
X113512857Y-81796428D01*
X113274761Y-81796428D01*
X113179523Y-81748809D01*
X112798571Y-81510714D02*
X112560476Y-82177380D01*
X112322380Y-81510714D02*
X112560476Y-82177380D01*
X112655714Y-82415476D01*
X112703333Y-82463095D01*
X112798571Y-82510714D01*
X111798571Y-82177380D02*
X111893809Y-82129761D01*
X111941428Y-82034523D01*
X111941428Y-81177380D01*
X110989047Y-82177380D02*
X110989047Y-81653571D01*
X111036666Y-81558333D01*
X111131904Y-81510714D01*
X111322380Y-81510714D01*
X111417619Y-81558333D01*
X110989047Y-82129761D02*
X111084285Y-82177380D01*
X111322380Y-82177380D01*
X111417619Y-82129761D01*
X111465238Y-82034523D01*
X111465238Y-81939285D01*
X111417619Y-81844047D01*
X111322380Y-81796428D01*
X111084285Y-81796428D01*
X110989047Y-81748809D01*
X110608095Y-82558333D02*
X110560476Y-82510714D01*
X110465238Y-82367857D01*
X110417619Y-82272619D01*
X110370000Y-82129761D01*
X110322380Y-81891666D01*
X110322380Y-81701190D01*
X110370000Y-81463095D01*
X110417619Y-81320238D01*
X110465238Y-81225000D01*
X110560476Y-81082142D01*
X110608095Y-81034523D01*
X109798571Y-82129761D02*
X109798571Y-82177380D01*
X109846190Y-82272619D01*
X109893809Y-82320238D01*
X108131904Y-82177380D02*
X108608095Y-82177380D01*
X108608095Y-81177380D01*
X107417619Y-82129761D02*
X107512857Y-82177380D01*
X107703333Y-82177380D01*
X107798571Y-82129761D01*
X107846190Y-82034523D01*
X107846190Y-81653571D01*
X107798571Y-81558333D01*
X107703333Y-81510714D01*
X107512857Y-81510714D01*
X107417619Y-81558333D01*
X107370000Y-81653571D01*
X107370000Y-81748809D01*
X107846190Y-81844047D01*
X106560476Y-82129761D02*
X106655714Y-82177380D01*
X106846190Y-82177380D01*
X106941428Y-82129761D01*
X106989047Y-82034523D01*
X106989047Y-81653571D01*
X106941428Y-81558333D01*
X106846190Y-81510714D01*
X106655714Y-81510714D01*
X106560476Y-81558333D01*
X106512857Y-81653571D01*
X106512857Y-81748809D01*
X106989047Y-81844047D01*
X105941428Y-82177380D02*
X106036666Y-82129761D01*
X106084285Y-82034523D01*
X106084285Y-81177380D01*
X105655714Y-81510714D02*
X105417619Y-82177380D01*
X105179523Y-81510714D02*
X105417619Y-82177380D01*
X105512857Y-82415476D01*
X105560476Y-82463095D01*
X105655714Y-82510714D01*
X103750952Y-82558333D02*
X103798571Y-82510714D01*
X103893809Y-82367857D01*
X103941428Y-82272619D01*
X103989047Y-82129761D01*
X104036666Y-81891666D01*
X104036666Y-81701190D01*
X103989047Y-81463095D01*
X103941428Y-81320238D01*
X103893809Y-81225000D01*
X103798571Y-81082142D01*
X103750952Y-81034523D01*
X102893809Y-82177380D02*
X103370000Y-82177380D01*
X103370000Y-81177380D01*
X102560476Y-82177380D02*
X102560476Y-81510714D01*
X102560476Y-81177380D02*
X102608095Y-81225000D01*
X102560476Y-81272619D01*
X102512857Y-81225000D01*
X102560476Y-81177380D01*
X102560476Y-81272619D01*
X101941428Y-82177380D02*
X102036666Y-82129761D01*
X102084285Y-82034523D01*
X102084285Y-81177380D01*
X101655714Y-81510714D02*
X101417619Y-82177380D01*
X101179523Y-81510714D02*
X101417619Y-82177380D01*
X101512857Y-82415476D01*
X101560476Y-82463095D01*
X101655714Y-82510714D01*
X100893809Y-82558333D02*
X100846190Y-82510714D01*
X100750952Y-82367857D01*
X100703333Y-82272619D01*
X100655714Y-82129761D01*
X100608095Y-81891666D01*
X100608095Y-81701190D01*
X100655714Y-81463095D01*
X100703333Y-81320238D01*
X100750952Y-81225000D01*
X100846190Y-81082142D01*
X100893809Y-81034523D01*
X100084285Y-82129761D02*
X100084285Y-82177380D01*
X100131904Y-82272619D01*
X100179523Y-82320238D01*
X98893809Y-82177380D02*
X98893809Y-81177380D01*
X98560476Y-81891666D01*
X98227142Y-81177380D01*
X98227142Y-82177380D01*
X97322380Y-82177380D02*
X97322380Y-81653571D01*
X97370000Y-81558333D01*
X97465238Y-81510714D01*
X97655714Y-81510714D01*
X97750952Y-81558333D01*
X97322380Y-82129761D02*
X97417619Y-82177380D01*
X97655714Y-82177380D01*
X97750952Y-82129761D01*
X97798571Y-82034523D01*
X97798571Y-81939285D01*
X97750952Y-81844047D01*
X97655714Y-81796428D01*
X97417619Y-81796428D01*
X97322380Y-81748809D01*
X96846190Y-82177380D02*
X96846190Y-81177380D01*
X96750952Y-81796428D02*
X96465238Y-82177380D01*
X96465238Y-81510714D02*
X96846190Y-81891666D01*
X95608095Y-82177380D02*
X95608095Y-81653571D01*
X95655714Y-81558333D01*
X95750952Y-81510714D01*
X95941428Y-81510714D01*
X96036666Y-81558333D01*
X95608095Y-82129761D02*
X95703333Y-82177380D01*
X95941428Y-82177380D01*
X96036666Y-82129761D01*
X96084285Y-82034523D01*
X96084285Y-81939285D01*
X96036666Y-81844047D01*
X95941428Y-81796428D01*
X95703333Y-81796428D01*
X95608095Y-81748809D01*
X95131904Y-82177380D02*
X95131904Y-81510714D01*
X95131904Y-81177380D02*
X95179523Y-81225000D01*
X95131904Y-81272619D01*
X95084285Y-81225000D01*
X95131904Y-81177380D01*
X95131904Y-81272619D01*
X93608095Y-82558333D02*
X93655714Y-82510714D01*
X93750952Y-82367857D01*
X93798571Y-82272619D01*
X93846190Y-82129761D01*
X93893809Y-81891666D01*
X93893809Y-81701190D01*
X93846190Y-81463095D01*
X93798571Y-81320238D01*
X93750952Y-81225000D01*
X93655714Y-81082142D01*
X93608095Y-81034523D01*
X93227142Y-82177380D02*
X93227142Y-81177380D01*
X92893809Y-81891666D01*
X92560476Y-81177380D01*
X92560476Y-82177380D01*
X91655714Y-82177380D02*
X91655714Y-81653571D01*
X91703333Y-81558333D01*
X91798571Y-81510714D01*
X91989047Y-81510714D01*
X92084285Y-81558333D01*
X91655714Y-82129761D02*
X91750952Y-82177380D01*
X91989047Y-82177380D01*
X92084285Y-82129761D01*
X92131904Y-82034523D01*
X92131904Y-81939285D01*
X92084285Y-81844047D01*
X91989047Y-81796428D01*
X91750952Y-81796428D01*
X91655714Y-81748809D01*
X91036666Y-82177380D02*
X91131904Y-82129761D01*
X91179523Y-82034523D01*
X91179523Y-81177380D01*
X90227142Y-82177380D02*
X90227142Y-81653571D01*
X90274761Y-81558333D01*
X90370000Y-81510714D01*
X90560476Y-81510714D01*
X90655714Y-81558333D01*
X90227142Y-82129761D02*
X90322380Y-82177380D01*
X90560476Y-82177380D01*
X90655714Y-82129761D01*
X90703333Y-82034523D01*
X90703333Y-81939285D01*
X90655714Y-81844047D01*
X90560476Y-81796428D01*
X90322380Y-81796428D01*
X90227142Y-81748809D01*
X89322380Y-82129761D02*
X89417619Y-82177380D01*
X89608095Y-82177380D01*
X89703333Y-82129761D01*
X89750952Y-82082142D01*
X89798571Y-81986904D01*
X89798571Y-81701190D01*
X89750952Y-81605952D01*
X89703333Y-81558333D01*
X89608095Y-81510714D01*
X89417619Y-81510714D01*
X89322380Y-81558333D01*
X88893809Y-82177380D02*
X88893809Y-81177380D01*
X88465238Y-82177380D02*
X88465238Y-81653571D01*
X88512857Y-81558333D01*
X88608095Y-81510714D01*
X88750952Y-81510714D01*
X88846190Y-81558333D01*
X88893809Y-81605952D01*
X87989047Y-82177380D02*
X87989047Y-81510714D01*
X87989047Y-81177380D02*
X88036666Y-81225000D01*
X87989047Y-81272619D01*
X87941428Y-81225000D01*
X87989047Y-81177380D01*
X87989047Y-81272619D01*
X87608095Y-82558333D02*
X87560476Y-82510714D01*
X87465238Y-82367857D01*
X87417619Y-82272619D01*
X87370000Y-82129761D01*
X87322380Y-81891666D01*
X87322380Y-81701190D01*
X87370000Y-81463095D01*
X87417619Y-81320238D01*
X87465238Y-81225000D01*
X87560476Y-81082142D01*
X87608095Y-81034523D01*
X86798571Y-82129761D02*
X86798571Y-82177380D01*
X86846190Y-82272619D01*
X86893809Y-82320238D01*
X85703333Y-81177380D02*
X85465238Y-82177380D01*
X85274761Y-81463095D01*
X85084285Y-82177380D01*
X84846190Y-81177380D01*
X84084285Y-82129761D02*
X84179523Y-82177380D01*
X84370000Y-82177380D01*
X84465238Y-82129761D01*
X84512857Y-82034523D01*
X84512857Y-81653571D01*
X84465238Y-81558333D01*
X84370000Y-81510714D01*
X84179523Y-81510714D01*
X84084285Y-81558333D01*
X84036666Y-81653571D01*
X84036666Y-81748809D01*
X84512857Y-81844047D01*
X83703333Y-81510714D02*
X83465238Y-82177380D01*
X83227142Y-81510714D01*
X82846190Y-82177380D02*
X82846190Y-81510714D01*
X82846190Y-81177380D02*
X82893809Y-81225000D01*
X82846190Y-81272619D01*
X82798571Y-81225000D01*
X82846190Y-81177380D01*
X82846190Y-81272619D01*
X81322380Y-82558333D02*
X81370000Y-82510714D01*
X81465238Y-82367857D01*
X81512857Y-82272619D01*
X81560476Y-82129761D01*
X81608095Y-81891666D01*
X81608095Y-81701190D01*
X81560476Y-81463095D01*
X81512857Y-81320238D01*
X81465238Y-81225000D01*
X81370000Y-81082142D01*
X81322380Y-81034523D01*
X80465238Y-82177380D02*
X80941428Y-82177380D01*
X80941428Y-81177380D01*
X79750952Y-82129761D02*
X79846190Y-82177380D01*
X80036666Y-82177380D01*
X80131904Y-82129761D01*
X80179523Y-82034523D01*
X80179523Y-81653571D01*
X80131904Y-81558333D01*
X80036666Y-81510714D01*
X79846190Y-81510714D01*
X79750952Y-81558333D01*
X79703333Y-81653571D01*
X79703333Y-81748809D01*
X80179523Y-81844047D01*
X79370000Y-81510714D02*
X79131904Y-82177380D01*
X78893809Y-81510714D01*
X78512857Y-82177380D02*
X78512857Y-81510714D01*
X78512857Y-81177380D02*
X78560476Y-81225000D01*
X78512857Y-81272619D01*
X78465238Y-81225000D01*
X78512857Y-81177380D01*
X78512857Y-81272619D01*
X78131904Y-82558333D02*
X78084285Y-82510714D01*
X77989047Y-82367857D01*
X77941428Y-82272619D01*
X77893809Y-82129761D01*
X77846190Y-81891666D01*
X77846190Y-81701190D01*
X77893809Y-81463095D01*
X77941428Y-81320238D01*
X77989047Y-81225000D01*
X78084285Y-81082142D01*
X78131904Y-81034523D01*
X124965238Y-83827380D02*
X125441428Y-83827380D01*
X125441428Y-82827380D01*
X124250952Y-83779761D02*
X124346190Y-83827380D01*
X124536666Y-83827380D01*
X124631904Y-83779761D01*
X124679523Y-83684523D01*
X124679523Y-83303571D01*
X124631904Y-83208333D01*
X124536666Y-83160714D01*
X124346190Y-83160714D01*
X124250952Y-83208333D01*
X124203333Y-83303571D01*
X124203333Y-83398809D01*
X124679523Y-83494047D01*
X123393809Y-83779761D02*
X123489047Y-83827380D01*
X123679523Y-83827380D01*
X123774761Y-83779761D01*
X123822380Y-83684523D01*
X123822380Y-83303571D01*
X123774761Y-83208333D01*
X123679523Y-83160714D01*
X123489047Y-83160714D01*
X123393809Y-83208333D01*
X123346190Y-83303571D01*
X123346190Y-83398809D01*
X123822380Y-83494047D01*
X123060476Y-83160714D02*
X122679523Y-83160714D01*
X122917619Y-82827380D02*
X122917619Y-83684523D01*
X122870000Y-83779761D01*
X122774761Y-83827380D01*
X122679523Y-83827380D01*
X122203333Y-83827380D02*
X122298571Y-83779761D01*
X122346190Y-83732142D01*
X122393809Y-83636904D01*
X122393809Y-83351190D01*
X122346190Y-83255952D01*
X122298571Y-83208333D01*
X122203333Y-83160714D01*
X122060476Y-83160714D01*
X121965238Y-83208333D01*
X121917619Y-83255952D01*
X121870000Y-83351190D01*
X121870000Y-83636904D01*
X121917619Y-83732142D01*
X121965238Y-83779761D01*
X122060476Y-83827380D01*
X122203333Y-83827380D01*
X121441428Y-83160714D02*
X121441428Y-83827380D01*
X121441428Y-83255952D02*
X121393809Y-83208333D01*
X121298571Y-83160714D01*
X121155714Y-83160714D01*
X121060476Y-83208333D01*
X121012857Y-83303571D01*
X121012857Y-83827380D01*
X119489047Y-84208333D02*
X119536666Y-84160714D01*
X119631904Y-84017857D01*
X119679523Y-83922619D01*
X119727142Y-83779761D01*
X119774761Y-83541666D01*
X119774761Y-83351190D01*
X119727142Y-83113095D01*
X119679523Y-82970238D01*
X119631904Y-82875000D01*
X119536666Y-82732142D01*
X119489047Y-82684523D01*
X118631904Y-83827380D02*
X119108095Y-83827380D01*
X119108095Y-82827380D01*
X117917619Y-83779761D02*
X118012857Y-83827380D01*
X118203333Y-83827380D01*
X118298571Y-83779761D01*
X118346190Y-83684523D01*
X118346190Y-83303571D01*
X118298571Y-83208333D01*
X118203333Y-83160714D01*
X118012857Y-83160714D01*
X117917619Y-83208333D01*
X117870000Y-83303571D01*
X117870000Y-83398809D01*
X118346190Y-83494047D01*
X117441428Y-83827380D02*
X117441428Y-83160714D01*
X117441428Y-82827380D02*
X117489047Y-82875000D01*
X117441428Y-82922619D01*
X117393809Y-82875000D01*
X117441428Y-82827380D01*
X117441428Y-82922619D01*
X116536666Y-83160714D02*
X116536666Y-83970238D01*
X116584285Y-84065476D01*
X116631904Y-84113095D01*
X116727142Y-84160714D01*
X116870000Y-84160714D01*
X116965238Y-84113095D01*
X116536666Y-83779761D02*
X116631904Y-83827380D01*
X116822380Y-83827380D01*
X116917619Y-83779761D01*
X116965238Y-83732142D01*
X117012857Y-83636904D01*
X117012857Y-83351190D01*
X116965238Y-83255952D01*
X116917619Y-83208333D01*
X116822380Y-83160714D01*
X116631904Y-83160714D01*
X116536666Y-83208333D01*
X116060476Y-83827380D02*
X116060476Y-82827380D01*
X115631904Y-83827380D02*
X115631904Y-83303571D01*
X115679523Y-83208333D01*
X115774761Y-83160714D01*
X115917619Y-83160714D01*
X116012857Y-83208333D01*
X116060476Y-83255952D01*
X115298571Y-83160714D02*
X114917619Y-83160714D01*
X115155714Y-82827380D02*
X115155714Y-83684523D01*
X115108095Y-83779761D01*
X115012857Y-83827380D01*
X114917619Y-83827380D01*
X114441428Y-83827380D02*
X114536666Y-83779761D01*
X114584285Y-83732142D01*
X114631904Y-83636904D01*
X114631904Y-83351190D01*
X114584285Y-83255952D01*
X114536666Y-83208333D01*
X114441428Y-83160714D01*
X114298571Y-83160714D01*
X114203333Y-83208333D01*
X114155714Y-83255952D01*
X114108095Y-83351190D01*
X114108095Y-83636904D01*
X114155714Y-83732142D01*
X114203333Y-83779761D01*
X114298571Y-83827380D01*
X114441428Y-83827380D01*
X113679523Y-83160714D02*
X113679523Y-83827380D01*
X113679523Y-83255952D02*
X113631904Y-83208333D01*
X113536666Y-83160714D01*
X113393809Y-83160714D01*
X113298571Y-83208333D01*
X113250952Y-83303571D01*
X113250952Y-83827380D01*
X112870000Y-84208333D02*
X112822380Y-84160714D01*
X112727142Y-84017857D01*
X112679523Y-83922619D01*
X112631904Y-83779761D01*
X112584285Y-83541666D01*
X112584285Y-83351190D01*
X112631904Y-83113095D01*
X112679523Y-82970238D01*
X112727142Y-82875000D01*
X112822380Y-82732142D01*
X112870000Y-82684523D01*
X112060476Y-83779761D02*
X112060476Y-83827380D01*
X112108095Y-83922619D01*
X112155714Y-83970238D01*
X110870000Y-83827380D02*
X110870000Y-82827380D01*
X110536666Y-83160714D02*
X110155714Y-83160714D01*
X110393809Y-82827380D02*
X110393809Y-83684523D01*
X110346190Y-83779761D01*
X110250952Y-83827380D01*
X110155714Y-83827380D01*
X109822380Y-83827380D02*
X109822380Y-82827380D01*
X109393809Y-83827380D02*
X109393809Y-83303571D01*
X109441428Y-83208333D01*
X109536666Y-83160714D01*
X109679523Y-83160714D01*
X109774761Y-83208333D01*
X109822380Y-83255952D01*
X108917619Y-83827380D02*
X108917619Y-83160714D01*
X108917619Y-82827380D02*
X108965238Y-82875000D01*
X108917619Y-82922619D01*
X108870000Y-82875000D01*
X108917619Y-82827380D01*
X108917619Y-82922619D01*
X108012857Y-83779761D02*
X108108095Y-83827380D01*
X108298571Y-83827380D01*
X108393809Y-83779761D01*
X108441428Y-83732142D01*
X108489047Y-83636904D01*
X108489047Y-83351190D01*
X108441428Y-83255952D01*
X108393809Y-83208333D01*
X108298571Y-83160714D01*
X108108095Y-83160714D01*
X108012857Y-83208333D01*
X107584285Y-83827380D02*
X107584285Y-82827380D01*
X107489047Y-83446428D02*
X107203333Y-83827380D01*
X107203333Y-83160714D02*
X107584285Y-83541666D01*
X105727142Y-84208333D02*
X105774761Y-84160714D01*
X105870000Y-84017857D01*
X105917619Y-83922619D01*
X105965238Y-83779761D01*
X106012857Y-83541666D01*
X106012857Y-83351190D01*
X105965238Y-83113095D01*
X105917619Y-82970238D01*
X105870000Y-82875000D01*
X105774761Y-82732142D01*
X105727142Y-82684523D01*
X105346190Y-83827380D02*
X105346190Y-82827380D01*
X104917619Y-83779761D02*
X104822380Y-83827380D01*
X104631904Y-83827380D01*
X104536666Y-83779761D01*
X104489047Y-83684523D01*
X104489047Y-83636904D01*
X104536666Y-83541666D01*
X104631904Y-83494047D01*
X104774761Y-83494047D01*
X104870000Y-83446428D01*
X104917619Y-83351190D01*
X104917619Y-83303571D01*
X104870000Y-83208333D01*
X104774761Y-83160714D01*
X104631904Y-83160714D01*
X104536666Y-83208333D01*
X103631904Y-83827380D02*
X103631904Y-83303571D01*
X103679523Y-83208333D01*
X103774761Y-83160714D01*
X103965238Y-83160714D01*
X104060476Y-83208333D01*
X103631904Y-83779761D02*
X103727142Y-83827380D01*
X103965238Y-83827380D01*
X104060476Y-83779761D01*
X104108095Y-83684523D01*
X104108095Y-83589285D01*
X104060476Y-83494047D01*
X103965238Y-83446428D01*
X103727142Y-83446428D01*
X103631904Y-83398809D01*
X102727142Y-83827380D02*
X102727142Y-83303571D01*
X102774761Y-83208333D01*
X102870000Y-83160714D01*
X103060476Y-83160714D01*
X103155714Y-83208333D01*
X102727142Y-83779761D02*
X102822380Y-83827380D01*
X103060476Y-83827380D01*
X103155714Y-83779761D01*
X103203333Y-83684523D01*
X103203333Y-83589285D01*
X103155714Y-83494047D01*
X103060476Y-83446428D01*
X102822380Y-83446428D01*
X102727142Y-83398809D01*
X101822380Y-83779761D02*
X101917619Y-83827380D01*
X102108095Y-83827380D01*
X102203333Y-83779761D01*
X102250952Y-83732142D01*
X102298571Y-83636904D01*
X102298571Y-83351190D01*
X102250952Y-83255952D01*
X102203333Y-83208333D01*
X102108095Y-83160714D01*
X101917619Y-83160714D01*
X101822380Y-83208333D01*
X101489047Y-84208333D02*
X101441428Y-84160714D01*
X101346190Y-84017857D01*
X101298571Y-83922619D01*
X101250952Y-83779761D01*
X101203333Y-83541666D01*
X101203333Y-83351190D01*
X101250952Y-83113095D01*
X101298571Y-82970238D01*
X101346190Y-82875000D01*
X101441428Y-82732142D01*
X101489047Y-82684523D01*
X100679523Y-83779761D02*
X100679523Y-83827380D01*
X100727142Y-83922619D01*
X100774761Y-83970238D01*
X99536666Y-83541666D02*
X99060476Y-83541666D01*
X99631904Y-83827380D02*
X99298571Y-82827380D01*
X98965238Y-83827380D01*
X98489047Y-83827380D02*
X98584285Y-83779761D01*
X98631904Y-83684523D01*
X98631904Y-82827380D01*
X98108095Y-83827380D02*
X98108095Y-83160714D01*
X98108095Y-82827380D02*
X98155714Y-82875000D01*
X98108095Y-82922619D01*
X98060476Y-82875000D01*
X98108095Y-82827380D01*
X98108095Y-82922619D01*
X97631904Y-83827380D02*
X97631904Y-82827380D01*
X97536666Y-83446428D02*
X97250952Y-83827380D01*
X97250952Y-83160714D02*
X97631904Y-83541666D01*
X95774761Y-84208333D02*
X95822380Y-84160714D01*
X95917619Y-84017857D01*
X95965238Y-83922619D01*
X96012857Y-83779761D01*
X96060476Y-83541666D01*
X96060476Y-83351190D01*
X96012857Y-83113095D01*
X95965238Y-82970238D01*
X95917619Y-82875000D01*
X95822380Y-82732142D01*
X95774761Y-82684523D01*
X95441428Y-83541666D02*
X94965238Y-83541666D01*
X95536666Y-83827380D02*
X95203333Y-82827380D01*
X94870000Y-83827380D01*
X94393809Y-83827380D02*
X94489047Y-83779761D01*
X94536666Y-83684523D01*
X94536666Y-82827380D01*
X93631904Y-83779761D02*
X93727142Y-83827380D01*
X93917619Y-83827380D01*
X94012857Y-83779761D01*
X94060476Y-83684523D01*
X94060476Y-83303571D01*
X94012857Y-83208333D01*
X93917619Y-83160714D01*
X93727142Y-83160714D01*
X93631904Y-83208333D01*
X93584285Y-83303571D01*
X93584285Y-83398809D01*
X94060476Y-83494047D01*
X93250952Y-83827380D02*
X92727142Y-83160714D01*
X93250952Y-83160714D02*
X92727142Y-83827380D01*
X92441428Y-84208333D02*
X92393809Y-84160714D01*
X92298571Y-84017857D01*
X92250952Y-83922619D01*
X92203333Y-83779761D01*
X92155714Y-83541666D01*
X92155714Y-83351190D01*
X92203333Y-83113095D01*
X92250952Y-82970238D01*
X92298571Y-82875000D01*
X92393809Y-82732142D01*
X92441428Y-82684523D01*
X91631904Y-83779761D02*
X91631904Y-83827380D01*
X91679523Y-83922619D01*
X91727142Y-83970238D01*
X90155714Y-82827380D02*
X90155714Y-83541666D01*
X90203333Y-83684523D01*
X90298571Y-83779761D01*
X90441428Y-83827380D01*
X90536666Y-83827380D01*
X89250952Y-83827380D02*
X89250952Y-83303571D01*
X89298571Y-83208333D01*
X89393809Y-83160714D01*
X89584285Y-83160714D01*
X89679523Y-83208333D01*
X89250952Y-83779761D02*
X89346190Y-83827380D01*
X89584285Y-83827380D01*
X89679523Y-83779761D01*
X89727142Y-83684523D01*
X89727142Y-83589285D01*
X89679523Y-83494047D01*
X89584285Y-83446428D01*
X89346190Y-83446428D01*
X89250952Y-83398809D01*
X88870000Y-83160714D02*
X88631904Y-83827380D01*
X88393809Y-83160714D02*
X88631904Y-83827380D01*
X88727142Y-84065476D01*
X88774761Y-84113095D01*
X88870000Y-84160714D01*
X87870000Y-83827380D02*
X87965238Y-83779761D01*
X88012857Y-83732142D01*
X88060476Y-83636904D01*
X88060476Y-83351190D01*
X88012857Y-83255952D01*
X87965238Y-83208333D01*
X87870000Y-83160714D01*
X87727142Y-83160714D01*
X87631904Y-83208333D01*
X87584285Y-83255952D01*
X87536666Y-83351190D01*
X87536666Y-83636904D01*
X87584285Y-83732142D01*
X87631904Y-83779761D01*
X87727142Y-83827380D01*
X87870000Y-83827380D01*
X87108095Y-83827380D02*
X87108095Y-82827380D01*
X87108095Y-83208333D02*
X87012857Y-83160714D01*
X86822380Y-83160714D01*
X86727142Y-83208333D01*
X86679523Y-83255952D01*
X86631904Y-83351190D01*
X86631904Y-83636904D01*
X86679523Y-83732142D01*
X86727142Y-83779761D01*
X86822380Y-83827380D01*
X87012857Y-83827380D01*
X87108095Y-83779761D01*
X85155714Y-84208333D02*
X85203333Y-84160714D01*
X85298571Y-84017857D01*
X85346190Y-83922619D01*
X85393809Y-83779761D01*
X85441428Y-83541666D01*
X85441428Y-83351190D01*
X85393809Y-83113095D01*
X85346190Y-82970238D01*
X85298571Y-82875000D01*
X85203333Y-82732142D01*
X85155714Y-82684523D01*
X84489047Y-82827380D02*
X84489047Y-83541666D01*
X84536666Y-83684523D01*
X84631904Y-83779761D01*
X84774761Y-83827380D01*
X84870000Y-83827380D01*
X83584285Y-83827380D02*
X83584285Y-83303571D01*
X83631904Y-83208333D01*
X83727142Y-83160714D01*
X83917619Y-83160714D01*
X84012857Y-83208333D01*
X83584285Y-83779761D02*
X83679523Y-83827380D01*
X83917619Y-83827380D01*
X84012857Y-83779761D01*
X84060476Y-83684523D01*
X84060476Y-83589285D01*
X84012857Y-83494047D01*
X83917619Y-83446428D01*
X83679523Y-83446428D01*
X83584285Y-83398809D01*
X83108095Y-83827380D02*
X83108095Y-82827380D01*
X83012857Y-83446428D02*
X82727142Y-83827380D01*
X82727142Y-83160714D02*
X83108095Y-83541666D01*
X82155714Y-83827380D02*
X82250952Y-83779761D01*
X82298571Y-83732142D01*
X82346190Y-83636904D01*
X82346190Y-83351190D01*
X82298571Y-83255952D01*
X82250952Y-83208333D01*
X82155714Y-83160714D01*
X82012857Y-83160714D01*
X81917619Y-83208333D01*
X81870000Y-83255952D01*
X81822380Y-83351190D01*
X81822380Y-83636904D01*
X81870000Y-83732142D01*
X81917619Y-83779761D01*
X82012857Y-83827380D01*
X82155714Y-83827380D01*
X81393809Y-83827380D02*
X81393809Y-82827380D01*
X81393809Y-83208333D02*
X81298571Y-83160714D01*
X81108095Y-83160714D01*
X81012857Y-83208333D01*
X80965238Y-83255952D01*
X80917619Y-83351190D01*
X80917619Y-83636904D01*
X80965238Y-83732142D01*
X81012857Y-83779761D01*
X81108095Y-83827380D01*
X81298571Y-83827380D01*
X81393809Y-83779761D01*
X80584285Y-84208333D02*
X80536666Y-84160714D01*
X80441428Y-84017857D01*
X80393809Y-83922619D01*
X80346190Y-83779761D01*
X80298571Y-83541666D01*
X80298571Y-83351190D01*
X80346190Y-83113095D01*
X80393809Y-82970238D01*
X80441428Y-82875000D01*
X80536666Y-82732142D01*
X80584285Y-82684523D01*
D11*
X130810000Y-67310000D02*
X59690000Y-67310000D01*
X130810000Y-115570000D02*
X130810000Y-67310000D01*
X59690000Y-115570000D02*
X130810000Y-115570000D01*
X59690000Y-67310000D02*
X59690000Y-115570000D01*
M02*
