G04 #@! TF.GenerationSoftware,KiCad,Pcbnew,5.1.4+dfsg1-1~bpo10+1*
G04 #@! TF.CreationDate,2021-01-14T11:53:16-08:00*
G04 #@! TF.ProjectId,KarisGiftPCB,4b617269-7347-4696-9674-5043422e6b69,rev?*
G04 #@! TF.SameCoordinates,Original*
G04 #@! TF.FileFunction,Copper,L1,Top*
G04 #@! TF.FilePolarity,Positive*
%FSLAX46Y46*%
G04 Gerber Fmt 4.6, Leading zero omitted, Abs format (unit mm)*
G04 Created by KiCad (PCBNEW 5.1.4+dfsg1-1~bpo10+1) date 2021-01-14 11:53:16*
%MOMM*%
%LPD*%
G04 APERTURE LIST*
%ADD10O,1.700000X1.700000*%
%ADD11R,1.700000X1.700000*%
%ADD12O,1.600000X1.600000*%
%ADD13R,1.600000X1.600000*%
%ADD14C,1.600000*%
%ADD15R,1.500000X1.050000*%
%ADD16O,1.500000X1.050000*%
%ADD17R,1.050000X1.500000*%
%ADD18O,1.050000X1.500000*%
%ADD19O,2.200000X2.200000*%
%ADD20R,2.200000X2.200000*%
%ADD21C,0.800000*%
%ADD22C,0.250000*%
%ADD23C,0.254000*%
G04 APERTURE END LIST*
D10*
X80010000Y-71120000D03*
X80010000Y-73660000D03*
X82550000Y-71120000D03*
X82550000Y-73660000D03*
X85090000Y-71120000D03*
X85090000Y-73660000D03*
X87630000Y-71120000D03*
X87630000Y-73660000D03*
X90170000Y-71120000D03*
X90170000Y-73660000D03*
X92710000Y-71120000D03*
X92710000Y-73660000D03*
X95250000Y-71120000D03*
X95250000Y-73660000D03*
X97790000Y-71120000D03*
X97790000Y-73660000D03*
X100330000Y-71120000D03*
X100330000Y-73660000D03*
X102870000Y-71120000D03*
X102870000Y-73660000D03*
X105410000Y-71120000D03*
X105410000Y-73660000D03*
X107950000Y-71120000D03*
X107950000Y-73660000D03*
X110490000Y-71120000D03*
X110490000Y-73660000D03*
X113030000Y-71120000D03*
X113030000Y-73660000D03*
X115570000Y-71120000D03*
X115570000Y-73660000D03*
X118110000Y-71120000D03*
X118110000Y-73660000D03*
X120650000Y-71120000D03*
X120650000Y-73660000D03*
X123190000Y-71120000D03*
X123190000Y-73660000D03*
X125730000Y-71120000D03*
X125730000Y-73660000D03*
X128270000Y-71120000D03*
D11*
X128270000Y-73660000D03*
D10*
X68580000Y-102870000D03*
X68580000Y-100330000D03*
X66040000Y-102870000D03*
X66040000Y-100330000D03*
X63500000Y-102870000D03*
D11*
X63500000Y-100330000D03*
D12*
X69850000Y-82550000D03*
X62230000Y-90170000D03*
X69850000Y-85090000D03*
X62230000Y-87630000D03*
X69850000Y-87630000D03*
X62230000Y-85090000D03*
X69850000Y-90170000D03*
D13*
X62230000Y-82550000D03*
D12*
X93980000Y-105410000D03*
D14*
X83820000Y-105410000D03*
D12*
X93980000Y-101600000D03*
D14*
X83820000Y-101600000D03*
D12*
X80010000Y-87630000D03*
D14*
X80010000Y-77470000D03*
D12*
X82550000Y-87630000D03*
D14*
X82550000Y-77470000D03*
D12*
X85090000Y-87630000D03*
D14*
X85090000Y-77470000D03*
D12*
X87630000Y-87630000D03*
D14*
X87630000Y-77470000D03*
D12*
X90170000Y-87630000D03*
D14*
X90170000Y-77470000D03*
D12*
X102870000Y-95250000D03*
D14*
X92710000Y-95250000D03*
D12*
X92710000Y-87630000D03*
D14*
X92710000Y-77470000D03*
D12*
X102870000Y-91440000D03*
D14*
X92710000Y-91440000D03*
D12*
X95250000Y-87630000D03*
D14*
X95250000Y-77470000D03*
D12*
X97790000Y-87630000D03*
D14*
X97790000Y-77470000D03*
D12*
X100330000Y-87630000D03*
D14*
X100330000Y-77470000D03*
D12*
X102870000Y-87630000D03*
D14*
X102870000Y-77470000D03*
D12*
X105410000Y-87630000D03*
D14*
X105410000Y-77470000D03*
D12*
X107950000Y-87630000D03*
D14*
X107950000Y-77470000D03*
D12*
X110490000Y-87630000D03*
D14*
X110490000Y-77470000D03*
D12*
X113030000Y-87630000D03*
D14*
X113030000Y-77470000D03*
D12*
X115570000Y-87630000D03*
D14*
X115570000Y-77470000D03*
D12*
X118110000Y-87630000D03*
D14*
X118110000Y-77470000D03*
D12*
X128270000Y-95250000D03*
D14*
X118110000Y-95250000D03*
D12*
X120650000Y-87630000D03*
D14*
X120650000Y-77470000D03*
D12*
X123190000Y-87630000D03*
D14*
X123190000Y-77470000D03*
D12*
X128270000Y-91440000D03*
D14*
X118110000Y-91440000D03*
D12*
X125730000Y-87630000D03*
D14*
X125730000Y-77470000D03*
D12*
X128270000Y-87630000D03*
D14*
X128270000Y-77470000D03*
D12*
X128270000Y-100330000D03*
D14*
X118110000Y-100330000D03*
D12*
X118110000Y-104140000D03*
D14*
X128270000Y-104140000D03*
D12*
X102870000Y-111760000D03*
D14*
X102870000Y-101600000D03*
D12*
X128270000Y-107950000D03*
D14*
X118110000Y-107950000D03*
D12*
X128270000Y-111760000D03*
D14*
X118110000Y-111760000D03*
D15*
X78740000Y-104140000D03*
D16*
X78740000Y-106680000D03*
X78740000Y-105410000D03*
D15*
X87630000Y-93980000D03*
D16*
X87630000Y-91440000D03*
X87630000Y-92710000D03*
D15*
X113030000Y-93980000D03*
D16*
X113030000Y-91440000D03*
X113030000Y-92710000D03*
D15*
X113030000Y-101600000D03*
D16*
X113030000Y-104140000D03*
X113030000Y-102870000D03*
D17*
X111760000Y-109220000D03*
D18*
X114300000Y-109220000D03*
X113030000Y-109220000D03*
D10*
X77470000Y-111760000D03*
D11*
X80010000Y-111760000D03*
D10*
X64770000Y-71120000D03*
D11*
X67310000Y-71120000D03*
D10*
X106680000Y-109220000D03*
X106680000Y-106680000D03*
D11*
X106680000Y-104140000D03*
D19*
X93980000Y-111760000D03*
D20*
X83820000Y-111760000D03*
D21*
X123190000Y-95250000D03*
X123190000Y-107950000D03*
D22*
X78515000Y-106680000D02*
X78740000Y-106680000D01*
X77470000Y-107725000D02*
X78515000Y-106680000D01*
X77470000Y-111760000D02*
X77470000Y-107725000D01*
X88900000Y-106680000D02*
X93980000Y-111760000D01*
X78740000Y-106680000D02*
X88900000Y-106680000D01*
X128270000Y-95250000D02*
X123190000Y-95250000D01*
X128270000Y-107950000D02*
X123190000Y-107950000D01*
X102870000Y-110490000D02*
X106680000Y-106680000D01*
X102870000Y-111760000D02*
X102870000Y-110490000D01*
X106680000Y-104140000D02*
X113030000Y-104140000D01*
X62230000Y-85090000D02*
X64770000Y-85090000D01*
X68580000Y-88900000D02*
X68580000Y-100330000D01*
X64770000Y-85090000D02*
X68580000Y-88900000D01*
X62230000Y-87630000D02*
X64770000Y-87630000D01*
X64770000Y-87630000D02*
X66040000Y-88900000D01*
X66040000Y-88900000D02*
X66040000Y-100330000D01*
X105410000Y-73660000D02*
X105410000Y-77470000D01*
X107950000Y-77470000D02*
X107950000Y-73660000D01*
X110490000Y-73660000D02*
X110490000Y-77470000D01*
X113030000Y-77470000D02*
X113030000Y-73660000D01*
X115570000Y-73660000D02*
X115570000Y-77470000D01*
X118110000Y-77470000D02*
X118110000Y-73660000D01*
X120650000Y-73660000D02*
X120650000Y-77470000D01*
X123190000Y-77470000D02*
X123190000Y-73660000D01*
X125730000Y-73660000D02*
X125730000Y-77470000D01*
X128270000Y-77470000D02*
X128270000Y-73660000D01*
X114300000Y-107950000D02*
X118110000Y-104140000D01*
X114300000Y-109220000D02*
X114300000Y-107950000D01*
X113030000Y-109445000D02*
X113030000Y-109220000D01*
X113880010Y-110295010D02*
X113030000Y-109445000D01*
X118110000Y-107950000D02*
X115764990Y-110295010D01*
X118110000Y-111760000D02*
X116840000Y-111760000D01*
X116840000Y-111760000D02*
X115570000Y-110490000D01*
X115570000Y-110490000D02*
X115375010Y-110295010D01*
X115764990Y-110295010D02*
X115375010Y-110295010D01*
X115375010Y-110295010D02*
X113880010Y-110295010D01*
X127000000Y-102870000D02*
X128270000Y-104140000D01*
X113030000Y-102870000D02*
X127000000Y-102870000D01*
X128270000Y-101600000D02*
X127000000Y-102870000D01*
X128270000Y-100330000D02*
X128270000Y-101600000D01*
X105410000Y-87630000D02*
X107950000Y-87630000D01*
X107950000Y-87630000D02*
X110490000Y-87630000D01*
X110490000Y-87630000D02*
X113030000Y-87630000D01*
X113030000Y-91440000D02*
X113030000Y-87630000D01*
X113030000Y-87630000D02*
X115570000Y-87630000D01*
X115570000Y-87630000D02*
X118110000Y-87630000D01*
X118110000Y-87630000D02*
X120650000Y-87630000D01*
X120650000Y-87630000D02*
X123190000Y-87630000D01*
X123190000Y-87630000D02*
X125730000Y-87630000D01*
X125730000Y-87630000D02*
X128270000Y-87630000D01*
X116840000Y-92710000D02*
X118110000Y-91440000D01*
X113030000Y-92710000D02*
X116840000Y-92710000D01*
X118110000Y-95250000D02*
X118110000Y-93980000D01*
X118110000Y-93980000D02*
X116840000Y-92710000D01*
X87630000Y-87630000D02*
X87630000Y-91440000D01*
X80010000Y-87630000D02*
X82550000Y-87630000D01*
X82550000Y-87630000D02*
X85090000Y-87630000D01*
X85090000Y-87630000D02*
X87630000Y-87630000D01*
X87630000Y-87630000D02*
X90170000Y-87630000D01*
X90170000Y-87630000D02*
X92710000Y-87630000D01*
X92710000Y-87630000D02*
X95250000Y-87630000D01*
X95250000Y-87630000D02*
X97790000Y-87630000D01*
X97790000Y-87630000D02*
X100330000Y-87630000D01*
X100330000Y-87630000D02*
X102870000Y-87630000D01*
X91440000Y-92710000D02*
X92710000Y-91440000D01*
X87630000Y-92710000D02*
X91440000Y-92710000D01*
X92710000Y-95250000D02*
X92710000Y-93980000D01*
X92710000Y-93980000D02*
X91440000Y-92710000D01*
X83820000Y-101600000D02*
X83820000Y-105410000D01*
X83820000Y-105410000D02*
X78740000Y-105410000D01*
X77470000Y-97790000D02*
X70649999Y-90969999D01*
X99060000Y-97790000D02*
X77470000Y-97790000D01*
X70649999Y-90969999D02*
X69850000Y-90170000D01*
X102870000Y-101600000D02*
X99060000Y-97790000D01*
X80010000Y-73660000D02*
X80010000Y-77470000D01*
X82550000Y-77470000D02*
X82550000Y-73660000D01*
X85090000Y-73660000D02*
X85090000Y-77470000D01*
X87630000Y-77470000D02*
X87630000Y-73660000D01*
X90170000Y-73660000D02*
X90170000Y-77470000D01*
X92710000Y-77470000D02*
X92710000Y-73660000D01*
X95250000Y-73660000D02*
X95250000Y-77470000D01*
X97790000Y-77470000D02*
X97790000Y-73660000D01*
X100330000Y-73660000D02*
X100330000Y-77470000D01*
X102870000Y-77470000D02*
X102870000Y-73660000D01*
D23*
G36*
X129413000Y-70180758D02*
G01*
X129270269Y-70022412D01*
X129036920Y-69848359D01*
X128774099Y-69723175D01*
X128626890Y-69678524D01*
X128397000Y-69799845D01*
X128397000Y-70993000D01*
X128417000Y-70993000D01*
X128417000Y-71247000D01*
X128397000Y-71247000D01*
X128397000Y-71267000D01*
X128143000Y-71267000D01*
X128143000Y-71247000D01*
X125857000Y-71247000D01*
X125857000Y-71267000D01*
X125603000Y-71267000D01*
X125603000Y-71247000D01*
X123317000Y-71247000D01*
X123317000Y-71267000D01*
X123063000Y-71267000D01*
X123063000Y-71247000D01*
X120777000Y-71247000D01*
X120777000Y-71267000D01*
X120523000Y-71267000D01*
X120523000Y-71247000D01*
X118237000Y-71247000D01*
X118237000Y-71267000D01*
X117983000Y-71267000D01*
X117983000Y-71247000D01*
X115697000Y-71247000D01*
X115697000Y-71267000D01*
X115443000Y-71267000D01*
X115443000Y-71247000D01*
X113157000Y-71247000D01*
X113157000Y-71267000D01*
X112903000Y-71267000D01*
X112903000Y-71247000D01*
X110617000Y-71247000D01*
X110617000Y-71267000D01*
X110363000Y-71267000D01*
X110363000Y-71247000D01*
X108077000Y-71247000D01*
X108077000Y-71267000D01*
X107823000Y-71267000D01*
X107823000Y-71247000D01*
X105537000Y-71247000D01*
X105537000Y-71267000D01*
X105283000Y-71267000D01*
X105283000Y-71247000D01*
X102997000Y-71247000D01*
X102997000Y-71267000D01*
X102743000Y-71267000D01*
X102743000Y-71247000D01*
X100457000Y-71247000D01*
X100457000Y-71267000D01*
X100203000Y-71267000D01*
X100203000Y-71247000D01*
X97917000Y-71247000D01*
X97917000Y-71267000D01*
X97663000Y-71267000D01*
X97663000Y-71247000D01*
X95377000Y-71247000D01*
X95377000Y-71267000D01*
X95123000Y-71267000D01*
X95123000Y-71247000D01*
X92837000Y-71247000D01*
X92837000Y-71267000D01*
X92583000Y-71267000D01*
X92583000Y-71247000D01*
X90297000Y-71247000D01*
X90297000Y-71267000D01*
X90043000Y-71267000D01*
X90043000Y-71247000D01*
X87757000Y-71247000D01*
X87757000Y-71267000D01*
X87503000Y-71267000D01*
X87503000Y-71247000D01*
X85217000Y-71247000D01*
X85217000Y-71267000D01*
X84963000Y-71267000D01*
X84963000Y-71247000D01*
X82677000Y-71247000D01*
X82677000Y-71267000D01*
X82423000Y-71267000D01*
X82423000Y-71247000D01*
X80137000Y-71247000D01*
X80137000Y-71267000D01*
X79883000Y-71267000D01*
X79883000Y-71247000D01*
X78689186Y-71247000D01*
X78568519Y-71476891D01*
X78665843Y-71751252D01*
X78814822Y-72001355D01*
X79009731Y-72217588D01*
X79238756Y-72388416D01*
X79180986Y-72419294D01*
X78954866Y-72604866D01*
X78769294Y-72830986D01*
X78631401Y-73088966D01*
X78546487Y-73368889D01*
X78517815Y-73660000D01*
X78546487Y-73951111D01*
X78631401Y-74231034D01*
X78769294Y-74489014D01*
X78954866Y-74715134D01*
X79180986Y-74900706D01*
X79250000Y-74937595D01*
X79250001Y-76251956D01*
X79095241Y-76355363D01*
X78895363Y-76555241D01*
X78738320Y-76790273D01*
X78630147Y-77051426D01*
X78575000Y-77328665D01*
X78575000Y-77611335D01*
X78630147Y-77888574D01*
X78738320Y-78149727D01*
X78895363Y-78384759D01*
X79095241Y-78584637D01*
X79330273Y-78741680D01*
X79591426Y-78849853D01*
X79868665Y-78905000D01*
X80151335Y-78905000D01*
X80428574Y-78849853D01*
X80689727Y-78741680D01*
X80924759Y-78584637D01*
X81124637Y-78384759D01*
X81280000Y-78152241D01*
X81435363Y-78384759D01*
X81635241Y-78584637D01*
X81870273Y-78741680D01*
X82131426Y-78849853D01*
X82408665Y-78905000D01*
X82691335Y-78905000D01*
X82968574Y-78849853D01*
X83229727Y-78741680D01*
X83464759Y-78584637D01*
X83664637Y-78384759D01*
X83820000Y-78152241D01*
X83975363Y-78384759D01*
X84175241Y-78584637D01*
X84410273Y-78741680D01*
X84671426Y-78849853D01*
X84948665Y-78905000D01*
X85231335Y-78905000D01*
X85508574Y-78849853D01*
X85769727Y-78741680D01*
X86004759Y-78584637D01*
X86204637Y-78384759D01*
X86360000Y-78152241D01*
X86515363Y-78384759D01*
X86715241Y-78584637D01*
X86950273Y-78741680D01*
X87211426Y-78849853D01*
X87488665Y-78905000D01*
X87771335Y-78905000D01*
X88048574Y-78849853D01*
X88309727Y-78741680D01*
X88544759Y-78584637D01*
X88744637Y-78384759D01*
X88900000Y-78152241D01*
X89055363Y-78384759D01*
X89255241Y-78584637D01*
X89490273Y-78741680D01*
X89751426Y-78849853D01*
X90028665Y-78905000D01*
X90311335Y-78905000D01*
X90588574Y-78849853D01*
X90849727Y-78741680D01*
X91084759Y-78584637D01*
X91284637Y-78384759D01*
X91440000Y-78152241D01*
X91595363Y-78384759D01*
X91795241Y-78584637D01*
X92030273Y-78741680D01*
X92291426Y-78849853D01*
X92568665Y-78905000D01*
X92851335Y-78905000D01*
X93128574Y-78849853D01*
X93389727Y-78741680D01*
X93624759Y-78584637D01*
X93824637Y-78384759D01*
X93980000Y-78152241D01*
X94135363Y-78384759D01*
X94335241Y-78584637D01*
X94570273Y-78741680D01*
X94831426Y-78849853D01*
X95108665Y-78905000D01*
X95391335Y-78905000D01*
X95668574Y-78849853D01*
X95929727Y-78741680D01*
X96164759Y-78584637D01*
X96364637Y-78384759D01*
X96520000Y-78152241D01*
X96675363Y-78384759D01*
X96875241Y-78584637D01*
X97110273Y-78741680D01*
X97371426Y-78849853D01*
X97648665Y-78905000D01*
X97931335Y-78905000D01*
X98208574Y-78849853D01*
X98469727Y-78741680D01*
X98704759Y-78584637D01*
X98904637Y-78384759D01*
X99060000Y-78152241D01*
X99215363Y-78384759D01*
X99415241Y-78584637D01*
X99650273Y-78741680D01*
X99911426Y-78849853D01*
X100188665Y-78905000D01*
X100471335Y-78905000D01*
X100748574Y-78849853D01*
X101009727Y-78741680D01*
X101244759Y-78584637D01*
X101444637Y-78384759D01*
X101600000Y-78152241D01*
X101755363Y-78384759D01*
X101955241Y-78584637D01*
X102190273Y-78741680D01*
X102451426Y-78849853D01*
X102728665Y-78905000D01*
X103011335Y-78905000D01*
X103288574Y-78849853D01*
X103549727Y-78741680D01*
X103784759Y-78584637D01*
X103984637Y-78384759D01*
X104140000Y-78152241D01*
X104295363Y-78384759D01*
X104495241Y-78584637D01*
X104730273Y-78741680D01*
X104991426Y-78849853D01*
X105268665Y-78905000D01*
X105551335Y-78905000D01*
X105828574Y-78849853D01*
X106089727Y-78741680D01*
X106324759Y-78584637D01*
X106524637Y-78384759D01*
X106680000Y-78152241D01*
X106835363Y-78384759D01*
X107035241Y-78584637D01*
X107270273Y-78741680D01*
X107531426Y-78849853D01*
X107808665Y-78905000D01*
X108091335Y-78905000D01*
X108368574Y-78849853D01*
X108629727Y-78741680D01*
X108864759Y-78584637D01*
X109064637Y-78384759D01*
X109220000Y-78152241D01*
X109375363Y-78384759D01*
X109575241Y-78584637D01*
X109810273Y-78741680D01*
X110071426Y-78849853D01*
X110348665Y-78905000D01*
X110631335Y-78905000D01*
X110908574Y-78849853D01*
X111169727Y-78741680D01*
X111404759Y-78584637D01*
X111604637Y-78384759D01*
X111760000Y-78152241D01*
X111915363Y-78384759D01*
X112115241Y-78584637D01*
X112350273Y-78741680D01*
X112611426Y-78849853D01*
X112888665Y-78905000D01*
X113171335Y-78905000D01*
X113448574Y-78849853D01*
X113709727Y-78741680D01*
X113944759Y-78584637D01*
X114144637Y-78384759D01*
X114300000Y-78152241D01*
X114455363Y-78384759D01*
X114655241Y-78584637D01*
X114890273Y-78741680D01*
X115151426Y-78849853D01*
X115428665Y-78905000D01*
X115711335Y-78905000D01*
X115988574Y-78849853D01*
X116249727Y-78741680D01*
X116484759Y-78584637D01*
X116684637Y-78384759D01*
X116840000Y-78152241D01*
X116995363Y-78384759D01*
X117195241Y-78584637D01*
X117430273Y-78741680D01*
X117691426Y-78849853D01*
X117968665Y-78905000D01*
X118251335Y-78905000D01*
X118528574Y-78849853D01*
X118789727Y-78741680D01*
X119024759Y-78584637D01*
X119224637Y-78384759D01*
X119380000Y-78152241D01*
X119535363Y-78384759D01*
X119735241Y-78584637D01*
X119970273Y-78741680D01*
X120231426Y-78849853D01*
X120508665Y-78905000D01*
X120791335Y-78905000D01*
X121068574Y-78849853D01*
X121329727Y-78741680D01*
X121564759Y-78584637D01*
X121764637Y-78384759D01*
X121920000Y-78152241D01*
X122075363Y-78384759D01*
X122275241Y-78584637D01*
X122510273Y-78741680D01*
X122771426Y-78849853D01*
X123048665Y-78905000D01*
X123331335Y-78905000D01*
X123608574Y-78849853D01*
X123869727Y-78741680D01*
X124104759Y-78584637D01*
X124304637Y-78384759D01*
X124460000Y-78152241D01*
X124615363Y-78384759D01*
X124815241Y-78584637D01*
X125050273Y-78741680D01*
X125311426Y-78849853D01*
X125588665Y-78905000D01*
X125871335Y-78905000D01*
X126148574Y-78849853D01*
X126409727Y-78741680D01*
X126644759Y-78584637D01*
X126844637Y-78384759D01*
X127000000Y-78152241D01*
X127155363Y-78384759D01*
X127355241Y-78584637D01*
X127590273Y-78741680D01*
X127851426Y-78849853D01*
X128128665Y-78905000D01*
X128411335Y-78905000D01*
X128688574Y-78849853D01*
X128949727Y-78741680D01*
X129184759Y-78584637D01*
X129384637Y-78384759D01*
X129413000Y-78342311D01*
X129413000Y-86760746D01*
X129289608Y-86610392D01*
X129071101Y-86431068D01*
X128821808Y-86297818D01*
X128551309Y-86215764D01*
X128340492Y-86195000D01*
X128199508Y-86195000D01*
X127988691Y-86215764D01*
X127718192Y-86297818D01*
X127468899Y-86431068D01*
X127250392Y-86610392D01*
X127071068Y-86828899D01*
X127049099Y-86870000D01*
X126950901Y-86870000D01*
X126928932Y-86828899D01*
X126749608Y-86610392D01*
X126531101Y-86431068D01*
X126281808Y-86297818D01*
X126011309Y-86215764D01*
X125800492Y-86195000D01*
X125659508Y-86195000D01*
X125448691Y-86215764D01*
X125178192Y-86297818D01*
X124928899Y-86431068D01*
X124710392Y-86610392D01*
X124531068Y-86828899D01*
X124509099Y-86870000D01*
X124410901Y-86870000D01*
X124388932Y-86828899D01*
X124209608Y-86610392D01*
X123991101Y-86431068D01*
X123741808Y-86297818D01*
X123471309Y-86215764D01*
X123260492Y-86195000D01*
X123119508Y-86195000D01*
X122908691Y-86215764D01*
X122638192Y-86297818D01*
X122388899Y-86431068D01*
X122170392Y-86610392D01*
X121991068Y-86828899D01*
X121969099Y-86870000D01*
X121870901Y-86870000D01*
X121848932Y-86828899D01*
X121669608Y-86610392D01*
X121451101Y-86431068D01*
X121201808Y-86297818D01*
X120931309Y-86215764D01*
X120720492Y-86195000D01*
X120579508Y-86195000D01*
X120368691Y-86215764D01*
X120098192Y-86297818D01*
X119848899Y-86431068D01*
X119630392Y-86610392D01*
X119451068Y-86828899D01*
X119429099Y-86870000D01*
X119330901Y-86870000D01*
X119308932Y-86828899D01*
X119129608Y-86610392D01*
X118911101Y-86431068D01*
X118661808Y-86297818D01*
X118391309Y-86215764D01*
X118180492Y-86195000D01*
X118039508Y-86195000D01*
X117828691Y-86215764D01*
X117558192Y-86297818D01*
X117308899Y-86431068D01*
X117090392Y-86610392D01*
X116911068Y-86828899D01*
X116889099Y-86870000D01*
X116790901Y-86870000D01*
X116768932Y-86828899D01*
X116589608Y-86610392D01*
X116371101Y-86431068D01*
X116121808Y-86297818D01*
X115851309Y-86215764D01*
X115640492Y-86195000D01*
X115499508Y-86195000D01*
X115288691Y-86215764D01*
X115018192Y-86297818D01*
X114768899Y-86431068D01*
X114550392Y-86610392D01*
X114371068Y-86828899D01*
X114349099Y-86870000D01*
X114250901Y-86870000D01*
X114228932Y-86828899D01*
X114049608Y-86610392D01*
X113831101Y-86431068D01*
X113581808Y-86297818D01*
X113311309Y-86215764D01*
X113100492Y-86195000D01*
X112959508Y-86195000D01*
X112748691Y-86215764D01*
X112478192Y-86297818D01*
X112228899Y-86431068D01*
X112010392Y-86610392D01*
X111831068Y-86828899D01*
X111809099Y-86870000D01*
X111710901Y-86870000D01*
X111688932Y-86828899D01*
X111509608Y-86610392D01*
X111291101Y-86431068D01*
X111041808Y-86297818D01*
X110771309Y-86215764D01*
X110560492Y-86195000D01*
X110419508Y-86195000D01*
X110208691Y-86215764D01*
X109938192Y-86297818D01*
X109688899Y-86431068D01*
X109470392Y-86610392D01*
X109291068Y-86828899D01*
X109269099Y-86870000D01*
X109170901Y-86870000D01*
X109148932Y-86828899D01*
X108969608Y-86610392D01*
X108751101Y-86431068D01*
X108501808Y-86297818D01*
X108231309Y-86215764D01*
X108020492Y-86195000D01*
X107879508Y-86195000D01*
X107668691Y-86215764D01*
X107398192Y-86297818D01*
X107148899Y-86431068D01*
X106930392Y-86610392D01*
X106751068Y-86828899D01*
X106729099Y-86870000D01*
X106630901Y-86870000D01*
X106608932Y-86828899D01*
X106429608Y-86610392D01*
X106211101Y-86431068D01*
X105961808Y-86297818D01*
X105691309Y-86215764D01*
X105480492Y-86195000D01*
X105339508Y-86195000D01*
X105128691Y-86215764D01*
X104858192Y-86297818D01*
X104608899Y-86431068D01*
X104390392Y-86610392D01*
X104211068Y-86828899D01*
X104140000Y-86961858D01*
X104068932Y-86828899D01*
X103889608Y-86610392D01*
X103671101Y-86431068D01*
X103421808Y-86297818D01*
X103151309Y-86215764D01*
X102940492Y-86195000D01*
X102799508Y-86195000D01*
X102588691Y-86215764D01*
X102318192Y-86297818D01*
X102068899Y-86431068D01*
X101850392Y-86610392D01*
X101671068Y-86828899D01*
X101649099Y-86870000D01*
X101550901Y-86870000D01*
X101528932Y-86828899D01*
X101349608Y-86610392D01*
X101131101Y-86431068D01*
X100881808Y-86297818D01*
X100611309Y-86215764D01*
X100400492Y-86195000D01*
X100259508Y-86195000D01*
X100048691Y-86215764D01*
X99778192Y-86297818D01*
X99528899Y-86431068D01*
X99310392Y-86610392D01*
X99131068Y-86828899D01*
X99109099Y-86870000D01*
X99010901Y-86870000D01*
X98988932Y-86828899D01*
X98809608Y-86610392D01*
X98591101Y-86431068D01*
X98341808Y-86297818D01*
X98071309Y-86215764D01*
X97860492Y-86195000D01*
X97719508Y-86195000D01*
X97508691Y-86215764D01*
X97238192Y-86297818D01*
X96988899Y-86431068D01*
X96770392Y-86610392D01*
X96591068Y-86828899D01*
X96569099Y-86870000D01*
X96470901Y-86870000D01*
X96448932Y-86828899D01*
X96269608Y-86610392D01*
X96051101Y-86431068D01*
X95801808Y-86297818D01*
X95531309Y-86215764D01*
X95320492Y-86195000D01*
X95179508Y-86195000D01*
X94968691Y-86215764D01*
X94698192Y-86297818D01*
X94448899Y-86431068D01*
X94230392Y-86610392D01*
X94051068Y-86828899D01*
X94029099Y-86870000D01*
X93930901Y-86870000D01*
X93908932Y-86828899D01*
X93729608Y-86610392D01*
X93511101Y-86431068D01*
X93261808Y-86297818D01*
X92991309Y-86215764D01*
X92780492Y-86195000D01*
X92639508Y-86195000D01*
X92428691Y-86215764D01*
X92158192Y-86297818D01*
X91908899Y-86431068D01*
X91690392Y-86610392D01*
X91511068Y-86828899D01*
X91489099Y-86870000D01*
X91390901Y-86870000D01*
X91368932Y-86828899D01*
X91189608Y-86610392D01*
X90971101Y-86431068D01*
X90721808Y-86297818D01*
X90451309Y-86215764D01*
X90240492Y-86195000D01*
X90099508Y-86195000D01*
X89888691Y-86215764D01*
X89618192Y-86297818D01*
X89368899Y-86431068D01*
X89150392Y-86610392D01*
X88971068Y-86828899D01*
X88949099Y-86870000D01*
X88850901Y-86870000D01*
X88828932Y-86828899D01*
X88649608Y-86610392D01*
X88431101Y-86431068D01*
X88181808Y-86297818D01*
X87911309Y-86215764D01*
X87700492Y-86195000D01*
X87559508Y-86195000D01*
X87348691Y-86215764D01*
X87078192Y-86297818D01*
X86828899Y-86431068D01*
X86610392Y-86610392D01*
X86431068Y-86828899D01*
X86409099Y-86870000D01*
X86310901Y-86870000D01*
X86288932Y-86828899D01*
X86109608Y-86610392D01*
X85891101Y-86431068D01*
X85641808Y-86297818D01*
X85371309Y-86215764D01*
X85160492Y-86195000D01*
X85019508Y-86195000D01*
X84808691Y-86215764D01*
X84538192Y-86297818D01*
X84288899Y-86431068D01*
X84070392Y-86610392D01*
X83891068Y-86828899D01*
X83869099Y-86870000D01*
X83770901Y-86870000D01*
X83748932Y-86828899D01*
X83569608Y-86610392D01*
X83351101Y-86431068D01*
X83101808Y-86297818D01*
X82831309Y-86215764D01*
X82620492Y-86195000D01*
X82479508Y-86195000D01*
X82268691Y-86215764D01*
X81998192Y-86297818D01*
X81748899Y-86431068D01*
X81530392Y-86610392D01*
X81351068Y-86828899D01*
X81329099Y-86870000D01*
X81230901Y-86870000D01*
X81208932Y-86828899D01*
X81029608Y-86610392D01*
X80811101Y-86431068D01*
X80561808Y-86297818D01*
X80291309Y-86215764D01*
X80080492Y-86195000D01*
X79939508Y-86195000D01*
X79728691Y-86215764D01*
X79458192Y-86297818D01*
X79208899Y-86431068D01*
X78990392Y-86610392D01*
X78811068Y-86828899D01*
X78677818Y-87078192D01*
X78595764Y-87348691D01*
X78568057Y-87630000D01*
X78595764Y-87911309D01*
X78677818Y-88181808D01*
X78811068Y-88431101D01*
X78990392Y-88649608D01*
X79208899Y-88828932D01*
X79458192Y-88962182D01*
X79728691Y-89044236D01*
X79939508Y-89065000D01*
X80080492Y-89065000D01*
X80291309Y-89044236D01*
X80561808Y-88962182D01*
X80811101Y-88828932D01*
X81029608Y-88649608D01*
X81208932Y-88431101D01*
X81230901Y-88390000D01*
X81329099Y-88390000D01*
X81351068Y-88431101D01*
X81530392Y-88649608D01*
X81748899Y-88828932D01*
X81998192Y-88962182D01*
X82268691Y-89044236D01*
X82479508Y-89065000D01*
X82620492Y-89065000D01*
X82831309Y-89044236D01*
X83101808Y-88962182D01*
X83351101Y-88828932D01*
X83569608Y-88649608D01*
X83748932Y-88431101D01*
X83770901Y-88390000D01*
X83869099Y-88390000D01*
X83891068Y-88431101D01*
X84070392Y-88649608D01*
X84288899Y-88828932D01*
X84538192Y-88962182D01*
X84808691Y-89044236D01*
X85019508Y-89065000D01*
X85160492Y-89065000D01*
X85371309Y-89044236D01*
X85641808Y-88962182D01*
X85891101Y-88828932D01*
X86109608Y-88649608D01*
X86288932Y-88431101D01*
X86310901Y-88390000D01*
X86409099Y-88390000D01*
X86431068Y-88431101D01*
X86610392Y-88649608D01*
X86828899Y-88828932D01*
X86870000Y-88850901D01*
X86870001Y-90410654D01*
X86757421Y-90470829D01*
X86580788Y-90615788D01*
X86435829Y-90792421D01*
X86328115Y-90993940D01*
X86261785Y-91212600D01*
X86239388Y-91440000D01*
X86261785Y-91667400D01*
X86328115Y-91886060D01*
X86429105Y-92075000D01*
X86328115Y-92263940D01*
X86261785Y-92482600D01*
X86239388Y-92710000D01*
X86261785Y-92937400D01*
X86325093Y-93146098D01*
X86290498Y-93210820D01*
X86254188Y-93330518D01*
X86241928Y-93455000D01*
X86241928Y-94505000D01*
X86254188Y-94629482D01*
X86290498Y-94749180D01*
X86349463Y-94859494D01*
X86428815Y-94956185D01*
X86525506Y-95035537D01*
X86635820Y-95094502D01*
X86755518Y-95130812D01*
X86880000Y-95143072D01*
X88380000Y-95143072D01*
X88504482Y-95130812D01*
X88624180Y-95094502D01*
X88734494Y-95035537D01*
X88831185Y-94956185D01*
X88910537Y-94859494D01*
X88969502Y-94749180D01*
X89005812Y-94629482D01*
X89018072Y-94505000D01*
X89018072Y-93470000D01*
X91125199Y-93470000D01*
X91792901Y-94137703D01*
X91595363Y-94335241D01*
X91438320Y-94570273D01*
X91330147Y-94831426D01*
X91275000Y-95108665D01*
X91275000Y-95391335D01*
X91330147Y-95668574D01*
X91438320Y-95929727D01*
X91595363Y-96164759D01*
X91795241Y-96364637D01*
X92030273Y-96521680D01*
X92291426Y-96629853D01*
X92568665Y-96685000D01*
X92851335Y-96685000D01*
X93128574Y-96629853D01*
X93389727Y-96521680D01*
X93624759Y-96364637D01*
X93824637Y-96164759D01*
X93981680Y-95929727D01*
X94089853Y-95668574D01*
X94145000Y-95391335D01*
X94145000Y-95250000D01*
X101428057Y-95250000D01*
X101455764Y-95531309D01*
X101537818Y-95801808D01*
X101671068Y-96051101D01*
X101850392Y-96269608D01*
X102068899Y-96448932D01*
X102318192Y-96582182D01*
X102588691Y-96664236D01*
X102799508Y-96685000D01*
X102940492Y-96685000D01*
X103151309Y-96664236D01*
X103421808Y-96582182D01*
X103671101Y-96448932D01*
X103889608Y-96269608D01*
X104068932Y-96051101D01*
X104202182Y-95801808D01*
X104284236Y-95531309D01*
X104311943Y-95250000D01*
X104284236Y-94968691D01*
X104202182Y-94698192D01*
X104068932Y-94448899D01*
X103889608Y-94230392D01*
X103671101Y-94051068D01*
X103421808Y-93917818D01*
X103151309Y-93835764D01*
X102940492Y-93815000D01*
X102799508Y-93815000D01*
X102588691Y-93835764D01*
X102318192Y-93917818D01*
X102068899Y-94051068D01*
X101850392Y-94230392D01*
X101671068Y-94448899D01*
X101537818Y-94698192D01*
X101455764Y-94968691D01*
X101428057Y-95250000D01*
X94145000Y-95250000D01*
X94145000Y-95108665D01*
X94089853Y-94831426D01*
X93981680Y-94570273D01*
X93824637Y-94335241D01*
X93624759Y-94135363D01*
X93470000Y-94031957D01*
X93470000Y-94017322D01*
X93473676Y-93979999D01*
X93470000Y-93942676D01*
X93470000Y-93942667D01*
X93459003Y-93831014D01*
X93415546Y-93687753D01*
X93344974Y-93555724D01*
X93250001Y-93439999D01*
X93221003Y-93416201D01*
X92679802Y-92875000D01*
X92851335Y-92875000D01*
X93128574Y-92819853D01*
X93389727Y-92711680D01*
X93624759Y-92554637D01*
X93824637Y-92354759D01*
X93981680Y-92119727D01*
X94089853Y-91858574D01*
X94145000Y-91581335D01*
X94145000Y-91440000D01*
X101428057Y-91440000D01*
X101455764Y-91721309D01*
X101537818Y-91991808D01*
X101671068Y-92241101D01*
X101850392Y-92459608D01*
X102068899Y-92638932D01*
X102318192Y-92772182D01*
X102588691Y-92854236D01*
X102799508Y-92875000D01*
X102940492Y-92875000D01*
X103151309Y-92854236D01*
X103421808Y-92772182D01*
X103671101Y-92638932D01*
X103889608Y-92459608D01*
X104068932Y-92241101D01*
X104202182Y-91991808D01*
X104284236Y-91721309D01*
X104311943Y-91440000D01*
X104284236Y-91158691D01*
X104202182Y-90888192D01*
X104068932Y-90638899D01*
X103889608Y-90420392D01*
X103671101Y-90241068D01*
X103421808Y-90107818D01*
X103151309Y-90025764D01*
X102940492Y-90005000D01*
X102799508Y-90005000D01*
X102588691Y-90025764D01*
X102318192Y-90107818D01*
X102068899Y-90241068D01*
X101850392Y-90420392D01*
X101671068Y-90638899D01*
X101537818Y-90888192D01*
X101455764Y-91158691D01*
X101428057Y-91440000D01*
X94145000Y-91440000D01*
X94145000Y-91298665D01*
X94089853Y-91021426D01*
X93981680Y-90760273D01*
X93824637Y-90525241D01*
X93624759Y-90325363D01*
X93389727Y-90168320D01*
X93128574Y-90060147D01*
X92851335Y-90005000D01*
X92568665Y-90005000D01*
X92291426Y-90060147D01*
X92030273Y-90168320D01*
X91795241Y-90325363D01*
X91595363Y-90525241D01*
X91438320Y-90760273D01*
X91330147Y-91021426D01*
X91275000Y-91298665D01*
X91275000Y-91581335D01*
X91311312Y-91763886D01*
X91125199Y-91950000D01*
X88897708Y-91950000D01*
X88931885Y-91886060D01*
X88998215Y-91667400D01*
X89020612Y-91440000D01*
X88998215Y-91212600D01*
X88931885Y-90993940D01*
X88824171Y-90792421D01*
X88679212Y-90615788D01*
X88502579Y-90470829D01*
X88390000Y-90410654D01*
X88390000Y-88850901D01*
X88431101Y-88828932D01*
X88649608Y-88649608D01*
X88828932Y-88431101D01*
X88850901Y-88390000D01*
X88949099Y-88390000D01*
X88971068Y-88431101D01*
X89150392Y-88649608D01*
X89368899Y-88828932D01*
X89618192Y-88962182D01*
X89888691Y-89044236D01*
X90099508Y-89065000D01*
X90240492Y-89065000D01*
X90451309Y-89044236D01*
X90721808Y-88962182D01*
X90971101Y-88828932D01*
X91189608Y-88649608D01*
X91368932Y-88431101D01*
X91390901Y-88390000D01*
X91489099Y-88390000D01*
X91511068Y-88431101D01*
X91690392Y-88649608D01*
X91908899Y-88828932D01*
X92158192Y-88962182D01*
X92428691Y-89044236D01*
X92639508Y-89065000D01*
X92780492Y-89065000D01*
X92991309Y-89044236D01*
X93261808Y-88962182D01*
X93511101Y-88828932D01*
X93729608Y-88649608D01*
X93908932Y-88431101D01*
X93930901Y-88390000D01*
X94029099Y-88390000D01*
X94051068Y-88431101D01*
X94230392Y-88649608D01*
X94448899Y-88828932D01*
X94698192Y-88962182D01*
X94968691Y-89044236D01*
X95179508Y-89065000D01*
X95320492Y-89065000D01*
X95531309Y-89044236D01*
X95801808Y-88962182D01*
X96051101Y-88828932D01*
X96269608Y-88649608D01*
X96448932Y-88431101D01*
X96470901Y-88390000D01*
X96569099Y-88390000D01*
X96591068Y-88431101D01*
X96770392Y-88649608D01*
X96988899Y-88828932D01*
X97238192Y-88962182D01*
X97508691Y-89044236D01*
X97719508Y-89065000D01*
X97860492Y-89065000D01*
X98071309Y-89044236D01*
X98341808Y-88962182D01*
X98591101Y-88828932D01*
X98809608Y-88649608D01*
X98988932Y-88431101D01*
X99010901Y-88390000D01*
X99109099Y-88390000D01*
X99131068Y-88431101D01*
X99310392Y-88649608D01*
X99528899Y-88828932D01*
X99778192Y-88962182D01*
X100048691Y-89044236D01*
X100259508Y-89065000D01*
X100400492Y-89065000D01*
X100611309Y-89044236D01*
X100881808Y-88962182D01*
X101131101Y-88828932D01*
X101349608Y-88649608D01*
X101528932Y-88431101D01*
X101550901Y-88390000D01*
X101649099Y-88390000D01*
X101671068Y-88431101D01*
X101850392Y-88649608D01*
X102068899Y-88828932D01*
X102318192Y-88962182D01*
X102588691Y-89044236D01*
X102799508Y-89065000D01*
X102940492Y-89065000D01*
X103151309Y-89044236D01*
X103421808Y-88962182D01*
X103671101Y-88828932D01*
X103889608Y-88649608D01*
X104068932Y-88431101D01*
X104140000Y-88298142D01*
X104211068Y-88431101D01*
X104390392Y-88649608D01*
X104608899Y-88828932D01*
X104858192Y-88962182D01*
X105128691Y-89044236D01*
X105339508Y-89065000D01*
X105480492Y-89065000D01*
X105691309Y-89044236D01*
X105961808Y-88962182D01*
X106211101Y-88828932D01*
X106429608Y-88649608D01*
X106608932Y-88431101D01*
X106630901Y-88390000D01*
X106729099Y-88390000D01*
X106751068Y-88431101D01*
X106930392Y-88649608D01*
X107148899Y-88828932D01*
X107398192Y-88962182D01*
X107668691Y-89044236D01*
X107879508Y-89065000D01*
X108020492Y-89065000D01*
X108231309Y-89044236D01*
X108501808Y-88962182D01*
X108751101Y-88828932D01*
X108969608Y-88649608D01*
X109148932Y-88431101D01*
X109170901Y-88390000D01*
X109269099Y-88390000D01*
X109291068Y-88431101D01*
X109470392Y-88649608D01*
X109688899Y-88828932D01*
X109938192Y-88962182D01*
X110208691Y-89044236D01*
X110419508Y-89065000D01*
X110560492Y-89065000D01*
X110771309Y-89044236D01*
X111041808Y-88962182D01*
X111291101Y-88828932D01*
X111509608Y-88649608D01*
X111688932Y-88431101D01*
X111710901Y-88390000D01*
X111809099Y-88390000D01*
X111831068Y-88431101D01*
X112010392Y-88649608D01*
X112228899Y-88828932D01*
X112270001Y-88850901D01*
X112270000Y-90410654D01*
X112157421Y-90470829D01*
X111980788Y-90615788D01*
X111835829Y-90792421D01*
X111728115Y-90993940D01*
X111661785Y-91212600D01*
X111639388Y-91440000D01*
X111661785Y-91667400D01*
X111728115Y-91886060D01*
X111829105Y-92075000D01*
X111728115Y-92263940D01*
X111661785Y-92482600D01*
X111639388Y-92710000D01*
X111661785Y-92937400D01*
X111725093Y-93146098D01*
X111690498Y-93210820D01*
X111654188Y-93330518D01*
X111641928Y-93455000D01*
X111641928Y-94505000D01*
X111654188Y-94629482D01*
X111690498Y-94749180D01*
X111749463Y-94859494D01*
X111828815Y-94956185D01*
X111925506Y-95035537D01*
X112035820Y-95094502D01*
X112155518Y-95130812D01*
X112280000Y-95143072D01*
X113780000Y-95143072D01*
X113904482Y-95130812D01*
X114024180Y-95094502D01*
X114134494Y-95035537D01*
X114231185Y-94956185D01*
X114310537Y-94859494D01*
X114369502Y-94749180D01*
X114405812Y-94629482D01*
X114418072Y-94505000D01*
X114418072Y-93470000D01*
X116525199Y-93470000D01*
X117192901Y-94137703D01*
X116995363Y-94335241D01*
X116838320Y-94570273D01*
X116730147Y-94831426D01*
X116675000Y-95108665D01*
X116675000Y-95391335D01*
X116730147Y-95668574D01*
X116838320Y-95929727D01*
X116995363Y-96164759D01*
X117195241Y-96364637D01*
X117430273Y-96521680D01*
X117691426Y-96629853D01*
X117968665Y-96685000D01*
X118251335Y-96685000D01*
X118528574Y-96629853D01*
X118789727Y-96521680D01*
X119024759Y-96364637D01*
X119224637Y-96164759D01*
X119381680Y-95929727D01*
X119489853Y-95668574D01*
X119545000Y-95391335D01*
X119545000Y-95108665D01*
X119489853Y-94831426D01*
X119381680Y-94570273D01*
X119224637Y-94335241D01*
X119024759Y-94135363D01*
X118870000Y-94031957D01*
X118870000Y-94017322D01*
X118873676Y-93979999D01*
X118870000Y-93942676D01*
X118870000Y-93942667D01*
X118859003Y-93831014D01*
X118815546Y-93687753D01*
X118744974Y-93555724D01*
X118650001Y-93439999D01*
X118621003Y-93416201D01*
X118079802Y-92875000D01*
X118251335Y-92875000D01*
X118528574Y-92819853D01*
X118789727Y-92711680D01*
X119024759Y-92554637D01*
X119224637Y-92354759D01*
X119381680Y-92119727D01*
X119489853Y-91858574D01*
X119545000Y-91581335D01*
X119545000Y-91298665D01*
X119489853Y-91021426D01*
X119381680Y-90760273D01*
X119224637Y-90525241D01*
X119024759Y-90325363D01*
X118789727Y-90168320D01*
X118528574Y-90060147D01*
X118251335Y-90005000D01*
X117968665Y-90005000D01*
X117691426Y-90060147D01*
X117430273Y-90168320D01*
X117195241Y-90325363D01*
X116995363Y-90525241D01*
X116838320Y-90760273D01*
X116730147Y-91021426D01*
X116675000Y-91298665D01*
X116675000Y-91581335D01*
X116711312Y-91763886D01*
X116525199Y-91950000D01*
X114297708Y-91950000D01*
X114331885Y-91886060D01*
X114398215Y-91667400D01*
X114420612Y-91440000D01*
X114398215Y-91212600D01*
X114331885Y-90993940D01*
X114224171Y-90792421D01*
X114079212Y-90615788D01*
X113902579Y-90470829D01*
X113790000Y-90410654D01*
X113790000Y-88850901D01*
X113831101Y-88828932D01*
X114049608Y-88649608D01*
X114228932Y-88431101D01*
X114250901Y-88390000D01*
X114349099Y-88390000D01*
X114371068Y-88431101D01*
X114550392Y-88649608D01*
X114768899Y-88828932D01*
X115018192Y-88962182D01*
X115288691Y-89044236D01*
X115499508Y-89065000D01*
X115640492Y-89065000D01*
X115851309Y-89044236D01*
X116121808Y-88962182D01*
X116371101Y-88828932D01*
X116589608Y-88649608D01*
X116768932Y-88431101D01*
X116790901Y-88390000D01*
X116889099Y-88390000D01*
X116911068Y-88431101D01*
X117090392Y-88649608D01*
X117308899Y-88828932D01*
X117558192Y-88962182D01*
X117828691Y-89044236D01*
X118039508Y-89065000D01*
X118180492Y-89065000D01*
X118391309Y-89044236D01*
X118661808Y-88962182D01*
X118911101Y-88828932D01*
X119129608Y-88649608D01*
X119308932Y-88431101D01*
X119330901Y-88390000D01*
X119429099Y-88390000D01*
X119451068Y-88431101D01*
X119630392Y-88649608D01*
X119848899Y-88828932D01*
X120098192Y-88962182D01*
X120368691Y-89044236D01*
X120579508Y-89065000D01*
X120720492Y-89065000D01*
X120931309Y-89044236D01*
X121201808Y-88962182D01*
X121451101Y-88828932D01*
X121669608Y-88649608D01*
X121848932Y-88431101D01*
X121870901Y-88390000D01*
X121969099Y-88390000D01*
X121991068Y-88431101D01*
X122170392Y-88649608D01*
X122388899Y-88828932D01*
X122638192Y-88962182D01*
X122908691Y-89044236D01*
X123119508Y-89065000D01*
X123260492Y-89065000D01*
X123471309Y-89044236D01*
X123741808Y-88962182D01*
X123991101Y-88828932D01*
X124209608Y-88649608D01*
X124388932Y-88431101D01*
X124410901Y-88390000D01*
X124509099Y-88390000D01*
X124531068Y-88431101D01*
X124710392Y-88649608D01*
X124928899Y-88828932D01*
X125178192Y-88962182D01*
X125448691Y-89044236D01*
X125659508Y-89065000D01*
X125800492Y-89065000D01*
X126011309Y-89044236D01*
X126281808Y-88962182D01*
X126531101Y-88828932D01*
X126749608Y-88649608D01*
X126928932Y-88431101D01*
X126950901Y-88390000D01*
X127049099Y-88390000D01*
X127071068Y-88431101D01*
X127250392Y-88649608D01*
X127468899Y-88828932D01*
X127718192Y-88962182D01*
X127988691Y-89044236D01*
X128199508Y-89065000D01*
X128340492Y-89065000D01*
X128551309Y-89044236D01*
X128821808Y-88962182D01*
X129071101Y-88828932D01*
X129289608Y-88649608D01*
X129413000Y-88499254D01*
X129413000Y-90570746D01*
X129289608Y-90420392D01*
X129071101Y-90241068D01*
X128821808Y-90107818D01*
X128551309Y-90025764D01*
X128340492Y-90005000D01*
X128199508Y-90005000D01*
X127988691Y-90025764D01*
X127718192Y-90107818D01*
X127468899Y-90241068D01*
X127250392Y-90420392D01*
X127071068Y-90638899D01*
X126937818Y-90888192D01*
X126855764Y-91158691D01*
X126828057Y-91440000D01*
X126855764Y-91721309D01*
X126937818Y-91991808D01*
X127071068Y-92241101D01*
X127250392Y-92459608D01*
X127468899Y-92638932D01*
X127718192Y-92772182D01*
X127988691Y-92854236D01*
X128199508Y-92875000D01*
X128340492Y-92875000D01*
X128551309Y-92854236D01*
X128821808Y-92772182D01*
X129071101Y-92638932D01*
X129289608Y-92459608D01*
X129413000Y-92309254D01*
X129413000Y-94380746D01*
X129289608Y-94230392D01*
X129071101Y-94051068D01*
X128821808Y-93917818D01*
X128551309Y-93835764D01*
X128340492Y-93815000D01*
X128199508Y-93815000D01*
X127988691Y-93835764D01*
X127718192Y-93917818D01*
X127468899Y-94051068D01*
X127250392Y-94230392D01*
X127071068Y-94448899D01*
X127049099Y-94490000D01*
X123893711Y-94490000D01*
X123849774Y-94446063D01*
X123680256Y-94332795D01*
X123491898Y-94254774D01*
X123291939Y-94215000D01*
X123088061Y-94215000D01*
X122888102Y-94254774D01*
X122699744Y-94332795D01*
X122530226Y-94446063D01*
X122386063Y-94590226D01*
X122272795Y-94759744D01*
X122194774Y-94948102D01*
X122155000Y-95148061D01*
X122155000Y-95351939D01*
X122194774Y-95551898D01*
X122272795Y-95740256D01*
X122386063Y-95909774D01*
X122530226Y-96053937D01*
X122699744Y-96167205D01*
X122888102Y-96245226D01*
X123088061Y-96285000D01*
X123291939Y-96285000D01*
X123491898Y-96245226D01*
X123680256Y-96167205D01*
X123849774Y-96053937D01*
X123893711Y-96010000D01*
X127049099Y-96010000D01*
X127071068Y-96051101D01*
X127250392Y-96269608D01*
X127468899Y-96448932D01*
X127718192Y-96582182D01*
X127988691Y-96664236D01*
X128199508Y-96685000D01*
X128340492Y-96685000D01*
X128551309Y-96664236D01*
X128821808Y-96582182D01*
X129071101Y-96448932D01*
X129289608Y-96269608D01*
X129413000Y-96119254D01*
X129413000Y-99460746D01*
X129289608Y-99310392D01*
X129071101Y-99131068D01*
X128821808Y-98997818D01*
X128551309Y-98915764D01*
X128340492Y-98895000D01*
X128199508Y-98895000D01*
X127988691Y-98915764D01*
X127718192Y-98997818D01*
X127468899Y-99131068D01*
X127250392Y-99310392D01*
X127071068Y-99528899D01*
X126937818Y-99778192D01*
X126855764Y-100048691D01*
X126828057Y-100330000D01*
X126855764Y-100611309D01*
X126937818Y-100881808D01*
X127071068Y-101131101D01*
X127250392Y-101349608D01*
X127357604Y-101437594D01*
X126685199Y-102110000D01*
X114417879Y-102110000D01*
X114415000Y-101885750D01*
X114256250Y-101727000D01*
X113483109Y-101727000D01*
X113482400Y-101726785D01*
X113311979Y-101710000D01*
X112748021Y-101710000D01*
X112577600Y-101726785D01*
X112576891Y-101727000D01*
X111803750Y-101727000D01*
X111645000Y-101885750D01*
X111641928Y-102125000D01*
X111654188Y-102249482D01*
X111690498Y-102369180D01*
X111725093Y-102433902D01*
X111661785Y-102642600D01*
X111639388Y-102870000D01*
X111661785Y-103097400D01*
X111728115Y-103316060D01*
X111762292Y-103380000D01*
X108168072Y-103380000D01*
X108168072Y-103290000D01*
X108155812Y-103165518D01*
X108119502Y-103045820D01*
X108060537Y-102935506D01*
X107981185Y-102838815D01*
X107884494Y-102759463D01*
X107774180Y-102700498D01*
X107654482Y-102664188D01*
X107530000Y-102651928D01*
X105830000Y-102651928D01*
X105705518Y-102664188D01*
X105585820Y-102700498D01*
X105475506Y-102759463D01*
X105378815Y-102838815D01*
X105299463Y-102935506D01*
X105240498Y-103045820D01*
X105204188Y-103165518D01*
X105191928Y-103290000D01*
X105191928Y-104990000D01*
X105204188Y-105114482D01*
X105240498Y-105234180D01*
X105299463Y-105344494D01*
X105378815Y-105441185D01*
X105475506Y-105520537D01*
X105585820Y-105579502D01*
X105654687Y-105600393D01*
X105624866Y-105624866D01*
X105439294Y-105850986D01*
X105301401Y-106108966D01*
X105216487Y-106388889D01*
X105187815Y-106680000D01*
X105216487Y-106971111D01*
X105239203Y-107045995D01*
X102358998Y-109926201D01*
X102330000Y-109949999D01*
X102306202Y-109978997D01*
X102306201Y-109978998D01*
X102235026Y-110065724D01*
X102164454Y-110197754D01*
X102141023Y-110275000D01*
X102120998Y-110341014D01*
X102111864Y-110433750D01*
X102106324Y-110490000D01*
X102110001Y-110527332D01*
X102110001Y-110539099D01*
X102068899Y-110561068D01*
X101850392Y-110740392D01*
X101671068Y-110958899D01*
X101537818Y-111208192D01*
X101455764Y-111478691D01*
X101428057Y-111760000D01*
X101455764Y-112041309D01*
X101537818Y-112311808D01*
X101671068Y-112561101D01*
X101850392Y-112779608D01*
X102068899Y-112958932D01*
X102318192Y-113092182D01*
X102588691Y-113174236D01*
X102799508Y-113195000D01*
X102940492Y-113195000D01*
X103151309Y-113174236D01*
X103421808Y-113092182D01*
X103671101Y-112958932D01*
X103889608Y-112779608D01*
X104068932Y-112561101D01*
X104202182Y-112311808D01*
X104284236Y-112041309D01*
X104311943Y-111760000D01*
X104284236Y-111478691D01*
X104202182Y-111208192D01*
X104068932Y-110958899D01*
X103889608Y-110740392D01*
X103782396Y-110652405D01*
X105190235Y-109244567D01*
X105216487Y-109511111D01*
X105301401Y-109791034D01*
X105439294Y-110049014D01*
X105624866Y-110275134D01*
X105850986Y-110460706D01*
X106108966Y-110598599D01*
X106388889Y-110683513D01*
X106607050Y-110705000D01*
X106752950Y-110705000D01*
X106971111Y-110683513D01*
X107251034Y-110598599D01*
X107509014Y-110460706D01*
X107735134Y-110275134D01*
X107920706Y-110049014D01*
X108058599Y-109791034D01*
X108143513Y-109511111D01*
X108172185Y-109220000D01*
X108143513Y-108928889D01*
X108058599Y-108648966D01*
X107920706Y-108390986D01*
X107735134Y-108164866D01*
X107509014Y-107979294D01*
X107454209Y-107950000D01*
X107509014Y-107920706D01*
X107735134Y-107735134D01*
X107920706Y-107509014D01*
X108058599Y-107251034D01*
X108143513Y-106971111D01*
X108172185Y-106680000D01*
X108143513Y-106388889D01*
X108058599Y-106108966D01*
X107920706Y-105850986D01*
X107735134Y-105624866D01*
X107705313Y-105600393D01*
X107774180Y-105579502D01*
X107884494Y-105520537D01*
X107981185Y-105441185D01*
X108060537Y-105344494D01*
X108119502Y-105234180D01*
X108155812Y-105114482D01*
X108168072Y-104990000D01*
X108168072Y-104900000D01*
X111928091Y-104900000D01*
X111980788Y-104964212D01*
X112157421Y-105109171D01*
X112358940Y-105216885D01*
X112577600Y-105283215D01*
X112748021Y-105300000D01*
X113311979Y-105300000D01*
X113482400Y-105283215D01*
X113701060Y-105216885D01*
X113902579Y-105109171D01*
X114079212Y-104964212D01*
X114224171Y-104787579D01*
X114331885Y-104586060D01*
X114398215Y-104367400D01*
X114420612Y-104140000D01*
X114398215Y-103912600D01*
X114331885Y-103693940D01*
X114297708Y-103630000D01*
X116765136Y-103630000D01*
X116695764Y-103858691D01*
X116668057Y-104140000D01*
X116695764Y-104421309D01*
X116709292Y-104465906D01*
X113788998Y-107386201D01*
X113760000Y-107409999D01*
X113736202Y-107438997D01*
X113736201Y-107438998D01*
X113665026Y-107525724D01*
X113594454Y-107657754D01*
X113574056Y-107725000D01*
X113550998Y-107801014D01*
X113543811Y-107873985D01*
X113536324Y-107950000D01*
X113536358Y-107950345D01*
X113476059Y-107918115D01*
X113257399Y-107851785D01*
X113030000Y-107829388D01*
X112802600Y-107851785D01*
X112593902Y-107915093D01*
X112529180Y-107880498D01*
X112409482Y-107844188D01*
X112285000Y-107831928D01*
X111235000Y-107831928D01*
X111110518Y-107844188D01*
X110990820Y-107880498D01*
X110880506Y-107939463D01*
X110783815Y-108018815D01*
X110704463Y-108115506D01*
X110645498Y-108225820D01*
X110609188Y-108345518D01*
X110596928Y-108470000D01*
X110596928Y-109970000D01*
X110609188Y-110094482D01*
X110645498Y-110214180D01*
X110704463Y-110324494D01*
X110783815Y-110421185D01*
X110880506Y-110500537D01*
X110990820Y-110559502D01*
X111110518Y-110595812D01*
X111235000Y-110608072D01*
X112285000Y-110608072D01*
X112409482Y-110595812D01*
X112529180Y-110559502D01*
X112593902Y-110524907D01*
X112802601Y-110588215D01*
X113030000Y-110610612D01*
X113112668Y-110602470D01*
X113316210Y-110806012D01*
X113340009Y-110835011D01*
X113455734Y-110929984D01*
X113587763Y-111000556D01*
X113731024Y-111044013D01*
X113842677Y-111055010D01*
X113842685Y-111055010D01*
X113880010Y-111058686D01*
X113917335Y-111055010D01*
X115060209Y-111055010D01*
X116276201Y-112271003D01*
X116299999Y-112300001D01*
X116415724Y-112394974D01*
X116547753Y-112465546D01*
X116691014Y-112509003D01*
X116802667Y-112520000D01*
X116802676Y-112520000D01*
X116839999Y-112523676D01*
X116877322Y-112520000D01*
X116891957Y-112520000D01*
X116995363Y-112674759D01*
X117195241Y-112874637D01*
X117430273Y-113031680D01*
X117691426Y-113139853D01*
X117968665Y-113195000D01*
X118251335Y-113195000D01*
X118528574Y-113139853D01*
X118789727Y-113031680D01*
X119024759Y-112874637D01*
X119224637Y-112674759D01*
X119381680Y-112439727D01*
X119489853Y-112178574D01*
X119545000Y-111901335D01*
X119545000Y-111618665D01*
X119489853Y-111341426D01*
X119381680Y-111080273D01*
X119224637Y-110845241D01*
X119024759Y-110645363D01*
X118789727Y-110488320D01*
X118528574Y-110380147D01*
X118251335Y-110325000D01*
X117968665Y-110325000D01*
X117691426Y-110380147D01*
X117430273Y-110488320D01*
X117195241Y-110645363D01*
X116997703Y-110842901D01*
X116644801Y-110490000D01*
X117786114Y-109348688D01*
X117968665Y-109385000D01*
X118251335Y-109385000D01*
X118528574Y-109329853D01*
X118789727Y-109221680D01*
X119024759Y-109064637D01*
X119224637Y-108864759D01*
X119381680Y-108629727D01*
X119489853Y-108368574D01*
X119545000Y-108091335D01*
X119545000Y-107808665D01*
X119489853Y-107531426D01*
X119381680Y-107270273D01*
X119224637Y-107035241D01*
X119024759Y-106835363D01*
X118789727Y-106678320D01*
X118528574Y-106570147D01*
X118251335Y-106515000D01*
X117968665Y-106515000D01*
X117691426Y-106570147D01*
X117430273Y-106678320D01*
X117195241Y-106835363D01*
X116995363Y-107035241D01*
X116838320Y-107270273D01*
X116730147Y-107531426D01*
X116675000Y-107808665D01*
X116675000Y-108091335D01*
X116711312Y-108273886D01*
X115457463Y-109527736D01*
X115460000Y-109501978D01*
X115460000Y-108938021D01*
X115443215Y-108767600D01*
X115376885Y-108548940D01*
X115269171Y-108347421D01*
X115137645Y-108187156D01*
X117784094Y-105540708D01*
X117828691Y-105554236D01*
X118039508Y-105575000D01*
X118180492Y-105575000D01*
X118391309Y-105554236D01*
X118661808Y-105472182D01*
X118911101Y-105338932D01*
X119129608Y-105159608D01*
X119308932Y-104941101D01*
X119442182Y-104691808D01*
X119524236Y-104421309D01*
X119551943Y-104140000D01*
X119524236Y-103858691D01*
X119454864Y-103630000D01*
X126685199Y-103630000D01*
X126871312Y-103816114D01*
X126835000Y-103998665D01*
X126835000Y-104281335D01*
X126890147Y-104558574D01*
X126998320Y-104819727D01*
X127155363Y-105054759D01*
X127355241Y-105254637D01*
X127590273Y-105411680D01*
X127851426Y-105519853D01*
X128128665Y-105575000D01*
X128411335Y-105575000D01*
X128688574Y-105519853D01*
X128949727Y-105411680D01*
X129184759Y-105254637D01*
X129384637Y-105054759D01*
X129413000Y-105012311D01*
X129413000Y-107080746D01*
X129289608Y-106930392D01*
X129071101Y-106751068D01*
X128821808Y-106617818D01*
X128551309Y-106535764D01*
X128340492Y-106515000D01*
X128199508Y-106515000D01*
X127988691Y-106535764D01*
X127718192Y-106617818D01*
X127468899Y-106751068D01*
X127250392Y-106930392D01*
X127071068Y-107148899D01*
X127049099Y-107190000D01*
X123893711Y-107190000D01*
X123849774Y-107146063D01*
X123680256Y-107032795D01*
X123491898Y-106954774D01*
X123291939Y-106915000D01*
X123088061Y-106915000D01*
X122888102Y-106954774D01*
X122699744Y-107032795D01*
X122530226Y-107146063D01*
X122386063Y-107290226D01*
X122272795Y-107459744D01*
X122194774Y-107648102D01*
X122155000Y-107848061D01*
X122155000Y-108051939D01*
X122194774Y-108251898D01*
X122272795Y-108440256D01*
X122386063Y-108609774D01*
X122530226Y-108753937D01*
X122699744Y-108867205D01*
X122888102Y-108945226D01*
X123088061Y-108985000D01*
X123291939Y-108985000D01*
X123491898Y-108945226D01*
X123680256Y-108867205D01*
X123849774Y-108753937D01*
X123893711Y-108710000D01*
X127049099Y-108710000D01*
X127071068Y-108751101D01*
X127250392Y-108969608D01*
X127468899Y-109148932D01*
X127718192Y-109282182D01*
X127988691Y-109364236D01*
X128199508Y-109385000D01*
X128340492Y-109385000D01*
X128551309Y-109364236D01*
X128821808Y-109282182D01*
X129071101Y-109148932D01*
X129289608Y-108969608D01*
X129413000Y-108819254D01*
X129413000Y-110890746D01*
X129289608Y-110740392D01*
X129071101Y-110561068D01*
X128821808Y-110427818D01*
X128551309Y-110345764D01*
X128340492Y-110325000D01*
X128199508Y-110325000D01*
X127988691Y-110345764D01*
X127718192Y-110427818D01*
X127468899Y-110561068D01*
X127250392Y-110740392D01*
X127071068Y-110958899D01*
X126937818Y-111208192D01*
X126855764Y-111478691D01*
X126828057Y-111760000D01*
X126855764Y-112041309D01*
X126937818Y-112311808D01*
X127071068Y-112561101D01*
X127250392Y-112779608D01*
X127468899Y-112958932D01*
X127718192Y-113092182D01*
X127988691Y-113174236D01*
X128199508Y-113195000D01*
X128340492Y-113195000D01*
X128551309Y-113174236D01*
X128821808Y-113092182D01*
X129071101Y-112958932D01*
X129289608Y-112779608D01*
X129413000Y-112629254D01*
X129413000Y-114173000D01*
X61087000Y-114173000D01*
X61087000Y-111760000D01*
X75977815Y-111760000D01*
X76006487Y-112051111D01*
X76091401Y-112331034D01*
X76229294Y-112589014D01*
X76414866Y-112815134D01*
X76640986Y-113000706D01*
X76898966Y-113138599D01*
X77178889Y-113223513D01*
X77397050Y-113245000D01*
X77542950Y-113245000D01*
X77761111Y-113223513D01*
X78041034Y-113138599D01*
X78299014Y-113000706D01*
X78525134Y-112815134D01*
X78549607Y-112785313D01*
X78570498Y-112854180D01*
X78629463Y-112964494D01*
X78708815Y-113061185D01*
X78805506Y-113140537D01*
X78915820Y-113199502D01*
X79035518Y-113235812D01*
X79160000Y-113248072D01*
X79724250Y-113245000D01*
X79883000Y-113086250D01*
X79883000Y-111887000D01*
X80137000Y-111887000D01*
X80137000Y-113086250D01*
X80295750Y-113245000D01*
X80860000Y-113248072D01*
X80984482Y-113235812D01*
X81104180Y-113199502D01*
X81214494Y-113140537D01*
X81311185Y-113061185D01*
X81390537Y-112964494D01*
X81446391Y-112860000D01*
X82081928Y-112860000D01*
X82094188Y-112984482D01*
X82130498Y-113104180D01*
X82189463Y-113214494D01*
X82268815Y-113311185D01*
X82365506Y-113390537D01*
X82475820Y-113449502D01*
X82595518Y-113485812D01*
X82720000Y-113498072D01*
X83534250Y-113495000D01*
X83693000Y-113336250D01*
X83693000Y-111887000D01*
X83947000Y-111887000D01*
X83947000Y-113336250D01*
X84105750Y-113495000D01*
X84920000Y-113498072D01*
X85044482Y-113485812D01*
X85164180Y-113449502D01*
X85274494Y-113390537D01*
X85371185Y-113311185D01*
X85450537Y-113214494D01*
X85509502Y-113104180D01*
X85545812Y-112984482D01*
X85558072Y-112860000D01*
X85555000Y-112045750D01*
X85396250Y-111887000D01*
X83947000Y-111887000D01*
X83693000Y-111887000D01*
X82243750Y-111887000D01*
X82085000Y-112045750D01*
X82081928Y-112860000D01*
X81446391Y-112860000D01*
X81449502Y-112854180D01*
X81485812Y-112734482D01*
X81498072Y-112610000D01*
X81495000Y-112045750D01*
X81336250Y-111887000D01*
X80137000Y-111887000D01*
X79883000Y-111887000D01*
X79863000Y-111887000D01*
X79863000Y-111633000D01*
X79883000Y-111633000D01*
X79883000Y-110433750D01*
X80137000Y-110433750D01*
X80137000Y-111633000D01*
X81336250Y-111633000D01*
X81495000Y-111474250D01*
X81498072Y-110910000D01*
X81485812Y-110785518D01*
X81449502Y-110665820D01*
X81446392Y-110660000D01*
X82081928Y-110660000D01*
X82085000Y-111474250D01*
X82243750Y-111633000D01*
X83693000Y-111633000D01*
X83693000Y-110183750D01*
X83947000Y-110183750D01*
X83947000Y-111633000D01*
X85396250Y-111633000D01*
X85555000Y-111474250D01*
X85558072Y-110660000D01*
X85545812Y-110535518D01*
X85509502Y-110415820D01*
X85450537Y-110305506D01*
X85371185Y-110208815D01*
X85274494Y-110129463D01*
X85164180Y-110070498D01*
X85044482Y-110034188D01*
X84920000Y-110021928D01*
X84105750Y-110025000D01*
X83947000Y-110183750D01*
X83693000Y-110183750D01*
X83534250Y-110025000D01*
X82720000Y-110021928D01*
X82595518Y-110034188D01*
X82475820Y-110070498D01*
X82365506Y-110129463D01*
X82268815Y-110208815D01*
X82189463Y-110305506D01*
X82130498Y-110415820D01*
X82094188Y-110535518D01*
X82081928Y-110660000D01*
X81446392Y-110660000D01*
X81390537Y-110555506D01*
X81311185Y-110458815D01*
X81214494Y-110379463D01*
X81104180Y-110320498D01*
X80984482Y-110284188D01*
X80860000Y-110271928D01*
X80295750Y-110275000D01*
X80137000Y-110433750D01*
X79883000Y-110433750D01*
X79724250Y-110275000D01*
X79160000Y-110271928D01*
X79035518Y-110284188D01*
X78915820Y-110320498D01*
X78805506Y-110379463D01*
X78708815Y-110458815D01*
X78629463Y-110555506D01*
X78570498Y-110665820D01*
X78549607Y-110734687D01*
X78525134Y-110704866D01*
X78299014Y-110519294D01*
X78230000Y-110482405D01*
X78230000Y-108039801D01*
X78432332Y-107837470D01*
X78458021Y-107840000D01*
X79021979Y-107840000D01*
X79192400Y-107823215D01*
X79411060Y-107756885D01*
X79612579Y-107649171D01*
X79789212Y-107504212D01*
X79841909Y-107440000D01*
X88585199Y-107440000D01*
X92338758Y-111193560D01*
X92270105Y-111419881D01*
X92236606Y-111760000D01*
X92270105Y-112100119D01*
X92369314Y-112427168D01*
X92530421Y-112728578D01*
X92747234Y-112992766D01*
X93011422Y-113209579D01*
X93312832Y-113370686D01*
X93639881Y-113469895D01*
X93894775Y-113495000D01*
X94065225Y-113495000D01*
X94320119Y-113469895D01*
X94647168Y-113370686D01*
X94948578Y-113209579D01*
X95212766Y-112992766D01*
X95429579Y-112728578D01*
X95590686Y-112427168D01*
X95689895Y-112100119D01*
X95723394Y-111760000D01*
X95689895Y-111419881D01*
X95590686Y-111092832D01*
X95429579Y-110791422D01*
X95212766Y-110527234D01*
X94948578Y-110310421D01*
X94647168Y-110149314D01*
X94320119Y-110050105D01*
X94065225Y-110025000D01*
X93894775Y-110025000D01*
X93639881Y-110050105D01*
X93413560Y-110118758D01*
X89463804Y-106169003D01*
X89440001Y-106139999D01*
X89324276Y-106045026D01*
X89192247Y-105974454D01*
X89048986Y-105930997D01*
X88937333Y-105920000D01*
X88937322Y-105920000D01*
X88900000Y-105916324D01*
X88862678Y-105920000D01*
X85161983Y-105920000D01*
X85199853Y-105828574D01*
X85255000Y-105551335D01*
X85255000Y-105410000D01*
X92538057Y-105410000D01*
X92565764Y-105691309D01*
X92647818Y-105961808D01*
X92781068Y-106211101D01*
X92960392Y-106429608D01*
X93178899Y-106608932D01*
X93428192Y-106742182D01*
X93698691Y-106824236D01*
X93909508Y-106845000D01*
X94050492Y-106845000D01*
X94261309Y-106824236D01*
X94531808Y-106742182D01*
X94781101Y-106608932D01*
X94999608Y-106429608D01*
X95178932Y-106211101D01*
X95312182Y-105961808D01*
X95394236Y-105691309D01*
X95421943Y-105410000D01*
X95394236Y-105128691D01*
X95312182Y-104858192D01*
X95178932Y-104608899D01*
X94999608Y-104390392D01*
X94781101Y-104211068D01*
X94531808Y-104077818D01*
X94261309Y-103995764D01*
X94050492Y-103975000D01*
X93909508Y-103975000D01*
X93698691Y-103995764D01*
X93428192Y-104077818D01*
X93178899Y-104211068D01*
X92960392Y-104390392D01*
X92781068Y-104608899D01*
X92647818Y-104858192D01*
X92565764Y-105128691D01*
X92538057Y-105410000D01*
X85255000Y-105410000D01*
X85255000Y-105268665D01*
X85199853Y-104991426D01*
X85091680Y-104730273D01*
X84934637Y-104495241D01*
X84734759Y-104295363D01*
X84580000Y-104191957D01*
X84580000Y-102818043D01*
X84734759Y-102714637D01*
X84934637Y-102514759D01*
X85091680Y-102279727D01*
X85199853Y-102018574D01*
X85255000Y-101741335D01*
X85255000Y-101600000D01*
X92538057Y-101600000D01*
X92565764Y-101881309D01*
X92647818Y-102151808D01*
X92781068Y-102401101D01*
X92960392Y-102619608D01*
X93178899Y-102798932D01*
X93428192Y-102932182D01*
X93698691Y-103014236D01*
X93909508Y-103035000D01*
X94050492Y-103035000D01*
X94261309Y-103014236D01*
X94531808Y-102932182D01*
X94781101Y-102798932D01*
X94999608Y-102619608D01*
X95178932Y-102401101D01*
X95312182Y-102151808D01*
X95394236Y-101881309D01*
X95421943Y-101600000D01*
X95394236Y-101318691D01*
X95312182Y-101048192D01*
X95178932Y-100798899D01*
X94999608Y-100580392D01*
X94781101Y-100401068D01*
X94531808Y-100267818D01*
X94261309Y-100185764D01*
X94050492Y-100165000D01*
X93909508Y-100165000D01*
X93698691Y-100185764D01*
X93428192Y-100267818D01*
X93178899Y-100401068D01*
X92960392Y-100580392D01*
X92781068Y-100798899D01*
X92647818Y-101048192D01*
X92565764Y-101318691D01*
X92538057Y-101600000D01*
X85255000Y-101600000D01*
X85255000Y-101458665D01*
X85199853Y-101181426D01*
X85091680Y-100920273D01*
X84934637Y-100685241D01*
X84734759Y-100485363D01*
X84499727Y-100328320D01*
X84238574Y-100220147D01*
X83961335Y-100165000D01*
X83678665Y-100165000D01*
X83401426Y-100220147D01*
X83140273Y-100328320D01*
X82905241Y-100485363D01*
X82705363Y-100685241D01*
X82548320Y-100920273D01*
X82440147Y-101181426D01*
X82385000Y-101458665D01*
X82385000Y-101741335D01*
X82440147Y-102018574D01*
X82548320Y-102279727D01*
X82705363Y-102514759D01*
X82905241Y-102714637D01*
X83060000Y-102818044D01*
X83060001Y-104191956D01*
X82905241Y-104295363D01*
X82705363Y-104495241D01*
X82601957Y-104650000D01*
X80128072Y-104650000D01*
X80128072Y-103615000D01*
X80115812Y-103490518D01*
X80079502Y-103370820D01*
X80020537Y-103260506D01*
X79941185Y-103163815D01*
X79844494Y-103084463D01*
X79734180Y-103025498D01*
X79614482Y-102989188D01*
X79490000Y-102976928D01*
X77990000Y-102976928D01*
X77865518Y-102989188D01*
X77745820Y-103025498D01*
X77635506Y-103084463D01*
X77538815Y-103163815D01*
X77459463Y-103260506D01*
X77400498Y-103370820D01*
X77364188Y-103490518D01*
X77351928Y-103615000D01*
X77351928Y-104665000D01*
X77364188Y-104789482D01*
X77400498Y-104909180D01*
X77435093Y-104973902D01*
X77371785Y-105182600D01*
X77349388Y-105410000D01*
X77371785Y-105637400D01*
X77438115Y-105856060D01*
X77539105Y-106045000D01*
X77438115Y-106233940D01*
X77371785Y-106452600D01*
X77349388Y-106680000D01*
X77357530Y-106762668D01*
X76958998Y-107161201D01*
X76930000Y-107184999D01*
X76906202Y-107213997D01*
X76906201Y-107213998D01*
X76835026Y-107300724D01*
X76764454Y-107432754D01*
X76720998Y-107576015D01*
X76706324Y-107725000D01*
X76710001Y-107762332D01*
X76710000Y-110482405D01*
X76640986Y-110519294D01*
X76414866Y-110704866D01*
X76229294Y-110930986D01*
X76091401Y-111188966D01*
X76006487Y-111468889D01*
X75977815Y-111760000D01*
X61087000Y-111760000D01*
X61087000Y-91039254D01*
X61210392Y-91189608D01*
X61428899Y-91368932D01*
X61678192Y-91502182D01*
X61948691Y-91584236D01*
X62159508Y-91605000D01*
X62300492Y-91605000D01*
X62511309Y-91584236D01*
X62781808Y-91502182D01*
X63031101Y-91368932D01*
X63249608Y-91189608D01*
X63428932Y-90971101D01*
X63562182Y-90721808D01*
X63644236Y-90451309D01*
X63671943Y-90170000D01*
X63644236Y-89888691D01*
X63562182Y-89618192D01*
X63428932Y-89368899D01*
X63249608Y-89150392D01*
X63031101Y-88971068D01*
X62898142Y-88900000D01*
X63031101Y-88828932D01*
X63249608Y-88649608D01*
X63428932Y-88431101D01*
X63450901Y-88390000D01*
X64455199Y-88390000D01*
X65280000Y-89214802D01*
X65280001Y-99052405D01*
X65210986Y-99089294D01*
X64984866Y-99274866D01*
X64960393Y-99304687D01*
X64939502Y-99235820D01*
X64880537Y-99125506D01*
X64801185Y-99028815D01*
X64704494Y-98949463D01*
X64594180Y-98890498D01*
X64474482Y-98854188D01*
X64350000Y-98841928D01*
X62650000Y-98841928D01*
X62525518Y-98854188D01*
X62405820Y-98890498D01*
X62295506Y-98949463D01*
X62198815Y-99028815D01*
X62119463Y-99125506D01*
X62060498Y-99235820D01*
X62024188Y-99355518D01*
X62011928Y-99480000D01*
X62011928Y-101180000D01*
X62024188Y-101304482D01*
X62060498Y-101424180D01*
X62119463Y-101534494D01*
X62198815Y-101631185D01*
X62295506Y-101710537D01*
X62405820Y-101769502D01*
X62474687Y-101790393D01*
X62444866Y-101814866D01*
X62259294Y-102040986D01*
X62121401Y-102298966D01*
X62036487Y-102578889D01*
X62007815Y-102870000D01*
X62036487Y-103161111D01*
X62121401Y-103441034D01*
X62259294Y-103699014D01*
X62444866Y-103925134D01*
X62670986Y-104110706D01*
X62928966Y-104248599D01*
X63208889Y-104333513D01*
X63427050Y-104355000D01*
X63572950Y-104355000D01*
X63791111Y-104333513D01*
X64071034Y-104248599D01*
X64329014Y-104110706D01*
X64555134Y-103925134D01*
X64740706Y-103699014D01*
X64770000Y-103644209D01*
X64799294Y-103699014D01*
X64984866Y-103925134D01*
X65210986Y-104110706D01*
X65468966Y-104248599D01*
X65748889Y-104333513D01*
X65967050Y-104355000D01*
X66112950Y-104355000D01*
X66331111Y-104333513D01*
X66611034Y-104248599D01*
X66869014Y-104110706D01*
X67095134Y-103925134D01*
X67280706Y-103699014D01*
X67310000Y-103644209D01*
X67339294Y-103699014D01*
X67524866Y-103925134D01*
X67750986Y-104110706D01*
X68008966Y-104248599D01*
X68288889Y-104333513D01*
X68507050Y-104355000D01*
X68652950Y-104355000D01*
X68871111Y-104333513D01*
X69151034Y-104248599D01*
X69409014Y-104110706D01*
X69635134Y-103925134D01*
X69820706Y-103699014D01*
X69958599Y-103441034D01*
X70043513Y-103161111D01*
X70072185Y-102870000D01*
X70043513Y-102578889D01*
X69958599Y-102298966D01*
X69820706Y-102040986D01*
X69635134Y-101814866D01*
X69409014Y-101629294D01*
X69354209Y-101600000D01*
X69409014Y-101570706D01*
X69635134Y-101385134D01*
X69820706Y-101159014D01*
X69958599Y-100901034D01*
X70043513Y-100621111D01*
X70072185Y-100330000D01*
X70043513Y-100038889D01*
X69958599Y-99758966D01*
X69820706Y-99500986D01*
X69635134Y-99274866D01*
X69409014Y-99089294D01*
X69340000Y-99052405D01*
X69340000Y-91514864D01*
X69568691Y-91584236D01*
X69779508Y-91605000D01*
X69920492Y-91605000D01*
X70131309Y-91584236D01*
X70175907Y-91570708D01*
X76906200Y-98301002D01*
X76929999Y-98330001D01*
X76958997Y-98353799D01*
X77045723Y-98424974D01*
X77177753Y-98495546D01*
X77321014Y-98539003D01*
X77432667Y-98550000D01*
X77432677Y-98550000D01*
X77470000Y-98553676D01*
X77507323Y-98550000D01*
X98745199Y-98550000D01*
X101471312Y-101276114D01*
X101435000Y-101458665D01*
X101435000Y-101741335D01*
X101490147Y-102018574D01*
X101598320Y-102279727D01*
X101755363Y-102514759D01*
X101955241Y-102714637D01*
X102190273Y-102871680D01*
X102451426Y-102979853D01*
X102728665Y-103035000D01*
X103011335Y-103035000D01*
X103288574Y-102979853D01*
X103549727Y-102871680D01*
X103784759Y-102714637D01*
X103984637Y-102514759D01*
X104141680Y-102279727D01*
X104249853Y-102018574D01*
X104305000Y-101741335D01*
X104305000Y-101458665D01*
X104249853Y-101181426D01*
X104205770Y-101075000D01*
X111641928Y-101075000D01*
X111645000Y-101314250D01*
X111803750Y-101473000D01*
X112903000Y-101473000D01*
X112903000Y-100598750D01*
X113157000Y-100598750D01*
X113157000Y-101473000D01*
X114256250Y-101473000D01*
X114406548Y-101322702D01*
X117296903Y-101322702D01*
X117368486Y-101566671D01*
X117623996Y-101687571D01*
X117898184Y-101756300D01*
X118180512Y-101770217D01*
X118460130Y-101728787D01*
X118726292Y-101633603D01*
X118851514Y-101566671D01*
X118923097Y-101322702D01*
X118110000Y-100509605D01*
X117296903Y-101322702D01*
X114406548Y-101322702D01*
X114415000Y-101314250D01*
X114418072Y-101075000D01*
X114405812Y-100950518D01*
X114369502Y-100830820D01*
X114310537Y-100720506D01*
X114231185Y-100623815D01*
X114134494Y-100544463D01*
X114024180Y-100485498D01*
X113904482Y-100449188D01*
X113780000Y-100436928D01*
X113315750Y-100440000D01*
X113157000Y-100598750D01*
X112903000Y-100598750D01*
X112744250Y-100440000D01*
X112280000Y-100436928D01*
X112155518Y-100449188D01*
X112035820Y-100485498D01*
X111925506Y-100544463D01*
X111828815Y-100623815D01*
X111749463Y-100720506D01*
X111690498Y-100830820D01*
X111654188Y-100950518D01*
X111641928Y-101075000D01*
X104205770Y-101075000D01*
X104141680Y-100920273D01*
X103984637Y-100685241D01*
X103784759Y-100485363D01*
X103657771Y-100400512D01*
X116669783Y-100400512D01*
X116711213Y-100680130D01*
X116806397Y-100946292D01*
X116873329Y-101071514D01*
X117117298Y-101143097D01*
X117930395Y-100330000D01*
X118289605Y-100330000D01*
X119102702Y-101143097D01*
X119346671Y-101071514D01*
X119467571Y-100816004D01*
X119536300Y-100541816D01*
X119550217Y-100259488D01*
X119508787Y-99979870D01*
X119413603Y-99713708D01*
X119346671Y-99588486D01*
X119102702Y-99516903D01*
X118289605Y-100330000D01*
X117930395Y-100330000D01*
X117117298Y-99516903D01*
X116873329Y-99588486D01*
X116752429Y-99843996D01*
X116683700Y-100118184D01*
X116669783Y-100400512D01*
X103657771Y-100400512D01*
X103549727Y-100328320D01*
X103288574Y-100220147D01*
X103011335Y-100165000D01*
X102728665Y-100165000D01*
X102546114Y-100201312D01*
X101682100Y-99337298D01*
X117296903Y-99337298D01*
X118110000Y-100150395D01*
X118923097Y-99337298D01*
X118851514Y-99093329D01*
X118596004Y-98972429D01*
X118321816Y-98903700D01*
X118039488Y-98889783D01*
X117759870Y-98931213D01*
X117493708Y-99026397D01*
X117368486Y-99093329D01*
X117296903Y-99337298D01*
X101682100Y-99337298D01*
X99623804Y-97279003D01*
X99600001Y-97249999D01*
X99484276Y-97155026D01*
X99352247Y-97084454D01*
X99208986Y-97040997D01*
X99097333Y-97030000D01*
X99097322Y-97030000D01*
X99060000Y-97026324D01*
X99022678Y-97030000D01*
X77784802Y-97030000D01*
X71250708Y-90495907D01*
X71264236Y-90451309D01*
X71291943Y-90170000D01*
X71264236Y-89888691D01*
X71182182Y-89618192D01*
X71048932Y-89368899D01*
X70869608Y-89150392D01*
X70651101Y-88971068D01*
X70518142Y-88900000D01*
X70651101Y-88828932D01*
X70869608Y-88649608D01*
X71048932Y-88431101D01*
X71182182Y-88181808D01*
X71264236Y-87911309D01*
X71291943Y-87630000D01*
X71264236Y-87348691D01*
X71182182Y-87078192D01*
X71048932Y-86828899D01*
X70869608Y-86610392D01*
X70651101Y-86431068D01*
X70518142Y-86360000D01*
X70651101Y-86288932D01*
X70869608Y-86109608D01*
X71048932Y-85891101D01*
X71182182Y-85641808D01*
X71264236Y-85371309D01*
X71291943Y-85090000D01*
X71264236Y-84808691D01*
X71182182Y-84538192D01*
X71048932Y-84288899D01*
X70869608Y-84070392D01*
X70651101Y-83891068D01*
X70513318Y-83817421D01*
X70705131Y-83702385D01*
X70913519Y-83513414D01*
X71081037Y-83287420D01*
X71201246Y-83033087D01*
X71241904Y-82899039D01*
X71119915Y-82677000D01*
X69977000Y-82677000D01*
X69977000Y-82697000D01*
X69723000Y-82697000D01*
X69723000Y-82677000D01*
X68580085Y-82677000D01*
X68458096Y-82899039D01*
X68498754Y-83033087D01*
X68618963Y-83287420D01*
X68786481Y-83513414D01*
X68994869Y-83702385D01*
X69186682Y-83817421D01*
X69048899Y-83891068D01*
X68830392Y-84070392D01*
X68651068Y-84288899D01*
X68517818Y-84538192D01*
X68435764Y-84808691D01*
X68408057Y-85090000D01*
X68435764Y-85371309D01*
X68517818Y-85641808D01*
X68651068Y-85891101D01*
X68830392Y-86109608D01*
X69048899Y-86288932D01*
X69181858Y-86360000D01*
X69048899Y-86431068D01*
X68830392Y-86610392D01*
X68651068Y-86828899D01*
X68517818Y-87078192D01*
X68435764Y-87348691D01*
X68408057Y-87630000D01*
X68410598Y-87655796D01*
X65333804Y-84579003D01*
X65310001Y-84549999D01*
X65194276Y-84455026D01*
X65062247Y-84384454D01*
X64918986Y-84340997D01*
X64807333Y-84330000D01*
X64807322Y-84330000D01*
X64770000Y-84326324D01*
X64732678Y-84330000D01*
X63450901Y-84330000D01*
X63428932Y-84288899D01*
X63249608Y-84070392D01*
X63136518Y-83977581D01*
X63154482Y-83975812D01*
X63274180Y-83939502D01*
X63384494Y-83880537D01*
X63481185Y-83801185D01*
X63560537Y-83704494D01*
X63619502Y-83594180D01*
X63655812Y-83474482D01*
X63668072Y-83350000D01*
X63668072Y-82200961D01*
X68458096Y-82200961D01*
X68580085Y-82423000D01*
X69723000Y-82423000D01*
X69723000Y-81279376D01*
X69977000Y-81279376D01*
X69977000Y-82423000D01*
X71119915Y-82423000D01*
X71241904Y-82200961D01*
X71201246Y-82066913D01*
X71081037Y-81812580D01*
X70913519Y-81586586D01*
X70705131Y-81397615D01*
X70463881Y-81252930D01*
X70199040Y-81158091D01*
X69977000Y-81279376D01*
X69723000Y-81279376D01*
X69500960Y-81158091D01*
X69236119Y-81252930D01*
X68994869Y-81397615D01*
X68786481Y-81586586D01*
X68618963Y-81812580D01*
X68498754Y-82066913D01*
X68458096Y-82200961D01*
X63668072Y-82200961D01*
X63668072Y-81750000D01*
X63655812Y-81625518D01*
X63619502Y-81505820D01*
X63560537Y-81395506D01*
X63481185Y-81298815D01*
X63384494Y-81219463D01*
X63274180Y-81160498D01*
X63154482Y-81124188D01*
X63030000Y-81111928D01*
X61430000Y-81111928D01*
X61305518Y-81124188D01*
X61185820Y-81160498D01*
X61087000Y-81213319D01*
X61087000Y-71120000D01*
X63277815Y-71120000D01*
X63306487Y-71411111D01*
X63391401Y-71691034D01*
X63529294Y-71949014D01*
X63714866Y-72175134D01*
X63940986Y-72360706D01*
X64198966Y-72498599D01*
X64478889Y-72583513D01*
X64697050Y-72605000D01*
X64842950Y-72605000D01*
X65061111Y-72583513D01*
X65341034Y-72498599D01*
X65599014Y-72360706D01*
X65825134Y-72175134D01*
X65849607Y-72145313D01*
X65870498Y-72214180D01*
X65929463Y-72324494D01*
X66008815Y-72421185D01*
X66105506Y-72500537D01*
X66215820Y-72559502D01*
X66335518Y-72595812D01*
X66460000Y-72608072D01*
X67024250Y-72605000D01*
X67183000Y-72446250D01*
X67183000Y-71247000D01*
X67437000Y-71247000D01*
X67437000Y-72446250D01*
X67595750Y-72605000D01*
X68160000Y-72608072D01*
X68284482Y-72595812D01*
X68404180Y-72559502D01*
X68514494Y-72500537D01*
X68611185Y-72421185D01*
X68690537Y-72324494D01*
X68749502Y-72214180D01*
X68785812Y-72094482D01*
X68798072Y-71970000D01*
X68795000Y-71405750D01*
X68636250Y-71247000D01*
X67437000Y-71247000D01*
X67183000Y-71247000D01*
X67163000Y-71247000D01*
X67163000Y-70993000D01*
X67183000Y-70993000D01*
X67183000Y-69793750D01*
X67437000Y-69793750D01*
X67437000Y-70993000D01*
X68636250Y-70993000D01*
X68795000Y-70834250D01*
X68795387Y-70763109D01*
X78568519Y-70763109D01*
X78689186Y-70993000D01*
X79883000Y-70993000D01*
X79883000Y-69799845D01*
X80137000Y-69799845D01*
X80137000Y-70993000D01*
X82423000Y-70993000D01*
X82423000Y-69799845D01*
X82677000Y-69799845D01*
X82677000Y-70993000D01*
X84963000Y-70993000D01*
X84963000Y-69799845D01*
X85217000Y-69799845D01*
X85217000Y-70993000D01*
X87503000Y-70993000D01*
X87503000Y-69799845D01*
X87757000Y-69799845D01*
X87757000Y-70993000D01*
X90043000Y-70993000D01*
X90043000Y-69799845D01*
X90297000Y-69799845D01*
X90297000Y-70993000D01*
X92583000Y-70993000D01*
X92583000Y-69799845D01*
X92837000Y-69799845D01*
X92837000Y-70993000D01*
X95123000Y-70993000D01*
X95123000Y-69799845D01*
X95377000Y-69799845D01*
X95377000Y-70993000D01*
X97663000Y-70993000D01*
X97663000Y-69799845D01*
X97917000Y-69799845D01*
X97917000Y-70993000D01*
X100203000Y-70993000D01*
X100203000Y-69799845D01*
X100457000Y-69799845D01*
X100457000Y-70993000D01*
X102743000Y-70993000D01*
X102743000Y-69799845D01*
X102997000Y-69799845D01*
X102997000Y-70993000D01*
X105283000Y-70993000D01*
X105283000Y-69799845D01*
X105537000Y-69799845D01*
X105537000Y-70993000D01*
X107823000Y-70993000D01*
X107823000Y-69799845D01*
X108077000Y-69799845D01*
X108077000Y-70993000D01*
X110363000Y-70993000D01*
X110363000Y-69799845D01*
X110617000Y-69799845D01*
X110617000Y-70993000D01*
X112903000Y-70993000D01*
X112903000Y-69799845D01*
X113157000Y-69799845D01*
X113157000Y-70993000D01*
X115443000Y-70993000D01*
X115443000Y-69799845D01*
X115697000Y-69799845D01*
X115697000Y-70993000D01*
X117983000Y-70993000D01*
X117983000Y-69799845D01*
X118237000Y-69799845D01*
X118237000Y-70993000D01*
X120523000Y-70993000D01*
X120523000Y-69799845D01*
X120777000Y-69799845D01*
X120777000Y-70993000D01*
X123063000Y-70993000D01*
X123063000Y-69799845D01*
X123317000Y-69799845D01*
X123317000Y-70993000D01*
X125603000Y-70993000D01*
X125603000Y-69799845D01*
X125857000Y-69799845D01*
X125857000Y-70993000D01*
X128143000Y-70993000D01*
X128143000Y-69799845D01*
X127913110Y-69678524D01*
X127765901Y-69723175D01*
X127503080Y-69848359D01*
X127269731Y-70022412D01*
X127074822Y-70238645D01*
X127000000Y-70364255D01*
X126925178Y-70238645D01*
X126730269Y-70022412D01*
X126496920Y-69848359D01*
X126234099Y-69723175D01*
X126086890Y-69678524D01*
X125857000Y-69799845D01*
X125603000Y-69799845D01*
X125373110Y-69678524D01*
X125225901Y-69723175D01*
X124963080Y-69848359D01*
X124729731Y-70022412D01*
X124534822Y-70238645D01*
X124460000Y-70364255D01*
X124385178Y-70238645D01*
X124190269Y-70022412D01*
X123956920Y-69848359D01*
X123694099Y-69723175D01*
X123546890Y-69678524D01*
X123317000Y-69799845D01*
X123063000Y-69799845D01*
X122833110Y-69678524D01*
X122685901Y-69723175D01*
X122423080Y-69848359D01*
X122189731Y-70022412D01*
X121994822Y-70238645D01*
X121920000Y-70364255D01*
X121845178Y-70238645D01*
X121650269Y-70022412D01*
X121416920Y-69848359D01*
X121154099Y-69723175D01*
X121006890Y-69678524D01*
X120777000Y-69799845D01*
X120523000Y-69799845D01*
X120293110Y-69678524D01*
X120145901Y-69723175D01*
X119883080Y-69848359D01*
X119649731Y-70022412D01*
X119454822Y-70238645D01*
X119380000Y-70364255D01*
X119305178Y-70238645D01*
X119110269Y-70022412D01*
X118876920Y-69848359D01*
X118614099Y-69723175D01*
X118466890Y-69678524D01*
X118237000Y-69799845D01*
X117983000Y-69799845D01*
X117753110Y-69678524D01*
X117605901Y-69723175D01*
X117343080Y-69848359D01*
X117109731Y-70022412D01*
X116914822Y-70238645D01*
X116840000Y-70364255D01*
X116765178Y-70238645D01*
X116570269Y-70022412D01*
X116336920Y-69848359D01*
X116074099Y-69723175D01*
X115926890Y-69678524D01*
X115697000Y-69799845D01*
X115443000Y-69799845D01*
X115213110Y-69678524D01*
X115065901Y-69723175D01*
X114803080Y-69848359D01*
X114569731Y-70022412D01*
X114374822Y-70238645D01*
X114300000Y-70364255D01*
X114225178Y-70238645D01*
X114030269Y-70022412D01*
X113796920Y-69848359D01*
X113534099Y-69723175D01*
X113386890Y-69678524D01*
X113157000Y-69799845D01*
X112903000Y-69799845D01*
X112673110Y-69678524D01*
X112525901Y-69723175D01*
X112263080Y-69848359D01*
X112029731Y-70022412D01*
X111834822Y-70238645D01*
X111760000Y-70364255D01*
X111685178Y-70238645D01*
X111490269Y-70022412D01*
X111256920Y-69848359D01*
X110994099Y-69723175D01*
X110846890Y-69678524D01*
X110617000Y-69799845D01*
X110363000Y-69799845D01*
X110133110Y-69678524D01*
X109985901Y-69723175D01*
X109723080Y-69848359D01*
X109489731Y-70022412D01*
X109294822Y-70238645D01*
X109220000Y-70364255D01*
X109145178Y-70238645D01*
X108950269Y-70022412D01*
X108716920Y-69848359D01*
X108454099Y-69723175D01*
X108306890Y-69678524D01*
X108077000Y-69799845D01*
X107823000Y-69799845D01*
X107593110Y-69678524D01*
X107445901Y-69723175D01*
X107183080Y-69848359D01*
X106949731Y-70022412D01*
X106754822Y-70238645D01*
X106680000Y-70364255D01*
X106605178Y-70238645D01*
X106410269Y-70022412D01*
X106176920Y-69848359D01*
X105914099Y-69723175D01*
X105766890Y-69678524D01*
X105537000Y-69799845D01*
X105283000Y-69799845D01*
X105053110Y-69678524D01*
X104905901Y-69723175D01*
X104643080Y-69848359D01*
X104409731Y-70022412D01*
X104214822Y-70238645D01*
X104140000Y-70364255D01*
X104065178Y-70238645D01*
X103870269Y-70022412D01*
X103636920Y-69848359D01*
X103374099Y-69723175D01*
X103226890Y-69678524D01*
X102997000Y-69799845D01*
X102743000Y-69799845D01*
X102513110Y-69678524D01*
X102365901Y-69723175D01*
X102103080Y-69848359D01*
X101869731Y-70022412D01*
X101674822Y-70238645D01*
X101600000Y-70364255D01*
X101525178Y-70238645D01*
X101330269Y-70022412D01*
X101096920Y-69848359D01*
X100834099Y-69723175D01*
X100686890Y-69678524D01*
X100457000Y-69799845D01*
X100203000Y-69799845D01*
X99973110Y-69678524D01*
X99825901Y-69723175D01*
X99563080Y-69848359D01*
X99329731Y-70022412D01*
X99134822Y-70238645D01*
X99060000Y-70364255D01*
X98985178Y-70238645D01*
X98790269Y-70022412D01*
X98556920Y-69848359D01*
X98294099Y-69723175D01*
X98146890Y-69678524D01*
X97917000Y-69799845D01*
X97663000Y-69799845D01*
X97433110Y-69678524D01*
X97285901Y-69723175D01*
X97023080Y-69848359D01*
X96789731Y-70022412D01*
X96594822Y-70238645D01*
X96520000Y-70364255D01*
X96445178Y-70238645D01*
X96250269Y-70022412D01*
X96016920Y-69848359D01*
X95754099Y-69723175D01*
X95606890Y-69678524D01*
X95377000Y-69799845D01*
X95123000Y-69799845D01*
X94893110Y-69678524D01*
X94745901Y-69723175D01*
X94483080Y-69848359D01*
X94249731Y-70022412D01*
X94054822Y-70238645D01*
X93980000Y-70364255D01*
X93905178Y-70238645D01*
X93710269Y-70022412D01*
X93476920Y-69848359D01*
X93214099Y-69723175D01*
X93066890Y-69678524D01*
X92837000Y-69799845D01*
X92583000Y-69799845D01*
X92353110Y-69678524D01*
X92205901Y-69723175D01*
X91943080Y-69848359D01*
X91709731Y-70022412D01*
X91514822Y-70238645D01*
X91440000Y-70364255D01*
X91365178Y-70238645D01*
X91170269Y-70022412D01*
X90936920Y-69848359D01*
X90674099Y-69723175D01*
X90526890Y-69678524D01*
X90297000Y-69799845D01*
X90043000Y-69799845D01*
X89813110Y-69678524D01*
X89665901Y-69723175D01*
X89403080Y-69848359D01*
X89169731Y-70022412D01*
X88974822Y-70238645D01*
X88900000Y-70364255D01*
X88825178Y-70238645D01*
X88630269Y-70022412D01*
X88396920Y-69848359D01*
X88134099Y-69723175D01*
X87986890Y-69678524D01*
X87757000Y-69799845D01*
X87503000Y-69799845D01*
X87273110Y-69678524D01*
X87125901Y-69723175D01*
X86863080Y-69848359D01*
X86629731Y-70022412D01*
X86434822Y-70238645D01*
X86360000Y-70364255D01*
X86285178Y-70238645D01*
X86090269Y-70022412D01*
X85856920Y-69848359D01*
X85594099Y-69723175D01*
X85446890Y-69678524D01*
X85217000Y-69799845D01*
X84963000Y-69799845D01*
X84733110Y-69678524D01*
X84585901Y-69723175D01*
X84323080Y-69848359D01*
X84089731Y-70022412D01*
X83894822Y-70238645D01*
X83820000Y-70364255D01*
X83745178Y-70238645D01*
X83550269Y-70022412D01*
X83316920Y-69848359D01*
X83054099Y-69723175D01*
X82906890Y-69678524D01*
X82677000Y-69799845D01*
X82423000Y-69799845D01*
X82193110Y-69678524D01*
X82045901Y-69723175D01*
X81783080Y-69848359D01*
X81549731Y-70022412D01*
X81354822Y-70238645D01*
X81280000Y-70364255D01*
X81205178Y-70238645D01*
X81010269Y-70022412D01*
X80776920Y-69848359D01*
X80514099Y-69723175D01*
X80366890Y-69678524D01*
X80137000Y-69799845D01*
X79883000Y-69799845D01*
X79653110Y-69678524D01*
X79505901Y-69723175D01*
X79243080Y-69848359D01*
X79009731Y-70022412D01*
X78814822Y-70238645D01*
X78665843Y-70488748D01*
X78568519Y-70763109D01*
X68795387Y-70763109D01*
X68798072Y-70270000D01*
X68785812Y-70145518D01*
X68749502Y-70025820D01*
X68690537Y-69915506D01*
X68611185Y-69818815D01*
X68514494Y-69739463D01*
X68404180Y-69680498D01*
X68284482Y-69644188D01*
X68160000Y-69631928D01*
X67595750Y-69635000D01*
X67437000Y-69793750D01*
X67183000Y-69793750D01*
X67024250Y-69635000D01*
X66460000Y-69631928D01*
X66335518Y-69644188D01*
X66215820Y-69680498D01*
X66105506Y-69739463D01*
X66008815Y-69818815D01*
X65929463Y-69915506D01*
X65870498Y-70025820D01*
X65849607Y-70094687D01*
X65825134Y-70064866D01*
X65599014Y-69879294D01*
X65341034Y-69741401D01*
X65061111Y-69656487D01*
X64842950Y-69635000D01*
X64697050Y-69635000D01*
X64478889Y-69656487D01*
X64198966Y-69741401D01*
X63940986Y-69879294D01*
X63714866Y-70064866D01*
X63529294Y-70290986D01*
X63391401Y-70548966D01*
X63306487Y-70828889D01*
X63277815Y-71120000D01*
X61087000Y-71120000D01*
X61087000Y-68707000D01*
X129413000Y-68707000D01*
X129413000Y-70180758D01*
X129413000Y-70180758D01*
G37*
X129413000Y-70180758D02*
X129270269Y-70022412D01*
X129036920Y-69848359D01*
X128774099Y-69723175D01*
X128626890Y-69678524D01*
X128397000Y-69799845D01*
X128397000Y-70993000D01*
X128417000Y-70993000D01*
X128417000Y-71247000D01*
X128397000Y-71247000D01*
X128397000Y-71267000D01*
X128143000Y-71267000D01*
X128143000Y-71247000D01*
X125857000Y-71247000D01*
X125857000Y-71267000D01*
X125603000Y-71267000D01*
X125603000Y-71247000D01*
X123317000Y-71247000D01*
X123317000Y-71267000D01*
X123063000Y-71267000D01*
X123063000Y-71247000D01*
X120777000Y-71247000D01*
X120777000Y-71267000D01*
X120523000Y-71267000D01*
X120523000Y-71247000D01*
X118237000Y-71247000D01*
X118237000Y-71267000D01*
X117983000Y-71267000D01*
X117983000Y-71247000D01*
X115697000Y-71247000D01*
X115697000Y-71267000D01*
X115443000Y-71267000D01*
X115443000Y-71247000D01*
X113157000Y-71247000D01*
X113157000Y-71267000D01*
X112903000Y-71267000D01*
X112903000Y-71247000D01*
X110617000Y-71247000D01*
X110617000Y-71267000D01*
X110363000Y-71267000D01*
X110363000Y-71247000D01*
X108077000Y-71247000D01*
X108077000Y-71267000D01*
X107823000Y-71267000D01*
X107823000Y-71247000D01*
X105537000Y-71247000D01*
X105537000Y-71267000D01*
X105283000Y-71267000D01*
X105283000Y-71247000D01*
X102997000Y-71247000D01*
X102997000Y-71267000D01*
X102743000Y-71267000D01*
X102743000Y-71247000D01*
X100457000Y-71247000D01*
X100457000Y-71267000D01*
X100203000Y-71267000D01*
X100203000Y-71247000D01*
X97917000Y-71247000D01*
X97917000Y-71267000D01*
X97663000Y-71267000D01*
X97663000Y-71247000D01*
X95377000Y-71247000D01*
X95377000Y-71267000D01*
X95123000Y-71267000D01*
X95123000Y-71247000D01*
X92837000Y-71247000D01*
X92837000Y-71267000D01*
X92583000Y-71267000D01*
X92583000Y-71247000D01*
X90297000Y-71247000D01*
X90297000Y-71267000D01*
X90043000Y-71267000D01*
X90043000Y-71247000D01*
X87757000Y-71247000D01*
X87757000Y-71267000D01*
X87503000Y-71267000D01*
X87503000Y-71247000D01*
X85217000Y-71247000D01*
X85217000Y-71267000D01*
X84963000Y-71267000D01*
X84963000Y-71247000D01*
X82677000Y-71247000D01*
X82677000Y-71267000D01*
X82423000Y-71267000D01*
X82423000Y-71247000D01*
X80137000Y-71247000D01*
X80137000Y-71267000D01*
X79883000Y-71267000D01*
X79883000Y-71247000D01*
X78689186Y-71247000D01*
X78568519Y-71476891D01*
X78665843Y-71751252D01*
X78814822Y-72001355D01*
X79009731Y-72217588D01*
X79238756Y-72388416D01*
X79180986Y-72419294D01*
X78954866Y-72604866D01*
X78769294Y-72830986D01*
X78631401Y-73088966D01*
X78546487Y-73368889D01*
X78517815Y-73660000D01*
X78546487Y-73951111D01*
X78631401Y-74231034D01*
X78769294Y-74489014D01*
X78954866Y-74715134D01*
X79180986Y-74900706D01*
X79250000Y-74937595D01*
X79250001Y-76251956D01*
X79095241Y-76355363D01*
X78895363Y-76555241D01*
X78738320Y-76790273D01*
X78630147Y-77051426D01*
X78575000Y-77328665D01*
X78575000Y-77611335D01*
X78630147Y-77888574D01*
X78738320Y-78149727D01*
X78895363Y-78384759D01*
X79095241Y-78584637D01*
X79330273Y-78741680D01*
X79591426Y-78849853D01*
X79868665Y-78905000D01*
X80151335Y-78905000D01*
X80428574Y-78849853D01*
X80689727Y-78741680D01*
X80924759Y-78584637D01*
X81124637Y-78384759D01*
X81280000Y-78152241D01*
X81435363Y-78384759D01*
X81635241Y-78584637D01*
X81870273Y-78741680D01*
X82131426Y-78849853D01*
X82408665Y-78905000D01*
X82691335Y-78905000D01*
X82968574Y-78849853D01*
X83229727Y-78741680D01*
X83464759Y-78584637D01*
X83664637Y-78384759D01*
X83820000Y-78152241D01*
X83975363Y-78384759D01*
X84175241Y-78584637D01*
X84410273Y-78741680D01*
X84671426Y-78849853D01*
X84948665Y-78905000D01*
X85231335Y-78905000D01*
X85508574Y-78849853D01*
X85769727Y-78741680D01*
X86004759Y-78584637D01*
X86204637Y-78384759D01*
X86360000Y-78152241D01*
X86515363Y-78384759D01*
X86715241Y-78584637D01*
X86950273Y-78741680D01*
X87211426Y-78849853D01*
X87488665Y-78905000D01*
X87771335Y-78905000D01*
X88048574Y-78849853D01*
X88309727Y-78741680D01*
X88544759Y-78584637D01*
X88744637Y-78384759D01*
X88900000Y-78152241D01*
X89055363Y-78384759D01*
X89255241Y-78584637D01*
X89490273Y-78741680D01*
X89751426Y-78849853D01*
X90028665Y-78905000D01*
X90311335Y-78905000D01*
X90588574Y-78849853D01*
X90849727Y-78741680D01*
X91084759Y-78584637D01*
X91284637Y-78384759D01*
X91440000Y-78152241D01*
X91595363Y-78384759D01*
X91795241Y-78584637D01*
X92030273Y-78741680D01*
X92291426Y-78849853D01*
X92568665Y-78905000D01*
X92851335Y-78905000D01*
X93128574Y-78849853D01*
X93389727Y-78741680D01*
X93624759Y-78584637D01*
X93824637Y-78384759D01*
X93980000Y-78152241D01*
X94135363Y-78384759D01*
X94335241Y-78584637D01*
X94570273Y-78741680D01*
X94831426Y-78849853D01*
X95108665Y-78905000D01*
X95391335Y-78905000D01*
X95668574Y-78849853D01*
X95929727Y-78741680D01*
X96164759Y-78584637D01*
X96364637Y-78384759D01*
X96520000Y-78152241D01*
X96675363Y-78384759D01*
X96875241Y-78584637D01*
X97110273Y-78741680D01*
X97371426Y-78849853D01*
X97648665Y-78905000D01*
X97931335Y-78905000D01*
X98208574Y-78849853D01*
X98469727Y-78741680D01*
X98704759Y-78584637D01*
X98904637Y-78384759D01*
X99060000Y-78152241D01*
X99215363Y-78384759D01*
X99415241Y-78584637D01*
X99650273Y-78741680D01*
X99911426Y-78849853D01*
X100188665Y-78905000D01*
X100471335Y-78905000D01*
X100748574Y-78849853D01*
X101009727Y-78741680D01*
X101244759Y-78584637D01*
X101444637Y-78384759D01*
X101600000Y-78152241D01*
X101755363Y-78384759D01*
X101955241Y-78584637D01*
X102190273Y-78741680D01*
X102451426Y-78849853D01*
X102728665Y-78905000D01*
X103011335Y-78905000D01*
X103288574Y-78849853D01*
X103549727Y-78741680D01*
X103784759Y-78584637D01*
X103984637Y-78384759D01*
X104140000Y-78152241D01*
X104295363Y-78384759D01*
X104495241Y-78584637D01*
X104730273Y-78741680D01*
X104991426Y-78849853D01*
X105268665Y-78905000D01*
X105551335Y-78905000D01*
X105828574Y-78849853D01*
X106089727Y-78741680D01*
X106324759Y-78584637D01*
X106524637Y-78384759D01*
X106680000Y-78152241D01*
X106835363Y-78384759D01*
X107035241Y-78584637D01*
X107270273Y-78741680D01*
X107531426Y-78849853D01*
X107808665Y-78905000D01*
X108091335Y-78905000D01*
X108368574Y-78849853D01*
X108629727Y-78741680D01*
X108864759Y-78584637D01*
X109064637Y-78384759D01*
X109220000Y-78152241D01*
X109375363Y-78384759D01*
X109575241Y-78584637D01*
X109810273Y-78741680D01*
X110071426Y-78849853D01*
X110348665Y-78905000D01*
X110631335Y-78905000D01*
X110908574Y-78849853D01*
X111169727Y-78741680D01*
X111404759Y-78584637D01*
X111604637Y-78384759D01*
X111760000Y-78152241D01*
X111915363Y-78384759D01*
X112115241Y-78584637D01*
X112350273Y-78741680D01*
X112611426Y-78849853D01*
X112888665Y-78905000D01*
X113171335Y-78905000D01*
X113448574Y-78849853D01*
X113709727Y-78741680D01*
X113944759Y-78584637D01*
X114144637Y-78384759D01*
X114300000Y-78152241D01*
X114455363Y-78384759D01*
X114655241Y-78584637D01*
X114890273Y-78741680D01*
X115151426Y-78849853D01*
X115428665Y-78905000D01*
X115711335Y-78905000D01*
X115988574Y-78849853D01*
X116249727Y-78741680D01*
X116484759Y-78584637D01*
X116684637Y-78384759D01*
X116840000Y-78152241D01*
X116995363Y-78384759D01*
X117195241Y-78584637D01*
X117430273Y-78741680D01*
X117691426Y-78849853D01*
X117968665Y-78905000D01*
X118251335Y-78905000D01*
X118528574Y-78849853D01*
X118789727Y-78741680D01*
X119024759Y-78584637D01*
X119224637Y-78384759D01*
X119380000Y-78152241D01*
X119535363Y-78384759D01*
X119735241Y-78584637D01*
X119970273Y-78741680D01*
X120231426Y-78849853D01*
X120508665Y-78905000D01*
X120791335Y-78905000D01*
X121068574Y-78849853D01*
X121329727Y-78741680D01*
X121564759Y-78584637D01*
X121764637Y-78384759D01*
X121920000Y-78152241D01*
X122075363Y-78384759D01*
X122275241Y-78584637D01*
X122510273Y-78741680D01*
X122771426Y-78849853D01*
X123048665Y-78905000D01*
X123331335Y-78905000D01*
X123608574Y-78849853D01*
X123869727Y-78741680D01*
X124104759Y-78584637D01*
X124304637Y-78384759D01*
X124460000Y-78152241D01*
X124615363Y-78384759D01*
X124815241Y-78584637D01*
X125050273Y-78741680D01*
X125311426Y-78849853D01*
X125588665Y-78905000D01*
X125871335Y-78905000D01*
X126148574Y-78849853D01*
X126409727Y-78741680D01*
X126644759Y-78584637D01*
X126844637Y-78384759D01*
X127000000Y-78152241D01*
X127155363Y-78384759D01*
X127355241Y-78584637D01*
X127590273Y-78741680D01*
X127851426Y-78849853D01*
X128128665Y-78905000D01*
X128411335Y-78905000D01*
X128688574Y-78849853D01*
X128949727Y-78741680D01*
X129184759Y-78584637D01*
X129384637Y-78384759D01*
X129413000Y-78342311D01*
X129413000Y-86760746D01*
X129289608Y-86610392D01*
X129071101Y-86431068D01*
X128821808Y-86297818D01*
X128551309Y-86215764D01*
X128340492Y-86195000D01*
X128199508Y-86195000D01*
X127988691Y-86215764D01*
X127718192Y-86297818D01*
X127468899Y-86431068D01*
X127250392Y-86610392D01*
X127071068Y-86828899D01*
X127049099Y-86870000D01*
X126950901Y-86870000D01*
X126928932Y-86828899D01*
X126749608Y-86610392D01*
X126531101Y-86431068D01*
X126281808Y-86297818D01*
X126011309Y-86215764D01*
X125800492Y-86195000D01*
X125659508Y-86195000D01*
X125448691Y-86215764D01*
X125178192Y-86297818D01*
X124928899Y-86431068D01*
X124710392Y-86610392D01*
X124531068Y-86828899D01*
X124509099Y-86870000D01*
X124410901Y-86870000D01*
X124388932Y-86828899D01*
X124209608Y-86610392D01*
X123991101Y-86431068D01*
X123741808Y-86297818D01*
X123471309Y-86215764D01*
X123260492Y-86195000D01*
X123119508Y-86195000D01*
X122908691Y-86215764D01*
X122638192Y-86297818D01*
X122388899Y-86431068D01*
X122170392Y-86610392D01*
X121991068Y-86828899D01*
X121969099Y-86870000D01*
X121870901Y-86870000D01*
X121848932Y-86828899D01*
X121669608Y-86610392D01*
X121451101Y-86431068D01*
X121201808Y-86297818D01*
X120931309Y-86215764D01*
X120720492Y-86195000D01*
X120579508Y-86195000D01*
X120368691Y-86215764D01*
X120098192Y-86297818D01*
X119848899Y-86431068D01*
X119630392Y-86610392D01*
X119451068Y-86828899D01*
X119429099Y-86870000D01*
X119330901Y-86870000D01*
X119308932Y-86828899D01*
X119129608Y-86610392D01*
X118911101Y-86431068D01*
X118661808Y-86297818D01*
X118391309Y-86215764D01*
X118180492Y-86195000D01*
X118039508Y-86195000D01*
X117828691Y-86215764D01*
X117558192Y-86297818D01*
X117308899Y-86431068D01*
X117090392Y-86610392D01*
X116911068Y-86828899D01*
X116889099Y-86870000D01*
X116790901Y-86870000D01*
X116768932Y-86828899D01*
X116589608Y-86610392D01*
X116371101Y-86431068D01*
X116121808Y-86297818D01*
X115851309Y-86215764D01*
X115640492Y-86195000D01*
X115499508Y-86195000D01*
X115288691Y-86215764D01*
X115018192Y-86297818D01*
X114768899Y-86431068D01*
X114550392Y-86610392D01*
X114371068Y-86828899D01*
X114349099Y-86870000D01*
X114250901Y-86870000D01*
X114228932Y-86828899D01*
X114049608Y-86610392D01*
X113831101Y-86431068D01*
X113581808Y-86297818D01*
X113311309Y-86215764D01*
X113100492Y-86195000D01*
X112959508Y-86195000D01*
X112748691Y-86215764D01*
X112478192Y-86297818D01*
X112228899Y-86431068D01*
X112010392Y-86610392D01*
X111831068Y-86828899D01*
X111809099Y-86870000D01*
X111710901Y-86870000D01*
X111688932Y-86828899D01*
X111509608Y-86610392D01*
X111291101Y-86431068D01*
X111041808Y-86297818D01*
X110771309Y-86215764D01*
X110560492Y-86195000D01*
X110419508Y-86195000D01*
X110208691Y-86215764D01*
X109938192Y-86297818D01*
X109688899Y-86431068D01*
X109470392Y-86610392D01*
X109291068Y-86828899D01*
X109269099Y-86870000D01*
X109170901Y-86870000D01*
X109148932Y-86828899D01*
X108969608Y-86610392D01*
X108751101Y-86431068D01*
X108501808Y-86297818D01*
X108231309Y-86215764D01*
X108020492Y-86195000D01*
X107879508Y-86195000D01*
X107668691Y-86215764D01*
X107398192Y-86297818D01*
X107148899Y-86431068D01*
X106930392Y-86610392D01*
X106751068Y-86828899D01*
X106729099Y-86870000D01*
X106630901Y-86870000D01*
X106608932Y-86828899D01*
X106429608Y-86610392D01*
X106211101Y-86431068D01*
X105961808Y-86297818D01*
X105691309Y-86215764D01*
X105480492Y-86195000D01*
X105339508Y-86195000D01*
X105128691Y-86215764D01*
X104858192Y-86297818D01*
X104608899Y-86431068D01*
X104390392Y-86610392D01*
X104211068Y-86828899D01*
X104140000Y-86961858D01*
X104068932Y-86828899D01*
X103889608Y-86610392D01*
X103671101Y-86431068D01*
X103421808Y-86297818D01*
X103151309Y-86215764D01*
X102940492Y-86195000D01*
X102799508Y-86195000D01*
X102588691Y-86215764D01*
X102318192Y-86297818D01*
X102068899Y-86431068D01*
X101850392Y-86610392D01*
X101671068Y-86828899D01*
X101649099Y-86870000D01*
X101550901Y-86870000D01*
X101528932Y-86828899D01*
X101349608Y-86610392D01*
X101131101Y-86431068D01*
X100881808Y-86297818D01*
X100611309Y-86215764D01*
X100400492Y-86195000D01*
X100259508Y-86195000D01*
X100048691Y-86215764D01*
X99778192Y-86297818D01*
X99528899Y-86431068D01*
X99310392Y-86610392D01*
X99131068Y-86828899D01*
X99109099Y-86870000D01*
X99010901Y-86870000D01*
X98988932Y-86828899D01*
X98809608Y-86610392D01*
X98591101Y-86431068D01*
X98341808Y-86297818D01*
X98071309Y-86215764D01*
X97860492Y-86195000D01*
X97719508Y-86195000D01*
X97508691Y-86215764D01*
X97238192Y-86297818D01*
X96988899Y-86431068D01*
X96770392Y-86610392D01*
X96591068Y-86828899D01*
X96569099Y-86870000D01*
X96470901Y-86870000D01*
X96448932Y-86828899D01*
X96269608Y-86610392D01*
X96051101Y-86431068D01*
X95801808Y-86297818D01*
X95531309Y-86215764D01*
X95320492Y-86195000D01*
X95179508Y-86195000D01*
X94968691Y-86215764D01*
X94698192Y-86297818D01*
X94448899Y-86431068D01*
X94230392Y-86610392D01*
X94051068Y-86828899D01*
X94029099Y-86870000D01*
X93930901Y-86870000D01*
X93908932Y-86828899D01*
X93729608Y-86610392D01*
X93511101Y-86431068D01*
X93261808Y-86297818D01*
X92991309Y-86215764D01*
X92780492Y-86195000D01*
X92639508Y-86195000D01*
X92428691Y-86215764D01*
X92158192Y-86297818D01*
X91908899Y-86431068D01*
X91690392Y-86610392D01*
X91511068Y-86828899D01*
X91489099Y-86870000D01*
X91390901Y-86870000D01*
X91368932Y-86828899D01*
X91189608Y-86610392D01*
X90971101Y-86431068D01*
X90721808Y-86297818D01*
X90451309Y-86215764D01*
X90240492Y-86195000D01*
X90099508Y-86195000D01*
X89888691Y-86215764D01*
X89618192Y-86297818D01*
X89368899Y-86431068D01*
X89150392Y-86610392D01*
X88971068Y-86828899D01*
X88949099Y-86870000D01*
X88850901Y-86870000D01*
X88828932Y-86828899D01*
X88649608Y-86610392D01*
X88431101Y-86431068D01*
X88181808Y-86297818D01*
X87911309Y-86215764D01*
X87700492Y-86195000D01*
X87559508Y-86195000D01*
X87348691Y-86215764D01*
X87078192Y-86297818D01*
X86828899Y-86431068D01*
X86610392Y-86610392D01*
X86431068Y-86828899D01*
X86409099Y-86870000D01*
X86310901Y-86870000D01*
X86288932Y-86828899D01*
X86109608Y-86610392D01*
X85891101Y-86431068D01*
X85641808Y-86297818D01*
X85371309Y-86215764D01*
X85160492Y-86195000D01*
X85019508Y-86195000D01*
X84808691Y-86215764D01*
X84538192Y-86297818D01*
X84288899Y-86431068D01*
X84070392Y-86610392D01*
X83891068Y-86828899D01*
X83869099Y-86870000D01*
X83770901Y-86870000D01*
X83748932Y-86828899D01*
X83569608Y-86610392D01*
X83351101Y-86431068D01*
X83101808Y-86297818D01*
X82831309Y-86215764D01*
X82620492Y-86195000D01*
X82479508Y-86195000D01*
X82268691Y-86215764D01*
X81998192Y-86297818D01*
X81748899Y-86431068D01*
X81530392Y-86610392D01*
X81351068Y-86828899D01*
X81329099Y-86870000D01*
X81230901Y-86870000D01*
X81208932Y-86828899D01*
X81029608Y-86610392D01*
X80811101Y-86431068D01*
X80561808Y-86297818D01*
X80291309Y-86215764D01*
X80080492Y-86195000D01*
X79939508Y-86195000D01*
X79728691Y-86215764D01*
X79458192Y-86297818D01*
X79208899Y-86431068D01*
X78990392Y-86610392D01*
X78811068Y-86828899D01*
X78677818Y-87078192D01*
X78595764Y-87348691D01*
X78568057Y-87630000D01*
X78595764Y-87911309D01*
X78677818Y-88181808D01*
X78811068Y-88431101D01*
X78990392Y-88649608D01*
X79208899Y-88828932D01*
X79458192Y-88962182D01*
X79728691Y-89044236D01*
X79939508Y-89065000D01*
X80080492Y-89065000D01*
X80291309Y-89044236D01*
X80561808Y-88962182D01*
X80811101Y-88828932D01*
X81029608Y-88649608D01*
X81208932Y-88431101D01*
X81230901Y-88390000D01*
X81329099Y-88390000D01*
X81351068Y-88431101D01*
X81530392Y-88649608D01*
X81748899Y-88828932D01*
X81998192Y-88962182D01*
X82268691Y-89044236D01*
X82479508Y-89065000D01*
X82620492Y-89065000D01*
X82831309Y-89044236D01*
X83101808Y-88962182D01*
X83351101Y-88828932D01*
X83569608Y-88649608D01*
X83748932Y-88431101D01*
X83770901Y-88390000D01*
X83869099Y-88390000D01*
X83891068Y-88431101D01*
X84070392Y-88649608D01*
X84288899Y-88828932D01*
X84538192Y-88962182D01*
X84808691Y-89044236D01*
X85019508Y-89065000D01*
X85160492Y-89065000D01*
X85371309Y-89044236D01*
X85641808Y-88962182D01*
X85891101Y-88828932D01*
X86109608Y-88649608D01*
X86288932Y-88431101D01*
X86310901Y-88390000D01*
X86409099Y-88390000D01*
X86431068Y-88431101D01*
X86610392Y-88649608D01*
X86828899Y-88828932D01*
X86870000Y-88850901D01*
X86870001Y-90410654D01*
X86757421Y-90470829D01*
X86580788Y-90615788D01*
X86435829Y-90792421D01*
X86328115Y-90993940D01*
X86261785Y-91212600D01*
X86239388Y-91440000D01*
X86261785Y-91667400D01*
X86328115Y-91886060D01*
X86429105Y-92075000D01*
X86328115Y-92263940D01*
X86261785Y-92482600D01*
X86239388Y-92710000D01*
X86261785Y-92937400D01*
X86325093Y-93146098D01*
X86290498Y-93210820D01*
X86254188Y-93330518D01*
X86241928Y-93455000D01*
X86241928Y-94505000D01*
X86254188Y-94629482D01*
X86290498Y-94749180D01*
X86349463Y-94859494D01*
X86428815Y-94956185D01*
X86525506Y-95035537D01*
X86635820Y-95094502D01*
X86755518Y-95130812D01*
X86880000Y-95143072D01*
X88380000Y-95143072D01*
X88504482Y-95130812D01*
X88624180Y-95094502D01*
X88734494Y-95035537D01*
X88831185Y-94956185D01*
X88910537Y-94859494D01*
X88969502Y-94749180D01*
X89005812Y-94629482D01*
X89018072Y-94505000D01*
X89018072Y-93470000D01*
X91125199Y-93470000D01*
X91792901Y-94137703D01*
X91595363Y-94335241D01*
X91438320Y-94570273D01*
X91330147Y-94831426D01*
X91275000Y-95108665D01*
X91275000Y-95391335D01*
X91330147Y-95668574D01*
X91438320Y-95929727D01*
X91595363Y-96164759D01*
X91795241Y-96364637D01*
X92030273Y-96521680D01*
X92291426Y-96629853D01*
X92568665Y-96685000D01*
X92851335Y-96685000D01*
X93128574Y-96629853D01*
X93389727Y-96521680D01*
X93624759Y-96364637D01*
X93824637Y-96164759D01*
X93981680Y-95929727D01*
X94089853Y-95668574D01*
X94145000Y-95391335D01*
X94145000Y-95250000D01*
X101428057Y-95250000D01*
X101455764Y-95531309D01*
X101537818Y-95801808D01*
X101671068Y-96051101D01*
X101850392Y-96269608D01*
X102068899Y-96448932D01*
X102318192Y-96582182D01*
X102588691Y-96664236D01*
X102799508Y-96685000D01*
X102940492Y-96685000D01*
X103151309Y-96664236D01*
X103421808Y-96582182D01*
X103671101Y-96448932D01*
X103889608Y-96269608D01*
X104068932Y-96051101D01*
X104202182Y-95801808D01*
X104284236Y-95531309D01*
X104311943Y-95250000D01*
X104284236Y-94968691D01*
X104202182Y-94698192D01*
X104068932Y-94448899D01*
X103889608Y-94230392D01*
X103671101Y-94051068D01*
X103421808Y-93917818D01*
X103151309Y-93835764D01*
X102940492Y-93815000D01*
X102799508Y-93815000D01*
X102588691Y-93835764D01*
X102318192Y-93917818D01*
X102068899Y-94051068D01*
X101850392Y-94230392D01*
X101671068Y-94448899D01*
X101537818Y-94698192D01*
X101455764Y-94968691D01*
X101428057Y-95250000D01*
X94145000Y-95250000D01*
X94145000Y-95108665D01*
X94089853Y-94831426D01*
X93981680Y-94570273D01*
X93824637Y-94335241D01*
X93624759Y-94135363D01*
X93470000Y-94031957D01*
X93470000Y-94017322D01*
X93473676Y-93979999D01*
X93470000Y-93942676D01*
X93470000Y-93942667D01*
X93459003Y-93831014D01*
X93415546Y-93687753D01*
X93344974Y-93555724D01*
X93250001Y-93439999D01*
X93221003Y-93416201D01*
X92679802Y-92875000D01*
X92851335Y-92875000D01*
X93128574Y-92819853D01*
X93389727Y-92711680D01*
X93624759Y-92554637D01*
X93824637Y-92354759D01*
X93981680Y-92119727D01*
X94089853Y-91858574D01*
X94145000Y-91581335D01*
X94145000Y-91440000D01*
X101428057Y-91440000D01*
X101455764Y-91721309D01*
X101537818Y-91991808D01*
X101671068Y-92241101D01*
X101850392Y-92459608D01*
X102068899Y-92638932D01*
X102318192Y-92772182D01*
X102588691Y-92854236D01*
X102799508Y-92875000D01*
X102940492Y-92875000D01*
X103151309Y-92854236D01*
X103421808Y-92772182D01*
X103671101Y-92638932D01*
X103889608Y-92459608D01*
X104068932Y-92241101D01*
X104202182Y-91991808D01*
X104284236Y-91721309D01*
X104311943Y-91440000D01*
X104284236Y-91158691D01*
X104202182Y-90888192D01*
X104068932Y-90638899D01*
X103889608Y-90420392D01*
X103671101Y-90241068D01*
X103421808Y-90107818D01*
X103151309Y-90025764D01*
X102940492Y-90005000D01*
X102799508Y-90005000D01*
X102588691Y-90025764D01*
X102318192Y-90107818D01*
X102068899Y-90241068D01*
X101850392Y-90420392D01*
X101671068Y-90638899D01*
X101537818Y-90888192D01*
X101455764Y-91158691D01*
X101428057Y-91440000D01*
X94145000Y-91440000D01*
X94145000Y-91298665D01*
X94089853Y-91021426D01*
X93981680Y-90760273D01*
X93824637Y-90525241D01*
X93624759Y-90325363D01*
X93389727Y-90168320D01*
X93128574Y-90060147D01*
X92851335Y-90005000D01*
X92568665Y-90005000D01*
X92291426Y-90060147D01*
X92030273Y-90168320D01*
X91795241Y-90325363D01*
X91595363Y-90525241D01*
X91438320Y-90760273D01*
X91330147Y-91021426D01*
X91275000Y-91298665D01*
X91275000Y-91581335D01*
X91311312Y-91763886D01*
X91125199Y-91950000D01*
X88897708Y-91950000D01*
X88931885Y-91886060D01*
X88998215Y-91667400D01*
X89020612Y-91440000D01*
X88998215Y-91212600D01*
X88931885Y-90993940D01*
X88824171Y-90792421D01*
X88679212Y-90615788D01*
X88502579Y-90470829D01*
X88390000Y-90410654D01*
X88390000Y-88850901D01*
X88431101Y-88828932D01*
X88649608Y-88649608D01*
X88828932Y-88431101D01*
X88850901Y-88390000D01*
X88949099Y-88390000D01*
X88971068Y-88431101D01*
X89150392Y-88649608D01*
X89368899Y-88828932D01*
X89618192Y-88962182D01*
X89888691Y-89044236D01*
X90099508Y-89065000D01*
X90240492Y-89065000D01*
X90451309Y-89044236D01*
X90721808Y-88962182D01*
X90971101Y-88828932D01*
X91189608Y-88649608D01*
X91368932Y-88431101D01*
X91390901Y-88390000D01*
X91489099Y-88390000D01*
X91511068Y-88431101D01*
X91690392Y-88649608D01*
X91908899Y-88828932D01*
X92158192Y-88962182D01*
X92428691Y-89044236D01*
X92639508Y-89065000D01*
X92780492Y-89065000D01*
X92991309Y-89044236D01*
X93261808Y-88962182D01*
X93511101Y-88828932D01*
X93729608Y-88649608D01*
X93908932Y-88431101D01*
X93930901Y-88390000D01*
X94029099Y-88390000D01*
X94051068Y-88431101D01*
X94230392Y-88649608D01*
X94448899Y-88828932D01*
X94698192Y-88962182D01*
X94968691Y-89044236D01*
X95179508Y-89065000D01*
X95320492Y-89065000D01*
X95531309Y-89044236D01*
X95801808Y-88962182D01*
X96051101Y-88828932D01*
X96269608Y-88649608D01*
X96448932Y-88431101D01*
X96470901Y-88390000D01*
X96569099Y-88390000D01*
X96591068Y-88431101D01*
X96770392Y-88649608D01*
X96988899Y-88828932D01*
X97238192Y-88962182D01*
X97508691Y-89044236D01*
X97719508Y-89065000D01*
X97860492Y-89065000D01*
X98071309Y-89044236D01*
X98341808Y-88962182D01*
X98591101Y-88828932D01*
X98809608Y-88649608D01*
X98988932Y-88431101D01*
X99010901Y-88390000D01*
X99109099Y-88390000D01*
X99131068Y-88431101D01*
X99310392Y-88649608D01*
X99528899Y-88828932D01*
X99778192Y-88962182D01*
X100048691Y-89044236D01*
X100259508Y-89065000D01*
X100400492Y-89065000D01*
X100611309Y-89044236D01*
X100881808Y-88962182D01*
X101131101Y-88828932D01*
X101349608Y-88649608D01*
X101528932Y-88431101D01*
X101550901Y-88390000D01*
X101649099Y-88390000D01*
X101671068Y-88431101D01*
X101850392Y-88649608D01*
X102068899Y-88828932D01*
X102318192Y-88962182D01*
X102588691Y-89044236D01*
X102799508Y-89065000D01*
X102940492Y-89065000D01*
X103151309Y-89044236D01*
X103421808Y-88962182D01*
X103671101Y-88828932D01*
X103889608Y-88649608D01*
X104068932Y-88431101D01*
X104140000Y-88298142D01*
X104211068Y-88431101D01*
X104390392Y-88649608D01*
X104608899Y-88828932D01*
X104858192Y-88962182D01*
X105128691Y-89044236D01*
X105339508Y-89065000D01*
X105480492Y-89065000D01*
X105691309Y-89044236D01*
X105961808Y-88962182D01*
X106211101Y-88828932D01*
X106429608Y-88649608D01*
X106608932Y-88431101D01*
X106630901Y-88390000D01*
X106729099Y-88390000D01*
X106751068Y-88431101D01*
X106930392Y-88649608D01*
X107148899Y-88828932D01*
X107398192Y-88962182D01*
X107668691Y-89044236D01*
X107879508Y-89065000D01*
X108020492Y-89065000D01*
X108231309Y-89044236D01*
X108501808Y-88962182D01*
X108751101Y-88828932D01*
X108969608Y-88649608D01*
X109148932Y-88431101D01*
X109170901Y-88390000D01*
X109269099Y-88390000D01*
X109291068Y-88431101D01*
X109470392Y-88649608D01*
X109688899Y-88828932D01*
X109938192Y-88962182D01*
X110208691Y-89044236D01*
X110419508Y-89065000D01*
X110560492Y-89065000D01*
X110771309Y-89044236D01*
X111041808Y-88962182D01*
X111291101Y-88828932D01*
X111509608Y-88649608D01*
X111688932Y-88431101D01*
X111710901Y-88390000D01*
X111809099Y-88390000D01*
X111831068Y-88431101D01*
X112010392Y-88649608D01*
X112228899Y-88828932D01*
X112270001Y-88850901D01*
X112270000Y-90410654D01*
X112157421Y-90470829D01*
X111980788Y-90615788D01*
X111835829Y-90792421D01*
X111728115Y-90993940D01*
X111661785Y-91212600D01*
X111639388Y-91440000D01*
X111661785Y-91667400D01*
X111728115Y-91886060D01*
X111829105Y-92075000D01*
X111728115Y-92263940D01*
X111661785Y-92482600D01*
X111639388Y-92710000D01*
X111661785Y-92937400D01*
X111725093Y-93146098D01*
X111690498Y-93210820D01*
X111654188Y-93330518D01*
X111641928Y-93455000D01*
X111641928Y-94505000D01*
X111654188Y-94629482D01*
X111690498Y-94749180D01*
X111749463Y-94859494D01*
X111828815Y-94956185D01*
X111925506Y-95035537D01*
X112035820Y-95094502D01*
X112155518Y-95130812D01*
X112280000Y-95143072D01*
X113780000Y-95143072D01*
X113904482Y-95130812D01*
X114024180Y-95094502D01*
X114134494Y-95035537D01*
X114231185Y-94956185D01*
X114310537Y-94859494D01*
X114369502Y-94749180D01*
X114405812Y-94629482D01*
X114418072Y-94505000D01*
X114418072Y-93470000D01*
X116525199Y-93470000D01*
X117192901Y-94137703D01*
X116995363Y-94335241D01*
X116838320Y-94570273D01*
X116730147Y-94831426D01*
X116675000Y-95108665D01*
X116675000Y-95391335D01*
X116730147Y-95668574D01*
X116838320Y-95929727D01*
X116995363Y-96164759D01*
X117195241Y-96364637D01*
X117430273Y-96521680D01*
X117691426Y-96629853D01*
X117968665Y-96685000D01*
X118251335Y-96685000D01*
X118528574Y-96629853D01*
X118789727Y-96521680D01*
X119024759Y-96364637D01*
X119224637Y-96164759D01*
X119381680Y-95929727D01*
X119489853Y-95668574D01*
X119545000Y-95391335D01*
X119545000Y-95108665D01*
X119489853Y-94831426D01*
X119381680Y-94570273D01*
X119224637Y-94335241D01*
X119024759Y-94135363D01*
X118870000Y-94031957D01*
X118870000Y-94017322D01*
X118873676Y-93979999D01*
X118870000Y-93942676D01*
X118870000Y-93942667D01*
X118859003Y-93831014D01*
X118815546Y-93687753D01*
X118744974Y-93555724D01*
X118650001Y-93439999D01*
X118621003Y-93416201D01*
X118079802Y-92875000D01*
X118251335Y-92875000D01*
X118528574Y-92819853D01*
X118789727Y-92711680D01*
X119024759Y-92554637D01*
X119224637Y-92354759D01*
X119381680Y-92119727D01*
X119489853Y-91858574D01*
X119545000Y-91581335D01*
X119545000Y-91298665D01*
X119489853Y-91021426D01*
X119381680Y-90760273D01*
X119224637Y-90525241D01*
X119024759Y-90325363D01*
X118789727Y-90168320D01*
X118528574Y-90060147D01*
X118251335Y-90005000D01*
X117968665Y-90005000D01*
X117691426Y-90060147D01*
X117430273Y-90168320D01*
X117195241Y-90325363D01*
X116995363Y-90525241D01*
X116838320Y-90760273D01*
X116730147Y-91021426D01*
X116675000Y-91298665D01*
X116675000Y-91581335D01*
X116711312Y-91763886D01*
X116525199Y-91950000D01*
X114297708Y-91950000D01*
X114331885Y-91886060D01*
X114398215Y-91667400D01*
X114420612Y-91440000D01*
X114398215Y-91212600D01*
X114331885Y-90993940D01*
X114224171Y-90792421D01*
X114079212Y-90615788D01*
X113902579Y-90470829D01*
X113790000Y-90410654D01*
X113790000Y-88850901D01*
X113831101Y-88828932D01*
X114049608Y-88649608D01*
X114228932Y-88431101D01*
X114250901Y-88390000D01*
X114349099Y-88390000D01*
X114371068Y-88431101D01*
X114550392Y-88649608D01*
X114768899Y-88828932D01*
X115018192Y-88962182D01*
X115288691Y-89044236D01*
X115499508Y-89065000D01*
X115640492Y-89065000D01*
X115851309Y-89044236D01*
X116121808Y-88962182D01*
X116371101Y-88828932D01*
X116589608Y-88649608D01*
X116768932Y-88431101D01*
X116790901Y-88390000D01*
X116889099Y-88390000D01*
X116911068Y-88431101D01*
X117090392Y-88649608D01*
X117308899Y-88828932D01*
X117558192Y-88962182D01*
X117828691Y-89044236D01*
X118039508Y-89065000D01*
X118180492Y-89065000D01*
X118391309Y-89044236D01*
X118661808Y-88962182D01*
X118911101Y-88828932D01*
X119129608Y-88649608D01*
X119308932Y-88431101D01*
X119330901Y-88390000D01*
X119429099Y-88390000D01*
X119451068Y-88431101D01*
X119630392Y-88649608D01*
X119848899Y-88828932D01*
X120098192Y-88962182D01*
X120368691Y-89044236D01*
X120579508Y-89065000D01*
X120720492Y-89065000D01*
X120931309Y-89044236D01*
X121201808Y-88962182D01*
X121451101Y-88828932D01*
X121669608Y-88649608D01*
X121848932Y-88431101D01*
X121870901Y-88390000D01*
X121969099Y-88390000D01*
X121991068Y-88431101D01*
X122170392Y-88649608D01*
X122388899Y-88828932D01*
X122638192Y-88962182D01*
X122908691Y-89044236D01*
X123119508Y-89065000D01*
X123260492Y-89065000D01*
X123471309Y-89044236D01*
X123741808Y-88962182D01*
X123991101Y-88828932D01*
X124209608Y-88649608D01*
X124388932Y-88431101D01*
X124410901Y-88390000D01*
X124509099Y-88390000D01*
X124531068Y-88431101D01*
X124710392Y-88649608D01*
X124928899Y-88828932D01*
X125178192Y-88962182D01*
X125448691Y-89044236D01*
X125659508Y-89065000D01*
X125800492Y-89065000D01*
X126011309Y-89044236D01*
X126281808Y-88962182D01*
X126531101Y-88828932D01*
X126749608Y-88649608D01*
X126928932Y-88431101D01*
X126950901Y-88390000D01*
X127049099Y-88390000D01*
X127071068Y-88431101D01*
X127250392Y-88649608D01*
X127468899Y-88828932D01*
X127718192Y-88962182D01*
X127988691Y-89044236D01*
X128199508Y-89065000D01*
X128340492Y-89065000D01*
X128551309Y-89044236D01*
X128821808Y-88962182D01*
X129071101Y-88828932D01*
X129289608Y-88649608D01*
X129413000Y-88499254D01*
X129413000Y-90570746D01*
X129289608Y-90420392D01*
X129071101Y-90241068D01*
X128821808Y-90107818D01*
X128551309Y-90025764D01*
X128340492Y-90005000D01*
X128199508Y-90005000D01*
X127988691Y-90025764D01*
X127718192Y-90107818D01*
X127468899Y-90241068D01*
X127250392Y-90420392D01*
X127071068Y-90638899D01*
X126937818Y-90888192D01*
X126855764Y-91158691D01*
X126828057Y-91440000D01*
X126855764Y-91721309D01*
X126937818Y-91991808D01*
X127071068Y-92241101D01*
X127250392Y-92459608D01*
X127468899Y-92638932D01*
X127718192Y-92772182D01*
X127988691Y-92854236D01*
X128199508Y-92875000D01*
X128340492Y-92875000D01*
X128551309Y-92854236D01*
X128821808Y-92772182D01*
X129071101Y-92638932D01*
X129289608Y-92459608D01*
X129413000Y-92309254D01*
X129413000Y-94380746D01*
X129289608Y-94230392D01*
X129071101Y-94051068D01*
X128821808Y-93917818D01*
X128551309Y-93835764D01*
X128340492Y-93815000D01*
X128199508Y-93815000D01*
X127988691Y-93835764D01*
X127718192Y-93917818D01*
X127468899Y-94051068D01*
X127250392Y-94230392D01*
X127071068Y-94448899D01*
X127049099Y-94490000D01*
X123893711Y-94490000D01*
X123849774Y-94446063D01*
X123680256Y-94332795D01*
X123491898Y-94254774D01*
X123291939Y-94215000D01*
X123088061Y-94215000D01*
X122888102Y-94254774D01*
X122699744Y-94332795D01*
X122530226Y-94446063D01*
X122386063Y-94590226D01*
X122272795Y-94759744D01*
X122194774Y-94948102D01*
X122155000Y-95148061D01*
X122155000Y-95351939D01*
X122194774Y-95551898D01*
X122272795Y-95740256D01*
X122386063Y-95909774D01*
X122530226Y-96053937D01*
X122699744Y-96167205D01*
X122888102Y-96245226D01*
X123088061Y-96285000D01*
X123291939Y-96285000D01*
X123491898Y-96245226D01*
X123680256Y-96167205D01*
X123849774Y-96053937D01*
X123893711Y-96010000D01*
X127049099Y-96010000D01*
X127071068Y-96051101D01*
X127250392Y-96269608D01*
X127468899Y-96448932D01*
X127718192Y-96582182D01*
X127988691Y-96664236D01*
X128199508Y-96685000D01*
X128340492Y-96685000D01*
X128551309Y-96664236D01*
X128821808Y-96582182D01*
X129071101Y-96448932D01*
X129289608Y-96269608D01*
X129413000Y-96119254D01*
X129413000Y-99460746D01*
X129289608Y-99310392D01*
X129071101Y-99131068D01*
X128821808Y-98997818D01*
X128551309Y-98915764D01*
X128340492Y-98895000D01*
X128199508Y-98895000D01*
X127988691Y-98915764D01*
X127718192Y-98997818D01*
X127468899Y-99131068D01*
X127250392Y-99310392D01*
X127071068Y-99528899D01*
X126937818Y-99778192D01*
X126855764Y-100048691D01*
X126828057Y-100330000D01*
X126855764Y-100611309D01*
X126937818Y-100881808D01*
X127071068Y-101131101D01*
X127250392Y-101349608D01*
X127357604Y-101437594D01*
X126685199Y-102110000D01*
X114417879Y-102110000D01*
X114415000Y-101885750D01*
X114256250Y-101727000D01*
X113483109Y-101727000D01*
X113482400Y-101726785D01*
X113311979Y-101710000D01*
X112748021Y-101710000D01*
X112577600Y-101726785D01*
X112576891Y-101727000D01*
X111803750Y-101727000D01*
X111645000Y-101885750D01*
X111641928Y-102125000D01*
X111654188Y-102249482D01*
X111690498Y-102369180D01*
X111725093Y-102433902D01*
X111661785Y-102642600D01*
X111639388Y-102870000D01*
X111661785Y-103097400D01*
X111728115Y-103316060D01*
X111762292Y-103380000D01*
X108168072Y-103380000D01*
X108168072Y-103290000D01*
X108155812Y-103165518D01*
X108119502Y-103045820D01*
X108060537Y-102935506D01*
X107981185Y-102838815D01*
X107884494Y-102759463D01*
X107774180Y-102700498D01*
X107654482Y-102664188D01*
X107530000Y-102651928D01*
X105830000Y-102651928D01*
X105705518Y-102664188D01*
X105585820Y-102700498D01*
X105475506Y-102759463D01*
X105378815Y-102838815D01*
X105299463Y-102935506D01*
X105240498Y-103045820D01*
X105204188Y-103165518D01*
X105191928Y-103290000D01*
X105191928Y-104990000D01*
X105204188Y-105114482D01*
X105240498Y-105234180D01*
X105299463Y-105344494D01*
X105378815Y-105441185D01*
X105475506Y-105520537D01*
X105585820Y-105579502D01*
X105654687Y-105600393D01*
X105624866Y-105624866D01*
X105439294Y-105850986D01*
X105301401Y-106108966D01*
X105216487Y-106388889D01*
X105187815Y-106680000D01*
X105216487Y-106971111D01*
X105239203Y-107045995D01*
X102358998Y-109926201D01*
X102330000Y-109949999D01*
X102306202Y-109978997D01*
X102306201Y-109978998D01*
X102235026Y-110065724D01*
X102164454Y-110197754D01*
X102141023Y-110275000D01*
X102120998Y-110341014D01*
X102111864Y-110433750D01*
X102106324Y-110490000D01*
X102110001Y-110527332D01*
X102110001Y-110539099D01*
X102068899Y-110561068D01*
X101850392Y-110740392D01*
X101671068Y-110958899D01*
X101537818Y-111208192D01*
X101455764Y-111478691D01*
X101428057Y-111760000D01*
X101455764Y-112041309D01*
X101537818Y-112311808D01*
X101671068Y-112561101D01*
X101850392Y-112779608D01*
X102068899Y-112958932D01*
X102318192Y-113092182D01*
X102588691Y-113174236D01*
X102799508Y-113195000D01*
X102940492Y-113195000D01*
X103151309Y-113174236D01*
X103421808Y-113092182D01*
X103671101Y-112958932D01*
X103889608Y-112779608D01*
X104068932Y-112561101D01*
X104202182Y-112311808D01*
X104284236Y-112041309D01*
X104311943Y-111760000D01*
X104284236Y-111478691D01*
X104202182Y-111208192D01*
X104068932Y-110958899D01*
X103889608Y-110740392D01*
X103782396Y-110652405D01*
X105190235Y-109244567D01*
X105216487Y-109511111D01*
X105301401Y-109791034D01*
X105439294Y-110049014D01*
X105624866Y-110275134D01*
X105850986Y-110460706D01*
X106108966Y-110598599D01*
X106388889Y-110683513D01*
X106607050Y-110705000D01*
X106752950Y-110705000D01*
X106971111Y-110683513D01*
X107251034Y-110598599D01*
X107509014Y-110460706D01*
X107735134Y-110275134D01*
X107920706Y-110049014D01*
X108058599Y-109791034D01*
X108143513Y-109511111D01*
X108172185Y-109220000D01*
X108143513Y-108928889D01*
X108058599Y-108648966D01*
X107920706Y-108390986D01*
X107735134Y-108164866D01*
X107509014Y-107979294D01*
X107454209Y-107950000D01*
X107509014Y-107920706D01*
X107735134Y-107735134D01*
X107920706Y-107509014D01*
X108058599Y-107251034D01*
X108143513Y-106971111D01*
X108172185Y-106680000D01*
X108143513Y-106388889D01*
X108058599Y-106108966D01*
X107920706Y-105850986D01*
X107735134Y-105624866D01*
X107705313Y-105600393D01*
X107774180Y-105579502D01*
X107884494Y-105520537D01*
X107981185Y-105441185D01*
X108060537Y-105344494D01*
X108119502Y-105234180D01*
X108155812Y-105114482D01*
X108168072Y-104990000D01*
X108168072Y-104900000D01*
X111928091Y-104900000D01*
X111980788Y-104964212D01*
X112157421Y-105109171D01*
X112358940Y-105216885D01*
X112577600Y-105283215D01*
X112748021Y-105300000D01*
X113311979Y-105300000D01*
X113482400Y-105283215D01*
X113701060Y-105216885D01*
X113902579Y-105109171D01*
X114079212Y-104964212D01*
X114224171Y-104787579D01*
X114331885Y-104586060D01*
X114398215Y-104367400D01*
X114420612Y-104140000D01*
X114398215Y-103912600D01*
X114331885Y-103693940D01*
X114297708Y-103630000D01*
X116765136Y-103630000D01*
X116695764Y-103858691D01*
X116668057Y-104140000D01*
X116695764Y-104421309D01*
X116709292Y-104465906D01*
X113788998Y-107386201D01*
X113760000Y-107409999D01*
X113736202Y-107438997D01*
X113736201Y-107438998D01*
X113665026Y-107525724D01*
X113594454Y-107657754D01*
X113574056Y-107725000D01*
X113550998Y-107801014D01*
X113543811Y-107873985D01*
X113536324Y-107950000D01*
X113536358Y-107950345D01*
X113476059Y-107918115D01*
X113257399Y-107851785D01*
X113030000Y-107829388D01*
X112802600Y-107851785D01*
X112593902Y-107915093D01*
X112529180Y-107880498D01*
X112409482Y-107844188D01*
X112285000Y-107831928D01*
X111235000Y-107831928D01*
X111110518Y-107844188D01*
X110990820Y-107880498D01*
X110880506Y-107939463D01*
X110783815Y-108018815D01*
X110704463Y-108115506D01*
X110645498Y-108225820D01*
X110609188Y-108345518D01*
X110596928Y-108470000D01*
X110596928Y-109970000D01*
X110609188Y-110094482D01*
X110645498Y-110214180D01*
X110704463Y-110324494D01*
X110783815Y-110421185D01*
X110880506Y-110500537D01*
X110990820Y-110559502D01*
X111110518Y-110595812D01*
X111235000Y-110608072D01*
X112285000Y-110608072D01*
X112409482Y-110595812D01*
X112529180Y-110559502D01*
X112593902Y-110524907D01*
X112802601Y-110588215D01*
X113030000Y-110610612D01*
X113112668Y-110602470D01*
X113316210Y-110806012D01*
X113340009Y-110835011D01*
X113455734Y-110929984D01*
X113587763Y-111000556D01*
X113731024Y-111044013D01*
X113842677Y-111055010D01*
X113842685Y-111055010D01*
X113880010Y-111058686D01*
X113917335Y-111055010D01*
X115060209Y-111055010D01*
X116276201Y-112271003D01*
X116299999Y-112300001D01*
X116415724Y-112394974D01*
X116547753Y-112465546D01*
X116691014Y-112509003D01*
X116802667Y-112520000D01*
X116802676Y-112520000D01*
X116839999Y-112523676D01*
X116877322Y-112520000D01*
X116891957Y-112520000D01*
X116995363Y-112674759D01*
X117195241Y-112874637D01*
X117430273Y-113031680D01*
X117691426Y-113139853D01*
X117968665Y-113195000D01*
X118251335Y-113195000D01*
X118528574Y-113139853D01*
X118789727Y-113031680D01*
X119024759Y-112874637D01*
X119224637Y-112674759D01*
X119381680Y-112439727D01*
X119489853Y-112178574D01*
X119545000Y-111901335D01*
X119545000Y-111618665D01*
X119489853Y-111341426D01*
X119381680Y-111080273D01*
X119224637Y-110845241D01*
X119024759Y-110645363D01*
X118789727Y-110488320D01*
X118528574Y-110380147D01*
X118251335Y-110325000D01*
X117968665Y-110325000D01*
X117691426Y-110380147D01*
X117430273Y-110488320D01*
X117195241Y-110645363D01*
X116997703Y-110842901D01*
X116644801Y-110490000D01*
X117786114Y-109348688D01*
X117968665Y-109385000D01*
X118251335Y-109385000D01*
X118528574Y-109329853D01*
X118789727Y-109221680D01*
X119024759Y-109064637D01*
X119224637Y-108864759D01*
X119381680Y-108629727D01*
X119489853Y-108368574D01*
X119545000Y-108091335D01*
X119545000Y-107808665D01*
X119489853Y-107531426D01*
X119381680Y-107270273D01*
X119224637Y-107035241D01*
X119024759Y-106835363D01*
X118789727Y-106678320D01*
X118528574Y-106570147D01*
X118251335Y-106515000D01*
X117968665Y-106515000D01*
X117691426Y-106570147D01*
X117430273Y-106678320D01*
X117195241Y-106835363D01*
X116995363Y-107035241D01*
X116838320Y-107270273D01*
X116730147Y-107531426D01*
X116675000Y-107808665D01*
X116675000Y-108091335D01*
X116711312Y-108273886D01*
X115457463Y-109527736D01*
X115460000Y-109501978D01*
X115460000Y-108938021D01*
X115443215Y-108767600D01*
X115376885Y-108548940D01*
X115269171Y-108347421D01*
X115137645Y-108187156D01*
X117784094Y-105540708D01*
X117828691Y-105554236D01*
X118039508Y-105575000D01*
X118180492Y-105575000D01*
X118391309Y-105554236D01*
X118661808Y-105472182D01*
X118911101Y-105338932D01*
X119129608Y-105159608D01*
X119308932Y-104941101D01*
X119442182Y-104691808D01*
X119524236Y-104421309D01*
X119551943Y-104140000D01*
X119524236Y-103858691D01*
X119454864Y-103630000D01*
X126685199Y-103630000D01*
X126871312Y-103816114D01*
X126835000Y-103998665D01*
X126835000Y-104281335D01*
X126890147Y-104558574D01*
X126998320Y-104819727D01*
X127155363Y-105054759D01*
X127355241Y-105254637D01*
X127590273Y-105411680D01*
X127851426Y-105519853D01*
X128128665Y-105575000D01*
X128411335Y-105575000D01*
X128688574Y-105519853D01*
X128949727Y-105411680D01*
X129184759Y-105254637D01*
X129384637Y-105054759D01*
X129413000Y-105012311D01*
X129413000Y-107080746D01*
X129289608Y-106930392D01*
X129071101Y-106751068D01*
X128821808Y-106617818D01*
X128551309Y-106535764D01*
X128340492Y-106515000D01*
X128199508Y-106515000D01*
X127988691Y-106535764D01*
X127718192Y-106617818D01*
X127468899Y-106751068D01*
X127250392Y-106930392D01*
X127071068Y-107148899D01*
X127049099Y-107190000D01*
X123893711Y-107190000D01*
X123849774Y-107146063D01*
X123680256Y-107032795D01*
X123491898Y-106954774D01*
X123291939Y-106915000D01*
X123088061Y-106915000D01*
X122888102Y-106954774D01*
X122699744Y-107032795D01*
X122530226Y-107146063D01*
X122386063Y-107290226D01*
X122272795Y-107459744D01*
X122194774Y-107648102D01*
X122155000Y-107848061D01*
X122155000Y-108051939D01*
X122194774Y-108251898D01*
X122272795Y-108440256D01*
X122386063Y-108609774D01*
X122530226Y-108753937D01*
X122699744Y-108867205D01*
X122888102Y-108945226D01*
X123088061Y-108985000D01*
X123291939Y-108985000D01*
X123491898Y-108945226D01*
X123680256Y-108867205D01*
X123849774Y-108753937D01*
X123893711Y-108710000D01*
X127049099Y-108710000D01*
X127071068Y-108751101D01*
X127250392Y-108969608D01*
X127468899Y-109148932D01*
X127718192Y-109282182D01*
X127988691Y-109364236D01*
X128199508Y-109385000D01*
X128340492Y-109385000D01*
X128551309Y-109364236D01*
X128821808Y-109282182D01*
X129071101Y-109148932D01*
X129289608Y-108969608D01*
X129413000Y-108819254D01*
X129413000Y-110890746D01*
X129289608Y-110740392D01*
X129071101Y-110561068D01*
X128821808Y-110427818D01*
X128551309Y-110345764D01*
X128340492Y-110325000D01*
X128199508Y-110325000D01*
X127988691Y-110345764D01*
X127718192Y-110427818D01*
X127468899Y-110561068D01*
X127250392Y-110740392D01*
X127071068Y-110958899D01*
X126937818Y-111208192D01*
X126855764Y-111478691D01*
X126828057Y-111760000D01*
X126855764Y-112041309D01*
X126937818Y-112311808D01*
X127071068Y-112561101D01*
X127250392Y-112779608D01*
X127468899Y-112958932D01*
X127718192Y-113092182D01*
X127988691Y-113174236D01*
X128199508Y-113195000D01*
X128340492Y-113195000D01*
X128551309Y-113174236D01*
X128821808Y-113092182D01*
X129071101Y-112958932D01*
X129289608Y-112779608D01*
X129413000Y-112629254D01*
X129413000Y-114173000D01*
X61087000Y-114173000D01*
X61087000Y-111760000D01*
X75977815Y-111760000D01*
X76006487Y-112051111D01*
X76091401Y-112331034D01*
X76229294Y-112589014D01*
X76414866Y-112815134D01*
X76640986Y-113000706D01*
X76898966Y-113138599D01*
X77178889Y-113223513D01*
X77397050Y-113245000D01*
X77542950Y-113245000D01*
X77761111Y-113223513D01*
X78041034Y-113138599D01*
X78299014Y-113000706D01*
X78525134Y-112815134D01*
X78549607Y-112785313D01*
X78570498Y-112854180D01*
X78629463Y-112964494D01*
X78708815Y-113061185D01*
X78805506Y-113140537D01*
X78915820Y-113199502D01*
X79035518Y-113235812D01*
X79160000Y-113248072D01*
X79724250Y-113245000D01*
X79883000Y-113086250D01*
X79883000Y-111887000D01*
X80137000Y-111887000D01*
X80137000Y-113086250D01*
X80295750Y-113245000D01*
X80860000Y-113248072D01*
X80984482Y-113235812D01*
X81104180Y-113199502D01*
X81214494Y-113140537D01*
X81311185Y-113061185D01*
X81390537Y-112964494D01*
X81446391Y-112860000D01*
X82081928Y-112860000D01*
X82094188Y-112984482D01*
X82130498Y-113104180D01*
X82189463Y-113214494D01*
X82268815Y-113311185D01*
X82365506Y-113390537D01*
X82475820Y-113449502D01*
X82595518Y-113485812D01*
X82720000Y-113498072D01*
X83534250Y-113495000D01*
X83693000Y-113336250D01*
X83693000Y-111887000D01*
X83947000Y-111887000D01*
X83947000Y-113336250D01*
X84105750Y-113495000D01*
X84920000Y-113498072D01*
X85044482Y-113485812D01*
X85164180Y-113449502D01*
X85274494Y-113390537D01*
X85371185Y-113311185D01*
X85450537Y-113214494D01*
X85509502Y-113104180D01*
X85545812Y-112984482D01*
X85558072Y-112860000D01*
X85555000Y-112045750D01*
X85396250Y-111887000D01*
X83947000Y-111887000D01*
X83693000Y-111887000D01*
X82243750Y-111887000D01*
X82085000Y-112045750D01*
X82081928Y-112860000D01*
X81446391Y-112860000D01*
X81449502Y-112854180D01*
X81485812Y-112734482D01*
X81498072Y-112610000D01*
X81495000Y-112045750D01*
X81336250Y-111887000D01*
X80137000Y-111887000D01*
X79883000Y-111887000D01*
X79863000Y-111887000D01*
X79863000Y-111633000D01*
X79883000Y-111633000D01*
X79883000Y-110433750D01*
X80137000Y-110433750D01*
X80137000Y-111633000D01*
X81336250Y-111633000D01*
X81495000Y-111474250D01*
X81498072Y-110910000D01*
X81485812Y-110785518D01*
X81449502Y-110665820D01*
X81446392Y-110660000D01*
X82081928Y-110660000D01*
X82085000Y-111474250D01*
X82243750Y-111633000D01*
X83693000Y-111633000D01*
X83693000Y-110183750D01*
X83947000Y-110183750D01*
X83947000Y-111633000D01*
X85396250Y-111633000D01*
X85555000Y-111474250D01*
X85558072Y-110660000D01*
X85545812Y-110535518D01*
X85509502Y-110415820D01*
X85450537Y-110305506D01*
X85371185Y-110208815D01*
X85274494Y-110129463D01*
X85164180Y-110070498D01*
X85044482Y-110034188D01*
X84920000Y-110021928D01*
X84105750Y-110025000D01*
X83947000Y-110183750D01*
X83693000Y-110183750D01*
X83534250Y-110025000D01*
X82720000Y-110021928D01*
X82595518Y-110034188D01*
X82475820Y-110070498D01*
X82365506Y-110129463D01*
X82268815Y-110208815D01*
X82189463Y-110305506D01*
X82130498Y-110415820D01*
X82094188Y-110535518D01*
X82081928Y-110660000D01*
X81446392Y-110660000D01*
X81390537Y-110555506D01*
X81311185Y-110458815D01*
X81214494Y-110379463D01*
X81104180Y-110320498D01*
X80984482Y-110284188D01*
X80860000Y-110271928D01*
X80295750Y-110275000D01*
X80137000Y-110433750D01*
X79883000Y-110433750D01*
X79724250Y-110275000D01*
X79160000Y-110271928D01*
X79035518Y-110284188D01*
X78915820Y-110320498D01*
X78805506Y-110379463D01*
X78708815Y-110458815D01*
X78629463Y-110555506D01*
X78570498Y-110665820D01*
X78549607Y-110734687D01*
X78525134Y-110704866D01*
X78299014Y-110519294D01*
X78230000Y-110482405D01*
X78230000Y-108039801D01*
X78432332Y-107837470D01*
X78458021Y-107840000D01*
X79021979Y-107840000D01*
X79192400Y-107823215D01*
X79411060Y-107756885D01*
X79612579Y-107649171D01*
X79789212Y-107504212D01*
X79841909Y-107440000D01*
X88585199Y-107440000D01*
X92338758Y-111193560D01*
X92270105Y-111419881D01*
X92236606Y-111760000D01*
X92270105Y-112100119D01*
X92369314Y-112427168D01*
X92530421Y-112728578D01*
X92747234Y-112992766D01*
X93011422Y-113209579D01*
X93312832Y-113370686D01*
X93639881Y-113469895D01*
X93894775Y-113495000D01*
X94065225Y-113495000D01*
X94320119Y-113469895D01*
X94647168Y-113370686D01*
X94948578Y-113209579D01*
X95212766Y-112992766D01*
X95429579Y-112728578D01*
X95590686Y-112427168D01*
X95689895Y-112100119D01*
X95723394Y-111760000D01*
X95689895Y-111419881D01*
X95590686Y-111092832D01*
X95429579Y-110791422D01*
X95212766Y-110527234D01*
X94948578Y-110310421D01*
X94647168Y-110149314D01*
X94320119Y-110050105D01*
X94065225Y-110025000D01*
X93894775Y-110025000D01*
X93639881Y-110050105D01*
X93413560Y-110118758D01*
X89463804Y-106169003D01*
X89440001Y-106139999D01*
X89324276Y-106045026D01*
X89192247Y-105974454D01*
X89048986Y-105930997D01*
X88937333Y-105920000D01*
X88937322Y-105920000D01*
X88900000Y-105916324D01*
X88862678Y-105920000D01*
X85161983Y-105920000D01*
X85199853Y-105828574D01*
X85255000Y-105551335D01*
X85255000Y-105410000D01*
X92538057Y-105410000D01*
X92565764Y-105691309D01*
X92647818Y-105961808D01*
X92781068Y-106211101D01*
X92960392Y-106429608D01*
X93178899Y-106608932D01*
X93428192Y-106742182D01*
X93698691Y-106824236D01*
X93909508Y-106845000D01*
X94050492Y-106845000D01*
X94261309Y-106824236D01*
X94531808Y-106742182D01*
X94781101Y-106608932D01*
X94999608Y-106429608D01*
X95178932Y-106211101D01*
X95312182Y-105961808D01*
X95394236Y-105691309D01*
X95421943Y-105410000D01*
X95394236Y-105128691D01*
X95312182Y-104858192D01*
X95178932Y-104608899D01*
X94999608Y-104390392D01*
X94781101Y-104211068D01*
X94531808Y-104077818D01*
X94261309Y-103995764D01*
X94050492Y-103975000D01*
X93909508Y-103975000D01*
X93698691Y-103995764D01*
X93428192Y-104077818D01*
X93178899Y-104211068D01*
X92960392Y-104390392D01*
X92781068Y-104608899D01*
X92647818Y-104858192D01*
X92565764Y-105128691D01*
X92538057Y-105410000D01*
X85255000Y-105410000D01*
X85255000Y-105268665D01*
X85199853Y-104991426D01*
X85091680Y-104730273D01*
X84934637Y-104495241D01*
X84734759Y-104295363D01*
X84580000Y-104191957D01*
X84580000Y-102818043D01*
X84734759Y-102714637D01*
X84934637Y-102514759D01*
X85091680Y-102279727D01*
X85199853Y-102018574D01*
X85255000Y-101741335D01*
X85255000Y-101600000D01*
X92538057Y-101600000D01*
X92565764Y-101881309D01*
X92647818Y-102151808D01*
X92781068Y-102401101D01*
X92960392Y-102619608D01*
X93178899Y-102798932D01*
X93428192Y-102932182D01*
X93698691Y-103014236D01*
X93909508Y-103035000D01*
X94050492Y-103035000D01*
X94261309Y-103014236D01*
X94531808Y-102932182D01*
X94781101Y-102798932D01*
X94999608Y-102619608D01*
X95178932Y-102401101D01*
X95312182Y-102151808D01*
X95394236Y-101881309D01*
X95421943Y-101600000D01*
X95394236Y-101318691D01*
X95312182Y-101048192D01*
X95178932Y-100798899D01*
X94999608Y-100580392D01*
X94781101Y-100401068D01*
X94531808Y-100267818D01*
X94261309Y-100185764D01*
X94050492Y-100165000D01*
X93909508Y-100165000D01*
X93698691Y-100185764D01*
X93428192Y-100267818D01*
X93178899Y-100401068D01*
X92960392Y-100580392D01*
X92781068Y-100798899D01*
X92647818Y-101048192D01*
X92565764Y-101318691D01*
X92538057Y-101600000D01*
X85255000Y-101600000D01*
X85255000Y-101458665D01*
X85199853Y-101181426D01*
X85091680Y-100920273D01*
X84934637Y-100685241D01*
X84734759Y-100485363D01*
X84499727Y-100328320D01*
X84238574Y-100220147D01*
X83961335Y-100165000D01*
X83678665Y-100165000D01*
X83401426Y-100220147D01*
X83140273Y-100328320D01*
X82905241Y-100485363D01*
X82705363Y-100685241D01*
X82548320Y-100920273D01*
X82440147Y-101181426D01*
X82385000Y-101458665D01*
X82385000Y-101741335D01*
X82440147Y-102018574D01*
X82548320Y-102279727D01*
X82705363Y-102514759D01*
X82905241Y-102714637D01*
X83060000Y-102818044D01*
X83060001Y-104191956D01*
X82905241Y-104295363D01*
X82705363Y-104495241D01*
X82601957Y-104650000D01*
X80128072Y-104650000D01*
X80128072Y-103615000D01*
X80115812Y-103490518D01*
X80079502Y-103370820D01*
X80020537Y-103260506D01*
X79941185Y-103163815D01*
X79844494Y-103084463D01*
X79734180Y-103025498D01*
X79614482Y-102989188D01*
X79490000Y-102976928D01*
X77990000Y-102976928D01*
X77865518Y-102989188D01*
X77745820Y-103025498D01*
X77635506Y-103084463D01*
X77538815Y-103163815D01*
X77459463Y-103260506D01*
X77400498Y-103370820D01*
X77364188Y-103490518D01*
X77351928Y-103615000D01*
X77351928Y-104665000D01*
X77364188Y-104789482D01*
X77400498Y-104909180D01*
X77435093Y-104973902D01*
X77371785Y-105182600D01*
X77349388Y-105410000D01*
X77371785Y-105637400D01*
X77438115Y-105856060D01*
X77539105Y-106045000D01*
X77438115Y-106233940D01*
X77371785Y-106452600D01*
X77349388Y-106680000D01*
X77357530Y-106762668D01*
X76958998Y-107161201D01*
X76930000Y-107184999D01*
X76906202Y-107213997D01*
X76906201Y-107213998D01*
X76835026Y-107300724D01*
X76764454Y-107432754D01*
X76720998Y-107576015D01*
X76706324Y-107725000D01*
X76710001Y-107762332D01*
X76710000Y-110482405D01*
X76640986Y-110519294D01*
X76414866Y-110704866D01*
X76229294Y-110930986D01*
X76091401Y-111188966D01*
X76006487Y-111468889D01*
X75977815Y-111760000D01*
X61087000Y-111760000D01*
X61087000Y-91039254D01*
X61210392Y-91189608D01*
X61428899Y-91368932D01*
X61678192Y-91502182D01*
X61948691Y-91584236D01*
X62159508Y-91605000D01*
X62300492Y-91605000D01*
X62511309Y-91584236D01*
X62781808Y-91502182D01*
X63031101Y-91368932D01*
X63249608Y-91189608D01*
X63428932Y-90971101D01*
X63562182Y-90721808D01*
X63644236Y-90451309D01*
X63671943Y-90170000D01*
X63644236Y-89888691D01*
X63562182Y-89618192D01*
X63428932Y-89368899D01*
X63249608Y-89150392D01*
X63031101Y-88971068D01*
X62898142Y-88900000D01*
X63031101Y-88828932D01*
X63249608Y-88649608D01*
X63428932Y-88431101D01*
X63450901Y-88390000D01*
X64455199Y-88390000D01*
X65280000Y-89214802D01*
X65280001Y-99052405D01*
X65210986Y-99089294D01*
X64984866Y-99274866D01*
X64960393Y-99304687D01*
X64939502Y-99235820D01*
X64880537Y-99125506D01*
X64801185Y-99028815D01*
X64704494Y-98949463D01*
X64594180Y-98890498D01*
X64474482Y-98854188D01*
X64350000Y-98841928D01*
X62650000Y-98841928D01*
X62525518Y-98854188D01*
X62405820Y-98890498D01*
X62295506Y-98949463D01*
X62198815Y-99028815D01*
X62119463Y-99125506D01*
X62060498Y-99235820D01*
X62024188Y-99355518D01*
X62011928Y-99480000D01*
X62011928Y-101180000D01*
X62024188Y-101304482D01*
X62060498Y-101424180D01*
X62119463Y-101534494D01*
X62198815Y-101631185D01*
X62295506Y-101710537D01*
X62405820Y-101769502D01*
X62474687Y-101790393D01*
X62444866Y-101814866D01*
X62259294Y-102040986D01*
X62121401Y-102298966D01*
X62036487Y-102578889D01*
X62007815Y-102870000D01*
X62036487Y-103161111D01*
X62121401Y-103441034D01*
X62259294Y-103699014D01*
X62444866Y-103925134D01*
X62670986Y-104110706D01*
X62928966Y-104248599D01*
X63208889Y-104333513D01*
X63427050Y-104355000D01*
X63572950Y-104355000D01*
X63791111Y-104333513D01*
X64071034Y-104248599D01*
X64329014Y-104110706D01*
X64555134Y-103925134D01*
X64740706Y-103699014D01*
X64770000Y-103644209D01*
X64799294Y-103699014D01*
X64984866Y-103925134D01*
X65210986Y-104110706D01*
X65468966Y-104248599D01*
X65748889Y-104333513D01*
X65967050Y-104355000D01*
X66112950Y-104355000D01*
X66331111Y-104333513D01*
X66611034Y-104248599D01*
X66869014Y-104110706D01*
X67095134Y-103925134D01*
X67280706Y-103699014D01*
X67310000Y-103644209D01*
X67339294Y-103699014D01*
X67524866Y-103925134D01*
X67750986Y-104110706D01*
X68008966Y-104248599D01*
X68288889Y-104333513D01*
X68507050Y-104355000D01*
X68652950Y-104355000D01*
X68871111Y-104333513D01*
X69151034Y-104248599D01*
X69409014Y-104110706D01*
X69635134Y-103925134D01*
X69820706Y-103699014D01*
X69958599Y-103441034D01*
X70043513Y-103161111D01*
X70072185Y-102870000D01*
X70043513Y-102578889D01*
X69958599Y-102298966D01*
X69820706Y-102040986D01*
X69635134Y-101814866D01*
X69409014Y-101629294D01*
X69354209Y-101600000D01*
X69409014Y-101570706D01*
X69635134Y-101385134D01*
X69820706Y-101159014D01*
X69958599Y-100901034D01*
X70043513Y-100621111D01*
X70072185Y-100330000D01*
X70043513Y-100038889D01*
X69958599Y-99758966D01*
X69820706Y-99500986D01*
X69635134Y-99274866D01*
X69409014Y-99089294D01*
X69340000Y-99052405D01*
X69340000Y-91514864D01*
X69568691Y-91584236D01*
X69779508Y-91605000D01*
X69920492Y-91605000D01*
X70131309Y-91584236D01*
X70175907Y-91570708D01*
X76906200Y-98301002D01*
X76929999Y-98330001D01*
X76958997Y-98353799D01*
X77045723Y-98424974D01*
X77177753Y-98495546D01*
X77321014Y-98539003D01*
X77432667Y-98550000D01*
X77432677Y-98550000D01*
X77470000Y-98553676D01*
X77507323Y-98550000D01*
X98745199Y-98550000D01*
X101471312Y-101276114D01*
X101435000Y-101458665D01*
X101435000Y-101741335D01*
X101490147Y-102018574D01*
X101598320Y-102279727D01*
X101755363Y-102514759D01*
X101955241Y-102714637D01*
X102190273Y-102871680D01*
X102451426Y-102979853D01*
X102728665Y-103035000D01*
X103011335Y-103035000D01*
X103288574Y-102979853D01*
X103549727Y-102871680D01*
X103784759Y-102714637D01*
X103984637Y-102514759D01*
X104141680Y-102279727D01*
X104249853Y-102018574D01*
X104305000Y-101741335D01*
X104305000Y-101458665D01*
X104249853Y-101181426D01*
X104205770Y-101075000D01*
X111641928Y-101075000D01*
X111645000Y-101314250D01*
X111803750Y-101473000D01*
X112903000Y-101473000D01*
X112903000Y-100598750D01*
X113157000Y-100598750D01*
X113157000Y-101473000D01*
X114256250Y-101473000D01*
X114406548Y-101322702D01*
X117296903Y-101322702D01*
X117368486Y-101566671D01*
X117623996Y-101687571D01*
X117898184Y-101756300D01*
X118180512Y-101770217D01*
X118460130Y-101728787D01*
X118726292Y-101633603D01*
X118851514Y-101566671D01*
X118923097Y-101322702D01*
X118110000Y-100509605D01*
X117296903Y-101322702D01*
X114406548Y-101322702D01*
X114415000Y-101314250D01*
X114418072Y-101075000D01*
X114405812Y-100950518D01*
X114369502Y-100830820D01*
X114310537Y-100720506D01*
X114231185Y-100623815D01*
X114134494Y-100544463D01*
X114024180Y-100485498D01*
X113904482Y-100449188D01*
X113780000Y-100436928D01*
X113315750Y-100440000D01*
X113157000Y-100598750D01*
X112903000Y-100598750D01*
X112744250Y-100440000D01*
X112280000Y-100436928D01*
X112155518Y-100449188D01*
X112035820Y-100485498D01*
X111925506Y-100544463D01*
X111828815Y-100623815D01*
X111749463Y-100720506D01*
X111690498Y-100830820D01*
X111654188Y-100950518D01*
X111641928Y-101075000D01*
X104205770Y-101075000D01*
X104141680Y-100920273D01*
X103984637Y-100685241D01*
X103784759Y-100485363D01*
X103657771Y-100400512D01*
X116669783Y-100400512D01*
X116711213Y-100680130D01*
X116806397Y-100946292D01*
X116873329Y-101071514D01*
X117117298Y-101143097D01*
X117930395Y-100330000D01*
X118289605Y-100330000D01*
X119102702Y-101143097D01*
X119346671Y-101071514D01*
X119467571Y-100816004D01*
X119536300Y-100541816D01*
X119550217Y-100259488D01*
X119508787Y-99979870D01*
X119413603Y-99713708D01*
X119346671Y-99588486D01*
X119102702Y-99516903D01*
X118289605Y-100330000D01*
X117930395Y-100330000D01*
X117117298Y-99516903D01*
X116873329Y-99588486D01*
X116752429Y-99843996D01*
X116683700Y-100118184D01*
X116669783Y-100400512D01*
X103657771Y-100400512D01*
X103549727Y-100328320D01*
X103288574Y-100220147D01*
X103011335Y-100165000D01*
X102728665Y-100165000D01*
X102546114Y-100201312D01*
X101682100Y-99337298D01*
X117296903Y-99337298D01*
X118110000Y-100150395D01*
X118923097Y-99337298D01*
X118851514Y-99093329D01*
X118596004Y-98972429D01*
X118321816Y-98903700D01*
X118039488Y-98889783D01*
X117759870Y-98931213D01*
X117493708Y-99026397D01*
X117368486Y-99093329D01*
X117296903Y-99337298D01*
X101682100Y-99337298D01*
X99623804Y-97279003D01*
X99600001Y-97249999D01*
X99484276Y-97155026D01*
X99352247Y-97084454D01*
X99208986Y-97040997D01*
X99097333Y-97030000D01*
X99097322Y-97030000D01*
X99060000Y-97026324D01*
X99022678Y-97030000D01*
X77784802Y-97030000D01*
X71250708Y-90495907D01*
X71264236Y-90451309D01*
X71291943Y-90170000D01*
X71264236Y-89888691D01*
X71182182Y-89618192D01*
X71048932Y-89368899D01*
X70869608Y-89150392D01*
X70651101Y-88971068D01*
X70518142Y-88900000D01*
X70651101Y-88828932D01*
X70869608Y-88649608D01*
X71048932Y-88431101D01*
X71182182Y-88181808D01*
X71264236Y-87911309D01*
X71291943Y-87630000D01*
X71264236Y-87348691D01*
X71182182Y-87078192D01*
X71048932Y-86828899D01*
X70869608Y-86610392D01*
X70651101Y-86431068D01*
X70518142Y-86360000D01*
X70651101Y-86288932D01*
X70869608Y-86109608D01*
X71048932Y-85891101D01*
X71182182Y-85641808D01*
X71264236Y-85371309D01*
X71291943Y-85090000D01*
X71264236Y-84808691D01*
X71182182Y-84538192D01*
X71048932Y-84288899D01*
X70869608Y-84070392D01*
X70651101Y-83891068D01*
X70513318Y-83817421D01*
X70705131Y-83702385D01*
X70913519Y-83513414D01*
X71081037Y-83287420D01*
X71201246Y-83033087D01*
X71241904Y-82899039D01*
X71119915Y-82677000D01*
X69977000Y-82677000D01*
X69977000Y-82697000D01*
X69723000Y-82697000D01*
X69723000Y-82677000D01*
X68580085Y-82677000D01*
X68458096Y-82899039D01*
X68498754Y-83033087D01*
X68618963Y-83287420D01*
X68786481Y-83513414D01*
X68994869Y-83702385D01*
X69186682Y-83817421D01*
X69048899Y-83891068D01*
X68830392Y-84070392D01*
X68651068Y-84288899D01*
X68517818Y-84538192D01*
X68435764Y-84808691D01*
X68408057Y-85090000D01*
X68435764Y-85371309D01*
X68517818Y-85641808D01*
X68651068Y-85891101D01*
X68830392Y-86109608D01*
X69048899Y-86288932D01*
X69181858Y-86360000D01*
X69048899Y-86431068D01*
X68830392Y-86610392D01*
X68651068Y-86828899D01*
X68517818Y-87078192D01*
X68435764Y-87348691D01*
X68408057Y-87630000D01*
X68410598Y-87655796D01*
X65333804Y-84579003D01*
X65310001Y-84549999D01*
X65194276Y-84455026D01*
X65062247Y-84384454D01*
X64918986Y-84340997D01*
X64807333Y-84330000D01*
X64807322Y-84330000D01*
X64770000Y-84326324D01*
X64732678Y-84330000D01*
X63450901Y-84330000D01*
X63428932Y-84288899D01*
X63249608Y-84070392D01*
X63136518Y-83977581D01*
X63154482Y-83975812D01*
X63274180Y-83939502D01*
X63384494Y-83880537D01*
X63481185Y-83801185D01*
X63560537Y-83704494D01*
X63619502Y-83594180D01*
X63655812Y-83474482D01*
X63668072Y-83350000D01*
X63668072Y-82200961D01*
X68458096Y-82200961D01*
X68580085Y-82423000D01*
X69723000Y-82423000D01*
X69723000Y-81279376D01*
X69977000Y-81279376D01*
X69977000Y-82423000D01*
X71119915Y-82423000D01*
X71241904Y-82200961D01*
X71201246Y-82066913D01*
X71081037Y-81812580D01*
X70913519Y-81586586D01*
X70705131Y-81397615D01*
X70463881Y-81252930D01*
X70199040Y-81158091D01*
X69977000Y-81279376D01*
X69723000Y-81279376D01*
X69500960Y-81158091D01*
X69236119Y-81252930D01*
X68994869Y-81397615D01*
X68786481Y-81586586D01*
X68618963Y-81812580D01*
X68498754Y-82066913D01*
X68458096Y-82200961D01*
X63668072Y-82200961D01*
X63668072Y-81750000D01*
X63655812Y-81625518D01*
X63619502Y-81505820D01*
X63560537Y-81395506D01*
X63481185Y-81298815D01*
X63384494Y-81219463D01*
X63274180Y-81160498D01*
X63154482Y-81124188D01*
X63030000Y-81111928D01*
X61430000Y-81111928D01*
X61305518Y-81124188D01*
X61185820Y-81160498D01*
X61087000Y-81213319D01*
X61087000Y-71120000D01*
X63277815Y-71120000D01*
X63306487Y-71411111D01*
X63391401Y-71691034D01*
X63529294Y-71949014D01*
X63714866Y-72175134D01*
X63940986Y-72360706D01*
X64198966Y-72498599D01*
X64478889Y-72583513D01*
X64697050Y-72605000D01*
X64842950Y-72605000D01*
X65061111Y-72583513D01*
X65341034Y-72498599D01*
X65599014Y-72360706D01*
X65825134Y-72175134D01*
X65849607Y-72145313D01*
X65870498Y-72214180D01*
X65929463Y-72324494D01*
X66008815Y-72421185D01*
X66105506Y-72500537D01*
X66215820Y-72559502D01*
X66335518Y-72595812D01*
X66460000Y-72608072D01*
X67024250Y-72605000D01*
X67183000Y-72446250D01*
X67183000Y-71247000D01*
X67437000Y-71247000D01*
X67437000Y-72446250D01*
X67595750Y-72605000D01*
X68160000Y-72608072D01*
X68284482Y-72595812D01*
X68404180Y-72559502D01*
X68514494Y-72500537D01*
X68611185Y-72421185D01*
X68690537Y-72324494D01*
X68749502Y-72214180D01*
X68785812Y-72094482D01*
X68798072Y-71970000D01*
X68795000Y-71405750D01*
X68636250Y-71247000D01*
X67437000Y-71247000D01*
X67183000Y-71247000D01*
X67163000Y-71247000D01*
X67163000Y-70993000D01*
X67183000Y-70993000D01*
X67183000Y-69793750D01*
X67437000Y-69793750D01*
X67437000Y-70993000D01*
X68636250Y-70993000D01*
X68795000Y-70834250D01*
X68795387Y-70763109D01*
X78568519Y-70763109D01*
X78689186Y-70993000D01*
X79883000Y-70993000D01*
X79883000Y-69799845D01*
X80137000Y-69799845D01*
X80137000Y-70993000D01*
X82423000Y-70993000D01*
X82423000Y-69799845D01*
X82677000Y-69799845D01*
X82677000Y-70993000D01*
X84963000Y-70993000D01*
X84963000Y-69799845D01*
X85217000Y-69799845D01*
X85217000Y-70993000D01*
X87503000Y-70993000D01*
X87503000Y-69799845D01*
X87757000Y-69799845D01*
X87757000Y-70993000D01*
X90043000Y-70993000D01*
X90043000Y-69799845D01*
X90297000Y-69799845D01*
X90297000Y-70993000D01*
X92583000Y-70993000D01*
X92583000Y-69799845D01*
X92837000Y-69799845D01*
X92837000Y-70993000D01*
X95123000Y-70993000D01*
X95123000Y-69799845D01*
X95377000Y-69799845D01*
X95377000Y-70993000D01*
X97663000Y-70993000D01*
X97663000Y-69799845D01*
X97917000Y-69799845D01*
X97917000Y-70993000D01*
X100203000Y-70993000D01*
X100203000Y-69799845D01*
X100457000Y-69799845D01*
X100457000Y-70993000D01*
X102743000Y-70993000D01*
X102743000Y-69799845D01*
X102997000Y-69799845D01*
X102997000Y-70993000D01*
X105283000Y-70993000D01*
X105283000Y-69799845D01*
X105537000Y-69799845D01*
X105537000Y-70993000D01*
X107823000Y-70993000D01*
X107823000Y-69799845D01*
X108077000Y-69799845D01*
X108077000Y-70993000D01*
X110363000Y-70993000D01*
X110363000Y-69799845D01*
X110617000Y-69799845D01*
X110617000Y-70993000D01*
X112903000Y-70993000D01*
X112903000Y-69799845D01*
X113157000Y-69799845D01*
X113157000Y-70993000D01*
X115443000Y-70993000D01*
X115443000Y-69799845D01*
X115697000Y-69799845D01*
X115697000Y-70993000D01*
X117983000Y-70993000D01*
X117983000Y-69799845D01*
X118237000Y-69799845D01*
X118237000Y-70993000D01*
X120523000Y-70993000D01*
X120523000Y-69799845D01*
X120777000Y-69799845D01*
X120777000Y-70993000D01*
X123063000Y-70993000D01*
X123063000Y-69799845D01*
X123317000Y-69799845D01*
X123317000Y-70993000D01*
X125603000Y-70993000D01*
X125603000Y-69799845D01*
X125857000Y-69799845D01*
X125857000Y-70993000D01*
X128143000Y-70993000D01*
X128143000Y-69799845D01*
X127913110Y-69678524D01*
X127765901Y-69723175D01*
X127503080Y-69848359D01*
X127269731Y-70022412D01*
X127074822Y-70238645D01*
X127000000Y-70364255D01*
X126925178Y-70238645D01*
X126730269Y-70022412D01*
X126496920Y-69848359D01*
X126234099Y-69723175D01*
X126086890Y-69678524D01*
X125857000Y-69799845D01*
X125603000Y-69799845D01*
X125373110Y-69678524D01*
X125225901Y-69723175D01*
X124963080Y-69848359D01*
X124729731Y-70022412D01*
X124534822Y-70238645D01*
X124460000Y-70364255D01*
X124385178Y-70238645D01*
X124190269Y-70022412D01*
X123956920Y-69848359D01*
X123694099Y-69723175D01*
X123546890Y-69678524D01*
X123317000Y-69799845D01*
X123063000Y-69799845D01*
X122833110Y-69678524D01*
X122685901Y-69723175D01*
X122423080Y-69848359D01*
X122189731Y-70022412D01*
X121994822Y-70238645D01*
X121920000Y-70364255D01*
X121845178Y-70238645D01*
X121650269Y-70022412D01*
X121416920Y-69848359D01*
X121154099Y-69723175D01*
X121006890Y-69678524D01*
X120777000Y-69799845D01*
X120523000Y-69799845D01*
X120293110Y-69678524D01*
X120145901Y-69723175D01*
X119883080Y-69848359D01*
X119649731Y-70022412D01*
X119454822Y-70238645D01*
X119380000Y-70364255D01*
X119305178Y-70238645D01*
X119110269Y-70022412D01*
X118876920Y-69848359D01*
X118614099Y-69723175D01*
X118466890Y-69678524D01*
X118237000Y-69799845D01*
X117983000Y-69799845D01*
X117753110Y-69678524D01*
X117605901Y-69723175D01*
X117343080Y-69848359D01*
X117109731Y-70022412D01*
X116914822Y-70238645D01*
X116840000Y-70364255D01*
X116765178Y-70238645D01*
X116570269Y-70022412D01*
X116336920Y-69848359D01*
X116074099Y-69723175D01*
X115926890Y-69678524D01*
X115697000Y-69799845D01*
X115443000Y-69799845D01*
X115213110Y-69678524D01*
X115065901Y-69723175D01*
X114803080Y-69848359D01*
X114569731Y-70022412D01*
X114374822Y-70238645D01*
X114300000Y-70364255D01*
X114225178Y-70238645D01*
X114030269Y-70022412D01*
X113796920Y-69848359D01*
X113534099Y-69723175D01*
X113386890Y-69678524D01*
X113157000Y-69799845D01*
X112903000Y-69799845D01*
X112673110Y-69678524D01*
X112525901Y-69723175D01*
X112263080Y-69848359D01*
X112029731Y-70022412D01*
X111834822Y-70238645D01*
X111760000Y-70364255D01*
X111685178Y-70238645D01*
X111490269Y-70022412D01*
X111256920Y-69848359D01*
X110994099Y-69723175D01*
X110846890Y-69678524D01*
X110617000Y-69799845D01*
X110363000Y-69799845D01*
X110133110Y-69678524D01*
X109985901Y-69723175D01*
X109723080Y-69848359D01*
X109489731Y-70022412D01*
X109294822Y-70238645D01*
X109220000Y-70364255D01*
X109145178Y-70238645D01*
X108950269Y-70022412D01*
X108716920Y-69848359D01*
X108454099Y-69723175D01*
X108306890Y-69678524D01*
X108077000Y-69799845D01*
X107823000Y-69799845D01*
X107593110Y-69678524D01*
X107445901Y-69723175D01*
X107183080Y-69848359D01*
X106949731Y-70022412D01*
X106754822Y-70238645D01*
X106680000Y-70364255D01*
X106605178Y-70238645D01*
X106410269Y-70022412D01*
X106176920Y-69848359D01*
X105914099Y-69723175D01*
X105766890Y-69678524D01*
X105537000Y-69799845D01*
X105283000Y-69799845D01*
X105053110Y-69678524D01*
X104905901Y-69723175D01*
X104643080Y-69848359D01*
X104409731Y-70022412D01*
X104214822Y-70238645D01*
X104140000Y-70364255D01*
X104065178Y-70238645D01*
X103870269Y-70022412D01*
X103636920Y-69848359D01*
X103374099Y-69723175D01*
X103226890Y-69678524D01*
X102997000Y-69799845D01*
X102743000Y-69799845D01*
X102513110Y-69678524D01*
X102365901Y-69723175D01*
X102103080Y-69848359D01*
X101869731Y-70022412D01*
X101674822Y-70238645D01*
X101600000Y-70364255D01*
X101525178Y-70238645D01*
X101330269Y-70022412D01*
X101096920Y-69848359D01*
X100834099Y-69723175D01*
X100686890Y-69678524D01*
X100457000Y-69799845D01*
X100203000Y-69799845D01*
X99973110Y-69678524D01*
X99825901Y-69723175D01*
X99563080Y-69848359D01*
X99329731Y-70022412D01*
X99134822Y-70238645D01*
X99060000Y-70364255D01*
X98985178Y-70238645D01*
X98790269Y-70022412D01*
X98556920Y-69848359D01*
X98294099Y-69723175D01*
X98146890Y-69678524D01*
X97917000Y-69799845D01*
X97663000Y-69799845D01*
X97433110Y-69678524D01*
X97285901Y-69723175D01*
X97023080Y-69848359D01*
X96789731Y-70022412D01*
X96594822Y-70238645D01*
X96520000Y-70364255D01*
X96445178Y-70238645D01*
X96250269Y-70022412D01*
X96016920Y-69848359D01*
X95754099Y-69723175D01*
X95606890Y-69678524D01*
X95377000Y-69799845D01*
X95123000Y-69799845D01*
X94893110Y-69678524D01*
X94745901Y-69723175D01*
X94483080Y-69848359D01*
X94249731Y-70022412D01*
X94054822Y-70238645D01*
X93980000Y-70364255D01*
X93905178Y-70238645D01*
X93710269Y-70022412D01*
X93476920Y-69848359D01*
X93214099Y-69723175D01*
X93066890Y-69678524D01*
X92837000Y-69799845D01*
X92583000Y-69799845D01*
X92353110Y-69678524D01*
X92205901Y-69723175D01*
X91943080Y-69848359D01*
X91709731Y-70022412D01*
X91514822Y-70238645D01*
X91440000Y-70364255D01*
X91365178Y-70238645D01*
X91170269Y-70022412D01*
X90936920Y-69848359D01*
X90674099Y-69723175D01*
X90526890Y-69678524D01*
X90297000Y-69799845D01*
X90043000Y-69799845D01*
X89813110Y-69678524D01*
X89665901Y-69723175D01*
X89403080Y-69848359D01*
X89169731Y-70022412D01*
X88974822Y-70238645D01*
X88900000Y-70364255D01*
X88825178Y-70238645D01*
X88630269Y-70022412D01*
X88396920Y-69848359D01*
X88134099Y-69723175D01*
X87986890Y-69678524D01*
X87757000Y-69799845D01*
X87503000Y-69799845D01*
X87273110Y-69678524D01*
X87125901Y-69723175D01*
X86863080Y-69848359D01*
X86629731Y-70022412D01*
X86434822Y-70238645D01*
X86360000Y-70364255D01*
X86285178Y-70238645D01*
X86090269Y-70022412D01*
X85856920Y-69848359D01*
X85594099Y-69723175D01*
X85446890Y-69678524D01*
X85217000Y-69799845D01*
X84963000Y-69799845D01*
X84733110Y-69678524D01*
X84585901Y-69723175D01*
X84323080Y-69848359D01*
X84089731Y-70022412D01*
X83894822Y-70238645D01*
X83820000Y-70364255D01*
X83745178Y-70238645D01*
X83550269Y-70022412D01*
X83316920Y-69848359D01*
X83054099Y-69723175D01*
X82906890Y-69678524D01*
X82677000Y-69799845D01*
X82423000Y-69799845D01*
X82193110Y-69678524D01*
X82045901Y-69723175D01*
X81783080Y-69848359D01*
X81549731Y-70022412D01*
X81354822Y-70238645D01*
X81280000Y-70364255D01*
X81205178Y-70238645D01*
X81010269Y-70022412D01*
X80776920Y-69848359D01*
X80514099Y-69723175D01*
X80366890Y-69678524D01*
X80137000Y-69799845D01*
X79883000Y-69799845D01*
X79653110Y-69678524D01*
X79505901Y-69723175D01*
X79243080Y-69848359D01*
X79009731Y-70022412D01*
X78814822Y-70238645D01*
X78665843Y-70488748D01*
X78568519Y-70763109D01*
X68795387Y-70763109D01*
X68798072Y-70270000D01*
X68785812Y-70145518D01*
X68749502Y-70025820D01*
X68690537Y-69915506D01*
X68611185Y-69818815D01*
X68514494Y-69739463D01*
X68404180Y-69680498D01*
X68284482Y-69644188D01*
X68160000Y-69631928D01*
X67595750Y-69635000D01*
X67437000Y-69793750D01*
X67183000Y-69793750D01*
X67024250Y-69635000D01*
X66460000Y-69631928D01*
X66335518Y-69644188D01*
X66215820Y-69680498D01*
X66105506Y-69739463D01*
X66008815Y-69818815D01*
X65929463Y-69915506D01*
X65870498Y-70025820D01*
X65849607Y-70094687D01*
X65825134Y-70064866D01*
X65599014Y-69879294D01*
X65341034Y-69741401D01*
X65061111Y-69656487D01*
X64842950Y-69635000D01*
X64697050Y-69635000D01*
X64478889Y-69656487D01*
X64198966Y-69741401D01*
X63940986Y-69879294D01*
X63714866Y-70064866D01*
X63529294Y-70290986D01*
X63391401Y-70548966D01*
X63306487Y-70828889D01*
X63277815Y-71120000D01*
X61087000Y-71120000D01*
X61087000Y-68707000D01*
X129413000Y-68707000D01*
X129413000Y-70180758D01*
M02*
