G04 #@! TF.GenerationSoftware,KiCad,Pcbnew,5.1.4+dfsg1-1~bpo10+1*
G04 #@! TF.CreationDate,2021-01-21T15:59:20-08:00*
G04 #@! TF.ProjectId,KarisGiftPCB,4b617269-7347-4696-9674-5043422e6b69,rev?*
G04 #@! TF.SameCoordinates,Original*
G04 #@! TF.FileFunction,Copper,L2,Bot*
G04 #@! TF.FilePolarity,Positive*
%FSLAX46Y46*%
G04 Gerber Fmt 4.6, Leading zero omitted, Abs format (unit mm)*
G04 Created by KiCad (PCBNEW 5.1.4+dfsg1-1~bpo10+1) date 2021-01-21 15:59:20*
%MOMM*%
%LPD*%
G04 APERTURE LIST*
%ADD10C,0.050000*%
%ADD11O,1.700000X1.700000*%
%ADD12R,1.700000X1.700000*%
%ADD13O,1.600000X1.600000*%
%ADD14R,1.600000X1.600000*%
%ADD15C,1.600000*%
%ADD16R,1.500000X1.050000*%
%ADD17O,1.500000X1.050000*%
%ADD18R,1.050000X1.500000*%
%ADD19O,1.050000X1.500000*%
%ADD20O,2.200000X2.200000*%
%ADD21R,2.200000X2.200000*%
%ADD22C,0.800000*%
%ADD23C,0.250000*%
%ADD24C,0.254000*%
G04 APERTURE END LIST*
D10*
X130810000Y-67310000D02*
X59690000Y-67310000D01*
X130810000Y-115570000D02*
X130810000Y-67310000D01*
X59690000Y-115570000D02*
X130810000Y-115570000D01*
X59690000Y-67310000D02*
X59690000Y-115570000D01*
D11*
X80010000Y-71120000D03*
X80010000Y-73660000D03*
X82550000Y-71120000D03*
X82550000Y-73660000D03*
X85090000Y-71120000D03*
X85090000Y-73660000D03*
X87630000Y-71120000D03*
X87630000Y-73660000D03*
X90170000Y-71120000D03*
X90170000Y-73660000D03*
X92710000Y-71120000D03*
X92710000Y-73660000D03*
X95250000Y-71120000D03*
X95250000Y-73660000D03*
X97790000Y-71120000D03*
X97790000Y-73660000D03*
X100330000Y-71120000D03*
X100330000Y-73660000D03*
X102870000Y-71120000D03*
X102870000Y-73660000D03*
X105410000Y-71120000D03*
X105410000Y-73660000D03*
X107950000Y-71120000D03*
X107950000Y-73660000D03*
X110490000Y-71120000D03*
X110490000Y-73660000D03*
X113030000Y-71120000D03*
X113030000Y-73660000D03*
X115570000Y-71120000D03*
X115570000Y-73660000D03*
X118110000Y-71120000D03*
X118110000Y-73660000D03*
X120650000Y-71120000D03*
X120650000Y-73660000D03*
X123190000Y-71120000D03*
X123190000Y-73660000D03*
X125730000Y-71120000D03*
X125730000Y-73660000D03*
X128270000Y-71120000D03*
D12*
X128270000Y-73660000D03*
D11*
X68580000Y-102870000D03*
X68580000Y-100330000D03*
X66040000Y-102870000D03*
X66040000Y-100330000D03*
X63500000Y-102870000D03*
D12*
X63500000Y-100330000D03*
D13*
X69850000Y-82550000D03*
X62230000Y-90170000D03*
X69850000Y-85090000D03*
X62230000Y-87630000D03*
X69850000Y-87630000D03*
X62230000Y-85090000D03*
X69850000Y-90170000D03*
D14*
X62230000Y-82550000D03*
D13*
X93980000Y-105410000D03*
D15*
X83820000Y-105410000D03*
D13*
X93980000Y-101600000D03*
D15*
X83820000Y-101600000D03*
D13*
X80010000Y-87630000D03*
D15*
X80010000Y-77470000D03*
D13*
X82550000Y-87630000D03*
D15*
X82550000Y-77470000D03*
D13*
X85090000Y-87630000D03*
D15*
X85090000Y-77470000D03*
D13*
X87630000Y-87630000D03*
D15*
X87630000Y-77470000D03*
D13*
X90170000Y-87630000D03*
D15*
X90170000Y-77470000D03*
D13*
X102870000Y-95250000D03*
D15*
X92710000Y-95250000D03*
D13*
X92710000Y-87630000D03*
D15*
X92710000Y-77470000D03*
D13*
X102870000Y-91440000D03*
D15*
X92710000Y-91440000D03*
D13*
X95250000Y-87630000D03*
D15*
X95250000Y-77470000D03*
D13*
X97790000Y-87630000D03*
D15*
X97790000Y-77470000D03*
D13*
X100330000Y-87630000D03*
D15*
X100330000Y-77470000D03*
D13*
X102870000Y-87630000D03*
D15*
X102870000Y-77470000D03*
D13*
X105410000Y-87630000D03*
D15*
X105410000Y-77470000D03*
D13*
X107950000Y-87630000D03*
D15*
X107950000Y-77470000D03*
D13*
X110490000Y-87630000D03*
D15*
X110490000Y-77470000D03*
D13*
X113030000Y-87630000D03*
D15*
X113030000Y-77470000D03*
D13*
X115570000Y-87630000D03*
D15*
X115570000Y-77470000D03*
D13*
X118110000Y-87630000D03*
D15*
X118110000Y-77470000D03*
D13*
X128270000Y-95250000D03*
D15*
X118110000Y-95250000D03*
D13*
X120650000Y-87630000D03*
D15*
X120650000Y-77470000D03*
D13*
X123190000Y-87630000D03*
D15*
X123190000Y-77470000D03*
D13*
X128270000Y-91440000D03*
D15*
X118110000Y-91440000D03*
D13*
X125730000Y-87630000D03*
D15*
X125730000Y-77470000D03*
D13*
X128270000Y-87630000D03*
D15*
X128270000Y-77470000D03*
D13*
X128270000Y-100330000D03*
D15*
X118110000Y-100330000D03*
D13*
X118110000Y-104140000D03*
D15*
X128270000Y-104140000D03*
D13*
X102870000Y-111760000D03*
D15*
X102870000Y-101600000D03*
D13*
X128270000Y-107950000D03*
D15*
X118110000Y-107950000D03*
D13*
X128270000Y-111760000D03*
D15*
X118110000Y-111760000D03*
D16*
X78740000Y-104140000D03*
D17*
X78740000Y-106680000D03*
X78740000Y-105410000D03*
D16*
X87630000Y-93980000D03*
D17*
X87630000Y-91440000D03*
X87630000Y-92710000D03*
D16*
X113030000Y-93980000D03*
D17*
X113030000Y-91440000D03*
X113030000Y-92710000D03*
D16*
X113030000Y-101600000D03*
D17*
X113030000Y-104140000D03*
X113030000Y-102870000D03*
D18*
X111760000Y-109220000D03*
D19*
X114300000Y-109220000D03*
X113030000Y-109220000D03*
D11*
X77470000Y-111760000D03*
D12*
X80010000Y-111760000D03*
D11*
X64770000Y-71120000D03*
D12*
X67310000Y-71120000D03*
D11*
X106680000Y-109220000D03*
X106680000Y-106680000D03*
D12*
X106680000Y-104140000D03*
D20*
X93980000Y-111760000D03*
D21*
X83820000Y-111760000D03*
D22*
X123190000Y-95250000D03*
X123190000Y-107950000D03*
D23*
X63500000Y-99230000D02*
X63500000Y-100330000D01*
X63500000Y-82770000D02*
X63500000Y-99230000D01*
X63280000Y-82550000D02*
X63500000Y-82770000D01*
X62230000Y-82550000D02*
X63280000Y-82550000D01*
X128270000Y-111760000D02*
X127000000Y-110490000D01*
X127000000Y-92710000D02*
X128270000Y-91440000D01*
X127000000Y-110490000D02*
X127000000Y-92710000D01*
X127470001Y-90640001D02*
X128270000Y-91440000D01*
X127144999Y-90314999D02*
X127470001Y-90640001D01*
X103995001Y-90314999D02*
X127144999Y-90314999D01*
X102870000Y-91440000D02*
X103995001Y-90314999D01*
X102870000Y-91440000D02*
X101600000Y-90170000D01*
X72390000Y-90170000D02*
X69850000Y-87630000D01*
X101600000Y-90170000D02*
X72390000Y-90170000D01*
X68724999Y-90710001D02*
X77074998Y-99060000D01*
X69850000Y-85090000D02*
X68724999Y-86215001D01*
X68724999Y-86215001D02*
X68724999Y-90710001D01*
X91440000Y-99060000D02*
X93980000Y-101600000D01*
X77074998Y-99060000D02*
X91440000Y-99060000D01*
D24*
G36*
X129413000Y-70171931D02*
G01*
X129325134Y-70064866D01*
X129099014Y-69879294D01*
X128841034Y-69741401D01*
X128561111Y-69656487D01*
X128342950Y-69635000D01*
X128197050Y-69635000D01*
X127978889Y-69656487D01*
X127698966Y-69741401D01*
X127440986Y-69879294D01*
X127214866Y-70064866D01*
X127029294Y-70290986D01*
X127000000Y-70345791D01*
X126970706Y-70290986D01*
X126785134Y-70064866D01*
X126559014Y-69879294D01*
X126301034Y-69741401D01*
X126021111Y-69656487D01*
X125802950Y-69635000D01*
X125657050Y-69635000D01*
X125438889Y-69656487D01*
X125158966Y-69741401D01*
X124900986Y-69879294D01*
X124674866Y-70064866D01*
X124489294Y-70290986D01*
X124460000Y-70345791D01*
X124430706Y-70290986D01*
X124245134Y-70064866D01*
X124019014Y-69879294D01*
X123761034Y-69741401D01*
X123481111Y-69656487D01*
X123262950Y-69635000D01*
X123117050Y-69635000D01*
X122898889Y-69656487D01*
X122618966Y-69741401D01*
X122360986Y-69879294D01*
X122134866Y-70064866D01*
X121949294Y-70290986D01*
X121920000Y-70345791D01*
X121890706Y-70290986D01*
X121705134Y-70064866D01*
X121479014Y-69879294D01*
X121221034Y-69741401D01*
X120941111Y-69656487D01*
X120722950Y-69635000D01*
X120577050Y-69635000D01*
X120358889Y-69656487D01*
X120078966Y-69741401D01*
X119820986Y-69879294D01*
X119594866Y-70064866D01*
X119409294Y-70290986D01*
X119380000Y-70345791D01*
X119350706Y-70290986D01*
X119165134Y-70064866D01*
X118939014Y-69879294D01*
X118681034Y-69741401D01*
X118401111Y-69656487D01*
X118182950Y-69635000D01*
X118037050Y-69635000D01*
X117818889Y-69656487D01*
X117538966Y-69741401D01*
X117280986Y-69879294D01*
X117054866Y-70064866D01*
X116869294Y-70290986D01*
X116840000Y-70345791D01*
X116810706Y-70290986D01*
X116625134Y-70064866D01*
X116399014Y-69879294D01*
X116141034Y-69741401D01*
X115861111Y-69656487D01*
X115642950Y-69635000D01*
X115497050Y-69635000D01*
X115278889Y-69656487D01*
X114998966Y-69741401D01*
X114740986Y-69879294D01*
X114514866Y-70064866D01*
X114329294Y-70290986D01*
X114300000Y-70345791D01*
X114270706Y-70290986D01*
X114085134Y-70064866D01*
X113859014Y-69879294D01*
X113601034Y-69741401D01*
X113321111Y-69656487D01*
X113102950Y-69635000D01*
X112957050Y-69635000D01*
X112738889Y-69656487D01*
X112458966Y-69741401D01*
X112200986Y-69879294D01*
X111974866Y-70064866D01*
X111789294Y-70290986D01*
X111760000Y-70345791D01*
X111730706Y-70290986D01*
X111545134Y-70064866D01*
X111319014Y-69879294D01*
X111061034Y-69741401D01*
X110781111Y-69656487D01*
X110562950Y-69635000D01*
X110417050Y-69635000D01*
X110198889Y-69656487D01*
X109918966Y-69741401D01*
X109660986Y-69879294D01*
X109434866Y-70064866D01*
X109249294Y-70290986D01*
X109220000Y-70345791D01*
X109190706Y-70290986D01*
X109005134Y-70064866D01*
X108779014Y-69879294D01*
X108521034Y-69741401D01*
X108241111Y-69656487D01*
X108022950Y-69635000D01*
X107877050Y-69635000D01*
X107658889Y-69656487D01*
X107378966Y-69741401D01*
X107120986Y-69879294D01*
X106894866Y-70064866D01*
X106709294Y-70290986D01*
X106680000Y-70345791D01*
X106650706Y-70290986D01*
X106465134Y-70064866D01*
X106239014Y-69879294D01*
X105981034Y-69741401D01*
X105701111Y-69656487D01*
X105482950Y-69635000D01*
X105337050Y-69635000D01*
X105118889Y-69656487D01*
X104838966Y-69741401D01*
X104580986Y-69879294D01*
X104354866Y-70064866D01*
X104169294Y-70290986D01*
X104140000Y-70345791D01*
X104110706Y-70290986D01*
X103925134Y-70064866D01*
X103699014Y-69879294D01*
X103441034Y-69741401D01*
X103161111Y-69656487D01*
X102942950Y-69635000D01*
X102797050Y-69635000D01*
X102578889Y-69656487D01*
X102298966Y-69741401D01*
X102040986Y-69879294D01*
X101814866Y-70064866D01*
X101629294Y-70290986D01*
X101600000Y-70345791D01*
X101570706Y-70290986D01*
X101385134Y-70064866D01*
X101159014Y-69879294D01*
X100901034Y-69741401D01*
X100621111Y-69656487D01*
X100402950Y-69635000D01*
X100257050Y-69635000D01*
X100038889Y-69656487D01*
X99758966Y-69741401D01*
X99500986Y-69879294D01*
X99274866Y-70064866D01*
X99089294Y-70290986D01*
X99060000Y-70345791D01*
X99030706Y-70290986D01*
X98845134Y-70064866D01*
X98619014Y-69879294D01*
X98361034Y-69741401D01*
X98081111Y-69656487D01*
X97862950Y-69635000D01*
X97717050Y-69635000D01*
X97498889Y-69656487D01*
X97218966Y-69741401D01*
X96960986Y-69879294D01*
X96734866Y-70064866D01*
X96549294Y-70290986D01*
X96520000Y-70345791D01*
X96490706Y-70290986D01*
X96305134Y-70064866D01*
X96079014Y-69879294D01*
X95821034Y-69741401D01*
X95541111Y-69656487D01*
X95322950Y-69635000D01*
X95177050Y-69635000D01*
X94958889Y-69656487D01*
X94678966Y-69741401D01*
X94420986Y-69879294D01*
X94194866Y-70064866D01*
X94009294Y-70290986D01*
X93980000Y-70345791D01*
X93950706Y-70290986D01*
X93765134Y-70064866D01*
X93539014Y-69879294D01*
X93281034Y-69741401D01*
X93001111Y-69656487D01*
X92782950Y-69635000D01*
X92637050Y-69635000D01*
X92418889Y-69656487D01*
X92138966Y-69741401D01*
X91880986Y-69879294D01*
X91654866Y-70064866D01*
X91469294Y-70290986D01*
X91440000Y-70345791D01*
X91410706Y-70290986D01*
X91225134Y-70064866D01*
X90999014Y-69879294D01*
X90741034Y-69741401D01*
X90461111Y-69656487D01*
X90242950Y-69635000D01*
X90097050Y-69635000D01*
X89878889Y-69656487D01*
X89598966Y-69741401D01*
X89340986Y-69879294D01*
X89114866Y-70064866D01*
X88929294Y-70290986D01*
X88900000Y-70345791D01*
X88870706Y-70290986D01*
X88685134Y-70064866D01*
X88459014Y-69879294D01*
X88201034Y-69741401D01*
X87921111Y-69656487D01*
X87702950Y-69635000D01*
X87557050Y-69635000D01*
X87338889Y-69656487D01*
X87058966Y-69741401D01*
X86800986Y-69879294D01*
X86574866Y-70064866D01*
X86389294Y-70290986D01*
X86360000Y-70345791D01*
X86330706Y-70290986D01*
X86145134Y-70064866D01*
X85919014Y-69879294D01*
X85661034Y-69741401D01*
X85381111Y-69656487D01*
X85162950Y-69635000D01*
X85017050Y-69635000D01*
X84798889Y-69656487D01*
X84518966Y-69741401D01*
X84260986Y-69879294D01*
X84034866Y-70064866D01*
X83849294Y-70290986D01*
X83820000Y-70345791D01*
X83790706Y-70290986D01*
X83605134Y-70064866D01*
X83379014Y-69879294D01*
X83121034Y-69741401D01*
X82841111Y-69656487D01*
X82622950Y-69635000D01*
X82477050Y-69635000D01*
X82258889Y-69656487D01*
X81978966Y-69741401D01*
X81720986Y-69879294D01*
X81494866Y-70064866D01*
X81309294Y-70290986D01*
X81280000Y-70345791D01*
X81250706Y-70290986D01*
X81065134Y-70064866D01*
X80839014Y-69879294D01*
X80581034Y-69741401D01*
X80301111Y-69656487D01*
X80082950Y-69635000D01*
X79937050Y-69635000D01*
X79718889Y-69656487D01*
X79438966Y-69741401D01*
X79180986Y-69879294D01*
X78954866Y-70064866D01*
X78769294Y-70290986D01*
X78631401Y-70548966D01*
X78546487Y-70828889D01*
X78517815Y-71120000D01*
X78546487Y-71411111D01*
X78631401Y-71691034D01*
X78769294Y-71949014D01*
X78954866Y-72175134D01*
X79180986Y-72360706D01*
X79235791Y-72390000D01*
X79180986Y-72419294D01*
X78954866Y-72604866D01*
X78769294Y-72830986D01*
X78631401Y-73088966D01*
X78546487Y-73368889D01*
X78517815Y-73660000D01*
X78546487Y-73951111D01*
X78631401Y-74231034D01*
X78769294Y-74489014D01*
X78954866Y-74715134D01*
X79180986Y-74900706D01*
X79438966Y-75038599D01*
X79718889Y-75123513D01*
X79937050Y-75145000D01*
X80082950Y-75145000D01*
X80301111Y-75123513D01*
X80581034Y-75038599D01*
X80839014Y-74900706D01*
X81065134Y-74715134D01*
X81250706Y-74489014D01*
X81280000Y-74434209D01*
X81309294Y-74489014D01*
X81494866Y-74715134D01*
X81720986Y-74900706D01*
X81978966Y-75038599D01*
X82258889Y-75123513D01*
X82477050Y-75145000D01*
X82622950Y-75145000D01*
X82841111Y-75123513D01*
X83121034Y-75038599D01*
X83379014Y-74900706D01*
X83605134Y-74715134D01*
X83790706Y-74489014D01*
X83820000Y-74434209D01*
X83849294Y-74489014D01*
X84034866Y-74715134D01*
X84260986Y-74900706D01*
X84518966Y-75038599D01*
X84798889Y-75123513D01*
X85017050Y-75145000D01*
X85162950Y-75145000D01*
X85381111Y-75123513D01*
X85661034Y-75038599D01*
X85919014Y-74900706D01*
X86145134Y-74715134D01*
X86330706Y-74489014D01*
X86360000Y-74434209D01*
X86389294Y-74489014D01*
X86574866Y-74715134D01*
X86800986Y-74900706D01*
X87058966Y-75038599D01*
X87338889Y-75123513D01*
X87557050Y-75145000D01*
X87702950Y-75145000D01*
X87921111Y-75123513D01*
X88201034Y-75038599D01*
X88459014Y-74900706D01*
X88685134Y-74715134D01*
X88870706Y-74489014D01*
X88900000Y-74434209D01*
X88929294Y-74489014D01*
X89114866Y-74715134D01*
X89340986Y-74900706D01*
X89598966Y-75038599D01*
X89878889Y-75123513D01*
X90097050Y-75145000D01*
X90242950Y-75145000D01*
X90461111Y-75123513D01*
X90741034Y-75038599D01*
X90999014Y-74900706D01*
X91225134Y-74715134D01*
X91410706Y-74489014D01*
X91440000Y-74434209D01*
X91469294Y-74489014D01*
X91654866Y-74715134D01*
X91880986Y-74900706D01*
X92138966Y-75038599D01*
X92418889Y-75123513D01*
X92637050Y-75145000D01*
X92782950Y-75145000D01*
X93001111Y-75123513D01*
X93281034Y-75038599D01*
X93539014Y-74900706D01*
X93765134Y-74715134D01*
X93950706Y-74489014D01*
X93980000Y-74434209D01*
X94009294Y-74489014D01*
X94194866Y-74715134D01*
X94420986Y-74900706D01*
X94678966Y-75038599D01*
X94958889Y-75123513D01*
X95177050Y-75145000D01*
X95322950Y-75145000D01*
X95541111Y-75123513D01*
X95821034Y-75038599D01*
X96079014Y-74900706D01*
X96305134Y-74715134D01*
X96490706Y-74489014D01*
X96520000Y-74434209D01*
X96549294Y-74489014D01*
X96734866Y-74715134D01*
X96960986Y-74900706D01*
X97218966Y-75038599D01*
X97498889Y-75123513D01*
X97717050Y-75145000D01*
X97862950Y-75145000D01*
X98081111Y-75123513D01*
X98361034Y-75038599D01*
X98619014Y-74900706D01*
X98845134Y-74715134D01*
X99030706Y-74489014D01*
X99060000Y-74434209D01*
X99089294Y-74489014D01*
X99274866Y-74715134D01*
X99500986Y-74900706D01*
X99758966Y-75038599D01*
X100038889Y-75123513D01*
X100257050Y-75145000D01*
X100402950Y-75145000D01*
X100621111Y-75123513D01*
X100901034Y-75038599D01*
X101159014Y-74900706D01*
X101385134Y-74715134D01*
X101570706Y-74489014D01*
X101600000Y-74434209D01*
X101629294Y-74489014D01*
X101814866Y-74715134D01*
X102040986Y-74900706D01*
X102298966Y-75038599D01*
X102578889Y-75123513D01*
X102797050Y-75145000D01*
X102942950Y-75145000D01*
X103161111Y-75123513D01*
X103441034Y-75038599D01*
X103699014Y-74900706D01*
X103925134Y-74715134D01*
X104110706Y-74489014D01*
X104140000Y-74434209D01*
X104169294Y-74489014D01*
X104354866Y-74715134D01*
X104580986Y-74900706D01*
X104838966Y-75038599D01*
X105118889Y-75123513D01*
X105337050Y-75145000D01*
X105482950Y-75145000D01*
X105701111Y-75123513D01*
X105981034Y-75038599D01*
X106239014Y-74900706D01*
X106465134Y-74715134D01*
X106650706Y-74489014D01*
X106680000Y-74434209D01*
X106709294Y-74489014D01*
X106894866Y-74715134D01*
X107120986Y-74900706D01*
X107378966Y-75038599D01*
X107658889Y-75123513D01*
X107877050Y-75145000D01*
X108022950Y-75145000D01*
X108241111Y-75123513D01*
X108521034Y-75038599D01*
X108779014Y-74900706D01*
X109005134Y-74715134D01*
X109190706Y-74489014D01*
X109220000Y-74434209D01*
X109249294Y-74489014D01*
X109434866Y-74715134D01*
X109660986Y-74900706D01*
X109918966Y-75038599D01*
X110198889Y-75123513D01*
X110417050Y-75145000D01*
X110562950Y-75145000D01*
X110781111Y-75123513D01*
X111061034Y-75038599D01*
X111319014Y-74900706D01*
X111545134Y-74715134D01*
X111730706Y-74489014D01*
X111760000Y-74434209D01*
X111789294Y-74489014D01*
X111974866Y-74715134D01*
X112200986Y-74900706D01*
X112458966Y-75038599D01*
X112738889Y-75123513D01*
X112957050Y-75145000D01*
X113102950Y-75145000D01*
X113321111Y-75123513D01*
X113601034Y-75038599D01*
X113859014Y-74900706D01*
X114085134Y-74715134D01*
X114270706Y-74489014D01*
X114300000Y-74434209D01*
X114329294Y-74489014D01*
X114514866Y-74715134D01*
X114740986Y-74900706D01*
X114998966Y-75038599D01*
X115278889Y-75123513D01*
X115497050Y-75145000D01*
X115642950Y-75145000D01*
X115861111Y-75123513D01*
X116141034Y-75038599D01*
X116399014Y-74900706D01*
X116625134Y-74715134D01*
X116810706Y-74489014D01*
X116840000Y-74434209D01*
X116869294Y-74489014D01*
X117054866Y-74715134D01*
X117280986Y-74900706D01*
X117538966Y-75038599D01*
X117818889Y-75123513D01*
X118037050Y-75145000D01*
X118182950Y-75145000D01*
X118401111Y-75123513D01*
X118681034Y-75038599D01*
X118939014Y-74900706D01*
X119165134Y-74715134D01*
X119350706Y-74489014D01*
X119380000Y-74434209D01*
X119409294Y-74489014D01*
X119594866Y-74715134D01*
X119820986Y-74900706D01*
X120078966Y-75038599D01*
X120358889Y-75123513D01*
X120577050Y-75145000D01*
X120722950Y-75145000D01*
X120941111Y-75123513D01*
X121221034Y-75038599D01*
X121479014Y-74900706D01*
X121705134Y-74715134D01*
X121890706Y-74489014D01*
X121920000Y-74434209D01*
X121949294Y-74489014D01*
X122134866Y-74715134D01*
X122360986Y-74900706D01*
X122618966Y-75038599D01*
X122898889Y-75123513D01*
X123117050Y-75145000D01*
X123262950Y-75145000D01*
X123481111Y-75123513D01*
X123761034Y-75038599D01*
X124019014Y-74900706D01*
X124245134Y-74715134D01*
X124430706Y-74489014D01*
X124460000Y-74434209D01*
X124489294Y-74489014D01*
X124674866Y-74715134D01*
X124900986Y-74900706D01*
X125158966Y-75038599D01*
X125438889Y-75123513D01*
X125657050Y-75145000D01*
X125802950Y-75145000D01*
X126021111Y-75123513D01*
X126301034Y-75038599D01*
X126559014Y-74900706D01*
X126785134Y-74715134D01*
X126809607Y-74685313D01*
X126830498Y-74754180D01*
X126889463Y-74864494D01*
X126968815Y-74961185D01*
X127065506Y-75040537D01*
X127175820Y-75099502D01*
X127295518Y-75135812D01*
X127420000Y-75148072D01*
X129120000Y-75148072D01*
X129244482Y-75135812D01*
X129364180Y-75099502D01*
X129413000Y-75073407D01*
X129413000Y-76597689D01*
X129384637Y-76555241D01*
X129184759Y-76355363D01*
X128949727Y-76198320D01*
X128688574Y-76090147D01*
X128411335Y-76035000D01*
X128128665Y-76035000D01*
X127851426Y-76090147D01*
X127590273Y-76198320D01*
X127355241Y-76355363D01*
X127155363Y-76555241D01*
X127000000Y-76787759D01*
X126844637Y-76555241D01*
X126644759Y-76355363D01*
X126409727Y-76198320D01*
X126148574Y-76090147D01*
X125871335Y-76035000D01*
X125588665Y-76035000D01*
X125311426Y-76090147D01*
X125050273Y-76198320D01*
X124815241Y-76355363D01*
X124615363Y-76555241D01*
X124460000Y-76787759D01*
X124304637Y-76555241D01*
X124104759Y-76355363D01*
X123869727Y-76198320D01*
X123608574Y-76090147D01*
X123331335Y-76035000D01*
X123048665Y-76035000D01*
X122771426Y-76090147D01*
X122510273Y-76198320D01*
X122275241Y-76355363D01*
X122075363Y-76555241D01*
X121920000Y-76787759D01*
X121764637Y-76555241D01*
X121564759Y-76355363D01*
X121329727Y-76198320D01*
X121068574Y-76090147D01*
X120791335Y-76035000D01*
X120508665Y-76035000D01*
X120231426Y-76090147D01*
X119970273Y-76198320D01*
X119735241Y-76355363D01*
X119535363Y-76555241D01*
X119380000Y-76787759D01*
X119224637Y-76555241D01*
X119024759Y-76355363D01*
X118789727Y-76198320D01*
X118528574Y-76090147D01*
X118251335Y-76035000D01*
X117968665Y-76035000D01*
X117691426Y-76090147D01*
X117430273Y-76198320D01*
X117195241Y-76355363D01*
X116995363Y-76555241D01*
X116840000Y-76787759D01*
X116684637Y-76555241D01*
X116484759Y-76355363D01*
X116249727Y-76198320D01*
X115988574Y-76090147D01*
X115711335Y-76035000D01*
X115428665Y-76035000D01*
X115151426Y-76090147D01*
X114890273Y-76198320D01*
X114655241Y-76355363D01*
X114455363Y-76555241D01*
X114300000Y-76787759D01*
X114144637Y-76555241D01*
X113944759Y-76355363D01*
X113709727Y-76198320D01*
X113448574Y-76090147D01*
X113171335Y-76035000D01*
X112888665Y-76035000D01*
X112611426Y-76090147D01*
X112350273Y-76198320D01*
X112115241Y-76355363D01*
X111915363Y-76555241D01*
X111760000Y-76787759D01*
X111604637Y-76555241D01*
X111404759Y-76355363D01*
X111169727Y-76198320D01*
X110908574Y-76090147D01*
X110631335Y-76035000D01*
X110348665Y-76035000D01*
X110071426Y-76090147D01*
X109810273Y-76198320D01*
X109575241Y-76355363D01*
X109375363Y-76555241D01*
X109220000Y-76787759D01*
X109064637Y-76555241D01*
X108864759Y-76355363D01*
X108629727Y-76198320D01*
X108368574Y-76090147D01*
X108091335Y-76035000D01*
X107808665Y-76035000D01*
X107531426Y-76090147D01*
X107270273Y-76198320D01*
X107035241Y-76355363D01*
X106835363Y-76555241D01*
X106680000Y-76787759D01*
X106524637Y-76555241D01*
X106324759Y-76355363D01*
X106089727Y-76198320D01*
X105828574Y-76090147D01*
X105551335Y-76035000D01*
X105268665Y-76035000D01*
X104991426Y-76090147D01*
X104730273Y-76198320D01*
X104495241Y-76355363D01*
X104295363Y-76555241D01*
X104140000Y-76787759D01*
X103984637Y-76555241D01*
X103784759Y-76355363D01*
X103549727Y-76198320D01*
X103288574Y-76090147D01*
X103011335Y-76035000D01*
X102728665Y-76035000D01*
X102451426Y-76090147D01*
X102190273Y-76198320D01*
X101955241Y-76355363D01*
X101755363Y-76555241D01*
X101600000Y-76787759D01*
X101444637Y-76555241D01*
X101244759Y-76355363D01*
X101009727Y-76198320D01*
X100748574Y-76090147D01*
X100471335Y-76035000D01*
X100188665Y-76035000D01*
X99911426Y-76090147D01*
X99650273Y-76198320D01*
X99415241Y-76355363D01*
X99215363Y-76555241D01*
X99060000Y-76787759D01*
X98904637Y-76555241D01*
X98704759Y-76355363D01*
X98469727Y-76198320D01*
X98208574Y-76090147D01*
X97931335Y-76035000D01*
X97648665Y-76035000D01*
X97371426Y-76090147D01*
X97110273Y-76198320D01*
X96875241Y-76355363D01*
X96675363Y-76555241D01*
X96520000Y-76787759D01*
X96364637Y-76555241D01*
X96164759Y-76355363D01*
X95929727Y-76198320D01*
X95668574Y-76090147D01*
X95391335Y-76035000D01*
X95108665Y-76035000D01*
X94831426Y-76090147D01*
X94570273Y-76198320D01*
X94335241Y-76355363D01*
X94135363Y-76555241D01*
X93980000Y-76787759D01*
X93824637Y-76555241D01*
X93624759Y-76355363D01*
X93389727Y-76198320D01*
X93128574Y-76090147D01*
X92851335Y-76035000D01*
X92568665Y-76035000D01*
X92291426Y-76090147D01*
X92030273Y-76198320D01*
X91795241Y-76355363D01*
X91595363Y-76555241D01*
X91440000Y-76787759D01*
X91284637Y-76555241D01*
X91084759Y-76355363D01*
X90849727Y-76198320D01*
X90588574Y-76090147D01*
X90311335Y-76035000D01*
X90028665Y-76035000D01*
X89751426Y-76090147D01*
X89490273Y-76198320D01*
X89255241Y-76355363D01*
X89055363Y-76555241D01*
X88900000Y-76787759D01*
X88744637Y-76555241D01*
X88544759Y-76355363D01*
X88309727Y-76198320D01*
X88048574Y-76090147D01*
X87771335Y-76035000D01*
X87488665Y-76035000D01*
X87211426Y-76090147D01*
X86950273Y-76198320D01*
X86715241Y-76355363D01*
X86515363Y-76555241D01*
X86360000Y-76787759D01*
X86204637Y-76555241D01*
X86004759Y-76355363D01*
X85769727Y-76198320D01*
X85508574Y-76090147D01*
X85231335Y-76035000D01*
X84948665Y-76035000D01*
X84671426Y-76090147D01*
X84410273Y-76198320D01*
X84175241Y-76355363D01*
X83975363Y-76555241D01*
X83820000Y-76787759D01*
X83664637Y-76555241D01*
X83464759Y-76355363D01*
X83229727Y-76198320D01*
X82968574Y-76090147D01*
X82691335Y-76035000D01*
X82408665Y-76035000D01*
X82131426Y-76090147D01*
X81870273Y-76198320D01*
X81635241Y-76355363D01*
X81435363Y-76555241D01*
X81280000Y-76787759D01*
X81124637Y-76555241D01*
X80924759Y-76355363D01*
X80689727Y-76198320D01*
X80428574Y-76090147D01*
X80151335Y-76035000D01*
X79868665Y-76035000D01*
X79591426Y-76090147D01*
X79330273Y-76198320D01*
X79095241Y-76355363D01*
X78895363Y-76555241D01*
X78738320Y-76790273D01*
X78630147Y-77051426D01*
X78575000Y-77328665D01*
X78575000Y-77611335D01*
X78630147Y-77888574D01*
X78738320Y-78149727D01*
X78895363Y-78384759D01*
X79095241Y-78584637D01*
X79330273Y-78741680D01*
X79591426Y-78849853D01*
X79868665Y-78905000D01*
X80151335Y-78905000D01*
X80428574Y-78849853D01*
X80689727Y-78741680D01*
X80924759Y-78584637D01*
X81124637Y-78384759D01*
X81280000Y-78152241D01*
X81435363Y-78384759D01*
X81635241Y-78584637D01*
X81870273Y-78741680D01*
X82131426Y-78849853D01*
X82408665Y-78905000D01*
X82691335Y-78905000D01*
X82968574Y-78849853D01*
X83229727Y-78741680D01*
X83464759Y-78584637D01*
X83664637Y-78384759D01*
X83820000Y-78152241D01*
X83975363Y-78384759D01*
X84175241Y-78584637D01*
X84410273Y-78741680D01*
X84671426Y-78849853D01*
X84948665Y-78905000D01*
X85231335Y-78905000D01*
X85508574Y-78849853D01*
X85769727Y-78741680D01*
X86004759Y-78584637D01*
X86204637Y-78384759D01*
X86360000Y-78152241D01*
X86515363Y-78384759D01*
X86715241Y-78584637D01*
X86950273Y-78741680D01*
X87211426Y-78849853D01*
X87488665Y-78905000D01*
X87771335Y-78905000D01*
X88048574Y-78849853D01*
X88309727Y-78741680D01*
X88544759Y-78584637D01*
X88744637Y-78384759D01*
X88900000Y-78152241D01*
X89055363Y-78384759D01*
X89255241Y-78584637D01*
X89490273Y-78741680D01*
X89751426Y-78849853D01*
X90028665Y-78905000D01*
X90311335Y-78905000D01*
X90588574Y-78849853D01*
X90849727Y-78741680D01*
X91084759Y-78584637D01*
X91284637Y-78384759D01*
X91440000Y-78152241D01*
X91595363Y-78384759D01*
X91795241Y-78584637D01*
X92030273Y-78741680D01*
X92291426Y-78849853D01*
X92568665Y-78905000D01*
X92851335Y-78905000D01*
X93128574Y-78849853D01*
X93389727Y-78741680D01*
X93624759Y-78584637D01*
X93824637Y-78384759D01*
X93980000Y-78152241D01*
X94135363Y-78384759D01*
X94335241Y-78584637D01*
X94570273Y-78741680D01*
X94831426Y-78849853D01*
X95108665Y-78905000D01*
X95391335Y-78905000D01*
X95668574Y-78849853D01*
X95929727Y-78741680D01*
X96164759Y-78584637D01*
X96364637Y-78384759D01*
X96520000Y-78152241D01*
X96675363Y-78384759D01*
X96875241Y-78584637D01*
X97110273Y-78741680D01*
X97371426Y-78849853D01*
X97648665Y-78905000D01*
X97931335Y-78905000D01*
X98208574Y-78849853D01*
X98469727Y-78741680D01*
X98704759Y-78584637D01*
X98904637Y-78384759D01*
X99060000Y-78152241D01*
X99215363Y-78384759D01*
X99415241Y-78584637D01*
X99650273Y-78741680D01*
X99911426Y-78849853D01*
X100188665Y-78905000D01*
X100471335Y-78905000D01*
X100748574Y-78849853D01*
X101009727Y-78741680D01*
X101244759Y-78584637D01*
X101444637Y-78384759D01*
X101600000Y-78152241D01*
X101755363Y-78384759D01*
X101955241Y-78584637D01*
X102190273Y-78741680D01*
X102451426Y-78849853D01*
X102728665Y-78905000D01*
X103011335Y-78905000D01*
X103288574Y-78849853D01*
X103549727Y-78741680D01*
X103784759Y-78584637D01*
X103984637Y-78384759D01*
X104140000Y-78152241D01*
X104295363Y-78384759D01*
X104495241Y-78584637D01*
X104730273Y-78741680D01*
X104991426Y-78849853D01*
X105268665Y-78905000D01*
X105551335Y-78905000D01*
X105828574Y-78849853D01*
X106089727Y-78741680D01*
X106324759Y-78584637D01*
X106524637Y-78384759D01*
X106680000Y-78152241D01*
X106835363Y-78384759D01*
X107035241Y-78584637D01*
X107270273Y-78741680D01*
X107531426Y-78849853D01*
X107808665Y-78905000D01*
X108091335Y-78905000D01*
X108368574Y-78849853D01*
X108629727Y-78741680D01*
X108864759Y-78584637D01*
X109064637Y-78384759D01*
X109220000Y-78152241D01*
X109375363Y-78384759D01*
X109575241Y-78584637D01*
X109810273Y-78741680D01*
X110071426Y-78849853D01*
X110348665Y-78905000D01*
X110631335Y-78905000D01*
X110908574Y-78849853D01*
X111169727Y-78741680D01*
X111404759Y-78584637D01*
X111604637Y-78384759D01*
X111760000Y-78152241D01*
X111915363Y-78384759D01*
X112115241Y-78584637D01*
X112350273Y-78741680D01*
X112611426Y-78849853D01*
X112888665Y-78905000D01*
X113171335Y-78905000D01*
X113448574Y-78849853D01*
X113709727Y-78741680D01*
X113944759Y-78584637D01*
X114144637Y-78384759D01*
X114300000Y-78152241D01*
X114455363Y-78384759D01*
X114655241Y-78584637D01*
X114890273Y-78741680D01*
X115151426Y-78849853D01*
X115428665Y-78905000D01*
X115711335Y-78905000D01*
X115988574Y-78849853D01*
X116249727Y-78741680D01*
X116484759Y-78584637D01*
X116684637Y-78384759D01*
X116840000Y-78152241D01*
X116995363Y-78384759D01*
X117195241Y-78584637D01*
X117430273Y-78741680D01*
X117691426Y-78849853D01*
X117968665Y-78905000D01*
X118251335Y-78905000D01*
X118528574Y-78849853D01*
X118789727Y-78741680D01*
X119024759Y-78584637D01*
X119224637Y-78384759D01*
X119380000Y-78152241D01*
X119535363Y-78384759D01*
X119735241Y-78584637D01*
X119970273Y-78741680D01*
X120231426Y-78849853D01*
X120508665Y-78905000D01*
X120791335Y-78905000D01*
X121068574Y-78849853D01*
X121329727Y-78741680D01*
X121564759Y-78584637D01*
X121764637Y-78384759D01*
X121920000Y-78152241D01*
X122075363Y-78384759D01*
X122275241Y-78584637D01*
X122510273Y-78741680D01*
X122771426Y-78849853D01*
X123048665Y-78905000D01*
X123331335Y-78905000D01*
X123608574Y-78849853D01*
X123869727Y-78741680D01*
X124104759Y-78584637D01*
X124304637Y-78384759D01*
X124460000Y-78152241D01*
X124615363Y-78384759D01*
X124815241Y-78584637D01*
X125050273Y-78741680D01*
X125311426Y-78849853D01*
X125588665Y-78905000D01*
X125871335Y-78905000D01*
X126148574Y-78849853D01*
X126409727Y-78741680D01*
X126644759Y-78584637D01*
X126844637Y-78384759D01*
X127000000Y-78152241D01*
X127155363Y-78384759D01*
X127355241Y-78584637D01*
X127590273Y-78741680D01*
X127851426Y-78849853D01*
X128128665Y-78905000D01*
X128411335Y-78905000D01*
X128688574Y-78849853D01*
X128949727Y-78741680D01*
X129184759Y-78584637D01*
X129384637Y-78384759D01*
X129413000Y-78342311D01*
X129413000Y-86760746D01*
X129289608Y-86610392D01*
X129071101Y-86431068D01*
X128821808Y-86297818D01*
X128551309Y-86215764D01*
X128340492Y-86195000D01*
X128199508Y-86195000D01*
X127988691Y-86215764D01*
X127718192Y-86297818D01*
X127468899Y-86431068D01*
X127250392Y-86610392D01*
X127071068Y-86828899D01*
X127000000Y-86961858D01*
X126928932Y-86828899D01*
X126749608Y-86610392D01*
X126531101Y-86431068D01*
X126281808Y-86297818D01*
X126011309Y-86215764D01*
X125800492Y-86195000D01*
X125659508Y-86195000D01*
X125448691Y-86215764D01*
X125178192Y-86297818D01*
X124928899Y-86431068D01*
X124710392Y-86610392D01*
X124531068Y-86828899D01*
X124460000Y-86961858D01*
X124388932Y-86828899D01*
X124209608Y-86610392D01*
X123991101Y-86431068D01*
X123741808Y-86297818D01*
X123471309Y-86215764D01*
X123260492Y-86195000D01*
X123119508Y-86195000D01*
X122908691Y-86215764D01*
X122638192Y-86297818D01*
X122388899Y-86431068D01*
X122170392Y-86610392D01*
X121991068Y-86828899D01*
X121920000Y-86961858D01*
X121848932Y-86828899D01*
X121669608Y-86610392D01*
X121451101Y-86431068D01*
X121201808Y-86297818D01*
X120931309Y-86215764D01*
X120720492Y-86195000D01*
X120579508Y-86195000D01*
X120368691Y-86215764D01*
X120098192Y-86297818D01*
X119848899Y-86431068D01*
X119630392Y-86610392D01*
X119451068Y-86828899D01*
X119380000Y-86961858D01*
X119308932Y-86828899D01*
X119129608Y-86610392D01*
X118911101Y-86431068D01*
X118661808Y-86297818D01*
X118391309Y-86215764D01*
X118180492Y-86195000D01*
X118039508Y-86195000D01*
X117828691Y-86215764D01*
X117558192Y-86297818D01*
X117308899Y-86431068D01*
X117090392Y-86610392D01*
X116911068Y-86828899D01*
X116840000Y-86961858D01*
X116768932Y-86828899D01*
X116589608Y-86610392D01*
X116371101Y-86431068D01*
X116121808Y-86297818D01*
X115851309Y-86215764D01*
X115640492Y-86195000D01*
X115499508Y-86195000D01*
X115288691Y-86215764D01*
X115018192Y-86297818D01*
X114768899Y-86431068D01*
X114550392Y-86610392D01*
X114371068Y-86828899D01*
X114300000Y-86961858D01*
X114228932Y-86828899D01*
X114049608Y-86610392D01*
X113831101Y-86431068D01*
X113581808Y-86297818D01*
X113311309Y-86215764D01*
X113100492Y-86195000D01*
X112959508Y-86195000D01*
X112748691Y-86215764D01*
X112478192Y-86297818D01*
X112228899Y-86431068D01*
X112010392Y-86610392D01*
X111831068Y-86828899D01*
X111760000Y-86961858D01*
X111688932Y-86828899D01*
X111509608Y-86610392D01*
X111291101Y-86431068D01*
X111041808Y-86297818D01*
X110771309Y-86215764D01*
X110560492Y-86195000D01*
X110419508Y-86195000D01*
X110208691Y-86215764D01*
X109938192Y-86297818D01*
X109688899Y-86431068D01*
X109470392Y-86610392D01*
X109291068Y-86828899D01*
X109220000Y-86961858D01*
X109148932Y-86828899D01*
X108969608Y-86610392D01*
X108751101Y-86431068D01*
X108501808Y-86297818D01*
X108231309Y-86215764D01*
X108020492Y-86195000D01*
X107879508Y-86195000D01*
X107668691Y-86215764D01*
X107398192Y-86297818D01*
X107148899Y-86431068D01*
X106930392Y-86610392D01*
X106751068Y-86828899D01*
X106680000Y-86961858D01*
X106608932Y-86828899D01*
X106429608Y-86610392D01*
X106211101Y-86431068D01*
X105961808Y-86297818D01*
X105691309Y-86215764D01*
X105480492Y-86195000D01*
X105339508Y-86195000D01*
X105128691Y-86215764D01*
X104858192Y-86297818D01*
X104608899Y-86431068D01*
X104390392Y-86610392D01*
X104211068Y-86828899D01*
X104140000Y-86961858D01*
X104068932Y-86828899D01*
X103889608Y-86610392D01*
X103671101Y-86431068D01*
X103421808Y-86297818D01*
X103151309Y-86215764D01*
X102940492Y-86195000D01*
X102799508Y-86195000D01*
X102588691Y-86215764D01*
X102318192Y-86297818D01*
X102068899Y-86431068D01*
X101850392Y-86610392D01*
X101671068Y-86828899D01*
X101600000Y-86961858D01*
X101528932Y-86828899D01*
X101349608Y-86610392D01*
X101131101Y-86431068D01*
X100881808Y-86297818D01*
X100611309Y-86215764D01*
X100400492Y-86195000D01*
X100259508Y-86195000D01*
X100048691Y-86215764D01*
X99778192Y-86297818D01*
X99528899Y-86431068D01*
X99310392Y-86610392D01*
X99131068Y-86828899D01*
X99060000Y-86961858D01*
X98988932Y-86828899D01*
X98809608Y-86610392D01*
X98591101Y-86431068D01*
X98341808Y-86297818D01*
X98071309Y-86215764D01*
X97860492Y-86195000D01*
X97719508Y-86195000D01*
X97508691Y-86215764D01*
X97238192Y-86297818D01*
X96988899Y-86431068D01*
X96770392Y-86610392D01*
X96591068Y-86828899D01*
X96520000Y-86961858D01*
X96448932Y-86828899D01*
X96269608Y-86610392D01*
X96051101Y-86431068D01*
X95801808Y-86297818D01*
X95531309Y-86215764D01*
X95320492Y-86195000D01*
X95179508Y-86195000D01*
X94968691Y-86215764D01*
X94698192Y-86297818D01*
X94448899Y-86431068D01*
X94230392Y-86610392D01*
X94051068Y-86828899D01*
X93980000Y-86961858D01*
X93908932Y-86828899D01*
X93729608Y-86610392D01*
X93511101Y-86431068D01*
X93261808Y-86297818D01*
X92991309Y-86215764D01*
X92780492Y-86195000D01*
X92639508Y-86195000D01*
X92428691Y-86215764D01*
X92158192Y-86297818D01*
X91908899Y-86431068D01*
X91690392Y-86610392D01*
X91511068Y-86828899D01*
X91440000Y-86961858D01*
X91368932Y-86828899D01*
X91189608Y-86610392D01*
X90971101Y-86431068D01*
X90721808Y-86297818D01*
X90451309Y-86215764D01*
X90240492Y-86195000D01*
X90099508Y-86195000D01*
X89888691Y-86215764D01*
X89618192Y-86297818D01*
X89368899Y-86431068D01*
X89150392Y-86610392D01*
X88971068Y-86828899D01*
X88900000Y-86961858D01*
X88828932Y-86828899D01*
X88649608Y-86610392D01*
X88431101Y-86431068D01*
X88181808Y-86297818D01*
X87911309Y-86215764D01*
X87700492Y-86195000D01*
X87559508Y-86195000D01*
X87348691Y-86215764D01*
X87078192Y-86297818D01*
X86828899Y-86431068D01*
X86610392Y-86610392D01*
X86431068Y-86828899D01*
X86360000Y-86961858D01*
X86288932Y-86828899D01*
X86109608Y-86610392D01*
X85891101Y-86431068D01*
X85641808Y-86297818D01*
X85371309Y-86215764D01*
X85160492Y-86195000D01*
X85019508Y-86195000D01*
X84808691Y-86215764D01*
X84538192Y-86297818D01*
X84288899Y-86431068D01*
X84070392Y-86610392D01*
X83891068Y-86828899D01*
X83820000Y-86961858D01*
X83748932Y-86828899D01*
X83569608Y-86610392D01*
X83351101Y-86431068D01*
X83101808Y-86297818D01*
X82831309Y-86215764D01*
X82620492Y-86195000D01*
X82479508Y-86195000D01*
X82268691Y-86215764D01*
X81998192Y-86297818D01*
X81748899Y-86431068D01*
X81530392Y-86610392D01*
X81351068Y-86828899D01*
X81280000Y-86961858D01*
X81208932Y-86828899D01*
X81029608Y-86610392D01*
X80811101Y-86431068D01*
X80561808Y-86297818D01*
X80291309Y-86215764D01*
X80080492Y-86195000D01*
X79939508Y-86195000D01*
X79728691Y-86215764D01*
X79458192Y-86297818D01*
X79208899Y-86431068D01*
X78990392Y-86610392D01*
X78811068Y-86828899D01*
X78677818Y-87078192D01*
X78595764Y-87348691D01*
X78568057Y-87630000D01*
X78595764Y-87911309D01*
X78677818Y-88181808D01*
X78811068Y-88431101D01*
X78990392Y-88649608D01*
X79208899Y-88828932D01*
X79458192Y-88962182D01*
X79728691Y-89044236D01*
X79939508Y-89065000D01*
X80080492Y-89065000D01*
X80291309Y-89044236D01*
X80561808Y-88962182D01*
X80811101Y-88828932D01*
X81029608Y-88649608D01*
X81208932Y-88431101D01*
X81280000Y-88298142D01*
X81351068Y-88431101D01*
X81530392Y-88649608D01*
X81748899Y-88828932D01*
X81998192Y-88962182D01*
X82268691Y-89044236D01*
X82479508Y-89065000D01*
X82620492Y-89065000D01*
X82831309Y-89044236D01*
X83101808Y-88962182D01*
X83351101Y-88828932D01*
X83569608Y-88649608D01*
X83748932Y-88431101D01*
X83820000Y-88298142D01*
X83891068Y-88431101D01*
X84070392Y-88649608D01*
X84288899Y-88828932D01*
X84538192Y-88962182D01*
X84808691Y-89044236D01*
X85019508Y-89065000D01*
X85160492Y-89065000D01*
X85371309Y-89044236D01*
X85641808Y-88962182D01*
X85891101Y-88828932D01*
X86109608Y-88649608D01*
X86288932Y-88431101D01*
X86360000Y-88298142D01*
X86431068Y-88431101D01*
X86610392Y-88649608D01*
X86828899Y-88828932D01*
X87078192Y-88962182D01*
X87348691Y-89044236D01*
X87559508Y-89065000D01*
X87700492Y-89065000D01*
X87911309Y-89044236D01*
X88181808Y-88962182D01*
X88431101Y-88828932D01*
X88649608Y-88649608D01*
X88828932Y-88431101D01*
X88900000Y-88298142D01*
X88971068Y-88431101D01*
X89150392Y-88649608D01*
X89368899Y-88828932D01*
X89618192Y-88962182D01*
X89888691Y-89044236D01*
X90099508Y-89065000D01*
X90240492Y-89065000D01*
X90451309Y-89044236D01*
X90721808Y-88962182D01*
X90971101Y-88828932D01*
X91189608Y-88649608D01*
X91368932Y-88431101D01*
X91440000Y-88298142D01*
X91511068Y-88431101D01*
X91690392Y-88649608D01*
X91908899Y-88828932D01*
X92158192Y-88962182D01*
X92428691Y-89044236D01*
X92639508Y-89065000D01*
X92780492Y-89065000D01*
X92991309Y-89044236D01*
X93261808Y-88962182D01*
X93511101Y-88828932D01*
X93729608Y-88649608D01*
X93908932Y-88431101D01*
X93980000Y-88298142D01*
X94051068Y-88431101D01*
X94230392Y-88649608D01*
X94448899Y-88828932D01*
X94698192Y-88962182D01*
X94968691Y-89044236D01*
X95179508Y-89065000D01*
X95320492Y-89065000D01*
X95531309Y-89044236D01*
X95801808Y-88962182D01*
X96051101Y-88828932D01*
X96269608Y-88649608D01*
X96448932Y-88431101D01*
X96520000Y-88298142D01*
X96591068Y-88431101D01*
X96770392Y-88649608D01*
X96988899Y-88828932D01*
X97238192Y-88962182D01*
X97508691Y-89044236D01*
X97719508Y-89065000D01*
X97860492Y-89065000D01*
X98071309Y-89044236D01*
X98341808Y-88962182D01*
X98591101Y-88828932D01*
X98809608Y-88649608D01*
X98988932Y-88431101D01*
X99060000Y-88298142D01*
X99131068Y-88431101D01*
X99310392Y-88649608D01*
X99528899Y-88828932D01*
X99778192Y-88962182D01*
X100048691Y-89044236D01*
X100259508Y-89065000D01*
X100400492Y-89065000D01*
X100611309Y-89044236D01*
X100881808Y-88962182D01*
X101131101Y-88828932D01*
X101349608Y-88649608D01*
X101528932Y-88431101D01*
X101600000Y-88298142D01*
X101671068Y-88431101D01*
X101850392Y-88649608D01*
X102068899Y-88828932D01*
X102318192Y-88962182D01*
X102588691Y-89044236D01*
X102799508Y-89065000D01*
X102940492Y-89065000D01*
X103151309Y-89044236D01*
X103421808Y-88962182D01*
X103671101Y-88828932D01*
X103889608Y-88649608D01*
X104068932Y-88431101D01*
X104140000Y-88298142D01*
X104211068Y-88431101D01*
X104390392Y-88649608D01*
X104608899Y-88828932D01*
X104858192Y-88962182D01*
X105128691Y-89044236D01*
X105339508Y-89065000D01*
X105480492Y-89065000D01*
X105691309Y-89044236D01*
X105961808Y-88962182D01*
X106211101Y-88828932D01*
X106429608Y-88649608D01*
X106608932Y-88431101D01*
X106680000Y-88298142D01*
X106751068Y-88431101D01*
X106930392Y-88649608D01*
X107148899Y-88828932D01*
X107398192Y-88962182D01*
X107668691Y-89044236D01*
X107879508Y-89065000D01*
X108020492Y-89065000D01*
X108231309Y-89044236D01*
X108501808Y-88962182D01*
X108751101Y-88828932D01*
X108969608Y-88649608D01*
X109148932Y-88431101D01*
X109220000Y-88298142D01*
X109291068Y-88431101D01*
X109470392Y-88649608D01*
X109688899Y-88828932D01*
X109938192Y-88962182D01*
X110208691Y-89044236D01*
X110419508Y-89065000D01*
X110560492Y-89065000D01*
X110771309Y-89044236D01*
X111041808Y-88962182D01*
X111291101Y-88828932D01*
X111509608Y-88649608D01*
X111688932Y-88431101D01*
X111760000Y-88298142D01*
X111831068Y-88431101D01*
X112010392Y-88649608D01*
X112228899Y-88828932D01*
X112478192Y-88962182D01*
X112748691Y-89044236D01*
X112959508Y-89065000D01*
X113100492Y-89065000D01*
X113311309Y-89044236D01*
X113581808Y-88962182D01*
X113831101Y-88828932D01*
X114049608Y-88649608D01*
X114228932Y-88431101D01*
X114300000Y-88298142D01*
X114371068Y-88431101D01*
X114550392Y-88649608D01*
X114768899Y-88828932D01*
X115018192Y-88962182D01*
X115288691Y-89044236D01*
X115499508Y-89065000D01*
X115640492Y-89065000D01*
X115851309Y-89044236D01*
X116121808Y-88962182D01*
X116371101Y-88828932D01*
X116589608Y-88649608D01*
X116768932Y-88431101D01*
X116840000Y-88298142D01*
X116911068Y-88431101D01*
X117090392Y-88649608D01*
X117308899Y-88828932D01*
X117558192Y-88962182D01*
X117828691Y-89044236D01*
X118039508Y-89065000D01*
X118180492Y-89065000D01*
X118391309Y-89044236D01*
X118661808Y-88962182D01*
X118911101Y-88828932D01*
X119129608Y-88649608D01*
X119308932Y-88431101D01*
X119380000Y-88298142D01*
X119451068Y-88431101D01*
X119630392Y-88649608D01*
X119848899Y-88828932D01*
X120098192Y-88962182D01*
X120368691Y-89044236D01*
X120579508Y-89065000D01*
X120720492Y-89065000D01*
X120931309Y-89044236D01*
X121201808Y-88962182D01*
X121451101Y-88828932D01*
X121669608Y-88649608D01*
X121848932Y-88431101D01*
X121920000Y-88298142D01*
X121991068Y-88431101D01*
X122170392Y-88649608D01*
X122388899Y-88828932D01*
X122638192Y-88962182D01*
X122908691Y-89044236D01*
X123119508Y-89065000D01*
X123260492Y-89065000D01*
X123471309Y-89044236D01*
X123741808Y-88962182D01*
X123991101Y-88828932D01*
X124209608Y-88649608D01*
X124388932Y-88431101D01*
X124460000Y-88298142D01*
X124531068Y-88431101D01*
X124710392Y-88649608D01*
X124928899Y-88828932D01*
X125178192Y-88962182D01*
X125448691Y-89044236D01*
X125659508Y-89065000D01*
X125800492Y-89065000D01*
X126011309Y-89044236D01*
X126281808Y-88962182D01*
X126531101Y-88828932D01*
X126749608Y-88649608D01*
X126928932Y-88431101D01*
X127000000Y-88298142D01*
X127071068Y-88431101D01*
X127250392Y-88649608D01*
X127468899Y-88828932D01*
X127718192Y-88962182D01*
X127988691Y-89044236D01*
X128199508Y-89065000D01*
X128340492Y-89065000D01*
X128551309Y-89044236D01*
X128821808Y-88962182D01*
X129071101Y-88828932D01*
X129289608Y-88649608D01*
X129413000Y-88499254D01*
X129413000Y-90570746D01*
X129289608Y-90420392D01*
X129071101Y-90241068D01*
X128821808Y-90107818D01*
X128551309Y-90025764D01*
X128340492Y-90005000D01*
X128199508Y-90005000D01*
X127988691Y-90025764D01*
X127944093Y-90039292D01*
X127708803Y-89804002D01*
X127685000Y-89774998D01*
X127569275Y-89680025D01*
X127437246Y-89609453D01*
X127293985Y-89565996D01*
X127182332Y-89554999D01*
X127182321Y-89554999D01*
X127144999Y-89551323D01*
X127107677Y-89554999D01*
X104032326Y-89554999D01*
X103995001Y-89551323D01*
X103957676Y-89554999D01*
X103957668Y-89554999D01*
X103846015Y-89565996D01*
X103702754Y-89609453D01*
X103570725Y-89680025D01*
X103455000Y-89774998D01*
X103431202Y-89803996D01*
X103195906Y-90039292D01*
X103151309Y-90025764D01*
X102940492Y-90005000D01*
X102799508Y-90005000D01*
X102588691Y-90025764D01*
X102544094Y-90039292D01*
X102163804Y-89659003D01*
X102140001Y-89629999D01*
X102024276Y-89535026D01*
X101892247Y-89464454D01*
X101748986Y-89420997D01*
X101637333Y-89410000D01*
X101637322Y-89410000D01*
X101600000Y-89406324D01*
X101562678Y-89410000D01*
X72704803Y-89410000D01*
X71250708Y-87955906D01*
X71264236Y-87911309D01*
X71291943Y-87630000D01*
X71264236Y-87348691D01*
X71182182Y-87078192D01*
X71048932Y-86828899D01*
X70869608Y-86610392D01*
X70651101Y-86431068D01*
X70518142Y-86360000D01*
X70651101Y-86288932D01*
X70869608Y-86109608D01*
X71048932Y-85891101D01*
X71182182Y-85641808D01*
X71264236Y-85371309D01*
X71291943Y-85090000D01*
X71264236Y-84808691D01*
X71182182Y-84538192D01*
X71048932Y-84288899D01*
X70869608Y-84070392D01*
X70651101Y-83891068D01*
X70518142Y-83820000D01*
X70651101Y-83748932D01*
X70869608Y-83569608D01*
X71048932Y-83351101D01*
X71182182Y-83101808D01*
X71264236Y-82831309D01*
X71291943Y-82550000D01*
X71264236Y-82268691D01*
X71182182Y-81998192D01*
X71048932Y-81748899D01*
X70869608Y-81530392D01*
X70651101Y-81351068D01*
X70401808Y-81217818D01*
X70131309Y-81135764D01*
X69920492Y-81115000D01*
X69779508Y-81115000D01*
X69568691Y-81135764D01*
X69298192Y-81217818D01*
X69048899Y-81351068D01*
X68830392Y-81530392D01*
X68651068Y-81748899D01*
X68517818Y-81998192D01*
X68435764Y-82268691D01*
X68408057Y-82550000D01*
X68435764Y-82831309D01*
X68517818Y-83101808D01*
X68651068Y-83351101D01*
X68830392Y-83569608D01*
X69048899Y-83748932D01*
X69181858Y-83820000D01*
X69048899Y-83891068D01*
X68830392Y-84070392D01*
X68651068Y-84288899D01*
X68517818Y-84538192D01*
X68435764Y-84808691D01*
X68408057Y-85090000D01*
X68435764Y-85371309D01*
X68449292Y-85415906D01*
X68214001Y-85651197D01*
X68184998Y-85675000D01*
X68129870Y-85742175D01*
X68090025Y-85790725D01*
X68036373Y-85891101D01*
X68019453Y-85922755D01*
X67975996Y-86066016D01*
X67964999Y-86177669D01*
X67964999Y-86177679D01*
X67961323Y-86215001D01*
X67964999Y-86252324D01*
X67965000Y-90672669D01*
X67961323Y-90710001D01*
X67975997Y-90858986D01*
X68019453Y-91002247D01*
X68090025Y-91134277D01*
X68147082Y-91203800D01*
X68184999Y-91250002D01*
X68213997Y-91273800D01*
X76511198Y-99571002D01*
X76534997Y-99600001D01*
X76650722Y-99694974D01*
X76782751Y-99765546D01*
X76926012Y-99809003D01*
X77037665Y-99820000D01*
X77037675Y-99820000D01*
X77074998Y-99823676D01*
X77112321Y-99820000D01*
X91125199Y-99820000D01*
X92579292Y-101274094D01*
X92565764Y-101318691D01*
X92538057Y-101600000D01*
X92565764Y-101881309D01*
X92647818Y-102151808D01*
X92781068Y-102401101D01*
X92960392Y-102619608D01*
X93178899Y-102798932D01*
X93428192Y-102932182D01*
X93698691Y-103014236D01*
X93909508Y-103035000D01*
X94050492Y-103035000D01*
X94261309Y-103014236D01*
X94531808Y-102932182D01*
X94781101Y-102798932D01*
X94999608Y-102619608D01*
X95178932Y-102401101D01*
X95312182Y-102151808D01*
X95394236Y-101881309D01*
X95421943Y-101600000D01*
X95408023Y-101458665D01*
X101435000Y-101458665D01*
X101435000Y-101741335D01*
X101490147Y-102018574D01*
X101598320Y-102279727D01*
X101755363Y-102514759D01*
X101955241Y-102714637D01*
X102190273Y-102871680D01*
X102451426Y-102979853D01*
X102728665Y-103035000D01*
X103011335Y-103035000D01*
X103288574Y-102979853D01*
X103549727Y-102871680D01*
X103784759Y-102714637D01*
X103984637Y-102514759D01*
X104141680Y-102279727D01*
X104249853Y-102018574D01*
X104305000Y-101741335D01*
X104305000Y-101458665D01*
X104249853Y-101181426D01*
X104141680Y-100920273D01*
X103984637Y-100685241D01*
X103784759Y-100485363D01*
X103549727Y-100328320D01*
X103288574Y-100220147D01*
X103130306Y-100188665D01*
X116675000Y-100188665D01*
X116675000Y-100471335D01*
X116730147Y-100748574D01*
X116838320Y-101009727D01*
X116995363Y-101244759D01*
X117195241Y-101444637D01*
X117430273Y-101601680D01*
X117691426Y-101709853D01*
X117968665Y-101765000D01*
X118251335Y-101765000D01*
X118528574Y-101709853D01*
X118789727Y-101601680D01*
X119024759Y-101444637D01*
X119224637Y-101244759D01*
X119381680Y-101009727D01*
X119489853Y-100748574D01*
X119545000Y-100471335D01*
X119545000Y-100188665D01*
X119489853Y-99911426D01*
X119381680Y-99650273D01*
X119224637Y-99415241D01*
X119024759Y-99215363D01*
X118789727Y-99058320D01*
X118528574Y-98950147D01*
X118251335Y-98895000D01*
X117968665Y-98895000D01*
X117691426Y-98950147D01*
X117430273Y-99058320D01*
X117195241Y-99215363D01*
X116995363Y-99415241D01*
X116838320Y-99650273D01*
X116730147Y-99911426D01*
X116675000Y-100188665D01*
X103130306Y-100188665D01*
X103011335Y-100165000D01*
X102728665Y-100165000D01*
X102451426Y-100220147D01*
X102190273Y-100328320D01*
X101955241Y-100485363D01*
X101755363Y-100685241D01*
X101598320Y-100920273D01*
X101490147Y-101181426D01*
X101435000Y-101458665D01*
X95408023Y-101458665D01*
X95394236Y-101318691D01*
X95312182Y-101048192D01*
X95178932Y-100798899D01*
X94999608Y-100580392D01*
X94781101Y-100401068D01*
X94531808Y-100267818D01*
X94261309Y-100185764D01*
X94050492Y-100165000D01*
X93909508Y-100165000D01*
X93698691Y-100185764D01*
X93654094Y-100199292D01*
X92003804Y-98549003D01*
X91980001Y-98519999D01*
X91864276Y-98425026D01*
X91732247Y-98354454D01*
X91588986Y-98310997D01*
X91477333Y-98300000D01*
X91477322Y-98300000D01*
X91440000Y-98296324D01*
X91402678Y-98300000D01*
X77389800Y-98300000D01*
X73594800Y-94505000D01*
X86241928Y-94505000D01*
X86254188Y-94629482D01*
X86290498Y-94749180D01*
X86349463Y-94859494D01*
X86428815Y-94956185D01*
X86525506Y-95035537D01*
X86635820Y-95094502D01*
X86755518Y-95130812D01*
X86880000Y-95143072D01*
X87344250Y-95140000D01*
X87503000Y-94981250D01*
X87503000Y-94107000D01*
X87757000Y-94107000D01*
X87757000Y-94981250D01*
X87915750Y-95140000D01*
X88380000Y-95143072D01*
X88504482Y-95130812D01*
X88577490Y-95108665D01*
X91275000Y-95108665D01*
X91275000Y-95391335D01*
X91330147Y-95668574D01*
X91438320Y-95929727D01*
X91595363Y-96164759D01*
X91795241Y-96364637D01*
X92030273Y-96521680D01*
X92291426Y-96629853D01*
X92568665Y-96685000D01*
X92851335Y-96685000D01*
X93128574Y-96629853D01*
X93389727Y-96521680D01*
X93624759Y-96364637D01*
X93824637Y-96164759D01*
X93981680Y-95929727D01*
X94089853Y-95668574D01*
X94103684Y-95599039D01*
X101478096Y-95599039D01*
X101518754Y-95733087D01*
X101638963Y-95987420D01*
X101806481Y-96213414D01*
X102014869Y-96402385D01*
X102256119Y-96547070D01*
X102520960Y-96641909D01*
X102743000Y-96520624D01*
X102743000Y-95377000D01*
X102997000Y-95377000D01*
X102997000Y-96520624D01*
X103219040Y-96641909D01*
X103483881Y-96547070D01*
X103725131Y-96402385D01*
X103933519Y-96213414D01*
X104101037Y-95987420D01*
X104221246Y-95733087D01*
X104261904Y-95599039D01*
X104139915Y-95377000D01*
X102997000Y-95377000D01*
X102743000Y-95377000D01*
X101600085Y-95377000D01*
X101478096Y-95599039D01*
X94103684Y-95599039D01*
X94145000Y-95391335D01*
X94145000Y-95108665D01*
X94103685Y-94900961D01*
X101478096Y-94900961D01*
X101600085Y-95123000D01*
X102743000Y-95123000D01*
X102743000Y-93979376D01*
X102997000Y-93979376D01*
X102997000Y-95123000D01*
X104139915Y-95123000D01*
X104261904Y-94900961D01*
X104221246Y-94766913D01*
X104101037Y-94512580D01*
X104095419Y-94505000D01*
X111641928Y-94505000D01*
X111654188Y-94629482D01*
X111690498Y-94749180D01*
X111749463Y-94859494D01*
X111828815Y-94956185D01*
X111925506Y-95035537D01*
X112035820Y-95094502D01*
X112155518Y-95130812D01*
X112280000Y-95143072D01*
X112744250Y-95140000D01*
X112903000Y-94981250D01*
X112903000Y-94107000D01*
X113157000Y-94107000D01*
X113157000Y-94981250D01*
X113315750Y-95140000D01*
X113780000Y-95143072D01*
X113904482Y-95130812D01*
X113977490Y-95108665D01*
X116675000Y-95108665D01*
X116675000Y-95391335D01*
X116730147Y-95668574D01*
X116838320Y-95929727D01*
X116995363Y-96164759D01*
X117195241Y-96364637D01*
X117430273Y-96521680D01*
X117691426Y-96629853D01*
X117968665Y-96685000D01*
X118251335Y-96685000D01*
X118528574Y-96629853D01*
X118789727Y-96521680D01*
X119024759Y-96364637D01*
X119224637Y-96164759D01*
X119381680Y-95929727D01*
X119489853Y-95668574D01*
X119545000Y-95391335D01*
X119545000Y-95108665D01*
X119489853Y-94831426D01*
X119381680Y-94570273D01*
X119224637Y-94335241D01*
X119024759Y-94135363D01*
X118789727Y-93978320D01*
X118528574Y-93870147D01*
X118251335Y-93815000D01*
X117968665Y-93815000D01*
X117691426Y-93870147D01*
X117430273Y-93978320D01*
X117195241Y-94135363D01*
X116995363Y-94335241D01*
X116838320Y-94570273D01*
X116730147Y-94831426D01*
X116675000Y-95108665D01*
X113977490Y-95108665D01*
X114024180Y-95094502D01*
X114134494Y-95035537D01*
X114231185Y-94956185D01*
X114310537Y-94859494D01*
X114369502Y-94749180D01*
X114405812Y-94629482D01*
X114418072Y-94505000D01*
X114415000Y-94265750D01*
X114256250Y-94107000D01*
X113157000Y-94107000D01*
X112903000Y-94107000D01*
X111803750Y-94107000D01*
X111645000Y-94265750D01*
X111641928Y-94505000D01*
X104095419Y-94505000D01*
X103933519Y-94286586D01*
X103725131Y-94097615D01*
X103483881Y-93952930D01*
X103219040Y-93858091D01*
X102997000Y-93979376D01*
X102743000Y-93979376D01*
X102520960Y-93858091D01*
X102256119Y-93952930D01*
X102014869Y-94097615D01*
X101806481Y-94286586D01*
X101638963Y-94512580D01*
X101518754Y-94766913D01*
X101478096Y-94900961D01*
X94103685Y-94900961D01*
X94089853Y-94831426D01*
X93981680Y-94570273D01*
X93824637Y-94335241D01*
X93624759Y-94135363D01*
X93389727Y-93978320D01*
X93128574Y-93870147D01*
X92851335Y-93815000D01*
X92568665Y-93815000D01*
X92291426Y-93870147D01*
X92030273Y-93978320D01*
X91795241Y-94135363D01*
X91595363Y-94335241D01*
X91438320Y-94570273D01*
X91330147Y-94831426D01*
X91275000Y-95108665D01*
X88577490Y-95108665D01*
X88624180Y-95094502D01*
X88734494Y-95035537D01*
X88831185Y-94956185D01*
X88910537Y-94859494D01*
X88969502Y-94749180D01*
X89005812Y-94629482D01*
X89018072Y-94505000D01*
X89015000Y-94265750D01*
X88856250Y-94107000D01*
X87757000Y-94107000D01*
X87503000Y-94107000D01*
X86403750Y-94107000D01*
X86245000Y-94265750D01*
X86241928Y-94505000D01*
X73594800Y-94505000D01*
X70525739Y-91435940D01*
X70651101Y-91368932D01*
X70869608Y-91189608D01*
X71048932Y-90971101D01*
X71182182Y-90721808D01*
X71264236Y-90451309D01*
X71291943Y-90170000D01*
X71289402Y-90144205D01*
X71826205Y-90681008D01*
X71849999Y-90710001D01*
X71878992Y-90733795D01*
X71878996Y-90733799D01*
X71946243Y-90788986D01*
X71965724Y-90804974D01*
X72097753Y-90875546D01*
X72241014Y-90919003D01*
X72352667Y-90930000D01*
X72352676Y-90930000D01*
X72389999Y-90933676D01*
X72427322Y-90930000D01*
X86362292Y-90930000D01*
X86328115Y-90993940D01*
X86261785Y-91212600D01*
X86239388Y-91440000D01*
X86261785Y-91667400D01*
X86328115Y-91886060D01*
X86429105Y-92075000D01*
X86328115Y-92263940D01*
X86261785Y-92482600D01*
X86239388Y-92710000D01*
X86261785Y-92937400D01*
X86325093Y-93146098D01*
X86290498Y-93210820D01*
X86254188Y-93330518D01*
X86241928Y-93455000D01*
X86245000Y-93694250D01*
X86403750Y-93853000D01*
X87176891Y-93853000D01*
X87177600Y-93853215D01*
X87348021Y-93870000D01*
X87911979Y-93870000D01*
X88082400Y-93853215D01*
X88083109Y-93853000D01*
X88856250Y-93853000D01*
X89015000Y-93694250D01*
X89018072Y-93455000D01*
X89005812Y-93330518D01*
X88969502Y-93210820D01*
X88934907Y-93146098D01*
X88998215Y-92937400D01*
X89020612Y-92710000D01*
X88998215Y-92482600D01*
X88931885Y-92263940D01*
X88830895Y-92075000D01*
X88931885Y-91886060D01*
X88998215Y-91667400D01*
X89020612Y-91440000D01*
X88998215Y-91212600D01*
X88931885Y-90993940D01*
X88897708Y-90930000D01*
X91368017Y-90930000D01*
X91330147Y-91021426D01*
X91275000Y-91298665D01*
X91275000Y-91581335D01*
X91330147Y-91858574D01*
X91438320Y-92119727D01*
X91595363Y-92354759D01*
X91795241Y-92554637D01*
X92030273Y-92711680D01*
X92291426Y-92819853D01*
X92568665Y-92875000D01*
X92851335Y-92875000D01*
X93128574Y-92819853D01*
X93389727Y-92711680D01*
X93624759Y-92554637D01*
X93824637Y-92354759D01*
X93981680Y-92119727D01*
X94089853Y-91858574D01*
X94145000Y-91581335D01*
X94145000Y-91298665D01*
X94089853Y-91021426D01*
X94051983Y-90930000D01*
X101285199Y-90930000D01*
X101469292Y-91114094D01*
X101455764Y-91158691D01*
X101428057Y-91440000D01*
X101455764Y-91721309D01*
X101537818Y-91991808D01*
X101671068Y-92241101D01*
X101850392Y-92459608D01*
X102068899Y-92638932D01*
X102318192Y-92772182D01*
X102588691Y-92854236D01*
X102799508Y-92875000D01*
X102940492Y-92875000D01*
X103151309Y-92854236D01*
X103421808Y-92772182D01*
X103671101Y-92638932D01*
X103889608Y-92459608D01*
X104068932Y-92241101D01*
X104202182Y-91991808D01*
X104284236Y-91721309D01*
X104311943Y-91440000D01*
X104284236Y-91158691D01*
X104270708Y-91114094D01*
X104309803Y-91074999D01*
X111703526Y-91074999D01*
X111661785Y-91212600D01*
X111639388Y-91440000D01*
X111661785Y-91667400D01*
X111728115Y-91886060D01*
X111829105Y-92075000D01*
X111728115Y-92263940D01*
X111661785Y-92482600D01*
X111639388Y-92710000D01*
X111661785Y-92937400D01*
X111725093Y-93146098D01*
X111690498Y-93210820D01*
X111654188Y-93330518D01*
X111641928Y-93455000D01*
X111645000Y-93694250D01*
X111803750Y-93853000D01*
X112576891Y-93853000D01*
X112577600Y-93853215D01*
X112748021Y-93870000D01*
X113311979Y-93870000D01*
X113482400Y-93853215D01*
X113483109Y-93853000D01*
X114256250Y-93853000D01*
X114415000Y-93694250D01*
X114418072Y-93455000D01*
X114405812Y-93330518D01*
X114369502Y-93210820D01*
X114334907Y-93146098D01*
X114398215Y-92937400D01*
X114420612Y-92710000D01*
X114398215Y-92482600D01*
X114331885Y-92263940D01*
X114230895Y-92075000D01*
X114331885Y-91886060D01*
X114398215Y-91667400D01*
X114420612Y-91440000D01*
X114398215Y-91212600D01*
X114356474Y-91074999D01*
X116719491Y-91074999D01*
X116675000Y-91298665D01*
X116675000Y-91581335D01*
X116730147Y-91858574D01*
X116838320Y-92119727D01*
X116995363Y-92354759D01*
X117195241Y-92554637D01*
X117430273Y-92711680D01*
X117691426Y-92819853D01*
X117968665Y-92875000D01*
X118251335Y-92875000D01*
X118528574Y-92819853D01*
X118789727Y-92711680D01*
X119024759Y-92554637D01*
X119224637Y-92354759D01*
X119381680Y-92119727D01*
X119489853Y-91858574D01*
X119545000Y-91581335D01*
X119545000Y-91298665D01*
X119500509Y-91074999D01*
X126830198Y-91074999D01*
X126869292Y-91114093D01*
X126855764Y-91158691D01*
X126828057Y-91440000D01*
X126855764Y-91721309D01*
X126869292Y-91765906D01*
X126488998Y-92146201D01*
X126460000Y-92169999D01*
X126436202Y-92198997D01*
X126436201Y-92198998D01*
X126365026Y-92285724D01*
X126294454Y-92417754D01*
X126274784Y-92482600D01*
X126252933Y-92554637D01*
X126250998Y-92561015D01*
X126236324Y-92710000D01*
X126240001Y-92747333D01*
X126240000Y-110452678D01*
X126236324Y-110490000D01*
X126240000Y-110527322D01*
X126240000Y-110527332D01*
X126250997Y-110638985D01*
X126281758Y-110740392D01*
X126294454Y-110782246D01*
X126365026Y-110914276D01*
X126378740Y-110930986D01*
X126459999Y-111030001D01*
X126489003Y-111053804D01*
X126869292Y-111434094D01*
X126855764Y-111478691D01*
X126828057Y-111760000D01*
X126855764Y-112041309D01*
X126937818Y-112311808D01*
X127071068Y-112561101D01*
X127250392Y-112779608D01*
X127468899Y-112958932D01*
X127718192Y-113092182D01*
X127988691Y-113174236D01*
X128199508Y-113195000D01*
X128340492Y-113195000D01*
X128551309Y-113174236D01*
X128821808Y-113092182D01*
X129071101Y-112958932D01*
X129289608Y-112779608D01*
X129413000Y-112629254D01*
X129413000Y-114173000D01*
X61087000Y-114173000D01*
X61087000Y-111760000D01*
X75977815Y-111760000D01*
X76006487Y-112051111D01*
X76091401Y-112331034D01*
X76229294Y-112589014D01*
X76414866Y-112815134D01*
X76640986Y-113000706D01*
X76898966Y-113138599D01*
X77178889Y-113223513D01*
X77397050Y-113245000D01*
X77542950Y-113245000D01*
X77761111Y-113223513D01*
X78041034Y-113138599D01*
X78299014Y-113000706D01*
X78525134Y-112815134D01*
X78549607Y-112785313D01*
X78570498Y-112854180D01*
X78629463Y-112964494D01*
X78708815Y-113061185D01*
X78805506Y-113140537D01*
X78915820Y-113199502D01*
X79035518Y-113235812D01*
X79160000Y-113248072D01*
X80860000Y-113248072D01*
X80984482Y-113235812D01*
X81104180Y-113199502D01*
X81214494Y-113140537D01*
X81311185Y-113061185D01*
X81390537Y-112964494D01*
X81449502Y-112854180D01*
X81485812Y-112734482D01*
X81498072Y-112610000D01*
X81498072Y-110910000D01*
X81485812Y-110785518D01*
X81449502Y-110665820D01*
X81446392Y-110660000D01*
X82081928Y-110660000D01*
X82081928Y-112860000D01*
X82094188Y-112984482D01*
X82130498Y-113104180D01*
X82189463Y-113214494D01*
X82268815Y-113311185D01*
X82365506Y-113390537D01*
X82475820Y-113449502D01*
X82595518Y-113485812D01*
X82720000Y-113498072D01*
X84920000Y-113498072D01*
X85044482Y-113485812D01*
X85164180Y-113449502D01*
X85274494Y-113390537D01*
X85371185Y-113311185D01*
X85450537Y-113214494D01*
X85509502Y-113104180D01*
X85545812Y-112984482D01*
X85558072Y-112860000D01*
X85558072Y-111760000D01*
X92236606Y-111760000D01*
X92270105Y-112100119D01*
X92369314Y-112427168D01*
X92530421Y-112728578D01*
X92747234Y-112992766D01*
X93011422Y-113209579D01*
X93312832Y-113370686D01*
X93639881Y-113469895D01*
X93894775Y-113495000D01*
X94065225Y-113495000D01*
X94320119Y-113469895D01*
X94647168Y-113370686D01*
X94948578Y-113209579D01*
X95212766Y-112992766D01*
X95429579Y-112728578D01*
X95590686Y-112427168D01*
X95689895Y-112100119D01*
X95723394Y-111760000D01*
X101428057Y-111760000D01*
X101455764Y-112041309D01*
X101537818Y-112311808D01*
X101671068Y-112561101D01*
X101850392Y-112779608D01*
X102068899Y-112958932D01*
X102318192Y-113092182D01*
X102588691Y-113174236D01*
X102799508Y-113195000D01*
X102940492Y-113195000D01*
X103151309Y-113174236D01*
X103421808Y-113092182D01*
X103671101Y-112958932D01*
X103889608Y-112779608D01*
X104068932Y-112561101D01*
X104202182Y-112311808D01*
X104284236Y-112041309D01*
X104311943Y-111760000D01*
X104298023Y-111618665D01*
X116675000Y-111618665D01*
X116675000Y-111901335D01*
X116730147Y-112178574D01*
X116838320Y-112439727D01*
X116995363Y-112674759D01*
X117195241Y-112874637D01*
X117430273Y-113031680D01*
X117691426Y-113139853D01*
X117968665Y-113195000D01*
X118251335Y-113195000D01*
X118528574Y-113139853D01*
X118789727Y-113031680D01*
X119024759Y-112874637D01*
X119224637Y-112674759D01*
X119381680Y-112439727D01*
X119489853Y-112178574D01*
X119545000Y-111901335D01*
X119545000Y-111618665D01*
X119489853Y-111341426D01*
X119381680Y-111080273D01*
X119224637Y-110845241D01*
X119024759Y-110645363D01*
X118789727Y-110488320D01*
X118528574Y-110380147D01*
X118251335Y-110325000D01*
X117968665Y-110325000D01*
X117691426Y-110380147D01*
X117430273Y-110488320D01*
X117195241Y-110645363D01*
X116995363Y-110845241D01*
X116838320Y-111080273D01*
X116730147Y-111341426D01*
X116675000Y-111618665D01*
X104298023Y-111618665D01*
X104284236Y-111478691D01*
X104202182Y-111208192D01*
X104068932Y-110958899D01*
X103889608Y-110740392D01*
X103671101Y-110561068D01*
X103421808Y-110427818D01*
X103151309Y-110345764D01*
X102940492Y-110325000D01*
X102799508Y-110325000D01*
X102588691Y-110345764D01*
X102318192Y-110427818D01*
X102068899Y-110561068D01*
X101850392Y-110740392D01*
X101671068Y-110958899D01*
X101537818Y-111208192D01*
X101455764Y-111478691D01*
X101428057Y-111760000D01*
X95723394Y-111760000D01*
X95689895Y-111419881D01*
X95590686Y-111092832D01*
X95429579Y-110791422D01*
X95212766Y-110527234D01*
X94948578Y-110310421D01*
X94647168Y-110149314D01*
X94320119Y-110050105D01*
X94065225Y-110025000D01*
X93894775Y-110025000D01*
X93639881Y-110050105D01*
X93312832Y-110149314D01*
X93011422Y-110310421D01*
X92747234Y-110527234D01*
X92530421Y-110791422D01*
X92369314Y-111092832D01*
X92270105Y-111419881D01*
X92236606Y-111760000D01*
X85558072Y-111760000D01*
X85558072Y-110660000D01*
X85545812Y-110535518D01*
X85509502Y-110415820D01*
X85450537Y-110305506D01*
X85371185Y-110208815D01*
X85274494Y-110129463D01*
X85164180Y-110070498D01*
X85044482Y-110034188D01*
X84920000Y-110021928D01*
X82720000Y-110021928D01*
X82595518Y-110034188D01*
X82475820Y-110070498D01*
X82365506Y-110129463D01*
X82268815Y-110208815D01*
X82189463Y-110305506D01*
X82130498Y-110415820D01*
X82094188Y-110535518D01*
X82081928Y-110660000D01*
X81446392Y-110660000D01*
X81390537Y-110555506D01*
X81311185Y-110458815D01*
X81214494Y-110379463D01*
X81104180Y-110320498D01*
X80984482Y-110284188D01*
X80860000Y-110271928D01*
X79160000Y-110271928D01*
X79035518Y-110284188D01*
X78915820Y-110320498D01*
X78805506Y-110379463D01*
X78708815Y-110458815D01*
X78629463Y-110555506D01*
X78570498Y-110665820D01*
X78549607Y-110734687D01*
X78525134Y-110704866D01*
X78299014Y-110519294D01*
X78041034Y-110381401D01*
X77761111Y-110296487D01*
X77542950Y-110275000D01*
X77397050Y-110275000D01*
X77178889Y-110296487D01*
X76898966Y-110381401D01*
X76640986Y-110519294D01*
X76414866Y-110704866D01*
X76229294Y-110930986D01*
X76091401Y-111188966D01*
X76006487Y-111468889D01*
X75977815Y-111760000D01*
X61087000Y-111760000D01*
X61087000Y-109576890D01*
X105238524Y-109576890D01*
X105283175Y-109724099D01*
X105408359Y-109986920D01*
X105582412Y-110220269D01*
X105798645Y-110415178D01*
X106048748Y-110564157D01*
X106323109Y-110661481D01*
X106553000Y-110540814D01*
X106553000Y-109347000D01*
X106807000Y-109347000D01*
X106807000Y-110540814D01*
X107036891Y-110661481D01*
X107311252Y-110564157D01*
X107561355Y-110415178D01*
X107777588Y-110220269D01*
X107951641Y-109986920D01*
X107959700Y-109970000D01*
X110596928Y-109970000D01*
X110609188Y-110094482D01*
X110645498Y-110214180D01*
X110704463Y-110324494D01*
X110783815Y-110421185D01*
X110880506Y-110500537D01*
X110990820Y-110559502D01*
X111110518Y-110595812D01*
X111235000Y-110608072D01*
X111474250Y-110605000D01*
X111633000Y-110446250D01*
X111633000Y-109347000D01*
X110758750Y-109347000D01*
X110600000Y-109505750D01*
X110596928Y-109970000D01*
X107959700Y-109970000D01*
X108076825Y-109724099D01*
X108121476Y-109576890D01*
X108000155Y-109347000D01*
X106807000Y-109347000D01*
X106553000Y-109347000D01*
X105359845Y-109347000D01*
X105238524Y-109576890D01*
X61087000Y-109576890D01*
X61087000Y-105410000D01*
X77349388Y-105410000D01*
X77371785Y-105637400D01*
X77438115Y-105856060D01*
X77539105Y-106045000D01*
X77438115Y-106233940D01*
X77371785Y-106452600D01*
X77349388Y-106680000D01*
X77371785Y-106907400D01*
X77438115Y-107126060D01*
X77545829Y-107327579D01*
X77690788Y-107504212D01*
X77867421Y-107649171D01*
X78068940Y-107756885D01*
X78287600Y-107823215D01*
X78458021Y-107840000D01*
X79021979Y-107840000D01*
X79192400Y-107823215D01*
X79411060Y-107756885D01*
X79612579Y-107649171D01*
X79789212Y-107504212D01*
X79934171Y-107327579D01*
X80041885Y-107126060D01*
X80108215Y-106907400D01*
X80130612Y-106680000D01*
X80108215Y-106452600D01*
X80041885Y-106233940D01*
X79940895Y-106045000D01*
X80041885Y-105856060D01*
X80108215Y-105637400D01*
X80130612Y-105410000D01*
X80116692Y-105268665D01*
X82385000Y-105268665D01*
X82385000Y-105551335D01*
X82440147Y-105828574D01*
X82548320Y-106089727D01*
X82705363Y-106324759D01*
X82905241Y-106524637D01*
X83140273Y-106681680D01*
X83401426Y-106789853D01*
X83678665Y-106845000D01*
X83961335Y-106845000D01*
X84238574Y-106789853D01*
X84499727Y-106681680D01*
X84734759Y-106524637D01*
X84934637Y-106324759D01*
X85091680Y-106089727D01*
X85199853Y-105828574D01*
X85213684Y-105759039D01*
X92588096Y-105759039D01*
X92628754Y-105893087D01*
X92748963Y-106147420D01*
X92916481Y-106373414D01*
X93124869Y-106562385D01*
X93366119Y-106707070D01*
X93630960Y-106801909D01*
X93853000Y-106680624D01*
X93853000Y-105537000D01*
X94107000Y-105537000D01*
X94107000Y-106680624D01*
X94329040Y-106801909D01*
X94593881Y-106707070D01*
X94639017Y-106680000D01*
X105187815Y-106680000D01*
X105216487Y-106971111D01*
X105301401Y-107251034D01*
X105439294Y-107509014D01*
X105624866Y-107735134D01*
X105850986Y-107920706D01*
X105915523Y-107955201D01*
X105798645Y-108024822D01*
X105582412Y-108219731D01*
X105408359Y-108453080D01*
X105283175Y-108715901D01*
X105238524Y-108863110D01*
X105359845Y-109093000D01*
X106553000Y-109093000D01*
X106553000Y-109073000D01*
X106807000Y-109073000D01*
X106807000Y-109093000D01*
X108000155Y-109093000D01*
X108121476Y-108863110D01*
X108076825Y-108715901D01*
X107959701Y-108470000D01*
X110596928Y-108470000D01*
X110600000Y-108934250D01*
X110758750Y-109093000D01*
X111633000Y-109093000D01*
X111633000Y-108938022D01*
X111870000Y-108938022D01*
X111870000Y-109501979D01*
X111886785Y-109672400D01*
X111887000Y-109673109D01*
X111887000Y-110446250D01*
X112045750Y-110605000D01*
X112285000Y-110608072D01*
X112409482Y-110595812D01*
X112529180Y-110559502D01*
X112593902Y-110524907D01*
X112802601Y-110588215D01*
X113030000Y-110610612D01*
X113257400Y-110588215D01*
X113476060Y-110521885D01*
X113665001Y-110420894D01*
X113853941Y-110521885D01*
X114072601Y-110588215D01*
X114300000Y-110610612D01*
X114527400Y-110588215D01*
X114746060Y-110521885D01*
X114947579Y-110414171D01*
X115124212Y-110269212D01*
X115269171Y-110092579D01*
X115376885Y-109891059D01*
X115443215Y-109672399D01*
X115460000Y-109501978D01*
X115460000Y-108938021D01*
X115443215Y-108767600D01*
X115376885Y-108548940D01*
X115269171Y-108347421D01*
X115124212Y-108170788D01*
X114947578Y-108025829D01*
X114746059Y-107918115D01*
X114527399Y-107851785D01*
X114300000Y-107829388D01*
X114072600Y-107851785D01*
X113853940Y-107918115D01*
X113665000Y-108019106D01*
X113476059Y-107918115D01*
X113257399Y-107851785D01*
X113030000Y-107829388D01*
X112802600Y-107851785D01*
X112593902Y-107915093D01*
X112529180Y-107880498D01*
X112409482Y-107844188D01*
X112285000Y-107831928D01*
X112045750Y-107835000D01*
X111887000Y-107993750D01*
X111887000Y-108766892D01*
X111886785Y-108767601D01*
X111870000Y-108938022D01*
X111633000Y-108938022D01*
X111633000Y-107993750D01*
X111474250Y-107835000D01*
X111235000Y-107831928D01*
X111110518Y-107844188D01*
X110990820Y-107880498D01*
X110880506Y-107939463D01*
X110783815Y-108018815D01*
X110704463Y-108115506D01*
X110645498Y-108225820D01*
X110609188Y-108345518D01*
X110596928Y-108470000D01*
X107959701Y-108470000D01*
X107951641Y-108453080D01*
X107777588Y-108219731D01*
X107561355Y-108024822D01*
X107444477Y-107955201D01*
X107509014Y-107920706D01*
X107645536Y-107808665D01*
X116675000Y-107808665D01*
X116675000Y-108091335D01*
X116730147Y-108368574D01*
X116838320Y-108629727D01*
X116995363Y-108864759D01*
X117195241Y-109064637D01*
X117430273Y-109221680D01*
X117691426Y-109329853D01*
X117968665Y-109385000D01*
X118251335Y-109385000D01*
X118528574Y-109329853D01*
X118789727Y-109221680D01*
X119024759Y-109064637D01*
X119224637Y-108864759D01*
X119381680Y-108629727D01*
X119489853Y-108368574D01*
X119545000Y-108091335D01*
X119545000Y-107808665D01*
X119489853Y-107531426D01*
X119381680Y-107270273D01*
X119224637Y-107035241D01*
X119024759Y-106835363D01*
X118789727Y-106678320D01*
X118528574Y-106570147D01*
X118251335Y-106515000D01*
X117968665Y-106515000D01*
X117691426Y-106570147D01*
X117430273Y-106678320D01*
X117195241Y-106835363D01*
X116995363Y-107035241D01*
X116838320Y-107270273D01*
X116730147Y-107531426D01*
X116675000Y-107808665D01*
X107645536Y-107808665D01*
X107735134Y-107735134D01*
X107920706Y-107509014D01*
X108058599Y-107251034D01*
X108143513Y-106971111D01*
X108172185Y-106680000D01*
X108143513Y-106388889D01*
X108058599Y-106108966D01*
X107920706Y-105850986D01*
X107735134Y-105624866D01*
X107705313Y-105600393D01*
X107774180Y-105579502D01*
X107884494Y-105520537D01*
X107981185Y-105441185D01*
X108060537Y-105344494D01*
X108119502Y-105234180D01*
X108155812Y-105114482D01*
X108168072Y-104990000D01*
X108168072Y-103290000D01*
X108155812Y-103165518D01*
X108119502Y-103045820D01*
X108060537Y-102935506D01*
X108006778Y-102870000D01*
X111639388Y-102870000D01*
X111661785Y-103097400D01*
X111728115Y-103316060D01*
X111829105Y-103505000D01*
X111728115Y-103693940D01*
X111661785Y-103912600D01*
X111639388Y-104140000D01*
X111661785Y-104367400D01*
X111728115Y-104586060D01*
X111835829Y-104787579D01*
X111980788Y-104964212D01*
X112157421Y-105109171D01*
X112358940Y-105216885D01*
X112577600Y-105283215D01*
X112748021Y-105300000D01*
X113311979Y-105300000D01*
X113482400Y-105283215D01*
X113701060Y-105216885D01*
X113902579Y-105109171D01*
X114079212Y-104964212D01*
X114224171Y-104787579D01*
X114331885Y-104586060D01*
X114398215Y-104367400D01*
X114420612Y-104140000D01*
X116668057Y-104140000D01*
X116695764Y-104421309D01*
X116777818Y-104691808D01*
X116911068Y-104941101D01*
X117090392Y-105159608D01*
X117308899Y-105338932D01*
X117558192Y-105472182D01*
X117828691Y-105554236D01*
X118039508Y-105575000D01*
X118180492Y-105575000D01*
X118391309Y-105554236D01*
X118661808Y-105472182D01*
X118911101Y-105338932D01*
X119129608Y-105159608D01*
X119308932Y-104941101D01*
X119442182Y-104691808D01*
X119524236Y-104421309D01*
X119551943Y-104140000D01*
X119524236Y-103858691D01*
X119442182Y-103588192D01*
X119308932Y-103338899D01*
X119129608Y-103120392D01*
X118911101Y-102941068D01*
X118661808Y-102807818D01*
X118391309Y-102725764D01*
X118180492Y-102705000D01*
X118039508Y-102705000D01*
X117828691Y-102725764D01*
X117558192Y-102807818D01*
X117308899Y-102941068D01*
X117090392Y-103120392D01*
X116911068Y-103338899D01*
X116777818Y-103588192D01*
X116695764Y-103858691D01*
X116668057Y-104140000D01*
X114420612Y-104140000D01*
X114398215Y-103912600D01*
X114331885Y-103693940D01*
X114230895Y-103505000D01*
X114331885Y-103316060D01*
X114398215Y-103097400D01*
X114420612Y-102870000D01*
X114398215Y-102642600D01*
X114334907Y-102433902D01*
X114369502Y-102369180D01*
X114405812Y-102249482D01*
X114418072Y-102125000D01*
X114418072Y-101075000D01*
X114405812Y-100950518D01*
X114369502Y-100830820D01*
X114310537Y-100720506D01*
X114231185Y-100623815D01*
X114134494Y-100544463D01*
X114024180Y-100485498D01*
X113904482Y-100449188D01*
X113780000Y-100436928D01*
X112280000Y-100436928D01*
X112155518Y-100449188D01*
X112035820Y-100485498D01*
X111925506Y-100544463D01*
X111828815Y-100623815D01*
X111749463Y-100720506D01*
X111690498Y-100830820D01*
X111654188Y-100950518D01*
X111641928Y-101075000D01*
X111641928Y-102125000D01*
X111654188Y-102249482D01*
X111690498Y-102369180D01*
X111725093Y-102433902D01*
X111661785Y-102642600D01*
X111639388Y-102870000D01*
X108006778Y-102870000D01*
X107981185Y-102838815D01*
X107884494Y-102759463D01*
X107774180Y-102700498D01*
X107654482Y-102664188D01*
X107530000Y-102651928D01*
X105830000Y-102651928D01*
X105705518Y-102664188D01*
X105585820Y-102700498D01*
X105475506Y-102759463D01*
X105378815Y-102838815D01*
X105299463Y-102935506D01*
X105240498Y-103045820D01*
X105204188Y-103165518D01*
X105191928Y-103290000D01*
X105191928Y-104990000D01*
X105204188Y-105114482D01*
X105240498Y-105234180D01*
X105299463Y-105344494D01*
X105378815Y-105441185D01*
X105475506Y-105520537D01*
X105585820Y-105579502D01*
X105654687Y-105600393D01*
X105624866Y-105624866D01*
X105439294Y-105850986D01*
X105301401Y-106108966D01*
X105216487Y-106388889D01*
X105187815Y-106680000D01*
X94639017Y-106680000D01*
X94835131Y-106562385D01*
X95043519Y-106373414D01*
X95211037Y-106147420D01*
X95331246Y-105893087D01*
X95371904Y-105759039D01*
X95249915Y-105537000D01*
X94107000Y-105537000D01*
X93853000Y-105537000D01*
X92710085Y-105537000D01*
X92588096Y-105759039D01*
X85213684Y-105759039D01*
X85255000Y-105551335D01*
X85255000Y-105268665D01*
X85213685Y-105060961D01*
X92588096Y-105060961D01*
X92710085Y-105283000D01*
X93853000Y-105283000D01*
X93853000Y-104139376D01*
X94107000Y-104139376D01*
X94107000Y-105283000D01*
X95249915Y-105283000D01*
X95371904Y-105060961D01*
X95331246Y-104926913D01*
X95211037Y-104672580D01*
X95043519Y-104446586D01*
X94835131Y-104257615D01*
X94593881Y-104112930D01*
X94329040Y-104018091D01*
X94107000Y-104139376D01*
X93853000Y-104139376D01*
X93630960Y-104018091D01*
X93366119Y-104112930D01*
X93124869Y-104257615D01*
X92916481Y-104446586D01*
X92748963Y-104672580D01*
X92628754Y-104926913D01*
X92588096Y-105060961D01*
X85213685Y-105060961D01*
X85199853Y-104991426D01*
X85091680Y-104730273D01*
X84934637Y-104495241D01*
X84734759Y-104295363D01*
X84499727Y-104138320D01*
X84238574Y-104030147D01*
X83961335Y-103975000D01*
X83678665Y-103975000D01*
X83401426Y-104030147D01*
X83140273Y-104138320D01*
X82905241Y-104295363D01*
X82705363Y-104495241D01*
X82548320Y-104730273D01*
X82440147Y-104991426D01*
X82385000Y-105268665D01*
X80116692Y-105268665D01*
X80108215Y-105182600D01*
X80044907Y-104973902D01*
X80079502Y-104909180D01*
X80115812Y-104789482D01*
X80128072Y-104665000D01*
X80125000Y-104425750D01*
X79966250Y-104267000D01*
X79193109Y-104267000D01*
X79192400Y-104266785D01*
X79021979Y-104250000D01*
X78458021Y-104250000D01*
X78287600Y-104266785D01*
X78286891Y-104267000D01*
X77513750Y-104267000D01*
X77355000Y-104425750D01*
X77351928Y-104665000D01*
X77364188Y-104789482D01*
X77400498Y-104909180D01*
X77435093Y-104973902D01*
X77371785Y-105182600D01*
X77349388Y-105410000D01*
X61087000Y-105410000D01*
X61087000Y-103226891D01*
X62058519Y-103226891D01*
X62155843Y-103501252D01*
X62304822Y-103751355D01*
X62499731Y-103967588D01*
X62733080Y-104141641D01*
X62995901Y-104266825D01*
X63143110Y-104311476D01*
X63373000Y-104190155D01*
X63373000Y-102997000D01*
X63627000Y-102997000D01*
X63627000Y-104190155D01*
X63856890Y-104311476D01*
X64004099Y-104266825D01*
X64266920Y-104141641D01*
X64500269Y-103967588D01*
X64695178Y-103751355D01*
X64770000Y-103625745D01*
X64844822Y-103751355D01*
X65039731Y-103967588D01*
X65273080Y-104141641D01*
X65535901Y-104266825D01*
X65683110Y-104311476D01*
X65913000Y-104190155D01*
X65913000Y-102997000D01*
X66167000Y-102997000D01*
X66167000Y-104190155D01*
X66396890Y-104311476D01*
X66544099Y-104266825D01*
X66806920Y-104141641D01*
X67040269Y-103967588D01*
X67235178Y-103751355D01*
X67310000Y-103625745D01*
X67384822Y-103751355D01*
X67579731Y-103967588D01*
X67813080Y-104141641D01*
X68075901Y-104266825D01*
X68223110Y-104311476D01*
X68453000Y-104190155D01*
X68453000Y-102997000D01*
X68707000Y-102997000D01*
X68707000Y-104190155D01*
X68936890Y-104311476D01*
X69084099Y-104266825D01*
X69346920Y-104141641D01*
X69580269Y-103967588D01*
X69775178Y-103751355D01*
X69856400Y-103615000D01*
X77351928Y-103615000D01*
X77355000Y-103854250D01*
X77513750Y-104013000D01*
X78613000Y-104013000D01*
X78613000Y-103138750D01*
X78867000Y-103138750D01*
X78867000Y-104013000D01*
X79966250Y-104013000D01*
X80125000Y-103854250D01*
X80128072Y-103615000D01*
X80115812Y-103490518D01*
X80079502Y-103370820D01*
X80020537Y-103260506D01*
X79941185Y-103163815D01*
X79844494Y-103084463D01*
X79734180Y-103025498D01*
X79614482Y-102989188D01*
X79490000Y-102976928D01*
X79025750Y-102980000D01*
X78867000Y-103138750D01*
X78613000Y-103138750D01*
X78454250Y-102980000D01*
X77990000Y-102976928D01*
X77865518Y-102989188D01*
X77745820Y-103025498D01*
X77635506Y-103084463D01*
X77538815Y-103163815D01*
X77459463Y-103260506D01*
X77400498Y-103370820D01*
X77364188Y-103490518D01*
X77351928Y-103615000D01*
X69856400Y-103615000D01*
X69924157Y-103501252D01*
X70021481Y-103226891D01*
X69900814Y-102997000D01*
X68707000Y-102997000D01*
X68453000Y-102997000D01*
X66167000Y-102997000D01*
X65913000Y-102997000D01*
X63627000Y-102997000D01*
X63373000Y-102997000D01*
X62179186Y-102997000D01*
X62058519Y-103226891D01*
X61087000Y-103226891D01*
X61087000Y-91026188D01*
X61166481Y-91133414D01*
X61374869Y-91322385D01*
X61616119Y-91467070D01*
X61880960Y-91561909D01*
X62103000Y-91440624D01*
X62103000Y-90297000D01*
X62083000Y-90297000D01*
X62083000Y-90043000D01*
X62103000Y-90043000D01*
X62103000Y-90023000D01*
X62357000Y-90023000D01*
X62357000Y-90043000D01*
X62377000Y-90043000D01*
X62377000Y-90297000D01*
X62357000Y-90297000D01*
X62357000Y-91440624D01*
X62579040Y-91561909D01*
X62740001Y-91504269D01*
X62740001Y-98841928D01*
X62650000Y-98841928D01*
X62525518Y-98854188D01*
X62405820Y-98890498D01*
X62295506Y-98949463D01*
X62198815Y-99028815D01*
X62119463Y-99125506D01*
X62060498Y-99235820D01*
X62024188Y-99355518D01*
X62011928Y-99480000D01*
X62011928Y-101180000D01*
X62024188Y-101304482D01*
X62060498Y-101424180D01*
X62119463Y-101534494D01*
X62198815Y-101631185D01*
X62295506Y-101710537D01*
X62405820Y-101769502D01*
X62481626Y-101792498D01*
X62304822Y-101988645D01*
X62155843Y-102238748D01*
X62058519Y-102513109D01*
X62179186Y-102743000D01*
X63373000Y-102743000D01*
X63373000Y-102723000D01*
X63627000Y-102723000D01*
X63627000Y-102743000D01*
X65913000Y-102743000D01*
X65913000Y-102723000D01*
X66167000Y-102723000D01*
X66167000Y-102743000D01*
X68453000Y-102743000D01*
X68453000Y-102723000D01*
X68707000Y-102723000D01*
X68707000Y-102743000D01*
X69900814Y-102743000D01*
X70021481Y-102513109D01*
X69924157Y-102238748D01*
X69775178Y-101988645D01*
X69580269Y-101772412D01*
X69351244Y-101601584D01*
X69409014Y-101570706D01*
X69545536Y-101458665D01*
X82385000Y-101458665D01*
X82385000Y-101741335D01*
X82440147Y-102018574D01*
X82548320Y-102279727D01*
X82705363Y-102514759D01*
X82905241Y-102714637D01*
X83140273Y-102871680D01*
X83401426Y-102979853D01*
X83678665Y-103035000D01*
X83961335Y-103035000D01*
X84238574Y-102979853D01*
X84499727Y-102871680D01*
X84734759Y-102714637D01*
X84934637Y-102514759D01*
X85091680Y-102279727D01*
X85199853Y-102018574D01*
X85255000Y-101741335D01*
X85255000Y-101458665D01*
X85199853Y-101181426D01*
X85091680Y-100920273D01*
X84934637Y-100685241D01*
X84734759Y-100485363D01*
X84499727Y-100328320D01*
X84238574Y-100220147D01*
X83961335Y-100165000D01*
X83678665Y-100165000D01*
X83401426Y-100220147D01*
X83140273Y-100328320D01*
X82905241Y-100485363D01*
X82705363Y-100685241D01*
X82548320Y-100920273D01*
X82440147Y-101181426D01*
X82385000Y-101458665D01*
X69545536Y-101458665D01*
X69635134Y-101385134D01*
X69820706Y-101159014D01*
X69958599Y-100901034D01*
X70043513Y-100621111D01*
X70072185Y-100330000D01*
X70043513Y-100038889D01*
X69958599Y-99758966D01*
X69820706Y-99500986D01*
X69635134Y-99274866D01*
X69409014Y-99089294D01*
X69151034Y-98951401D01*
X68871111Y-98866487D01*
X68652950Y-98845000D01*
X68507050Y-98845000D01*
X68288889Y-98866487D01*
X68008966Y-98951401D01*
X67750986Y-99089294D01*
X67524866Y-99274866D01*
X67339294Y-99500986D01*
X67310000Y-99555791D01*
X67280706Y-99500986D01*
X67095134Y-99274866D01*
X66869014Y-99089294D01*
X66611034Y-98951401D01*
X66331111Y-98866487D01*
X66112950Y-98845000D01*
X65967050Y-98845000D01*
X65748889Y-98866487D01*
X65468966Y-98951401D01*
X65210986Y-99089294D01*
X64984866Y-99274866D01*
X64960393Y-99304687D01*
X64939502Y-99235820D01*
X64880537Y-99125506D01*
X64801185Y-99028815D01*
X64704494Y-98949463D01*
X64594180Y-98890498D01*
X64474482Y-98854188D01*
X64350000Y-98841928D01*
X64260000Y-98841928D01*
X64260000Y-82807322D01*
X64263676Y-82770000D01*
X64260000Y-82732677D01*
X64260000Y-82732667D01*
X64249003Y-82621014D01*
X64205546Y-82477753D01*
X64134974Y-82345724D01*
X64040001Y-82229999D01*
X64010998Y-82206197D01*
X63843804Y-82039003D01*
X63820001Y-82009999D01*
X63704276Y-81915026D01*
X63668072Y-81895674D01*
X63668072Y-81750000D01*
X63655812Y-81625518D01*
X63619502Y-81505820D01*
X63560537Y-81395506D01*
X63481185Y-81298815D01*
X63384494Y-81219463D01*
X63274180Y-81160498D01*
X63154482Y-81124188D01*
X63030000Y-81111928D01*
X61430000Y-81111928D01*
X61305518Y-81124188D01*
X61185820Y-81160498D01*
X61087000Y-81213319D01*
X61087000Y-71476891D01*
X63328519Y-71476891D01*
X63425843Y-71751252D01*
X63574822Y-72001355D01*
X63769731Y-72217588D01*
X64003080Y-72391641D01*
X64265901Y-72516825D01*
X64413110Y-72561476D01*
X64643000Y-72440155D01*
X64643000Y-71247000D01*
X63449186Y-71247000D01*
X63328519Y-71476891D01*
X61087000Y-71476891D01*
X61087000Y-70763109D01*
X63328519Y-70763109D01*
X63449186Y-70993000D01*
X64643000Y-70993000D01*
X64643000Y-69799845D01*
X64897000Y-69799845D01*
X64897000Y-70993000D01*
X64917000Y-70993000D01*
X64917000Y-71247000D01*
X64897000Y-71247000D01*
X64897000Y-72440155D01*
X65126890Y-72561476D01*
X65274099Y-72516825D01*
X65536920Y-72391641D01*
X65770269Y-72217588D01*
X65846034Y-72133534D01*
X65870498Y-72214180D01*
X65929463Y-72324494D01*
X66008815Y-72421185D01*
X66105506Y-72500537D01*
X66215820Y-72559502D01*
X66335518Y-72595812D01*
X66460000Y-72608072D01*
X68160000Y-72608072D01*
X68284482Y-72595812D01*
X68404180Y-72559502D01*
X68514494Y-72500537D01*
X68611185Y-72421185D01*
X68690537Y-72324494D01*
X68749502Y-72214180D01*
X68785812Y-72094482D01*
X68798072Y-71970000D01*
X68798072Y-70270000D01*
X68785812Y-70145518D01*
X68749502Y-70025820D01*
X68690537Y-69915506D01*
X68611185Y-69818815D01*
X68514494Y-69739463D01*
X68404180Y-69680498D01*
X68284482Y-69644188D01*
X68160000Y-69631928D01*
X66460000Y-69631928D01*
X66335518Y-69644188D01*
X66215820Y-69680498D01*
X66105506Y-69739463D01*
X66008815Y-69818815D01*
X65929463Y-69915506D01*
X65870498Y-70025820D01*
X65846034Y-70106466D01*
X65770269Y-70022412D01*
X65536920Y-69848359D01*
X65274099Y-69723175D01*
X65126890Y-69678524D01*
X64897000Y-69799845D01*
X64643000Y-69799845D01*
X64413110Y-69678524D01*
X64265901Y-69723175D01*
X64003080Y-69848359D01*
X63769731Y-70022412D01*
X63574822Y-70238645D01*
X63425843Y-70488748D01*
X63328519Y-70763109D01*
X61087000Y-70763109D01*
X61087000Y-68707000D01*
X129413000Y-68707000D01*
X129413000Y-70171931D01*
X129413000Y-70171931D01*
G37*
X129413000Y-70171931D02*
X129325134Y-70064866D01*
X129099014Y-69879294D01*
X128841034Y-69741401D01*
X128561111Y-69656487D01*
X128342950Y-69635000D01*
X128197050Y-69635000D01*
X127978889Y-69656487D01*
X127698966Y-69741401D01*
X127440986Y-69879294D01*
X127214866Y-70064866D01*
X127029294Y-70290986D01*
X127000000Y-70345791D01*
X126970706Y-70290986D01*
X126785134Y-70064866D01*
X126559014Y-69879294D01*
X126301034Y-69741401D01*
X126021111Y-69656487D01*
X125802950Y-69635000D01*
X125657050Y-69635000D01*
X125438889Y-69656487D01*
X125158966Y-69741401D01*
X124900986Y-69879294D01*
X124674866Y-70064866D01*
X124489294Y-70290986D01*
X124460000Y-70345791D01*
X124430706Y-70290986D01*
X124245134Y-70064866D01*
X124019014Y-69879294D01*
X123761034Y-69741401D01*
X123481111Y-69656487D01*
X123262950Y-69635000D01*
X123117050Y-69635000D01*
X122898889Y-69656487D01*
X122618966Y-69741401D01*
X122360986Y-69879294D01*
X122134866Y-70064866D01*
X121949294Y-70290986D01*
X121920000Y-70345791D01*
X121890706Y-70290986D01*
X121705134Y-70064866D01*
X121479014Y-69879294D01*
X121221034Y-69741401D01*
X120941111Y-69656487D01*
X120722950Y-69635000D01*
X120577050Y-69635000D01*
X120358889Y-69656487D01*
X120078966Y-69741401D01*
X119820986Y-69879294D01*
X119594866Y-70064866D01*
X119409294Y-70290986D01*
X119380000Y-70345791D01*
X119350706Y-70290986D01*
X119165134Y-70064866D01*
X118939014Y-69879294D01*
X118681034Y-69741401D01*
X118401111Y-69656487D01*
X118182950Y-69635000D01*
X118037050Y-69635000D01*
X117818889Y-69656487D01*
X117538966Y-69741401D01*
X117280986Y-69879294D01*
X117054866Y-70064866D01*
X116869294Y-70290986D01*
X116840000Y-70345791D01*
X116810706Y-70290986D01*
X116625134Y-70064866D01*
X116399014Y-69879294D01*
X116141034Y-69741401D01*
X115861111Y-69656487D01*
X115642950Y-69635000D01*
X115497050Y-69635000D01*
X115278889Y-69656487D01*
X114998966Y-69741401D01*
X114740986Y-69879294D01*
X114514866Y-70064866D01*
X114329294Y-70290986D01*
X114300000Y-70345791D01*
X114270706Y-70290986D01*
X114085134Y-70064866D01*
X113859014Y-69879294D01*
X113601034Y-69741401D01*
X113321111Y-69656487D01*
X113102950Y-69635000D01*
X112957050Y-69635000D01*
X112738889Y-69656487D01*
X112458966Y-69741401D01*
X112200986Y-69879294D01*
X111974866Y-70064866D01*
X111789294Y-70290986D01*
X111760000Y-70345791D01*
X111730706Y-70290986D01*
X111545134Y-70064866D01*
X111319014Y-69879294D01*
X111061034Y-69741401D01*
X110781111Y-69656487D01*
X110562950Y-69635000D01*
X110417050Y-69635000D01*
X110198889Y-69656487D01*
X109918966Y-69741401D01*
X109660986Y-69879294D01*
X109434866Y-70064866D01*
X109249294Y-70290986D01*
X109220000Y-70345791D01*
X109190706Y-70290986D01*
X109005134Y-70064866D01*
X108779014Y-69879294D01*
X108521034Y-69741401D01*
X108241111Y-69656487D01*
X108022950Y-69635000D01*
X107877050Y-69635000D01*
X107658889Y-69656487D01*
X107378966Y-69741401D01*
X107120986Y-69879294D01*
X106894866Y-70064866D01*
X106709294Y-70290986D01*
X106680000Y-70345791D01*
X106650706Y-70290986D01*
X106465134Y-70064866D01*
X106239014Y-69879294D01*
X105981034Y-69741401D01*
X105701111Y-69656487D01*
X105482950Y-69635000D01*
X105337050Y-69635000D01*
X105118889Y-69656487D01*
X104838966Y-69741401D01*
X104580986Y-69879294D01*
X104354866Y-70064866D01*
X104169294Y-70290986D01*
X104140000Y-70345791D01*
X104110706Y-70290986D01*
X103925134Y-70064866D01*
X103699014Y-69879294D01*
X103441034Y-69741401D01*
X103161111Y-69656487D01*
X102942950Y-69635000D01*
X102797050Y-69635000D01*
X102578889Y-69656487D01*
X102298966Y-69741401D01*
X102040986Y-69879294D01*
X101814866Y-70064866D01*
X101629294Y-70290986D01*
X101600000Y-70345791D01*
X101570706Y-70290986D01*
X101385134Y-70064866D01*
X101159014Y-69879294D01*
X100901034Y-69741401D01*
X100621111Y-69656487D01*
X100402950Y-69635000D01*
X100257050Y-69635000D01*
X100038889Y-69656487D01*
X99758966Y-69741401D01*
X99500986Y-69879294D01*
X99274866Y-70064866D01*
X99089294Y-70290986D01*
X99060000Y-70345791D01*
X99030706Y-70290986D01*
X98845134Y-70064866D01*
X98619014Y-69879294D01*
X98361034Y-69741401D01*
X98081111Y-69656487D01*
X97862950Y-69635000D01*
X97717050Y-69635000D01*
X97498889Y-69656487D01*
X97218966Y-69741401D01*
X96960986Y-69879294D01*
X96734866Y-70064866D01*
X96549294Y-70290986D01*
X96520000Y-70345791D01*
X96490706Y-70290986D01*
X96305134Y-70064866D01*
X96079014Y-69879294D01*
X95821034Y-69741401D01*
X95541111Y-69656487D01*
X95322950Y-69635000D01*
X95177050Y-69635000D01*
X94958889Y-69656487D01*
X94678966Y-69741401D01*
X94420986Y-69879294D01*
X94194866Y-70064866D01*
X94009294Y-70290986D01*
X93980000Y-70345791D01*
X93950706Y-70290986D01*
X93765134Y-70064866D01*
X93539014Y-69879294D01*
X93281034Y-69741401D01*
X93001111Y-69656487D01*
X92782950Y-69635000D01*
X92637050Y-69635000D01*
X92418889Y-69656487D01*
X92138966Y-69741401D01*
X91880986Y-69879294D01*
X91654866Y-70064866D01*
X91469294Y-70290986D01*
X91440000Y-70345791D01*
X91410706Y-70290986D01*
X91225134Y-70064866D01*
X90999014Y-69879294D01*
X90741034Y-69741401D01*
X90461111Y-69656487D01*
X90242950Y-69635000D01*
X90097050Y-69635000D01*
X89878889Y-69656487D01*
X89598966Y-69741401D01*
X89340986Y-69879294D01*
X89114866Y-70064866D01*
X88929294Y-70290986D01*
X88900000Y-70345791D01*
X88870706Y-70290986D01*
X88685134Y-70064866D01*
X88459014Y-69879294D01*
X88201034Y-69741401D01*
X87921111Y-69656487D01*
X87702950Y-69635000D01*
X87557050Y-69635000D01*
X87338889Y-69656487D01*
X87058966Y-69741401D01*
X86800986Y-69879294D01*
X86574866Y-70064866D01*
X86389294Y-70290986D01*
X86360000Y-70345791D01*
X86330706Y-70290986D01*
X86145134Y-70064866D01*
X85919014Y-69879294D01*
X85661034Y-69741401D01*
X85381111Y-69656487D01*
X85162950Y-69635000D01*
X85017050Y-69635000D01*
X84798889Y-69656487D01*
X84518966Y-69741401D01*
X84260986Y-69879294D01*
X84034866Y-70064866D01*
X83849294Y-70290986D01*
X83820000Y-70345791D01*
X83790706Y-70290986D01*
X83605134Y-70064866D01*
X83379014Y-69879294D01*
X83121034Y-69741401D01*
X82841111Y-69656487D01*
X82622950Y-69635000D01*
X82477050Y-69635000D01*
X82258889Y-69656487D01*
X81978966Y-69741401D01*
X81720986Y-69879294D01*
X81494866Y-70064866D01*
X81309294Y-70290986D01*
X81280000Y-70345791D01*
X81250706Y-70290986D01*
X81065134Y-70064866D01*
X80839014Y-69879294D01*
X80581034Y-69741401D01*
X80301111Y-69656487D01*
X80082950Y-69635000D01*
X79937050Y-69635000D01*
X79718889Y-69656487D01*
X79438966Y-69741401D01*
X79180986Y-69879294D01*
X78954866Y-70064866D01*
X78769294Y-70290986D01*
X78631401Y-70548966D01*
X78546487Y-70828889D01*
X78517815Y-71120000D01*
X78546487Y-71411111D01*
X78631401Y-71691034D01*
X78769294Y-71949014D01*
X78954866Y-72175134D01*
X79180986Y-72360706D01*
X79235791Y-72390000D01*
X79180986Y-72419294D01*
X78954866Y-72604866D01*
X78769294Y-72830986D01*
X78631401Y-73088966D01*
X78546487Y-73368889D01*
X78517815Y-73660000D01*
X78546487Y-73951111D01*
X78631401Y-74231034D01*
X78769294Y-74489014D01*
X78954866Y-74715134D01*
X79180986Y-74900706D01*
X79438966Y-75038599D01*
X79718889Y-75123513D01*
X79937050Y-75145000D01*
X80082950Y-75145000D01*
X80301111Y-75123513D01*
X80581034Y-75038599D01*
X80839014Y-74900706D01*
X81065134Y-74715134D01*
X81250706Y-74489014D01*
X81280000Y-74434209D01*
X81309294Y-74489014D01*
X81494866Y-74715134D01*
X81720986Y-74900706D01*
X81978966Y-75038599D01*
X82258889Y-75123513D01*
X82477050Y-75145000D01*
X82622950Y-75145000D01*
X82841111Y-75123513D01*
X83121034Y-75038599D01*
X83379014Y-74900706D01*
X83605134Y-74715134D01*
X83790706Y-74489014D01*
X83820000Y-74434209D01*
X83849294Y-74489014D01*
X84034866Y-74715134D01*
X84260986Y-74900706D01*
X84518966Y-75038599D01*
X84798889Y-75123513D01*
X85017050Y-75145000D01*
X85162950Y-75145000D01*
X85381111Y-75123513D01*
X85661034Y-75038599D01*
X85919014Y-74900706D01*
X86145134Y-74715134D01*
X86330706Y-74489014D01*
X86360000Y-74434209D01*
X86389294Y-74489014D01*
X86574866Y-74715134D01*
X86800986Y-74900706D01*
X87058966Y-75038599D01*
X87338889Y-75123513D01*
X87557050Y-75145000D01*
X87702950Y-75145000D01*
X87921111Y-75123513D01*
X88201034Y-75038599D01*
X88459014Y-74900706D01*
X88685134Y-74715134D01*
X88870706Y-74489014D01*
X88900000Y-74434209D01*
X88929294Y-74489014D01*
X89114866Y-74715134D01*
X89340986Y-74900706D01*
X89598966Y-75038599D01*
X89878889Y-75123513D01*
X90097050Y-75145000D01*
X90242950Y-75145000D01*
X90461111Y-75123513D01*
X90741034Y-75038599D01*
X90999014Y-74900706D01*
X91225134Y-74715134D01*
X91410706Y-74489014D01*
X91440000Y-74434209D01*
X91469294Y-74489014D01*
X91654866Y-74715134D01*
X91880986Y-74900706D01*
X92138966Y-75038599D01*
X92418889Y-75123513D01*
X92637050Y-75145000D01*
X92782950Y-75145000D01*
X93001111Y-75123513D01*
X93281034Y-75038599D01*
X93539014Y-74900706D01*
X93765134Y-74715134D01*
X93950706Y-74489014D01*
X93980000Y-74434209D01*
X94009294Y-74489014D01*
X94194866Y-74715134D01*
X94420986Y-74900706D01*
X94678966Y-75038599D01*
X94958889Y-75123513D01*
X95177050Y-75145000D01*
X95322950Y-75145000D01*
X95541111Y-75123513D01*
X95821034Y-75038599D01*
X96079014Y-74900706D01*
X96305134Y-74715134D01*
X96490706Y-74489014D01*
X96520000Y-74434209D01*
X96549294Y-74489014D01*
X96734866Y-74715134D01*
X96960986Y-74900706D01*
X97218966Y-75038599D01*
X97498889Y-75123513D01*
X97717050Y-75145000D01*
X97862950Y-75145000D01*
X98081111Y-75123513D01*
X98361034Y-75038599D01*
X98619014Y-74900706D01*
X98845134Y-74715134D01*
X99030706Y-74489014D01*
X99060000Y-74434209D01*
X99089294Y-74489014D01*
X99274866Y-74715134D01*
X99500986Y-74900706D01*
X99758966Y-75038599D01*
X100038889Y-75123513D01*
X100257050Y-75145000D01*
X100402950Y-75145000D01*
X100621111Y-75123513D01*
X100901034Y-75038599D01*
X101159014Y-74900706D01*
X101385134Y-74715134D01*
X101570706Y-74489014D01*
X101600000Y-74434209D01*
X101629294Y-74489014D01*
X101814866Y-74715134D01*
X102040986Y-74900706D01*
X102298966Y-75038599D01*
X102578889Y-75123513D01*
X102797050Y-75145000D01*
X102942950Y-75145000D01*
X103161111Y-75123513D01*
X103441034Y-75038599D01*
X103699014Y-74900706D01*
X103925134Y-74715134D01*
X104110706Y-74489014D01*
X104140000Y-74434209D01*
X104169294Y-74489014D01*
X104354866Y-74715134D01*
X104580986Y-74900706D01*
X104838966Y-75038599D01*
X105118889Y-75123513D01*
X105337050Y-75145000D01*
X105482950Y-75145000D01*
X105701111Y-75123513D01*
X105981034Y-75038599D01*
X106239014Y-74900706D01*
X106465134Y-74715134D01*
X106650706Y-74489014D01*
X106680000Y-74434209D01*
X106709294Y-74489014D01*
X106894866Y-74715134D01*
X107120986Y-74900706D01*
X107378966Y-75038599D01*
X107658889Y-75123513D01*
X107877050Y-75145000D01*
X108022950Y-75145000D01*
X108241111Y-75123513D01*
X108521034Y-75038599D01*
X108779014Y-74900706D01*
X109005134Y-74715134D01*
X109190706Y-74489014D01*
X109220000Y-74434209D01*
X109249294Y-74489014D01*
X109434866Y-74715134D01*
X109660986Y-74900706D01*
X109918966Y-75038599D01*
X110198889Y-75123513D01*
X110417050Y-75145000D01*
X110562950Y-75145000D01*
X110781111Y-75123513D01*
X111061034Y-75038599D01*
X111319014Y-74900706D01*
X111545134Y-74715134D01*
X111730706Y-74489014D01*
X111760000Y-74434209D01*
X111789294Y-74489014D01*
X111974866Y-74715134D01*
X112200986Y-74900706D01*
X112458966Y-75038599D01*
X112738889Y-75123513D01*
X112957050Y-75145000D01*
X113102950Y-75145000D01*
X113321111Y-75123513D01*
X113601034Y-75038599D01*
X113859014Y-74900706D01*
X114085134Y-74715134D01*
X114270706Y-74489014D01*
X114300000Y-74434209D01*
X114329294Y-74489014D01*
X114514866Y-74715134D01*
X114740986Y-74900706D01*
X114998966Y-75038599D01*
X115278889Y-75123513D01*
X115497050Y-75145000D01*
X115642950Y-75145000D01*
X115861111Y-75123513D01*
X116141034Y-75038599D01*
X116399014Y-74900706D01*
X116625134Y-74715134D01*
X116810706Y-74489014D01*
X116840000Y-74434209D01*
X116869294Y-74489014D01*
X117054866Y-74715134D01*
X117280986Y-74900706D01*
X117538966Y-75038599D01*
X117818889Y-75123513D01*
X118037050Y-75145000D01*
X118182950Y-75145000D01*
X118401111Y-75123513D01*
X118681034Y-75038599D01*
X118939014Y-74900706D01*
X119165134Y-74715134D01*
X119350706Y-74489014D01*
X119380000Y-74434209D01*
X119409294Y-74489014D01*
X119594866Y-74715134D01*
X119820986Y-74900706D01*
X120078966Y-75038599D01*
X120358889Y-75123513D01*
X120577050Y-75145000D01*
X120722950Y-75145000D01*
X120941111Y-75123513D01*
X121221034Y-75038599D01*
X121479014Y-74900706D01*
X121705134Y-74715134D01*
X121890706Y-74489014D01*
X121920000Y-74434209D01*
X121949294Y-74489014D01*
X122134866Y-74715134D01*
X122360986Y-74900706D01*
X122618966Y-75038599D01*
X122898889Y-75123513D01*
X123117050Y-75145000D01*
X123262950Y-75145000D01*
X123481111Y-75123513D01*
X123761034Y-75038599D01*
X124019014Y-74900706D01*
X124245134Y-74715134D01*
X124430706Y-74489014D01*
X124460000Y-74434209D01*
X124489294Y-74489014D01*
X124674866Y-74715134D01*
X124900986Y-74900706D01*
X125158966Y-75038599D01*
X125438889Y-75123513D01*
X125657050Y-75145000D01*
X125802950Y-75145000D01*
X126021111Y-75123513D01*
X126301034Y-75038599D01*
X126559014Y-74900706D01*
X126785134Y-74715134D01*
X126809607Y-74685313D01*
X126830498Y-74754180D01*
X126889463Y-74864494D01*
X126968815Y-74961185D01*
X127065506Y-75040537D01*
X127175820Y-75099502D01*
X127295518Y-75135812D01*
X127420000Y-75148072D01*
X129120000Y-75148072D01*
X129244482Y-75135812D01*
X129364180Y-75099502D01*
X129413000Y-75073407D01*
X129413000Y-76597689D01*
X129384637Y-76555241D01*
X129184759Y-76355363D01*
X128949727Y-76198320D01*
X128688574Y-76090147D01*
X128411335Y-76035000D01*
X128128665Y-76035000D01*
X127851426Y-76090147D01*
X127590273Y-76198320D01*
X127355241Y-76355363D01*
X127155363Y-76555241D01*
X127000000Y-76787759D01*
X126844637Y-76555241D01*
X126644759Y-76355363D01*
X126409727Y-76198320D01*
X126148574Y-76090147D01*
X125871335Y-76035000D01*
X125588665Y-76035000D01*
X125311426Y-76090147D01*
X125050273Y-76198320D01*
X124815241Y-76355363D01*
X124615363Y-76555241D01*
X124460000Y-76787759D01*
X124304637Y-76555241D01*
X124104759Y-76355363D01*
X123869727Y-76198320D01*
X123608574Y-76090147D01*
X123331335Y-76035000D01*
X123048665Y-76035000D01*
X122771426Y-76090147D01*
X122510273Y-76198320D01*
X122275241Y-76355363D01*
X122075363Y-76555241D01*
X121920000Y-76787759D01*
X121764637Y-76555241D01*
X121564759Y-76355363D01*
X121329727Y-76198320D01*
X121068574Y-76090147D01*
X120791335Y-76035000D01*
X120508665Y-76035000D01*
X120231426Y-76090147D01*
X119970273Y-76198320D01*
X119735241Y-76355363D01*
X119535363Y-76555241D01*
X119380000Y-76787759D01*
X119224637Y-76555241D01*
X119024759Y-76355363D01*
X118789727Y-76198320D01*
X118528574Y-76090147D01*
X118251335Y-76035000D01*
X117968665Y-76035000D01*
X117691426Y-76090147D01*
X117430273Y-76198320D01*
X117195241Y-76355363D01*
X116995363Y-76555241D01*
X116840000Y-76787759D01*
X116684637Y-76555241D01*
X116484759Y-76355363D01*
X116249727Y-76198320D01*
X115988574Y-76090147D01*
X115711335Y-76035000D01*
X115428665Y-76035000D01*
X115151426Y-76090147D01*
X114890273Y-76198320D01*
X114655241Y-76355363D01*
X114455363Y-76555241D01*
X114300000Y-76787759D01*
X114144637Y-76555241D01*
X113944759Y-76355363D01*
X113709727Y-76198320D01*
X113448574Y-76090147D01*
X113171335Y-76035000D01*
X112888665Y-76035000D01*
X112611426Y-76090147D01*
X112350273Y-76198320D01*
X112115241Y-76355363D01*
X111915363Y-76555241D01*
X111760000Y-76787759D01*
X111604637Y-76555241D01*
X111404759Y-76355363D01*
X111169727Y-76198320D01*
X110908574Y-76090147D01*
X110631335Y-76035000D01*
X110348665Y-76035000D01*
X110071426Y-76090147D01*
X109810273Y-76198320D01*
X109575241Y-76355363D01*
X109375363Y-76555241D01*
X109220000Y-76787759D01*
X109064637Y-76555241D01*
X108864759Y-76355363D01*
X108629727Y-76198320D01*
X108368574Y-76090147D01*
X108091335Y-76035000D01*
X107808665Y-76035000D01*
X107531426Y-76090147D01*
X107270273Y-76198320D01*
X107035241Y-76355363D01*
X106835363Y-76555241D01*
X106680000Y-76787759D01*
X106524637Y-76555241D01*
X106324759Y-76355363D01*
X106089727Y-76198320D01*
X105828574Y-76090147D01*
X105551335Y-76035000D01*
X105268665Y-76035000D01*
X104991426Y-76090147D01*
X104730273Y-76198320D01*
X104495241Y-76355363D01*
X104295363Y-76555241D01*
X104140000Y-76787759D01*
X103984637Y-76555241D01*
X103784759Y-76355363D01*
X103549727Y-76198320D01*
X103288574Y-76090147D01*
X103011335Y-76035000D01*
X102728665Y-76035000D01*
X102451426Y-76090147D01*
X102190273Y-76198320D01*
X101955241Y-76355363D01*
X101755363Y-76555241D01*
X101600000Y-76787759D01*
X101444637Y-76555241D01*
X101244759Y-76355363D01*
X101009727Y-76198320D01*
X100748574Y-76090147D01*
X100471335Y-76035000D01*
X100188665Y-76035000D01*
X99911426Y-76090147D01*
X99650273Y-76198320D01*
X99415241Y-76355363D01*
X99215363Y-76555241D01*
X99060000Y-76787759D01*
X98904637Y-76555241D01*
X98704759Y-76355363D01*
X98469727Y-76198320D01*
X98208574Y-76090147D01*
X97931335Y-76035000D01*
X97648665Y-76035000D01*
X97371426Y-76090147D01*
X97110273Y-76198320D01*
X96875241Y-76355363D01*
X96675363Y-76555241D01*
X96520000Y-76787759D01*
X96364637Y-76555241D01*
X96164759Y-76355363D01*
X95929727Y-76198320D01*
X95668574Y-76090147D01*
X95391335Y-76035000D01*
X95108665Y-76035000D01*
X94831426Y-76090147D01*
X94570273Y-76198320D01*
X94335241Y-76355363D01*
X94135363Y-76555241D01*
X93980000Y-76787759D01*
X93824637Y-76555241D01*
X93624759Y-76355363D01*
X93389727Y-76198320D01*
X93128574Y-76090147D01*
X92851335Y-76035000D01*
X92568665Y-76035000D01*
X92291426Y-76090147D01*
X92030273Y-76198320D01*
X91795241Y-76355363D01*
X91595363Y-76555241D01*
X91440000Y-76787759D01*
X91284637Y-76555241D01*
X91084759Y-76355363D01*
X90849727Y-76198320D01*
X90588574Y-76090147D01*
X90311335Y-76035000D01*
X90028665Y-76035000D01*
X89751426Y-76090147D01*
X89490273Y-76198320D01*
X89255241Y-76355363D01*
X89055363Y-76555241D01*
X88900000Y-76787759D01*
X88744637Y-76555241D01*
X88544759Y-76355363D01*
X88309727Y-76198320D01*
X88048574Y-76090147D01*
X87771335Y-76035000D01*
X87488665Y-76035000D01*
X87211426Y-76090147D01*
X86950273Y-76198320D01*
X86715241Y-76355363D01*
X86515363Y-76555241D01*
X86360000Y-76787759D01*
X86204637Y-76555241D01*
X86004759Y-76355363D01*
X85769727Y-76198320D01*
X85508574Y-76090147D01*
X85231335Y-76035000D01*
X84948665Y-76035000D01*
X84671426Y-76090147D01*
X84410273Y-76198320D01*
X84175241Y-76355363D01*
X83975363Y-76555241D01*
X83820000Y-76787759D01*
X83664637Y-76555241D01*
X83464759Y-76355363D01*
X83229727Y-76198320D01*
X82968574Y-76090147D01*
X82691335Y-76035000D01*
X82408665Y-76035000D01*
X82131426Y-76090147D01*
X81870273Y-76198320D01*
X81635241Y-76355363D01*
X81435363Y-76555241D01*
X81280000Y-76787759D01*
X81124637Y-76555241D01*
X80924759Y-76355363D01*
X80689727Y-76198320D01*
X80428574Y-76090147D01*
X80151335Y-76035000D01*
X79868665Y-76035000D01*
X79591426Y-76090147D01*
X79330273Y-76198320D01*
X79095241Y-76355363D01*
X78895363Y-76555241D01*
X78738320Y-76790273D01*
X78630147Y-77051426D01*
X78575000Y-77328665D01*
X78575000Y-77611335D01*
X78630147Y-77888574D01*
X78738320Y-78149727D01*
X78895363Y-78384759D01*
X79095241Y-78584637D01*
X79330273Y-78741680D01*
X79591426Y-78849853D01*
X79868665Y-78905000D01*
X80151335Y-78905000D01*
X80428574Y-78849853D01*
X80689727Y-78741680D01*
X80924759Y-78584637D01*
X81124637Y-78384759D01*
X81280000Y-78152241D01*
X81435363Y-78384759D01*
X81635241Y-78584637D01*
X81870273Y-78741680D01*
X82131426Y-78849853D01*
X82408665Y-78905000D01*
X82691335Y-78905000D01*
X82968574Y-78849853D01*
X83229727Y-78741680D01*
X83464759Y-78584637D01*
X83664637Y-78384759D01*
X83820000Y-78152241D01*
X83975363Y-78384759D01*
X84175241Y-78584637D01*
X84410273Y-78741680D01*
X84671426Y-78849853D01*
X84948665Y-78905000D01*
X85231335Y-78905000D01*
X85508574Y-78849853D01*
X85769727Y-78741680D01*
X86004759Y-78584637D01*
X86204637Y-78384759D01*
X86360000Y-78152241D01*
X86515363Y-78384759D01*
X86715241Y-78584637D01*
X86950273Y-78741680D01*
X87211426Y-78849853D01*
X87488665Y-78905000D01*
X87771335Y-78905000D01*
X88048574Y-78849853D01*
X88309727Y-78741680D01*
X88544759Y-78584637D01*
X88744637Y-78384759D01*
X88900000Y-78152241D01*
X89055363Y-78384759D01*
X89255241Y-78584637D01*
X89490273Y-78741680D01*
X89751426Y-78849853D01*
X90028665Y-78905000D01*
X90311335Y-78905000D01*
X90588574Y-78849853D01*
X90849727Y-78741680D01*
X91084759Y-78584637D01*
X91284637Y-78384759D01*
X91440000Y-78152241D01*
X91595363Y-78384759D01*
X91795241Y-78584637D01*
X92030273Y-78741680D01*
X92291426Y-78849853D01*
X92568665Y-78905000D01*
X92851335Y-78905000D01*
X93128574Y-78849853D01*
X93389727Y-78741680D01*
X93624759Y-78584637D01*
X93824637Y-78384759D01*
X93980000Y-78152241D01*
X94135363Y-78384759D01*
X94335241Y-78584637D01*
X94570273Y-78741680D01*
X94831426Y-78849853D01*
X95108665Y-78905000D01*
X95391335Y-78905000D01*
X95668574Y-78849853D01*
X95929727Y-78741680D01*
X96164759Y-78584637D01*
X96364637Y-78384759D01*
X96520000Y-78152241D01*
X96675363Y-78384759D01*
X96875241Y-78584637D01*
X97110273Y-78741680D01*
X97371426Y-78849853D01*
X97648665Y-78905000D01*
X97931335Y-78905000D01*
X98208574Y-78849853D01*
X98469727Y-78741680D01*
X98704759Y-78584637D01*
X98904637Y-78384759D01*
X99060000Y-78152241D01*
X99215363Y-78384759D01*
X99415241Y-78584637D01*
X99650273Y-78741680D01*
X99911426Y-78849853D01*
X100188665Y-78905000D01*
X100471335Y-78905000D01*
X100748574Y-78849853D01*
X101009727Y-78741680D01*
X101244759Y-78584637D01*
X101444637Y-78384759D01*
X101600000Y-78152241D01*
X101755363Y-78384759D01*
X101955241Y-78584637D01*
X102190273Y-78741680D01*
X102451426Y-78849853D01*
X102728665Y-78905000D01*
X103011335Y-78905000D01*
X103288574Y-78849853D01*
X103549727Y-78741680D01*
X103784759Y-78584637D01*
X103984637Y-78384759D01*
X104140000Y-78152241D01*
X104295363Y-78384759D01*
X104495241Y-78584637D01*
X104730273Y-78741680D01*
X104991426Y-78849853D01*
X105268665Y-78905000D01*
X105551335Y-78905000D01*
X105828574Y-78849853D01*
X106089727Y-78741680D01*
X106324759Y-78584637D01*
X106524637Y-78384759D01*
X106680000Y-78152241D01*
X106835363Y-78384759D01*
X107035241Y-78584637D01*
X107270273Y-78741680D01*
X107531426Y-78849853D01*
X107808665Y-78905000D01*
X108091335Y-78905000D01*
X108368574Y-78849853D01*
X108629727Y-78741680D01*
X108864759Y-78584637D01*
X109064637Y-78384759D01*
X109220000Y-78152241D01*
X109375363Y-78384759D01*
X109575241Y-78584637D01*
X109810273Y-78741680D01*
X110071426Y-78849853D01*
X110348665Y-78905000D01*
X110631335Y-78905000D01*
X110908574Y-78849853D01*
X111169727Y-78741680D01*
X111404759Y-78584637D01*
X111604637Y-78384759D01*
X111760000Y-78152241D01*
X111915363Y-78384759D01*
X112115241Y-78584637D01*
X112350273Y-78741680D01*
X112611426Y-78849853D01*
X112888665Y-78905000D01*
X113171335Y-78905000D01*
X113448574Y-78849853D01*
X113709727Y-78741680D01*
X113944759Y-78584637D01*
X114144637Y-78384759D01*
X114300000Y-78152241D01*
X114455363Y-78384759D01*
X114655241Y-78584637D01*
X114890273Y-78741680D01*
X115151426Y-78849853D01*
X115428665Y-78905000D01*
X115711335Y-78905000D01*
X115988574Y-78849853D01*
X116249727Y-78741680D01*
X116484759Y-78584637D01*
X116684637Y-78384759D01*
X116840000Y-78152241D01*
X116995363Y-78384759D01*
X117195241Y-78584637D01*
X117430273Y-78741680D01*
X117691426Y-78849853D01*
X117968665Y-78905000D01*
X118251335Y-78905000D01*
X118528574Y-78849853D01*
X118789727Y-78741680D01*
X119024759Y-78584637D01*
X119224637Y-78384759D01*
X119380000Y-78152241D01*
X119535363Y-78384759D01*
X119735241Y-78584637D01*
X119970273Y-78741680D01*
X120231426Y-78849853D01*
X120508665Y-78905000D01*
X120791335Y-78905000D01*
X121068574Y-78849853D01*
X121329727Y-78741680D01*
X121564759Y-78584637D01*
X121764637Y-78384759D01*
X121920000Y-78152241D01*
X122075363Y-78384759D01*
X122275241Y-78584637D01*
X122510273Y-78741680D01*
X122771426Y-78849853D01*
X123048665Y-78905000D01*
X123331335Y-78905000D01*
X123608574Y-78849853D01*
X123869727Y-78741680D01*
X124104759Y-78584637D01*
X124304637Y-78384759D01*
X124460000Y-78152241D01*
X124615363Y-78384759D01*
X124815241Y-78584637D01*
X125050273Y-78741680D01*
X125311426Y-78849853D01*
X125588665Y-78905000D01*
X125871335Y-78905000D01*
X126148574Y-78849853D01*
X126409727Y-78741680D01*
X126644759Y-78584637D01*
X126844637Y-78384759D01*
X127000000Y-78152241D01*
X127155363Y-78384759D01*
X127355241Y-78584637D01*
X127590273Y-78741680D01*
X127851426Y-78849853D01*
X128128665Y-78905000D01*
X128411335Y-78905000D01*
X128688574Y-78849853D01*
X128949727Y-78741680D01*
X129184759Y-78584637D01*
X129384637Y-78384759D01*
X129413000Y-78342311D01*
X129413000Y-86760746D01*
X129289608Y-86610392D01*
X129071101Y-86431068D01*
X128821808Y-86297818D01*
X128551309Y-86215764D01*
X128340492Y-86195000D01*
X128199508Y-86195000D01*
X127988691Y-86215764D01*
X127718192Y-86297818D01*
X127468899Y-86431068D01*
X127250392Y-86610392D01*
X127071068Y-86828899D01*
X127000000Y-86961858D01*
X126928932Y-86828899D01*
X126749608Y-86610392D01*
X126531101Y-86431068D01*
X126281808Y-86297818D01*
X126011309Y-86215764D01*
X125800492Y-86195000D01*
X125659508Y-86195000D01*
X125448691Y-86215764D01*
X125178192Y-86297818D01*
X124928899Y-86431068D01*
X124710392Y-86610392D01*
X124531068Y-86828899D01*
X124460000Y-86961858D01*
X124388932Y-86828899D01*
X124209608Y-86610392D01*
X123991101Y-86431068D01*
X123741808Y-86297818D01*
X123471309Y-86215764D01*
X123260492Y-86195000D01*
X123119508Y-86195000D01*
X122908691Y-86215764D01*
X122638192Y-86297818D01*
X122388899Y-86431068D01*
X122170392Y-86610392D01*
X121991068Y-86828899D01*
X121920000Y-86961858D01*
X121848932Y-86828899D01*
X121669608Y-86610392D01*
X121451101Y-86431068D01*
X121201808Y-86297818D01*
X120931309Y-86215764D01*
X120720492Y-86195000D01*
X120579508Y-86195000D01*
X120368691Y-86215764D01*
X120098192Y-86297818D01*
X119848899Y-86431068D01*
X119630392Y-86610392D01*
X119451068Y-86828899D01*
X119380000Y-86961858D01*
X119308932Y-86828899D01*
X119129608Y-86610392D01*
X118911101Y-86431068D01*
X118661808Y-86297818D01*
X118391309Y-86215764D01*
X118180492Y-86195000D01*
X118039508Y-86195000D01*
X117828691Y-86215764D01*
X117558192Y-86297818D01*
X117308899Y-86431068D01*
X117090392Y-86610392D01*
X116911068Y-86828899D01*
X116840000Y-86961858D01*
X116768932Y-86828899D01*
X116589608Y-86610392D01*
X116371101Y-86431068D01*
X116121808Y-86297818D01*
X115851309Y-86215764D01*
X115640492Y-86195000D01*
X115499508Y-86195000D01*
X115288691Y-86215764D01*
X115018192Y-86297818D01*
X114768899Y-86431068D01*
X114550392Y-86610392D01*
X114371068Y-86828899D01*
X114300000Y-86961858D01*
X114228932Y-86828899D01*
X114049608Y-86610392D01*
X113831101Y-86431068D01*
X113581808Y-86297818D01*
X113311309Y-86215764D01*
X113100492Y-86195000D01*
X112959508Y-86195000D01*
X112748691Y-86215764D01*
X112478192Y-86297818D01*
X112228899Y-86431068D01*
X112010392Y-86610392D01*
X111831068Y-86828899D01*
X111760000Y-86961858D01*
X111688932Y-86828899D01*
X111509608Y-86610392D01*
X111291101Y-86431068D01*
X111041808Y-86297818D01*
X110771309Y-86215764D01*
X110560492Y-86195000D01*
X110419508Y-86195000D01*
X110208691Y-86215764D01*
X109938192Y-86297818D01*
X109688899Y-86431068D01*
X109470392Y-86610392D01*
X109291068Y-86828899D01*
X109220000Y-86961858D01*
X109148932Y-86828899D01*
X108969608Y-86610392D01*
X108751101Y-86431068D01*
X108501808Y-86297818D01*
X108231309Y-86215764D01*
X108020492Y-86195000D01*
X107879508Y-86195000D01*
X107668691Y-86215764D01*
X107398192Y-86297818D01*
X107148899Y-86431068D01*
X106930392Y-86610392D01*
X106751068Y-86828899D01*
X106680000Y-86961858D01*
X106608932Y-86828899D01*
X106429608Y-86610392D01*
X106211101Y-86431068D01*
X105961808Y-86297818D01*
X105691309Y-86215764D01*
X105480492Y-86195000D01*
X105339508Y-86195000D01*
X105128691Y-86215764D01*
X104858192Y-86297818D01*
X104608899Y-86431068D01*
X104390392Y-86610392D01*
X104211068Y-86828899D01*
X104140000Y-86961858D01*
X104068932Y-86828899D01*
X103889608Y-86610392D01*
X103671101Y-86431068D01*
X103421808Y-86297818D01*
X103151309Y-86215764D01*
X102940492Y-86195000D01*
X102799508Y-86195000D01*
X102588691Y-86215764D01*
X102318192Y-86297818D01*
X102068899Y-86431068D01*
X101850392Y-86610392D01*
X101671068Y-86828899D01*
X101600000Y-86961858D01*
X101528932Y-86828899D01*
X101349608Y-86610392D01*
X101131101Y-86431068D01*
X100881808Y-86297818D01*
X100611309Y-86215764D01*
X100400492Y-86195000D01*
X100259508Y-86195000D01*
X100048691Y-86215764D01*
X99778192Y-86297818D01*
X99528899Y-86431068D01*
X99310392Y-86610392D01*
X99131068Y-86828899D01*
X99060000Y-86961858D01*
X98988932Y-86828899D01*
X98809608Y-86610392D01*
X98591101Y-86431068D01*
X98341808Y-86297818D01*
X98071309Y-86215764D01*
X97860492Y-86195000D01*
X97719508Y-86195000D01*
X97508691Y-86215764D01*
X97238192Y-86297818D01*
X96988899Y-86431068D01*
X96770392Y-86610392D01*
X96591068Y-86828899D01*
X96520000Y-86961858D01*
X96448932Y-86828899D01*
X96269608Y-86610392D01*
X96051101Y-86431068D01*
X95801808Y-86297818D01*
X95531309Y-86215764D01*
X95320492Y-86195000D01*
X95179508Y-86195000D01*
X94968691Y-86215764D01*
X94698192Y-86297818D01*
X94448899Y-86431068D01*
X94230392Y-86610392D01*
X94051068Y-86828899D01*
X93980000Y-86961858D01*
X93908932Y-86828899D01*
X93729608Y-86610392D01*
X93511101Y-86431068D01*
X93261808Y-86297818D01*
X92991309Y-86215764D01*
X92780492Y-86195000D01*
X92639508Y-86195000D01*
X92428691Y-86215764D01*
X92158192Y-86297818D01*
X91908899Y-86431068D01*
X91690392Y-86610392D01*
X91511068Y-86828899D01*
X91440000Y-86961858D01*
X91368932Y-86828899D01*
X91189608Y-86610392D01*
X90971101Y-86431068D01*
X90721808Y-86297818D01*
X90451309Y-86215764D01*
X90240492Y-86195000D01*
X90099508Y-86195000D01*
X89888691Y-86215764D01*
X89618192Y-86297818D01*
X89368899Y-86431068D01*
X89150392Y-86610392D01*
X88971068Y-86828899D01*
X88900000Y-86961858D01*
X88828932Y-86828899D01*
X88649608Y-86610392D01*
X88431101Y-86431068D01*
X88181808Y-86297818D01*
X87911309Y-86215764D01*
X87700492Y-86195000D01*
X87559508Y-86195000D01*
X87348691Y-86215764D01*
X87078192Y-86297818D01*
X86828899Y-86431068D01*
X86610392Y-86610392D01*
X86431068Y-86828899D01*
X86360000Y-86961858D01*
X86288932Y-86828899D01*
X86109608Y-86610392D01*
X85891101Y-86431068D01*
X85641808Y-86297818D01*
X85371309Y-86215764D01*
X85160492Y-86195000D01*
X85019508Y-86195000D01*
X84808691Y-86215764D01*
X84538192Y-86297818D01*
X84288899Y-86431068D01*
X84070392Y-86610392D01*
X83891068Y-86828899D01*
X83820000Y-86961858D01*
X83748932Y-86828899D01*
X83569608Y-86610392D01*
X83351101Y-86431068D01*
X83101808Y-86297818D01*
X82831309Y-86215764D01*
X82620492Y-86195000D01*
X82479508Y-86195000D01*
X82268691Y-86215764D01*
X81998192Y-86297818D01*
X81748899Y-86431068D01*
X81530392Y-86610392D01*
X81351068Y-86828899D01*
X81280000Y-86961858D01*
X81208932Y-86828899D01*
X81029608Y-86610392D01*
X80811101Y-86431068D01*
X80561808Y-86297818D01*
X80291309Y-86215764D01*
X80080492Y-86195000D01*
X79939508Y-86195000D01*
X79728691Y-86215764D01*
X79458192Y-86297818D01*
X79208899Y-86431068D01*
X78990392Y-86610392D01*
X78811068Y-86828899D01*
X78677818Y-87078192D01*
X78595764Y-87348691D01*
X78568057Y-87630000D01*
X78595764Y-87911309D01*
X78677818Y-88181808D01*
X78811068Y-88431101D01*
X78990392Y-88649608D01*
X79208899Y-88828932D01*
X79458192Y-88962182D01*
X79728691Y-89044236D01*
X79939508Y-89065000D01*
X80080492Y-89065000D01*
X80291309Y-89044236D01*
X80561808Y-88962182D01*
X80811101Y-88828932D01*
X81029608Y-88649608D01*
X81208932Y-88431101D01*
X81280000Y-88298142D01*
X81351068Y-88431101D01*
X81530392Y-88649608D01*
X81748899Y-88828932D01*
X81998192Y-88962182D01*
X82268691Y-89044236D01*
X82479508Y-89065000D01*
X82620492Y-89065000D01*
X82831309Y-89044236D01*
X83101808Y-88962182D01*
X83351101Y-88828932D01*
X83569608Y-88649608D01*
X83748932Y-88431101D01*
X83820000Y-88298142D01*
X83891068Y-88431101D01*
X84070392Y-88649608D01*
X84288899Y-88828932D01*
X84538192Y-88962182D01*
X84808691Y-89044236D01*
X85019508Y-89065000D01*
X85160492Y-89065000D01*
X85371309Y-89044236D01*
X85641808Y-88962182D01*
X85891101Y-88828932D01*
X86109608Y-88649608D01*
X86288932Y-88431101D01*
X86360000Y-88298142D01*
X86431068Y-88431101D01*
X86610392Y-88649608D01*
X86828899Y-88828932D01*
X87078192Y-88962182D01*
X87348691Y-89044236D01*
X87559508Y-89065000D01*
X87700492Y-89065000D01*
X87911309Y-89044236D01*
X88181808Y-88962182D01*
X88431101Y-88828932D01*
X88649608Y-88649608D01*
X88828932Y-88431101D01*
X88900000Y-88298142D01*
X88971068Y-88431101D01*
X89150392Y-88649608D01*
X89368899Y-88828932D01*
X89618192Y-88962182D01*
X89888691Y-89044236D01*
X90099508Y-89065000D01*
X90240492Y-89065000D01*
X90451309Y-89044236D01*
X90721808Y-88962182D01*
X90971101Y-88828932D01*
X91189608Y-88649608D01*
X91368932Y-88431101D01*
X91440000Y-88298142D01*
X91511068Y-88431101D01*
X91690392Y-88649608D01*
X91908899Y-88828932D01*
X92158192Y-88962182D01*
X92428691Y-89044236D01*
X92639508Y-89065000D01*
X92780492Y-89065000D01*
X92991309Y-89044236D01*
X93261808Y-88962182D01*
X93511101Y-88828932D01*
X93729608Y-88649608D01*
X93908932Y-88431101D01*
X93980000Y-88298142D01*
X94051068Y-88431101D01*
X94230392Y-88649608D01*
X94448899Y-88828932D01*
X94698192Y-88962182D01*
X94968691Y-89044236D01*
X95179508Y-89065000D01*
X95320492Y-89065000D01*
X95531309Y-89044236D01*
X95801808Y-88962182D01*
X96051101Y-88828932D01*
X96269608Y-88649608D01*
X96448932Y-88431101D01*
X96520000Y-88298142D01*
X96591068Y-88431101D01*
X96770392Y-88649608D01*
X96988899Y-88828932D01*
X97238192Y-88962182D01*
X97508691Y-89044236D01*
X97719508Y-89065000D01*
X97860492Y-89065000D01*
X98071309Y-89044236D01*
X98341808Y-88962182D01*
X98591101Y-88828932D01*
X98809608Y-88649608D01*
X98988932Y-88431101D01*
X99060000Y-88298142D01*
X99131068Y-88431101D01*
X99310392Y-88649608D01*
X99528899Y-88828932D01*
X99778192Y-88962182D01*
X100048691Y-89044236D01*
X100259508Y-89065000D01*
X100400492Y-89065000D01*
X100611309Y-89044236D01*
X100881808Y-88962182D01*
X101131101Y-88828932D01*
X101349608Y-88649608D01*
X101528932Y-88431101D01*
X101600000Y-88298142D01*
X101671068Y-88431101D01*
X101850392Y-88649608D01*
X102068899Y-88828932D01*
X102318192Y-88962182D01*
X102588691Y-89044236D01*
X102799508Y-89065000D01*
X102940492Y-89065000D01*
X103151309Y-89044236D01*
X103421808Y-88962182D01*
X103671101Y-88828932D01*
X103889608Y-88649608D01*
X104068932Y-88431101D01*
X104140000Y-88298142D01*
X104211068Y-88431101D01*
X104390392Y-88649608D01*
X104608899Y-88828932D01*
X104858192Y-88962182D01*
X105128691Y-89044236D01*
X105339508Y-89065000D01*
X105480492Y-89065000D01*
X105691309Y-89044236D01*
X105961808Y-88962182D01*
X106211101Y-88828932D01*
X106429608Y-88649608D01*
X106608932Y-88431101D01*
X106680000Y-88298142D01*
X106751068Y-88431101D01*
X106930392Y-88649608D01*
X107148899Y-88828932D01*
X107398192Y-88962182D01*
X107668691Y-89044236D01*
X107879508Y-89065000D01*
X108020492Y-89065000D01*
X108231309Y-89044236D01*
X108501808Y-88962182D01*
X108751101Y-88828932D01*
X108969608Y-88649608D01*
X109148932Y-88431101D01*
X109220000Y-88298142D01*
X109291068Y-88431101D01*
X109470392Y-88649608D01*
X109688899Y-88828932D01*
X109938192Y-88962182D01*
X110208691Y-89044236D01*
X110419508Y-89065000D01*
X110560492Y-89065000D01*
X110771309Y-89044236D01*
X111041808Y-88962182D01*
X111291101Y-88828932D01*
X111509608Y-88649608D01*
X111688932Y-88431101D01*
X111760000Y-88298142D01*
X111831068Y-88431101D01*
X112010392Y-88649608D01*
X112228899Y-88828932D01*
X112478192Y-88962182D01*
X112748691Y-89044236D01*
X112959508Y-89065000D01*
X113100492Y-89065000D01*
X113311309Y-89044236D01*
X113581808Y-88962182D01*
X113831101Y-88828932D01*
X114049608Y-88649608D01*
X114228932Y-88431101D01*
X114300000Y-88298142D01*
X114371068Y-88431101D01*
X114550392Y-88649608D01*
X114768899Y-88828932D01*
X115018192Y-88962182D01*
X115288691Y-89044236D01*
X115499508Y-89065000D01*
X115640492Y-89065000D01*
X115851309Y-89044236D01*
X116121808Y-88962182D01*
X116371101Y-88828932D01*
X116589608Y-88649608D01*
X116768932Y-88431101D01*
X116840000Y-88298142D01*
X116911068Y-88431101D01*
X117090392Y-88649608D01*
X117308899Y-88828932D01*
X117558192Y-88962182D01*
X117828691Y-89044236D01*
X118039508Y-89065000D01*
X118180492Y-89065000D01*
X118391309Y-89044236D01*
X118661808Y-88962182D01*
X118911101Y-88828932D01*
X119129608Y-88649608D01*
X119308932Y-88431101D01*
X119380000Y-88298142D01*
X119451068Y-88431101D01*
X119630392Y-88649608D01*
X119848899Y-88828932D01*
X120098192Y-88962182D01*
X120368691Y-89044236D01*
X120579508Y-89065000D01*
X120720492Y-89065000D01*
X120931309Y-89044236D01*
X121201808Y-88962182D01*
X121451101Y-88828932D01*
X121669608Y-88649608D01*
X121848932Y-88431101D01*
X121920000Y-88298142D01*
X121991068Y-88431101D01*
X122170392Y-88649608D01*
X122388899Y-88828932D01*
X122638192Y-88962182D01*
X122908691Y-89044236D01*
X123119508Y-89065000D01*
X123260492Y-89065000D01*
X123471309Y-89044236D01*
X123741808Y-88962182D01*
X123991101Y-88828932D01*
X124209608Y-88649608D01*
X124388932Y-88431101D01*
X124460000Y-88298142D01*
X124531068Y-88431101D01*
X124710392Y-88649608D01*
X124928899Y-88828932D01*
X125178192Y-88962182D01*
X125448691Y-89044236D01*
X125659508Y-89065000D01*
X125800492Y-89065000D01*
X126011309Y-89044236D01*
X126281808Y-88962182D01*
X126531101Y-88828932D01*
X126749608Y-88649608D01*
X126928932Y-88431101D01*
X127000000Y-88298142D01*
X127071068Y-88431101D01*
X127250392Y-88649608D01*
X127468899Y-88828932D01*
X127718192Y-88962182D01*
X127988691Y-89044236D01*
X128199508Y-89065000D01*
X128340492Y-89065000D01*
X128551309Y-89044236D01*
X128821808Y-88962182D01*
X129071101Y-88828932D01*
X129289608Y-88649608D01*
X129413000Y-88499254D01*
X129413000Y-90570746D01*
X129289608Y-90420392D01*
X129071101Y-90241068D01*
X128821808Y-90107818D01*
X128551309Y-90025764D01*
X128340492Y-90005000D01*
X128199508Y-90005000D01*
X127988691Y-90025764D01*
X127944093Y-90039292D01*
X127708803Y-89804002D01*
X127685000Y-89774998D01*
X127569275Y-89680025D01*
X127437246Y-89609453D01*
X127293985Y-89565996D01*
X127182332Y-89554999D01*
X127182321Y-89554999D01*
X127144999Y-89551323D01*
X127107677Y-89554999D01*
X104032326Y-89554999D01*
X103995001Y-89551323D01*
X103957676Y-89554999D01*
X103957668Y-89554999D01*
X103846015Y-89565996D01*
X103702754Y-89609453D01*
X103570725Y-89680025D01*
X103455000Y-89774998D01*
X103431202Y-89803996D01*
X103195906Y-90039292D01*
X103151309Y-90025764D01*
X102940492Y-90005000D01*
X102799508Y-90005000D01*
X102588691Y-90025764D01*
X102544094Y-90039292D01*
X102163804Y-89659003D01*
X102140001Y-89629999D01*
X102024276Y-89535026D01*
X101892247Y-89464454D01*
X101748986Y-89420997D01*
X101637333Y-89410000D01*
X101637322Y-89410000D01*
X101600000Y-89406324D01*
X101562678Y-89410000D01*
X72704803Y-89410000D01*
X71250708Y-87955906D01*
X71264236Y-87911309D01*
X71291943Y-87630000D01*
X71264236Y-87348691D01*
X71182182Y-87078192D01*
X71048932Y-86828899D01*
X70869608Y-86610392D01*
X70651101Y-86431068D01*
X70518142Y-86360000D01*
X70651101Y-86288932D01*
X70869608Y-86109608D01*
X71048932Y-85891101D01*
X71182182Y-85641808D01*
X71264236Y-85371309D01*
X71291943Y-85090000D01*
X71264236Y-84808691D01*
X71182182Y-84538192D01*
X71048932Y-84288899D01*
X70869608Y-84070392D01*
X70651101Y-83891068D01*
X70518142Y-83820000D01*
X70651101Y-83748932D01*
X70869608Y-83569608D01*
X71048932Y-83351101D01*
X71182182Y-83101808D01*
X71264236Y-82831309D01*
X71291943Y-82550000D01*
X71264236Y-82268691D01*
X71182182Y-81998192D01*
X71048932Y-81748899D01*
X70869608Y-81530392D01*
X70651101Y-81351068D01*
X70401808Y-81217818D01*
X70131309Y-81135764D01*
X69920492Y-81115000D01*
X69779508Y-81115000D01*
X69568691Y-81135764D01*
X69298192Y-81217818D01*
X69048899Y-81351068D01*
X68830392Y-81530392D01*
X68651068Y-81748899D01*
X68517818Y-81998192D01*
X68435764Y-82268691D01*
X68408057Y-82550000D01*
X68435764Y-82831309D01*
X68517818Y-83101808D01*
X68651068Y-83351101D01*
X68830392Y-83569608D01*
X69048899Y-83748932D01*
X69181858Y-83820000D01*
X69048899Y-83891068D01*
X68830392Y-84070392D01*
X68651068Y-84288899D01*
X68517818Y-84538192D01*
X68435764Y-84808691D01*
X68408057Y-85090000D01*
X68435764Y-85371309D01*
X68449292Y-85415906D01*
X68214001Y-85651197D01*
X68184998Y-85675000D01*
X68129870Y-85742175D01*
X68090025Y-85790725D01*
X68036373Y-85891101D01*
X68019453Y-85922755D01*
X67975996Y-86066016D01*
X67964999Y-86177669D01*
X67964999Y-86177679D01*
X67961323Y-86215001D01*
X67964999Y-86252324D01*
X67965000Y-90672669D01*
X67961323Y-90710001D01*
X67975997Y-90858986D01*
X68019453Y-91002247D01*
X68090025Y-91134277D01*
X68147082Y-91203800D01*
X68184999Y-91250002D01*
X68213997Y-91273800D01*
X76511198Y-99571002D01*
X76534997Y-99600001D01*
X76650722Y-99694974D01*
X76782751Y-99765546D01*
X76926012Y-99809003D01*
X77037665Y-99820000D01*
X77037675Y-99820000D01*
X77074998Y-99823676D01*
X77112321Y-99820000D01*
X91125199Y-99820000D01*
X92579292Y-101274094D01*
X92565764Y-101318691D01*
X92538057Y-101600000D01*
X92565764Y-101881309D01*
X92647818Y-102151808D01*
X92781068Y-102401101D01*
X92960392Y-102619608D01*
X93178899Y-102798932D01*
X93428192Y-102932182D01*
X93698691Y-103014236D01*
X93909508Y-103035000D01*
X94050492Y-103035000D01*
X94261309Y-103014236D01*
X94531808Y-102932182D01*
X94781101Y-102798932D01*
X94999608Y-102619608D01*
X95178932Y-102401101D01*
X95312182Y-102151808D01*
X95394236Y-101881309D01*
X95421943Y-101600000D01*
X95408023Y-101458665D01*
X101435000Y-101458665D01*
X101435000Y-101741335D01*
X101490147Y-102018574D01*
X101598320Y-102279727D01*
X101755363Y-102514759D01*
X101955241Y-102714637D01*
X102190273Y-102871680D01*
X102451426Y-102979853D01*
X102728665Y-103035000D01*
X103011335Y-103035000D01*
X103288574Y-102979853D01*
X103549727Y-102871680D01*
X103784759Y-102714637D01*
X103984637Y-102514759D01*
X104141680Y-102279727D01*
X104249853Y-102018574D01*
X104305000Y-101741335D01*
X104305000Y-101458665D01*
X104249853Y-101181426D01*
X104141680Y-100920273D01*
X103984637Y-100685241D01*
X103784759Y-100485363D01*
X103549727Y-100328320D01*
X103288574Y-100220147D01*
X103130306Y-100188665D01*
X116675000Y-100188665D01*
X116675000Y-100471335D01*
X116730147Y-100748574D01*
X116838320Y-101009727D01*
X116995363Y-101244759D01*
X117195241Y-101444637D01*
X117430273Y-101601680D01*
X117691426Y-101709853D01*
X117968665Y-101765000D01*
X118251335Y-101765000D01*
X118528574Y-101709853D01*
X118789727Y-101601680D01*
X119024759Y-101444637D01*
X119224637Y-101244759D01*
X119381680Y-101009727D01*
X119489853Y-100748574D01*
X119545000Y-100471335D01*
X119545000Y-100188665D01*
X119489853Y-99911426D01*
X119381680Y-99650273D01*
X119224637Y-99415241D01*
X119024759Y-99215363D01*
X118789727Y-99058320D01*
X118528574Y-98950147D01*
X118251335Y-98895000D01*
X117968665Y-98895000D01*
X117691426Y-98950147D01*
X117430273Y-99058320D01*
X117195241Y-99215363D01*
X116995363Y-99415241D01*
X116838320Y-99650273D01*
X116730147Y-99911426D01*
X116675000Y-100188665D01*
X103130306Y-100188665D01*
X103011335Y-100165000D01*
X102728665Y-100165000D01*
X102451426Y-100220147D01*
X102190273Y-100328320D01*
X101955241Y-100485363D01*
X101755363Y-100685241D01*
X101598320Y-100920273D01*
X101490147Y-101181426D01*
X101435000Y-101458665D01*
X95408023Y-101458665D01*
X95394236Y-101318691D01*
X95312182Y-101048192D01*
X95178932Y-100798899D01*
X94999608Y-100580392D01*
X94781101Y-100401068D01*
X94531808Y-100267818D01*
X94261309Y-100185764D01*
X94050492Y-100165000D01*
X93909508Y-100165000D01*
X93698691Y-100185764D01*
X93654094Y-100199292D01*
X92003804Y-98549003D01*
X91980001Y-98519999D01*
X91864276Y-98425026D01*
X91732247Y-98354454D01*
X91588986Y-98310997D01*
X91477333Y-98300000D01*
X91477322Y-98300000D01*
X91440000Y-98296324D01*
X91402678Y-98300000D01*
X77389800Y-98300000D01*
X73594800Y-94505000D01*
X86241928Y-94505000D01*
X86254188Y-94629482D01*
X86290498Y-94749180D01*
X86349463Y-94859494D01*
X86428815Y-94956185D01*
X86525506Y-95035537D01*
X86635820Y-95094502D01*
X86755518Y-95130812D01*
X86880000Y-95143072D01*
X87344250Y-95140000D01*
X87503000Y-94981250D01*
X87503000Y-94107000D01*
X87757000Y-94107000D01*
X87757000Y-94981250D01*
X87915750Y-95140000D01*
X88380000Y-95143072D01*
X88504482Y-95130812D01*
X88577490Y-95108665D01*
X91275000Y-95108665D01*
X91275000Y-95391335D01*
X91330147Y-95668574D01*
X91438320Y-95929727D01*
X91595363Y-96164759D01*
X91795241Y-96364637D01*
X92030273Y-96521680D01*
X92291426Y-96629853D01*
X92568665Y-96685000D01*
X92851335Y-96685000D01*
X93128574Y-96629853D01*
X93389727Y-96521680D01*
X93624759Y-96364637D01*
X93824637Y-96164759D01*
X93981680Y-95929727D01*
X94089853Y-95668574D01*
X94103684Y-95599039D01*
X101478096Y-95599039D01*
X101518754Y-95733087D01*
X101638963Y-95987420D01*
X101806481Y-96213414D01*
X102014869Y-96402385D01*
X102256119Y-96547070D01*
X102520960Y-96641909D01*
X102743000Y-96520624D01*
X102743000Y-95377000D01*
X102997000Y-95377000D01*
X102997000Y-96520624D01*
X103219040Y-96641909D01*
X103483881Y-96547070D01*
X103725131Y-96402385D01*
X103933519Y-96213414D01*
X104101037Y-95987420D01*
X104221246Y-95733087D01*
X104261904Y-95599039D01*
X104139915Y-95377000D01*
X102997000Y-95377000D01*
X102743000Y-95377000D01*
X101600085Y-95377000D01*
X101478096Y-95599039D01*
X94103684Y-95599039D01*
X94145000Y-95391335D01*
X94145000Y-95108665D01*
X94103685Y-94900961D01*
X101478096Y-94900961D01*
X101600085Y-95123000D01*
X102743000Y-95123000D01*
X102743000Y-93979376D01*
X102997000Y-93979376D01*
X102997000Y-95123000D01*
X104139915Y-95123000D01*
X104261904Y-94900961D01*
X104221246Y-94766913D01*
X104101037Y-94512580D01*
X104095419Y-94505000D01*
X111641928Y-94505000D01*
X111654188Y-94629482D01*
X111690498Y-94749180D01*
X111749463Y-94859494D01*
X111828815Y-94956185D01*
X111925506Y-95035537D01*
X112035820Y-95094502D01*
X112155518Y-95130812D01*
X112280000Y-95143072D01*
X112744250Y-95140000D01*
X112903000Y-94981250D01*
X112903000Y-94107000D01*
X113157000Y-94107000D01*
X113157000Y-94981250D01*
X113315750Y-95140000D01*
X113780000Y-95143072D01*
X113904482Y-95130812D01*
X113977490Y-95108665D01*
X116675000Y-95108665D01*
X116675000Y-95391335D01*
X116730147Y-95668574D01*
X116838320Y-95929727D01*
X116995363Y-96164759D01*
X117195241Y-96364637D01*
X117430273Y-96521680D01*
X117691426Y-96629853D01*
X117968665Y-96685000D01*
X118251335Y-96685000D01*
X118528574Y-96629853D01*
X118789727Y-96521680D01*
X119024759Y-96364637D01*
X119224637Y-96164759D01*
X119381680Y-95929727D01*
X119489853Y-95668574D01*
X119545000Y-95391335D01*
X119545000Y-95108665D01*
X119489853Y-94831426D01*
X119381680Y-94570273D01*
X119224637Y-94335241D01*
X119024759Y-94135363D01*
X118789727Y-93978320D01*
X118528574Y-93870147D01*
X118251335Y-93815000D01*
X117968665Y-93815000D01*
X117691426Y-93870147D01*
X117430273Y-93978320D01*
X117195241Y-94135363D01*
X116995363Y-94335241D01*
X116838320Y-94570273D01*
X116730147Y-94831426D01*
X116675000Y-95108665D01*
X113977490Y-95108665D01*
X114024180Y-95094502D01*
X114134494Y-95035537D01*
X114231185Y-94956185D01*
X114310537Y-94859494D01*
X114369502Y-94749180D01*
X114405812Y-94629482D01*
X114418072Y-94505000D01*
X114415000Y-94265750D01*
X114256250Y-94107000D01*
X113157000Y-94107000D01*
X112903000Y-94107000D01*
X111803750Y-94107000D01*
X111645000Y-94265750D01*
X111641928Y-94505000D01*
X104095419Y-94505000D01*
X103933519Y-94286586D01*
X103725131Y-94097615D01*
X103483881Y-93952930D01*
X103219040Y-93858091D01*
X102997000Y-93979376D01*
X102743000Y-93979376D01*
X102520960Y-93858091D01*
X102256119Y-93952930D01*
X102014869Y-94097615D01*
X101806481Y-94286586D01*
X101638963Y-94512580D01*
X101518754Y-94766913D01*
X101478096Y-94900961D01*
X94103685Y-94900961D01*
X94089853Y-94831426D01*
X93981680Y-94570273D01*
X93824637Y-94335241D01*
X93624759Y-94135363D01*
X93389727Y-93978320D01*
X93128574Y-93870147D01*
X92851335Y-93815000D01*
X92568665Y-93815000D01*
X92291426Y-93870147D01*
X92030273Y-93978320D01*
X91795241Y-94135363D01*
X91595363Y-94335241D01*
X91438320Y-94570273D01*
X91330147Y-94831426D01*
X91275000Y-95108665D01*
X88577490Y-95108665D01*
X88624180Y-95094502D01*
X88734494Y-95035537D01*
X88831185Y-94956185D01*
X88910537Y-94859494D01*
X88969502Y-94749180D01*
X89005812Y-94629482D01*
X89018072Y-94505000D01*
X89015000Y-94265750D01*
X88856250Y-94107000D01*
X87757000Y-94107000D01*
X87503000Y-94107000D01*
X86403750Y-94107000D01*
X86245000Y-94265750D01*
X86241928Y-94505000D01*
X73594800Y-94505000D01*
X70525739Y-91435940D01*
X70651101Y-91368932D01*
X70869608Y-91189608D01*
X71048932Y-90971101D01*
X71182182Y-90721808D01*
X71264236Y-90451309D01*
X71291943Y-90170000D01*
X71289402Y-90144205D01*
X71826205Y-90681008D01*
X71849999Y-90710001D01*
X71878992Y-90733795D01*
X71878996Y-90733799D01*
X71946243Y-90788986D01*
X71965724Y-90804974D01*
X72097753Y-90875546D01*
X72241014Y-90919003D01*
X72352667Y-90930000D01*
X72352676Y-90930000D01*
X72389999Y-90933676D01*
X72427322Y-90930000D01*
X86362292Y-90930000D01*
X86328115Y-90993940D01*
X86261785Y-91212600D01*
X86239388Y-91440000D01*
X86261785Y-91667400D01*
X86328115Y-91886060D01*
X86429105Y-92075000D01*
X86328115Y-92263940D01*
X86261785Y-92482600D01*
X86239388Y-92710000D01*
X86261785Y-92937400D01*
X86325093Y-93146098D01*
X86290498Y-93210820D01*
X86254188Y-93330518D01*
X86241928Y-93455000D01*
X86245000Y-93694250D01*
X86403750Y-93853000D01*
X87176891Y-93853000D01*
X87177600Y-93853215D01*
X87348021Y-93870000D01*
X87911979Y-93870000D01*
X88082400Y-93853215D01*
X88083109Y-93853000D01*
X88856250Y-93853000D01*
X89015000Y-93694250D01*
X89018072Y-93455000D01*
X89005812Y-93330518D01*
X88969502Y-93210820D01*
X88934907Y-93146098D01*
X88998215Y-92937400D01*
X89020612Y-92710000D01*
X88998215Y-92482600D01*
X88931885Y-92263940D01*
X88830895Y-92075000D01*
X88931885Y-91886060D01*
X88998215Y-91667400D01*
X89020612Y-91440000D01*
X88998215Y-91212600D01*
X88931885Y-90993940D01*
X88897708Y-90930000D01*
X91368017Y-90930000D01*
X91330147Y-91021426D01*
X91275000Y-91298665D01*
X91275000Y-91581335D01*
X91330147Y-91858574D01*
X91438320Y-92119727D01*
X91595363Y-92354759D01*
X91795241Y-92554637D01*
X92030273Y-92711680D01*
X92291426Y-92819853D01*
X92568665Y-92875000D01*
X92851335Y-92875000D01*
X93128574Y-92819853D01*
X93389727Y-92711680D01*
X93624759Y-92554637D01*
X93824637Y-92354759D01*
X93981680Y-92119727D01*
X94089853Y-91858574D01*
X94145000Y-91581335D01*
X94145000Y-91298665D01*
X94089853Y-91021426D01*
X94051983Y-90930000D01*
X101285199Y-90930000D01*
X101469292Y-91114094D01*
X101455764Y-91158691D01*
X101428057Y-91440000D01*
X101455764Y-91721309D01*
X101537818Y-91991808D01*
X101671068Y-92241101D01*
X101850392Y-92459608D01*
X102068899Y-92638932D01*
X102318192Y-92772182D01*
X102588691Y-92854236D01*
X102799508Y-92875000D01*
X102940492Y-92875000D01*
X103151309Y-92854236D01*
X103421808Y-92772182D01*
X103671101Y-92638932D01*
X103889608Y-92459608D01*
X104068932Y-92241101D01*
X104202182Y-91991808D01*
X104284236Y-91721309D01*
X104311943Y-91440000D01*
X104284236Y-91158691D01*
X104270708Y-91114094D01*
X104309803Y-91074999D01*
X111703526Y-91074999D01*
X111661785Y-91212600D01*
X111639388Y-91440000D01*
X111661785Y-91667400D01*
X111728115Y-91886060D01*
X111829105Y-92075000D01*
X111728115Y-92263940D01*
X111661785Y-92482600D01*
X111639388Y-92710000D01*
X111661785Y-92937400D01*
X111725093Y-93146098D01*
X111690498Y-93210820D01*
X111654188Y-93330518D01*
X111641928Y-93455000D01*
X111645000Y-93694250D01*
X111803750Y-93853000D01*
X112576891Y-93853000D01*
X112577600Y-93853215D01*
X112748021Y-93870000D01*
X113311979Y-93870000D01*
X113482400Y-93853215D01*
X113483109Y-93853000D01*
X114256250Y-93853000D01*
X114415000Y-93694250D01*
X114418072Y-93455000D01*
X114405812Y-93330518D01*
X114369502Y-93210820D01*
X114334907Y-93146098D01*
X114398215Y-92937400D01*
X114420612Y-92710000D01*
X114398215Y-92482600D01*
X114331885Y-92263940D01*
X114230895Y-92075000D01*
X114331885Y-91886060D01*
X114398215Y-91667400D01*
X114420612Y-91440000D01*
X114398215Y-91212600D01*
X114356474Y-91074999D01*
X116719491Y-91074999D01*
X116675000Y-91298665D01*
X116675000Y-91581335D01*
X116730147Y-91858574D01*
X116838320Y-92119727D01*
X116995363Y-92354759D01*
X117195241Y-92554637D01*
X117430273Y-92711680D01*
X117691426Y-92819853D01*
X117968665Y-92875000D01*
X118251335Y-92875000D01*
X118528574Y-92819853D01*
X118789727Y-92711680D01*
X119024759Y-92554637D01*
X119224637Y-92354759D01*
X119381680Y-92119727D01*
X119489853Y-91858574D01*
X119545000Y-91581335D01*
X119545000Y-91298665D01*
X119500509Y-91074999D01*
X126830198Y-91074999D01*
X126869292Y-91114093D01*
X126855764Y-91158691D01*
X126828057Y-91440000D01*
X126855764Y-91721309D01*
X126869292Y-91765906D01*
X126488998Y-92146201D01*
X126460000Y-92169999D01*
X126436202Y-92198997D01*
X126436201Y-92198998D01*
X126365026Y-92285724D01*
X126294454Y-92417754D01*
X126274784Y-92482600D01*
X126252933Y-92554637D01*
X126250998Y-92561015D01*
X126236324Y-92710000D01*
X126240001Y-92747333D01*
X126240000Y-110452678D01*
X126236324Y-110490000D01*
X126240000Y-110527322D01*
X126240000Y-110527332D01*
X126250997Y-110638985D01*
X126281758Y-110740392D01*
X126294454Y-110782246D01*
X126365026Y-110914276D01*
X126378740Y-110930986D01*
X126459999Y-111030001D01*
X126489003Y-111053804D01*
X126869292Y-111434094D01*
X126855764Y-111478691D01*
X126828057Y-111760000D01*
X126855764Y-112041309D01*
X126937818Y-112311808D01*
X127071068Y-112561101D01*
X127250392Y-112779608D01*
X127468899Y-112958932D01*
X127718192Y-113092182D01*
X127988691Y-113174236D01*
X128199508Y-113195000D01*
X128340492Y-113195000D01*
X128551309Y-113174236D01*
X128821808Y-113092182D01*
X129071101Y-112958932D01*
X129289608Y-112779608D01*
X129413000Y-112629254D01*
X129413000Y-114173000D01*
X61087000Y-114173000D01*
X61087000Y-111760000D01*
X75977815Y-111760000D01*
X76006487Y-112051111D01*
X76091401Y-112331034D01*
X76229294Y-112589014D01*
X76414866Y-112815134D01*
X76640986Y-113000706D01*
X76898966Y-113138599D01*
X77178889Y-113223513D01*
X77397050Y-113245000D01*
X77542950Y-113245000D01*
X77761111Y-113223513D01*
X78041034Y-113138599D01*
X78299014Y-113000706D01*
X78525134Y-112815134D01*
X78549607Y-112785313D01*
X78570498Y-112854180D01*
X78629463Y-112964494D01*
X78708815Y-113061185D01*
X78805506Y-113140537D01*
X78915820Y-113199502D01*
X79035518Y-113235812D01*
X79160000Y-113248072D01*
X80860000Y-113248072D01*
X80984482Y-113235812D01*
X81104180Y-113199502D01*
X81214494Y-113140537D01*
X81311185Y-113061185D01*
X81390537Y-112964494D01*
X81449502Y-112854180D01*
X81485812Y-112734482D01*
X81498072Y-112610000D01*
X81498072Y-110910000D01*
X81485812Y-110785518D01*
X81449502Y-110665820D01*
X81446392Y-110660000D01*
X82081928Y-110660000D01*
X82081928Y-112860000D01*
X82094188Y-112984482D01*
X82130498Y-113104180D01*
X82189463Y-113214494D01*
X82268815Y-113311185D01*
X82365506Y-113390537D01*
X82475820Y-113449502D01*
X82595518Y-113485812D01*
X82720000Y-113498072D01*
X84920000Y-113498072D01*
X85044482Y-113485812D01*
X85164180Y-113449502D01*
X85274494Y-113390537D01*
X85371185Y-113311185D01*
X85450537Y-113214494D01*
X85509502Y-113104180D01*
X85545812Y-112984482D01*
X85558072Y-112860000D01*
X85558072Y-111760000D01*
X92236606Y-111760000D01*
X92270105Y-112100119D01*
X92369314Y-112427168D01*
X92530421Y-112728578D01*
X92747234Y-112992766D01*
X93011422Y-113209579D01*
X93312832Y-113370686D01*
X93639881Y-113469895D01*
X93894775Y-113495000D01*
X94065225Y-113495000D01*
X94320119Y-113469895D01*
X94647168Y-113370686D01*
X94948578Y-113209579D01*
X95212766Y-112992766D01*
X95429579Y-112728578D01*
X95590686Y-112427168D01*
X95689895Y-112100119D01*
X95723394Y-111760000D01*
X101428057Y-111760000D01*
X101455764Y-112041309D01*
X101537818Y-112311808D01*
X101671068Y-112561101D01*
X101850392Y-112779608D01*
X102068899Y-112958932D01*
X102318192Y-113092182D01*
X102588691Y-113174236D01*
X102799508Y-113195000D01*
X102940492Y-113195000D01*
X103151309Y-113174236D01*
X103421808Y-113092182D01*
X103671101Y-112958932D01*
X103889608Y-112779608D01*
X104068932Y-112561101D01*
X104202182Y-112311808D01*
X104284236Y-112041309D01*
X104311943Y-111760000D01*
X104298023Y-111618665D01*
X116675000Y-111618665D01*
X116675000Y-111901335D01*
X116730147Y-112178574D01*
X116838320Y-112439727D01*
X116995363Y-112674759D01*
X117195241Y-112874637D01*
X117430273Y-113031680D01*
X117691426Y-113139853D01*
X117968665Y-113195000D01*
X118251335Y-113195000D01*
X118528574Y-113139853D01*
X118789727Y-113031680D01*
X119024759Y-112874637D01*
X119224637Y-112674759D01*
X119381680Y-112439727D01*
X119489853Y-112178574D01*
X119545000Y-111901335D01*
X119545000Y-111618665D01*
X119489853Y-111341426D01*
X119381680Y-111080273D01*
X119224637Y-110845241D01*
X119024759Y-110645363D01*
X118789727Y-110488320D01*
X118528574Y-110380147D01*
X118251335Y-110325000D01*
X117968665Y-110325000D01*
X117691426Y-110380147D01*
X117430273Y-110488320D01*
X117195241Y-110645363D01*
X116995363Y-110845241D01*
X116838320Y-111080273D01*
X116730147Y-111341426D01*
X116675000Y-111618665D01*
X104298023Y-111618665D01*
X104284236Y-111478691D01*
X104202182Y-111208192D01*
X104068932Y-110958899D01*
X103889608Y-110740392D01*
X103671101Y-110561068D01*
X103421808Y-110427818D01*
X103151309Y-110345764D01*
X102940492Y-110325000D01*
X102799508Y-110325000D01*
X102588691Y-110345764D01*
X102318192Y-110427818D01*
X102068899Y-110561068D01*
X101850392Y-110740392D01*
X101671068Y-110958899D01*
X101537818Y-111208192D01*
X101455764Y-111478691D01*
X101428057Y-111760000D01*
X95723394Y-111760000D01*
X95689895Y-111419881D01*
X95590686Y-111092832D01*
X95429579Y-110791422D01*
X95212766Y-110527234D01*
X94948578Y-110310421D01*
X94647168Y-110149314D01*
X94320119Y-110050105D01*
X94065225Y-110025000D01*
X93894775Y-110025000D01*
X93639881Y-110050105D01*
X93312832Y-110149314D01*
X93011422Y-110310421D01*
X92747234Y-110527234D01*
X92530421Y-110791422D01*
X92369314Y-111092832D01*
X92270105Y-111419881D01*
X92236606Y-111760000D01*
X85558072Y-111760000D01*
X85558072Y-110660000D01*
X85545812Y-110535518D01*
X85509502Y-110415820D01*
X85450537Y-110305506D01*
X85371185Y-110208815D01*
X85274494Y-110129463D01*
X85164180Y-110070498D01*
X85044482Y-110034188D01*
X84920000Y-110021928D01*
X82720000Y-110021928D01*
X82595518Y-110034188D01*
X82475820Y-110070498D01*
X82365506Y-110129463D01*
X82268815Y-110208815D01*
X82189463Y-110305506D01*
X82130498Y-110415820D01*
X82094188Y-110535518D01*
X82081928Y-110660000D01*
X81446392Y-110660000D01*
X81390537Y-110555506D01*
X81311185Y-110458815D01*
X81214494Y-110379463D01*
X81104180Y-110320498D01*
X80984482Y-110284188D01*
X80860000Y-110271928D01*
X79160000Y-110271928D01*
X79035518Y-110284188D01*
X78915820Y-110320498D01*
X78805506Y-110379463D01*
X78708815Y-110458815D01*
X78629463Y-110555506D01*
X78570498Y-110665820D01*
X78549607Y-110734687D01*
X78525134Y-110704866D01*
X78299014Y-110519294D01*
X78041034Y-110381401D01*
X77761111Y-110296487D01*
X77542950Y-110275000D01*
X77397050Y-110275000D01*
X77178889Y-110296487D01*
X76898966Y-110381401D01*
X76640986Y-110519294D01*
X76414866Y-110704866D01*
X76229294Y-110930986D01*
X76091401Y-111188966D01*
X76006487Y-111468889D01*
X75977815Y-111760000D01*
X61087000Y-111760000D01*
X61087000Y-109576890D01*
X105238524Y-109576890D01*
X105283175Y-109724099D01*
X105408359Y-109986920D01*
X105582412Y-110220269D01*
X105798645Y-110415178D01*
X106048748Y-110564157D01*
X106323109Y-110661481D01*
X106553000Y-110540814D01*
X106553000Y-109347000D01*
X106807000Y-109347000D01*
X106807000Y-110540814D01*
X107036891Y-110661481D01*
X107311252Y-110564157D01*
X107561355Y-110415178D01*
X107777588Y-110220269D01*
X107951641Y-109986920D01*
X107959700Y-109970000D01*
X110596928Y-109970000D01*
X110609188Y-110094482D01*
X110645498Y-110214180D01*
X110704463Y-110324494D01*
X110783815Y-110421185D01*
X110880506Y-110500537D01*
X110990820Y-110559502D01*
X111110518Y-110595812D01*
X111235000Y-110608072D01*
X111474250Y-110605000D01*
X111633000Y-110446250D01*
X111633000Y-109347000D01*
X110758750Y-109347000D01*
X110600000Y-109505750D01*
X110596928Y-109970000D01*
X107959700Y-109970000D01*
X108076825Y-109724099D01*
X108121476Y-109576890D01*
X108000155Y-109347000D01*
X106807000Y-109347000D01*
X106553000Y-109347000D01*
X105359845Y-109347000D01*
X105238524Y-109576890D01*
X61087000Y-109576890D01*
X61087000Y-105410000D01*
X77349388Y-105410000D01*
X77371785Y-105637400D01*
X77438115Y-105856060D01*
X77539105Y-106045000D01*
X77438115Y-106233940D01*
X77371785Y-106452600D01*
X77349388Y-106680000D01*
X77371785Y-106907400D01*
X77438115Y-107126060D01*
X77545829Y-107327579D01*
X77690788Y-107504212D01*
X77867421Y-107649171D01*
X78068940Y-107756885D01*
X78287600Y-107823215D01*
X78458021Y-107840000D01*
X79021979Y-107840000D01*
X79192400Y-107823215D01*
X79411060Y-107756885D01*
X79612579Y-107649171D01*
X79789212Y-107504212D01*
X79934171Y-107327579D01*
X80041885Y-107126060D01*
X80108215Y-106907400D01*
X80130612Y-106680000D01*
X80108215Y-106452600D01*
X80041885Y-106233940D01*
X79940895Y-106045000D01*
X80041885Y-105856060D01*
X80108215Y-105637400D01*
X80130612Y-105410000D01*
X80116692Y-105268665D01*
X82385000Y-105268665D01*
X82385000Y-105551335D01*
X82440147Y-105828574D01*
X82548320Y-106089727D01*
X82705363Y-106324759D01*
X82905241Y-106524637D01*
X83140273Y-106681680D01*
X83401426Y-106789853D01*
X83678665Y-106845000D01*
X83961335Y-106845000D01*
X84238574Y-106789853D01*
X84499727Y-106681680D01*
X84734759Y-106524637D01*
X84934637Y-106324759D01*
X85091680Y-106089727D01*
X85199853Y-105828574D01*
X85213684Y-105759039D01*
X92588096Y-105759039D01*
X92628754Y-105893087D01*
X92748963Y-106147420D01*
X92916481Y-106373414D01*
X93124869Y-106562385D01*
X93366119Y-106707070D01*
X93630960Y-106801909D01*
X93853000Y-106680624D01*
X93853000Y-105537000D01*
X94107000Y-105537000D01*
X94107000Y-106680624D01*
X94329040Y-106801909D01*
X94593881Y-106707070D01*
X94639017Y-106680000D01*
X105187815Y-106680000D01*
X105216487Y-106971111D01*
X105301401Y-107251034D01*
X105439294Y-107509014D01*
X105624866Y-107735134D01*
X105850986Y-107920706D01*
X105915523Y-107955201D01*
X105798645Y-108024822D01*
X105582412Y-108219731D01*
X105408359Y-108453080D01*
X105283175Y-108715901D01*
X105238524Y-108863110D01*
X105359845Y-109093000D01*
X106553000Y-109093000D01*
X106553000Y-109073000D01*
X106807000Y-109073000D01*
X106807000Y-109093000D01*
X108000155Y-109093000D01*
X108121476Y-108863110D01*
X108076825Y-108715901D01*
X107959701Y-108470000D01*
X110596928Y-108470000D01*
X110600000Y-108934250D01*
X110758750Y-109093000D01*
X111633000Y-109093000D01*
X111633000Y-108938022D01*
X111870000Y-108938022D01*
X111870000Y-109501979D01*
X111886785Y-109672400D01*
X111887000Y-109673109D01*
X111887000Y-110446250D01*
X112045750Y-110605000D01*
X112285000Y-110608072D01*
X112409482Y-110595812D01*
X112529180Y-110559502D01*
X112593902Y-110524907D01*
X112802601Y-110588215D01*
X113030000Y-110610612D01*
X113257400Y-110588215D01*
X113476060Y-110521885D01*
X113665001Y-110420894D01*
X113853941Y-110521885D01*
X114072601Y-110588215D01*
X114300000Y-110610612D01*
X114527400Y-110588215D01*
X114746060Y-110521885D01*
X114947579Y-110414171D01*
X115124212Y-110269212D01*
X115269171Y-110092579D01*
X115376885Y-109891059D01*
X115443215Y-109672399D01*
X115460000Y-109501978D01*
X115460000Y-108938021D01*
X115443215Y-108767600D01*
X115376885Y-108548940D01*
X115269171Y-108347421D01*
X115124212Y-108170788D01*
X114947578Y-108025829D01*
X114746059Y-107918115D01*
X114527399Y-107851785D01*
X114300000Y-107829388D01*
X114072600Y-107851785D01*
X113853940Y-107918115D01*
X113665000Y-108019106D01*
X113476059Y-107918115D01*
X113257399Y-107851785D01*
X113030000Y-107829388D01*
X112802600Y-107851785D01*
X112593902Y-107915093D01*
X112529180Y-107880498D01*
X112409482Y-107844188D01*
X112285000Y-107831928D01*
X112045750Y-107835000D01*
X111887000Y-107993750D01*
X111887000Y-108766892D01*
X111886785Y-108767601D01*
X111870000Y-108938022D01*
X111633000Y-108938022D01*
X111633000Y-107993750D01*
X111474250Y-107835000D01*
X111235000Y-107831928D01*
X111110518Y-107844188D01*
X110990820Y-107880498D01*
X110880506Y-107939463D01*
X110783815Y-108018815D01*
X110704463Y-108115506D01*
X110645498Y-108225820D01*
X110609188Y-108345518D01*
X110596928Y-108470000D01*
X107959701Y-108470000D01*
X107951641Y-108453080D01*
X107777588Y-108219731D01*
X107561355Y-108024822D01*
X107444477Y-107955201D01*
X107509014Y-107920706D01*
X107645536Y-107808665D01*
X116675000Y-107808665D01*
X116675000Y-108091335D01*
X116730147Y-108368574D01*
X116838320Y-108629727D01*
X116995363Y-108864759D01*
X117195241Y-109064637D01*
X117430273Y-109221680D01*
X117691426Y-109329853D01*
X117968665Y-109385000D01*
X118251335Y-109385000D01*
X118528574Y-109329853D01*
X118789727Y-109221680D01*
X119024759Y-109064637D01*
X119224637Y-108864759D01*
X119381680Y-108629727D01*
X119489853Y-108368574D01*
X119545000Y-108091335D01*
X119545000Y-107808665D01*
X119489853Y-107531426D01*
X119381680Y-107270273D01*
X119224637Y-107035241D01*
X119024759Y-106835363D01*
X118789727Y-106678320D01*
X118528574Y-106570147D01*
X118251335Y-106515000D01*
X117968665Y-106515000D01*
X117691426Y-106570147D01*
X117430273Y-106678320D01*
X117195241Y-106835363D01*
X116995363Y-107035241D01*
X116838320Y-107270273D01*
X116730147Y-107531426D01*
X116675000Y-107808665D01*
X107645536Y-107808665D01*
X107735134Y-107735134D01*
X107920706Y-107509014D01*
X108058599Y-107251034D01*
X108143513Y-106971111D01*
X108172185Y-106680000D01*
X108143513Y-106388889D01*
X108058599Y-106108966D01*
X107920706Y-105850986D01*
X107735134Y-105624866D01*
X107705313Y-105600393D01*
X107774180Y-105579502D01*
X107884494Y-105520537D01*
X107981185Y-105441185D01*
X108060537Y-105344494D01*
X108119502Y-105234180D01*
X108155812Y-105114482D01*
X108168072Y-104990000D01*
X108168072Y-103290000D01*
X108155812Y-103165518D01*
X108119502Y-103045820D01*
X108060537Y-102935506D01*
X108006778Y-102870000D01*
X111639388Y-102870000D01*
X111661785Y-103097400D01*
X111728115Y-103316060D01*
X111829105Y-103505000D01*
X111728115Y-103693940D01*
X111661785Y-103912600D01*
X111639388Y-104140000D01*
X111661785Y-104367400D01*
X111728115Y-104586060D01*
X111835829Y-104787579D01*
X111980788Y-104964212D01*
X112157421Y-105109171D01*
X112358940Y-105216885D01*
X112577600Y-105283215D01*
X112748021Y-105300000D01*
X113311979Y-105300000D01*
X113482400Y-105283215D01*
X113701060Y-105216885D01*
X113902579Y-105109171D01*
X114079212Y-104964212D01*
X114224171Y-104787579D01*
X114331885Y-104586060D01*
X114398215Y-104367400D01*
X114420612Y-104140000D01*
X116668057Y-104140000D01*
X116695764Y-104421309D01*
X116777818Y-104691808D01*
X116911068Y-104941101D01*
X117090392Y-105159608D01*
X117308899Y-105338932D01*
X117558192Y-105472182D01*
X117828691Y-105554236D01*
X118039508Y-105575000D01*
X118180492Y-105575000D01*
X118391309Y-105554236D01*
X118661808Y-105472182D01*
X118911101Y-105338932D01*
X119129608Y-105159608D01*
X119308932Y-104941101D01*
X119442182Y-104691808D01*
X119524236Y-104421309D01*
X119551943Y-104140000D01*
X119524236Y-103858691D01*
X119442182Y-103588192D01*
X119308932Y-103338899D01*
X119129608Y-103120392D01*
X118911101Y-102941068D01*
X118661808Y-102807818D01*
X118391309Y-102725764D01*
X118180492Y-102705000D01*
X118039508Y-102705000D01*
X117828691Y-102725764D01*
X117558192Y-102807818D01*
X117308899Y-102941068D01*
X117090392Y-103120392D01*
X116911068Y-103338899D01*
X116777818Y-103588192D01*
X116695764Y-103858691D01*
X116668057Y-104140000D01*
X114420612Y-104140000D01*
X114398215Y-103912600D01*
X114331885Y-103693940D01*
X114230895Y-103505000D01*
X114331885Y-103316060D01*
X114398215Y-103097400D01*
X114420612Y-102870000D01*
X114398215Y-102642600D01*
X114334907Y-102433902D01*
X114369502Y-102369180D01*
X114405812Y-102249482D01*
X114418072Y-102125000D01*
X114418072Y-101075000D01*
X114405812Y-100950518D01*
X114369502Y-100830820D01*
X114310537Y-100720506D01*
X114231185Y-100623815D01*
X114134494Y-100544463D01*
X114024180Y-100485498D01*
X113904482Y-100449188D01*
X113780000Y-100436928D01*
X112280000Y-100436928D01*
X112155518Y-100449188D01*
X112035820Y-100485498D01*
X111925506Y-100544463D01*
X111828815Y-100623815D01*
X111749463Y-100720506D01*
X111690498Y-100830820D01*
X111654188Y-100950518D01*
X111641928Y-101075000D01*
X111641928Y-102125000D01*
X111654188Y-102249482D01*
X111690498Y-102369180D01*
X111725093Y-102433902D01*
X111661785Y-102642600D01*
X111639388Y-102870000D01*
X108006778Y-102870000D01*
X107981185Y-102838815D01*
X107884494Y-102759463D01*
X107774180Y-102700498D01*
X107654482Y-102664188D01*
X107530000Y-102651928D01*
X105830000Y-102651928D01*
X105705518Y-102664188D01*
X105585820Y-102700498D01*
X105475506Y-102759463D01*
X105378815Y-102838815D01*
X105299463Y-102935506D01*
X105240498Y-103045820D01*
X105204188Y-103165518D01*
X105191928Y-103290000D01*
X105191928Y-104990000D01*
X105204188Y-105114482D01*
X105240498Y-105234180D01*
X105299463Y-105344494D01*
X105378815Y-105441185D01*
X105475506Y-105520537D01*
X105585820Y-105579502D01*
X105654687Y-105600393D01*
X105624866Y-105624866D01*
X105439294Y-105850986D01*
X105301401Y-106108966D01*
X105216487Y-106388889D01*
X105187815Y-106680000D01*
X94639017Y-106680000D01*
X94835131Y-106562385D01*
X95043519Y-106373414D01*
X95211037Y-106147420D01*
X95331246Y-105893087D01*
X95371904Y-105759039D01*
X95249915Y-105537000D01*
X94107000Y-105537000D01*
X93853000Y-105537000D01*
X92710085Y-105537000D01*
X92588096Y-105759039D01*
X85213684Y-105759039D01*
X85255000Y-105551335D01*
X85255000Y-105268665D01*
X85213685Y-105060961D01*
X92588096Y-105060961D01*
X92710085Y-105283000D01*
X93853000Y-105283000D01*
X93853000Y-104139376D01*
X94107000Y-104139376D01*
X94107000Y-105283000D01*
X95249915Y-105283000D01*
X95371904Y-105060961D01*
X95331246Y-104926913D01*
X95211037Y-104672580D01*
X95043519Y-104446586D01*
X94835131Y-104257615D01*
X94593881Y-104112930D01*
X94329040Y-104018091D01*
X94107000Y-104139376D01*
X93853000Y-104139376D01*
X93630960Y-104018091D01*
X93366119Y-104112930D01*
X93124869Y-104257615D01*
X92916481Y-104446586D01*
X92748963Y-104672580D01*
X92628754Y-104926913D01*
X92588096Y-105060961D01*
X85213685Y-105060961D01*
X85199853Y-104991426D01*
X85091680Y-104730273D01*
X84934637Y-104495241D01*
X84734759Y-104295363D01*
X84499727Y-104138320D01*
X84238574Y-104030147D01*
X83961335Y-103975000D01*
X83678665Y-103975000D01*
X83401426Y-104030147D01*
X83140273Y-104138320D01*
X82905241Y-104295363D01*
X82705363Y-104495241D01*
X82548320Y-104730273D01*
X82440147Y-104991426D01*
X82385000Y-105268665D01*
X80116692Y-105268665D01*
X80108215Y-105182600D01*
X80044907Y-104973902D01*
X80079502Y-104909180D01*
X80115812Y-104789482D01*
X80128072Y-104665000D01*
X80125000Y-104425750D01*
X79966250Y-104267000D01*
X79193109Y-104267000D01*
X79192400Y-104266785D01*
X79021979Y-104250000D01*
X78458021Y-104250000D01*
X78287600Y-104266785D01*
X78286891Y-104267000D01*
X77513750Y-104267000D01*
X77355000Y-104425750D01*
X77351928Y-104665000D01*
X77364188Y-104789482D01*
X77400498Y-104909180D01*
X77435093Y-104973902D01*
X77371785Y-105182600D01*
X77349388Y-105410000D01*
X61087000Y-105410000D01*
X61087000Y-103226891D01*
X62058519Y-103226891D01*
X62155843Y-103501252D01*
X62304822Y-103751355D01*
X62499731Y-103967588D01*
X62733080Y-104141641D01*
X62995901Y-104266825D01*
X63143110Y-104311476D01*
X63373000Y-104190155D01*
X63373000Y-102997000D01*
X63627000Y-102997000D01*
X63627000Y-104190155D01*
X63856890Y-104311476D01*
X64004099Y-104266825D01*
X64266920Y-104141641D01*
X64500269Y-103967588D01*
X64695178Y-103751355D01*
X64770000Y-103625745D01*
X64844822Y-103751355D01*
X65039731Y-103967588D01*
X65273080Y-104141641D01*
X65535901Y-104266825D01*
X65683110Y-104311476D01*
X65913000Y-104190155D01*
X65913000Y-102997000D01*
X66167000Y-102997000D01*
X66167000Y-104190155D01*
X66396890Y-104311476D01*
X66544099Y-104266825D01*
X66806920Y-104141641D01*
X67040269Y-103967588D01*
X67235178Y-103751355D01*
X67310000Y-103625745D01*
X67384822Y-103751355D01*
X67579731Y-103967588D01*
X67813080Y-104141641D01*
X68075901Y-104266825D01*
X68223110Y-104311476D01*
X68453000Y-104190155D01*
X68453000Y-102997000D01*
X68707000Y-102997000D01*
X68707000Y-104190155D01*
X68936890Y-104311476D01*
X69084099Y-104266825D01*
X69346920Y-104141641D01*
X69580269Y-103967588D01*
X69775178Y-103751355D01*
X69856400Y-103615000D01*
X77351928Y-103615000D01*
X77355000Y-103854250D01*
X77513750Y-104013000D01*
X78613000Y-104013000D01*
X78613000Y-103138750D01*
X78867000Y-103138750D01*
X78867000Y-104013000D01*
X79966250Y-104013000D01*
X80125000Y-103854250D01*
X80128072Y-103615000D01*
X80115812Y-103490518D01*
X80079502Y-103370820D01*
X80020537Y-103260506D01*
X79941185Y-103163815D01*
X79844494Y-103084463D01*
X79734180Y-103025498D01*
X79614482Y-102989188D01*
X79490000Y-102976928D01*
X79025750Y-102980000D01*
X78867000Y-103138750D01*
X78613000Y-103138750D01*
X78454250Y-102980000D01*
X77990000Y-102976928D01*
X77865518Y-102989188D01*
X77745820Y-103025498D01*
X77635506Y-103084463D01*
X77538815Y-103163815D01*
X77459463Y-103260506D01*
X77400498Y-103370820D01*
X77364188Y-103490518D01*
X77351928Y-103615000D01*
X69856400Y-103615000D01*
X69924157Y-103501252D01*
X70021481Y-103226891D01*
X69900814Y-102997000D01*
X68707000Y-102997000D01*
X68453000Y-102997000D01*
X66167000Y-102997000D01*
X65913000Y-102997000D01*
X63627000Y-102997000D01*
X63373000Y-102997000D01*
X62179186Y-102997000D01*
X62058519Y-103226891D01*
X61087000Y-103226891D01*
X61087000Y-91026188D01*
X61166481Y-91133414D01*
X61374869Y-91322385D01*
X61616119Y-91467070D01*
X61880960Y-91561909D01*
X62103000Y-91440624D01*
X62103000Y-90297000D01*
X62083000Y-90297000D01*
X62083000Y-90043000D01*
X62103000Y-90043000D01*
X62103000Y-90023000D01*
X62357000Y-90023000D01*
X62357000Y-90043000D01*
X62377000Y-90043000D01*
X62377000Y-90297000D01*
X62357000Y-90297000D01*
X62357000Y-91440624D01*
X62579040Y-91561909D01*
X62740001Y-91504269D01*
X62740001Y-98841928D01*
X62650000Y-98841928D01*
X62525518Y-98854188D01*
X62405820Y-98890498D01*
X62295506Y-98949463D01*
X62198815Y-99028815D01*
X62119463Y-99125506D01*
X62060498Y-99235820D01*
X62024188Y-99355518D01*
X62011928Y-99480000D01*
X62011928Y-101180000D01*
X62024188Y-101304482D01*
X62060498Y-101424180D01*
X62119463Y-101534494D01*
X62198815Y-101631185D01*
X62295506Y-101710537D01*
X62405820Y-101769502D01*
X62481626Y-101792498D01*
X62304822Y-101988645D01*
X62155843Y-102238748D01*
X62058519Y-102513109D01*
X62179186Y-102743000D01*
X63373000Y-102743000D01*
X63373000Y-102723000D01*
X63627000Y-102723000D01*
X63627000Y-102743000D01*
X65913000Y-102743000D01*
X65913000Y-102723000D01*
X66167000Y-102723000D01*
X66167000Y-102743000D01*
X68453000Y-102743000D01*
X68453000Y-102723000D01*
X68707000Y-102723000D01*
X68707000Y-102743000D01*
X69900814Y-102743000D01*
X70021481Y-102513109D01*
X69924157Y-102238748D01*
X69775178Y-101988645D01*
X69580269Y-101772412D01*
X69351244Y-101601584D01*
X69409014Y-101570706D01*
X69545536Y-101458665D01*
X82385000Y-101458665D01*
X82385000Y-101741335D01*
X82440147Y-102018574D01*
X82548320Y-102279727D01*
X82705363Y-102514759D01*
X82905241Y-102714637D01*
X83140273Y-102871680D01*
X83401426Y-102979853D01*
X83678665Y-103035000D01*
X83961335Y-103035000D01*
X84238574Y-102979853D01*
X84499727Y-102871680D01*
X84734759Y-102714637D01*
X84934637Y-102514759D01*
X85091680Y-102279727D01*
X85199853Y-102018574D01*
X85255000Y-101741335D01*
X85255000Y-101458665D01*
X85199853Y-101181426D01*
X85091680Y-100920273D01*
X84934637Y-100685241D01*
X84734759Y-100485363D01*
X84499727Y-100328320D01*
X84238574Y-100220147D01*
X83961335Y-100165000D01*
X83678665Y-100165000D01*
X83401426Y-100220147D01*
X83140273Y-100328320D01*
X82905241Y-100485363D01*
X82705363Y-100685241D01*
X82548320Y-100920273D01*
X82440147Y-101181426D01*
X82385000Y-101458665D01*
X69545536Y-101458665D01*
X69635134Y-101385134D01*
X69820706Y-101159014D01*
X69958599Y-100901034D01*
X70043513Y-100621111D01*
X70072185Y-100330000D01*
X70043513Y-100038889D01*
X69958599Y-99758966D01*
X69820706Y-99500986D01*
X69635134Y-99274866D01*
X69409014Y-99089294D01*
X69151034Y-98951401D01*
X68871111Y-98866487D01*
X68652950Y-98845000D01*
X68507050Y-98845000D01*
X68288889Y-98866487D01*
X68008966Y-98951401D01*
X67750986Y-99089294D01*
X67524866Y-99274866D01*
X67339294Y-99500986D01*
X67310000Y-99555791D01*
X67280706Y-99500986D01*
X67095134Y-99274866D01*
X66869014Y-99089294D01*
X66611034Y-98951401D01*
X66331111Y-98866487D01*
X66112950Y-98845000D01*
X65967050Y-98845000D01*
X65748889Y-98866487D01*
X65468966Y-98951401D01*
X65210986Y-99089294D01*
X64984866Y-99274866D01*
X64960393Y-99304687D01*
X64939502Y-99235820D01*
X64880537Y-99125506D01*
X64801185Y-99028815D01*
X64704494Y-98949463D01*
X64594180Y-98890498D01*
X64474482Y-98854188D01*
X64350000Y-98841928D01*
X64260000Y-98841928D01*
X64260000Y-82807322D01*
X64263676Y-82770000D01*
X64260000Y-82732677D01*
X64260000Y-82732667D01*
X64249003Y-82621014D01*
X64205546Y-82477753D01*
X64134974Y-82345724D01*
X64040001Y-82229999D01*
X64010998Y-82206197D01*
X63843804Y-82039003D01*
X63820001Y-82009999D01*
X63704276Y-81915026D01*
X63668072Y-81895674D01*
X63668072Y-81750000D01*
X63655812Y-81625518D01*
X63619502Y-81505820D01*
X63560537Y-81395506D01*
X63481185Y-81298815D01*
X63384494Y-81219463D01*
X63274180Y-81160498D01*
X63154482Y-81124188D01*
X63030000Y-81111928D01*
X61430000Y-81111928D01*
X61305518Y-81124188D01*
X61185820Y-81160498D01*
X61087000Y-81213319D01*
X61087000Y-71476891D01*
X63328519Y-71476891D01*
X63425843Y-71751252D01*
X63574822Y-72001355D01*
X63769731Y-72217588D01*
X64003080Y-72391641D01*
X64265901Y-72516825D01*
X64413110Y-72561476D01*
X64643000Y-72440155D01*
X64643000Y-71247000D01*
X63449186Y-71247000D01*
X63328519Y-71476891D01*
X61087000Y-71476891D01*
X61087000Y-70763109D01*
X63328519Y-70763109D01*
X63449186Y-70993000D01*
X64643000Y-70993000D01*
X64643000Y-69799845D01*
X64897000Y-69799845D01*
X64897000Y-70993000D01*
X64917000Y-70993000D01*
X64917000Y-71247000D01*
X64897000Y-71247000D01*
X64897000Y-72440155D01*
X65126890Y-72561476D01*
X65274099Y-72516825D01*
X65536920Y-72391641D01*
X65770269Y-72217588D01*
X65846034Y-72133534D01*
X65870498Y-72214180D01*
X65929463Y-72324494D01*
X66008815Y-72421185D01*
X66105506Y-72500537D01*
X66215820Y-72559502D01*
X66335518Y-72595812D01*
X66460000Y-72608072D01*
X68160000Y-72608072D01*
X68284482Y-72595812D01*
X68404180Y-72559502D01*
X68514494Y-72500537D01*
X68611185Y-72421185D01*
X68690537Y-72324494D01*
X68749502Y-72214180D01*
X68785812Y-72094482D01*
X68798072Y-71970000D01*
X68798072Y-70270000D01*
X68785812Y-70145518D01*
X68749502Y-70025820D01*
X68690537Y-69915506D01*
X68611185Y-69818815D01*
X68514494Y-69739463D01*
X68404180Y-69680498D01*
X68284482Y-69644188D01*
X68160000Y-69631928D01*
X66460000Y-69631928D01*
X66335518Y-69644188D01*
X66215820Y-69680498D01*
X66105506Y-69739463D01*
X66008815Y-69818815D01*
X65929463Y-69915506D01*
X65870498Y-70025820D01*
X65846034Y-70106466D01*
X65770269Y-70022412D01*
X65536920Y-69848359D01*
X65274099Y-69723175D01*
X65126890Y-69678524D01*
X64897000Y-69799845D01*
X64643000Y-69799845D01*
X64413110Y-69678524D01*
X64265901Y-69723175D01*
X64003080Y-69848359D01*
X63769731Y-70022412D01*
X63574822Y-70238645D01*
X63425843Y-70488748D01*
X63328519Y-70763109D01*
X61087000Y-70763109D01*
X61087000Y-68707000D01*
X129413000Y-68707000D01*
X129413000Y-70171931D01*
G36*
X129413000Y-107093812D02*
G01*
X129333519Y-106986586D01*
X129125131Y-106797615D01*
X128883881Y-106652930D01*
X128619040Y-106558091D01*
X128397000Y-106679376D01*
X128397000Y-107823000D01*
X128417000Y-107823000D01*
X128417000Y-108077000D01*
X128397000Y-108077000D01*
X128397000Y-109220624D01*
X128619040Y-109341909D01*
X128883881Y-109247070D01*
X129125131Y-109102385D01*
X129333519Y-108913414D01*
X129413000Y-108806188D01*
X129413000Y-110890746D01*
X129289608Y-110740392D01*
X129071101Y-110561068D01*
X128821808Y-110427818D01*
X128551309Y-110345764D01*
X128340492Y-110325000D01*
X128199508Y-110325000D01*
X127988691Y-110345764D01*
X127944094Y-110359292D01*
X127760000Y-110175199D01*
X127760000Y-109284270D01*
X127920960Y-109341909D01*
X128143000Y-109220624D01*
X128143000Y-108077000D01*
X128123000Y-108077000D01*
X128123000Y-107823000D01*
X128143000Y-107823000D01*
X128143000Y-106679376D01*
X127920960Y-106558091D01*
X127760000Y-106615730D01*
X127760000Y-105481983D01*
X127851426Y-105519853D01*
X128128665Y-105575000D01*
X128411335Y-105575000D01*
X128688574Y-105519853D01*
X128949727Y-105411680D01*
X129184759Y-105254637D01*
X129384637Y-105054759D01*
X129413000Y-105012311D01*
X129413000Y-107093812D01*
X129413000Y-107093812D01*
G37*
X129413000Y-107093812D02*
X129333519Y-106986586D01*
X129125131Y-106797615D01*
X128883881Y-106652930D01*
X128619040Y-106558091D01*
X128397000Y-106679376D01*
X128397000Y-107823000D01*
X128417000Y-107823000D01*
X128417000Y-108077000D01*
X128397000Y-108077000D01*
X128397000Y-109220624D01*
X128619040Y-109341909D01*
X128883881Y-109247070D01*
X129125131Y-109102385D01*
X129333519Y-108913414D01*
X129413000Y-108806188D01*
X129413000Y-110890746D01*
X129289608Y-110740392D01*
X129071101Y-110561068D01*
X128821808Y-110427818D01*
X128551309Y-110345764D01*
X128340492Y-110325000D01*
X128199508Y-110325000D01*
X127988691Y-110345764D01*
X127944094Y-110359292D01*
X127760000Y-110175199D01*
X127760000Y-109284270D01*
X127920960Y-109341909D01*
X128143000Y-109220624D01*
X128143000Y-108077000D01*
X128123000Y-108077000D01*
X128123000Y-107823000D01*
X128143000Y-107823000D01*
X128143000Y-106679376D01*
X127920960Y-106558091D01*
X127760000Y-106615730D01*
X127760000Y-105481983D01*
X127851426Y-105519853D01*
X128128665Y-105575000D01*
X128411335Y-105575000D01*
X128688574Y-105519853D01*
X128949727Y-105411680D01*
X129184759Y-105254637D01*
X129384637Y-105054759D01*
X129413000Y-105012311D01*
X129413000Y-107093812D01*
G36*
X129413000Y-94393812D02*
G01*
X129333519Y-94286586D01*
X129125131Y-94097615D01*
X128883881Y-93952930D01*
X128619040Y-93858091D01*
X128397000Y-93979376D01*
X128397000Y-95123000D01*
X128417000Y-95123000D01*
X128417000Y-95377000D01*
X128397000Y-95377000D01*
X128397000Y-96520624D01*
X128619040Y-96641909D01*
X128883881Y-96547070D01*
X129125131Y-96402385D01*
X129333519Y-96213414D01*
X129413000Y-96106188D01*
X129413000Y-99460746D01*
X129289608Y-99310392D01*
X129071101Y-99131068D01*
X128821808Y-98997818D01*
X128551309Y-98915764D01*
X128340492Y-98895000D01*
X128199508Y-98895000D01*
X127988691Y-98915764D01*
X127760000Y-98985136D01*
X127760000Y-96584270D01*
X127920960Y-96641909D01*
X128143000Y-96520624D01*
X128143000Y-95377000D01*
X128123000Y-95377000D01*
X128123000Y-95123000D01*
X128143000Y-95123000D01*
X128143000Y-93979376D01*
X127920960Y-93858091D01*
X127760000Y-93915730D01*
X127760000Y-93024801D01*
X127944094Y-92840708D01*
X127988691Y-92854236D01*
X128199508Y-92875000D01*
X128340492Y-92875000D01*
X128551309Y-92854236D01*
X128821808Y-92772182D01*
X129071101Y-92638932D01*
X129289608Y-92459608D01*
X129413000Y-92309254D01*
X129413000Y-94393812D01*
X129413000Y-94393812D01*
G37*
X129413000Y-94393812D02*
X129333519Y-94286586D01*
X129125131Y-94097615D01*
X128883881Y-93952930D01*
X128619040Y-93858091D01*
X128397000Y-93979376D01*
X128397000Y-95123000D01*
X128417000Y-95123000D01*
X128417000Y-95377000D01*
X128397000Y-95377000D01*
X128397000Y-96520624D01*
X128619040Y-96641909D01*
X128883881Y-96547070D01*
X129125131Y-96402385D01*
X129333519Y-96213414D01*
X129413000Y-96106188D01*
X129413000Y-99460746D01*
X129289608Y-99310392D01*
X129071101Y-99131068D01*
X128821808Y-98997818D01*
X128551309Y-98915764D01*
X128340492Y-98895000D01*
X128199508Y-98895000D01*
X127988691Y-98915764D01*
X127760000Y-98985136D01*
X127760000Y-96584270D01*
X127920960Y-96641909D01*
X128143000Y-96520624D01*
X128143000Y-95377000D01*
X128123000Y-95377000D01*
X128123000Y-95123000D01*
X128143000Y-95123000D01*
X128143000Y-93979376D01*
X127920960Y-93858091D01*
X127760000Y-93915730D01*
X127760000Y-93024801D01*
X127944094Y-92840708D01*
X127988691Y-92854236D01*
X128199508Y-92875000D01*
X128340492Y-92875000D01*
X128551309Y-92854236D01*
X128821808Y-92772182D01*
X129071101Y-92638932D01*
X129289608Y-92459608D01*
X129413000Y-92309254D01*
X129413000Y-94393812D01*
M02*
